<svg width="7" height="11" viewBox="0 0 7 11" fill="none" xmlns="http://www.w3.org/2000/svg">
<path d="M0.992693 5.22858L0.992673 5.2286C0.835776 5.37783 0.835776 5.62075 0.992673 5.76999L5.45629 10.0156C5.60964 10.1615 5.85397 10.1615 6.00733 10.0156L5.92118 9.92503L6.00733 10.0156C6.16422 9.86637 6.16422 9.62344 6.00733 9.47421L1.82928 5.50021L6.00534 1.52626L6.00536 1.52624L5.9192 1.43569C6.02429 1.33573 6.02429 1.17541 5.9192 1.07544L0.992693 5.22858ZM0.992693 5.22858L5.45629 0.984872C5.53159 0.913249 5.63203 0.875 5.73082 0.875C5.82714 0.875 5.92888 0.909792 6.0062 0.985686L0.992693 5.22858Z" fill="#6D94B1" stroke="#6D94B1" stroke-width="0.25"/>
</svg>
