<svg width="38" height="38" viewBox="0 0 38 38" fill="none" xmlns="http://www.w3.org/2000/svg">
<path d="M15.9355 9.19341C15.9355 8.17967 16.7605 7.35471 17.7742 7.35471H20.8387V6.12891H17.7742C16.0844 6.12891 14.7097 7.50364 14.7097 9.19341H13.9521L0 16.1695V19.6127H1.22581V22.0643H2.45161V31.8708H1.22581V34.3224H0V37.9998H30.6452V34.3224H29.4194V31.8708H28.1936V22.0643H29.4194V19.6127H30.6452V16.1695L16.693 9.19341H15.9355ZM2.45161 33.0966H6.12903V34.3224H2.45161V33.0966ZM9.80646 22.0643V31.8708H8.58065V34.3224H7.35484V31.8708H6.12903V22.0643H7.35484V19.6127H8.58065V22.0643H9.80646ZM17.1613 22.0643V31.8708H15.9355V34.3224H14.7097V31.8708H13.4839V22.0643H14.7097V19.6127H15.9355V22.0643H17.1613ZM24.5161 22.0643V31.8708H23.2903V34.3224H22.0645V31.8708H20.8387V22.0643H22.0645V19.6127H23.2903V22.0643H24.5161ZM28.1936 33.0966V34.3224H24.5161V33.0966H28.1936ZM25.7419 31.8708V22.0643H26.9678V31.8708H25.7419ZM20.8387 20.8385H17.1613V19.6127H20.8387V20.8385ZM19.6129 22.0643V31.8708H18.3871V22.0643H19.6129ZM20.8387 33.0966V34.3224H17.1613V33.0966H20.8387ZM13.4839 20.8385H9.80646V19.6127H13.4839V20.8385ZM12.2581 22.0643V31.8708H11.0323V22.0643H12.2581ZM13.4839 33.0966V34.3224H9.80646V33.0966H13.4839ZM6.12903 20.8385H2.45161V19.6127H6.12903V20.8385ZM4.90323 22.0643V31.8708H3.67742V22.0643H4.90323ZM29.4194 35.5482V36.774H1.22581V35.5482H29.4194ZM28.1936 20.8385H24.5161V19.6127H28.1936V20.8385ZM29.4194 18.3869H23.2903H22.0645H15.9355H14.7097H8.58065H7.35484H1.22581V16.927L14.2414 10.4192H14.7097V14.7095H15.9355V10.4192H16.4037L29.4194 16.927V18.3869Z" fill="#6D94B1"/>
<path d="M25.743 15.9355H4.9043V17.1613H25.743V15.9355Z" fill="#6D94B1"/>
<path d="M31.2576 0C27.5403 0 24.5156 3.02467 24.5156 6.74191C24.5156 10.4592 27.5403 13.4838 31.2576 13.4838C34.9748 13.4838 37.9995 10.4592 37.9995 6.74191C37.9995 3.02467 34.9748 0 31.2576 0ZM31.2576 12.258C28.2157 12.258 25.7414 9.78374 25.7414 6.74191C25.7414 3.70009 28.2157 1.2258 31.2576 1.2258C34.2994 1.2258 36.7737 3.70009 36.7737 6.74191C36.7737 9.78374 34.2994 12.258 31.2576 12.258Z" fill="#6D94B1"/>
<path d="M23.2903 6.12891H22.0645V7.35471H23.2903V6.12891Z" fill="#6D94B1"/>
<path d="M34.3227 23.9021C34.3227 24.9159 33.4977 25.7408 32.484 25.7408H31.8711V26.9666H32.484C34.1738 26.9666 35.5485 25.5919 35.5485 23.9021V14.0957H34.3227V23.9021Z" fill="#6D94B1"/>
<path d="M30.6457 25.7422H29.4199V26.968H30.6457V25.7422Z" fill="#6D94B1"/>
<path d="M32.165 6.9339C33.3034 6.9339 34.2265 6.06403 34.1994 5.00458C34.1731 3.97606 33.2381 3.16602 32.1269 3.16602H30.0234C29.9025 3.16602 29.8045 3.25671 29.8045 3.36865V3.6361V5.99373H28.7189C28.598 5.99373 28.5 6.08442 28.5 6.19636V6.73124C28.5 6.84317 28.598 6.93387 28.7189 6.93387H29.8045V7.47969H28.7189C28.598 7.47969 28.5 7.57038 28.5 7.68232V8.21719C28.5 8.32913 28.598 8.41982 28.7189 8.41982H29.8045V9.29344C29.8045 9.40718 29.9041 9.49933 30.0269 9.49933H30.5976C30.7204 9.49933 30.82 9.40718 30.82 9.29344V8.41989H32.5902C32.7111 8.41989 32.8091 8.32917 32.8091 8.21726V7.68239C32.8091 7.57045 32.7111 7.47976 32.5902 7.47976H30.82V6.93393L32.165 6.9339ZM33.1844 5.04996C33.1844 5.57035 32.7271 5.99373 32.165 5.99373H30.82V4.10615H32.165C32.7271 4.10619 33.1844 4.52953 33.1844 5.04996Z" fill="#6D94B1"/>
</svg>
