<svg width="11" height="7" viewBox="0 0 11 7" fill="none" xmlns="http://www.w3.org/2000/svg">
<path d="M5.22858 6.00731L5.2286 6.00733C5.37783 6.16422 5.62075 6.16422 5.76999 6.00733L10.0156 1.54371C10.1615 1.39036 10.1615 1.14603 10.0156 0.992673L9.92503 1.07882L10.0156 0.992673C9.86636 0.835776 9.62344 0.835776 9.47421 0.992673L5.50021 5.17072L1.52626 0.994656L1.52624 0.994635L1.43569 1.08081C1.33573 0.975709 1.17541 0.975709 1.07544 1.08081L5.22858 6.00731ZM5.22858 6.00731L0.984872 1.54371C0.913249 1.46841 0.875 1.36797 0.875 1.26918C0.875 1.17286 0.909792 1.07112 0.985686 0.993803L5.22858 6.00731Z" fill="#454545" stroke="#454545" stroke-width="0.25"/>
</svg>
