<svg width="48" height="51" viewBox="0 0 48 51" fill="none" xmlns="http://www.w3.org/2000/svg">
<path d="M40.6429 40.6121C41.4624 40.4726 42.262 40.4327 42.9816 40.1735C44.4408 39.6353 45.2604 38.479 45.5002 36.9639C46.3398 31.7807 47.1593 26.5975 47.9589 21.4342C48.2387 19.6201 47.0594 17.9256 45.3603 17.6665C43.4414 17.3674 41.8422 18.5237 41.5424 20.4375C41.1226 22.9693 40.7428 25.4811 40.3431 28.0129C40.3231 28.1724 40.2431 28.312 40.1831 28.4515C40.1232 28.4316 40.0632 28.4316 40.0032 28.4116C40.0032 28.2322 39.9833 28.0329 39.9833 27.8534C39.9833 24.0458 39.9633 20.2381 39.9833 16.4504C39.9833 14.2575 39.6834 12.1244 38.8439 10.0711C37.3447 6.40294 34.8461 3.63192 31.328 1.79786C28.5095 0.322642 25.4912 -0.255485 22.3329 0.103352C17.8954 0.581802 14.2773 2.59528 11.4789 6.06404C9.53994 8.45629 8.42056 11.2273 8.10073 14.2774C7.9808 15.5134 8.00079 16.7694 8.00079 18.0054C7.9808 21.2748 8.00079 24.5442 8.00079 27.8136C8.00079 27.993 8.00079 28.1924 8.00079 28.3718C7.94082 28.3917 7.88085 28.3917 7.82088 28.4116C7.76092 28.2721 7.70095 28.1325 7.68096 27.993C7.28118 25.4811 6.8814 22.9693 6.48162 20.4773C6.26174 19.1616 5.56212 18.1848 4.28283 17.7661C3.00353 17.3475 1.84416 17.6465 0.904675 18.6034C0.145092 19.3809 -0.114761 20.3378 0.0451508 21.3944C0.8647 26.5776 1.68425 31.7608 2.5038 36.9241C2.84361 39.0173 4.38277 40.3729 6.5216 40.4526C6.80145 40.4726 7.08129 40.4526 7.40112 40.4526C7.00134 42.0873 6.62154 43.6423 6.24175 45.1973C6.00188 46.1741 5.76202 47.131 5.54214 48.0879C5.2423 49.3837 5.86196 50.54 7.0613 50.8988C8.22066 51.2576 9.36004 50.6396 9.81979 49.4036C10.8792 46.5728 11.9186 43.742 12.9381 40.9111C13.058 40.5922 13.1979 40.4526 13.5777 40.4526C18.7549 40.4726 23.9321 40.4726 29.1092 40.4726C29.2891 40.4726 29.469 40.4726 29.6489 40.4526C30.0287 40.3928 30.2486 40.1735 30.2686 39.7948C30.2886 39.416 30.1287 39.1369 29.7489 39.0572C29.509 38.9973 29.2491 38.9973 29.0093 38.9973C21.6133 38.9973 14.2174 38.9973 6.82143 38.9973C5.92193 38.9973 5.10238 38.798 4.56267 38.0604C4.28283 37.6816 4.06295 37.1832 3.98299 36.7048C3.14345 31.5415 2.32389 26.3782 1.50434 21.215C1.34443 20.1584 1.94411 19.2613 2.92357 19.1018C3.963 18.9423 4.80254 19.5603 4.98244 20.6568C5.68206 25.0824 6.38168 29.5081 7.08129 33.9338C7.2412 34.9704 7.78091 35.409 8.90029 35.4289C11.7987 35.4289 14.6971 35.4289 17.5955 35.4289C24.7116 35.4289 31.8277 35.4289 38.9238 35.4289C39.2836 35.4289 39.6634 35.409 40.0032 35.2894C40.6429 35.0501 40.8428 34.4919 40.9427 33.8739C41.6423 29.4882 42.342 25.0824 43.0416 20.6966C43.2215 19.5603 44.061 18.9423 45.1204 19.1217C46.0799 19.2812 46.6596 20.1982 46.4997 21.2548C45.6801 26.3583 44.8606 31.4817 44.061 36.5852C43.8211 38.1401 42.8817 38.9575 41.3025 38.9575C38.4641 38.9575 31.0082 38.9575 28.1697 38.9575C27.3702 38.9575 26.9904 39.2166 27.0104 39.735C27.0304 40.2333 27.3702 40.4526 28.1697 40.4526C28.7294 40.4526 33.9066 40.4726 34.4663 40.4526C34.8261 40.4327 34.986 40.5523 35.1059 40.8912C36.1254 43.7021 37.1448 46.4931 38.1842 49.304C38.664 50.6197 39.7834 51.2576 40.9827 50.8988C42.182 50.5599 42.8217 49.4036 42.5019 48.1078C41.9222 45.6757 41.3225 43.2436 40.7228 40.8115C40.6629 40.7517 40.6429 40.652 40.6429 40.6121ZM9.47998 28.4116C9.47998 28.1325 9.47998 27.9133 9.47998 27.674C9.47998 23.8863 9.47998 20.0986 9.47998 16.3108C9.47998 15.6729 9.49996 15.0549 9.55993 14.417C9.95971 11.0878 11.299 8.19713 13.6577 5.80488C16.1163 3.35282 19.0747 1.89754 22.5728 1.59851C27.5701 1.15993 31.7678 2.87437 35.046 6.6621C37.1448 9.07429 38.3242 11.945 38.4041 15.1546C38.5041 19.4606 38.4441 23.7667 38.4641 28.0528C38.4641 28.1525 38.4441 28.2721 38.4241 28.4116C38.2442 28.4116 38.1043 28.4116 37.9444 28.4116C31.5879 28.4116 25.2113 28.4116 18.8548 28.4116C18.6949 28.4116 15.1169 28.3917 14.957 28.4316C14.5572 28.5113 14.2973 28.7505 14.3173 29.1891C14.3373 29.6078 14.5972 29.847 14.9969 29.9068C15.1768 29.9267 18.7549 29.9267 18.9348 29.9267C25.7511 29.9267 32.5673 29.9267 39.3636 29.9267C39.5635 29.9267 39.7634 29.9267 40.0032 29.9267C39.7834 31.3023 39.5635 32.618 39.3636 33.9138C29.0492 33.9138 18.8149 33.9138 8.54049 33.9138C8.32061 32.5781 8.12072 31.2624 7.90084 29.9267C7.72094 29.9267 8.14071 29.9267 7.90084 29.9267C10.1996 29.9267 13.098 29.9267 15.3967 29.9267C15.9964 29.9267 16.3362 29.6676 16.3362 29.2091C16.3562 28.7306 16.0164 28.4316 15.3967 28.4316C13.8776 28.4316 12.3584 28.4316 10.8592 28.4316C10.4394 28.4116 9.9797 28.4116 9.47998 28.4116ZM36.5052 40.4925C37.2448 40.4925 37.9244 40.5124 38.604 40.4925C38.9638 40.4726 39.0837 40.6121 39.1637 40.951C39.6434 42.9446 40.1432 44.9381 40.6229 46.9316C40.7628 47.4699 40.9027 48.0281 41.0227 48.5663C41.1226 49.0647 40.9227 49.4036 40.503 49.5033C40.0432 49.6229 39.7834 49.3837 39.6234 48.985C39.5835 48.9052 39.5635 48.8255 39.5435 48.7458C38.664 46.3735 37.8044 43.9812 36.9249 41.6089C36.765 41.25 36.6451 40.9111 36.5052 40.4925ZM11.4389 40.4925C11.3789 40.6919 11.3589 40.7915 11.319 40.9111C10.3395 43.5626 9.38003 46.194 8.40057 48.8255C8.20068 49.3837 7.88085 49.603 7.46108 49.5033C7.00134 49.3837 6.82143 48.985 6.98135 48.367C7.10128 47.8487 7.2412 47.3304 7.36114 46.832C7.84087 44.8584 8.3406 42.8848 8.82034 40.8912C8.8803 40.6719 8.8803 40.4726 9.20013 40.4925C9.89974 40.5124 10.6393 40.4925 11.4389 40.4925Z" fill="#676766"/>
<path d="M23.8718 15.2337C24.9112 15.1739 25.6908 14.7951 26.2305 13.9977C26.4903 13.6189 26.4304 13.1804 26.0905 12.9411C25.7507 12.682 25.3709 12.7418 25.0311 13.1205C24.4314 13.7984 23.8718 13.9379 23.3121 13.5392C23.1522 13.4196 23.0322 13.2601 22.8923 13.1205C22.5525 12.7617 22.1727 12.7019 21.8329 12.9611C21.4931 13.2202 21.4531 13.6189 21.7329 14.0176C22.2327 14.7553 23.0922 15.2138 23.8718 15.2337Z" fill="#676766"/>
<path d="M17.5756 12.9806C17.3557 12.9806 17.1358 12.9407 16.9359 12.9806C16.5562 13.0604 16.3163 13.2996 16.3163 13.6983C16.3163 14.097 16.5362 14.3761 16.9359 14.416C17.3757 14.4758 17.8355 14.4558 18.2752 14.4359C18.675 14.396 18.9149 14.1369 18.9149 13.7382C18.9348 13.3195 18.695 13.0404 18.2752 12.9806C18.0353 12.9407 17.8155 12.9806 17.5756 12.9806Z" fill="#676766"/>
<path d="M30.3686 14.457C30.5485 14.457 30.7284 14.4769 30.9083 14.457C31.3481 14.4171 31.6279 14.1181 31.6279 13.7194C31.6279 13.3207 31.3481 13.0017 30.9083 12.9817C30.5285 12.9618 30.1487 12.9618 29.7689 12.9817C29.3092 13.0017 29.0094 13.3406 29.0094 13.7393C29.0294 14.138 29.3092 14.4171 29.749 14.457C29.9688 14.457 30.1687 14.457 30.3686 14.457Z" fill="#676766"/>
<path d="M18.3349 10.9684C18.3349 10.769 18.3549 10.5697 18.3349 10.3703C18.2949 9.9716 18.055 9.73238 17.6752 9.69251C17.2954 9.65264 16.9556 9.85199 16.9156 10.2507C16.8557 10.7291 16.8557 11.2275 16.9156 11.7259C16.9556 12.1246 17.2754 12.304 17.6752 12.2841C18.075 12.2642 18.3149 12.025 18.3349 11.6262C18.3549 11.407 18.3349 11.1877 18.3349 10.9684Z" fill="#676766"/>
<path d="M29.5889 11.0087C29.6089 11.2479 29.5889 11.4672 29.6289 11.7064C29.6889 12.0852 29.9487 12.2846 30.3285 12.2846C30.6883 12.3045 30.9882 12.1251 31.0282 11.7862C31.0881 11.2679 31.1081 10.7097 31.0082 10.2113C30.9682 10.0119 30.5684 9.75277 30.3085 9.73283C29.9687 9.69296 29.6889 9.93219 29.6289 10.3309C29.5889 10.5502 29.5889 10.7695 29.5889 11.0087Z" fill="#676766"/>
</svg>
