<svg width="21" height="19" viewBox="0 0 21 19" fill="none" xmlns="http://www.w3.org/2000/svg">
<path d="M10.9767 0C16.5036 0 21 4.03733 21 9C21 10.735 20.4497 12.4153 19.4069 13.868C19.6044 16.047 20.1336 17.6647 20.9021 18.431C21.0036 18.5323 21.029 18.6873 20.9649 18.8153C20.9078 18.9297 20.7912 19 20.6659 19C20.6505 19 20.6348 18.999 20.6191 18.9967C20.4838 18.9777 17.3405 18.526 15.0672 17.2173C13.7759 17.737 12.4007 18 10.9767 18C5.44994 18 0.953516 13.9627 0.953516 9C0.953516 4.03733 5.44994 0 10.9767 0Z" fill="white"/>
</svg>
