<svg width="237" height="237" viewBox="0 0 237 237" fill="none" xmlns="http://www.w3.org/2000/svg">
<path fill-rule="evenodd" clip-rule="evenodd" d="M118.5 229.1C179.583 229.1 229.1 179.583 229.1 118.5C229.1 57.4173 179.583 7.9 118.5 7.9C57.4173 7.9 7.9 57.4173 7.9 118.5C7.9 179.583 57.4173 229.1 118.5 229.1ZM118.5 237C183.946 237 237 183.946 237 118.5C237 53.0543 183.946 0 118.5 0C53.0543 0 0 53.0543 0 118.5C0 183.946 53.0543 237 118.5 237Z" fill="#62667C" fill-opacity="0.1"/>
<path fill-rule="evenodd" clip-rule="evenodd" d="M4.1258 87.3895C1.4356 97.3035 0 107.734 0 118.499C0 183.945 53.0543 236.999 118.5 236.999C183.946 236.999 237 183.945 237 118.499C237 53.1851 184.159 0.212648 118.894 0V7.90005C179.796 8.11266 229.1 57.5482 229.1 118.499C229.1 179.582 179.583 229.099 118.5 229.099C57.4173 229.099 7.9 179.582 7.9 118.499C7.9 108.441 9.24267 98.6963 11.7586 89.4347L4.1258 87.3895Z" fill="#62667C" fill-opacity="0.3"/>
</svg>
