<svg width="203" height="203" viewBox="0 0 203 203" fill="none" xmlns="http://www.w3.org/2000/svg">
<path fill-rule="evenodd" clip-rule="evenodd" d="M101.5 193C152.034 193 193 152.034 193 101.5C193 50.9659 152.034 10 101.5 10C50.9659 10 10 50.9659 10 101.5C10 152.034 50.9659 193 101.5 193ZM101.5 203C157.557 203 203 157.557 203 101.5C203 45.4431 157.557 0 101.5 0C45.4431 0 0 45.4431 0 101.5C0 157.557 45.4431 203 101.5 203Z" fill="#62667C" fill-opacity="0.1"/>
<path fill-rule="evenodd" clip-rule="evenodd" d="M104.822 10.0586C153.816 11.8076 193 52.0771 193 101.499C193 118.29 188.477 134.025 180.582 147.552L189.338 152.393C198.025 137.431 203 120.046 203 101.499C203 46.7285 159.617 2.08984 105.34 0.0703125L104.822 10.0586Z" fill="#62667C" fill-opacity="0.3"/>
</svg>
