<svg width="203" height="203" viewBox="0 0 203 203" fill="none" xmlns="http://www.w3.org/2000/svg">
<path fill-rule="evenodd" clip-rule="evenodd" d="M101.5 193C152.034 193 193 152.034 193 101.5C193 50.9659 152.034 10 101.5 10C50.9659 10 10 50.9659 10 101.5C10 152.034 50.9659 193 101.5 193ZM101.5 203C157.557 203 203 157.557 203 101.5C203 45.4431 157.557 0 101.5 0C45.4431 0 0 45.4431 0 101.5C0 157.557 45.4431 203 101.5 203Z" fill="#62667C" fill-opacity="0.1"/>
<path fill-rule="evenodd" clip-rule="evenodd" d="M105.234 10.0742C154.035 12.0332 193 52.2158 193 101.499C193 152.033 152.033 192.999 101.5 192.999C76.5859 192.999 53.998 183.042 37.498 166.89L30.707 174.235C48.9922 192.035 73.9648 202.999 101.5 202.999C157.557 202.999 203 157.556 203 101.499C203 46.7607 159.67 2.14258 105.438 0.0742188L105.234 10.0742Z" fill="#62667C" fill-opacity="0.3"/>
</svg>
