<svg width="56" height="37" viewBox="0 0 56 37" fill="none" xmlns="http://www.w3.org/2000/svg">
<path d="M47.9872 16.6498C48.2824 15.6416 48.3749 14.6006 48.3749 13.5776C48.3749 6.6422 42.6408 1 35.5925 1C32.8114 1 30.1673 1.86402 27.9463 3.49889C25.7999 5.07853 24.1812 7.329 23.3881 9.8363C23.3619 9.91927 23.2716 10.1102 22.9064 10.0505C22.8741 10.0452 22.8402 10.0461 22.8058 10.0438C22.6857 10.0362 22.5555 10.0297 22.4211 10.0297C18.2409 10.0297 14.5118 12.6895 13.0825 16.6679C13.0612 16.7271 12.9961 16.8665 12.8235 16.8336C12.806 16.8302 12.7885 16.8265 12.7709 16.8232C12.1375 16.6982 11.488 16.635 10.8402 16.635C5.41419 16.635 1 20.9785 1 26.3176C1 31.6565 5.41419 36 10.84 36H45.1596C50.5857 36 55 31.6565 55 26.3176C55 22.1313 52.2151 18.3873 48.1896 17.1057C48.0904 17.0742 47.8827 17.0068 47.9872 16.6498ZM45.1596 34.199H10.84C6.4236 34.199 2.8304 30.6635 2.8304 26.3176C2.8304 21.9718 6.42348 18.4361 10.84 18.4361C11.3819 18.4361 11.9251 18.4905 12.454 18.5977C12.6268 18.6327 12.8005 18.6504 12.9698 18.6504C13.8268 18.6504 14.4948 18.1888 14.7567 17.4158C15.8879 14.0752 18.9678 11.8308 22.4209 11.8308C22.5322 11.8308 22.6539 11.8388 22.7827 11.8475C22.923 11.8568 23.0682 11.8664 23.2238 11.8679L23.2561 11.868C24.3167 11.868 24.9449 11.3876 25.1229 10.4401C25.1279 10.4132 25.1319 10.3874 25.1359 10.3711C26.5683 5.84314 30.7705 2.80105 35.5925 2.80105C41.6315 2.80105 46.5445 7.63542 46.5445 13.5776C46.5445 14.5973 46.3927 15.6291 46.0934 16.644C45.9477 17.1383 45.9806 17.5779 46.1916 17.9507C46.5052 18.5049 47.0692 18.6598 47.3404 18.7342L47.3833 18.7461C50.7903 19.7126 53.1697 22.8261 53.1697 26.3176C53.1695 30.6634 49.5763 34.199 45.1596 34.199Z" fill="#676766" stroke="#F2ECE5" stroke-width="0.3"/>
<path d="M24.1076 18.9712C23.5826 18.8045 22.9737 18.7129 22.3929 18.7129C19.6374 18.7129 17.7129 20.5857 17.7129 23.2673C17.7129 25.8911 19.4634 27.6539 22.0686 27.6539C23.1067 27.6539 23.8608 27.4328 24.218 27.3009C24.34 27.2559 24.664 27.136 24.6181 26.6405L24.4934 26.0908C24.4379 25.8374 24.2671 25.6861 24.0369 25.6861C23.9365 25.6861 23.846 25.7158 23.7866 25.7383C23.4905 25.85 23.0185 25.9985 22.3415 25.9985C20.7731 25.9985 19.7194 24.8739 19.7194 23.2C19.7194 21.4798 20.7688 20.3682 22.3927 20.3682C22.9059 20.3682 23.3572 20.4433 23.7342 20.5916L23.7537 20.5994C23.8133 20.6238 23.9032 20.6605 24.009 20.6605C24.1338 20.6605 24.3592 20.6078 24.4645 20.2557L24.633 19.6923L24.6394 19.6654C24.6928 19.3632 24.4839 19.0906 24.1076 18.9712Z" fill="#676766" stroke="#F2ECE5" stroke-width="0.3"/>
<path d="M30.0779 18.6797C27.5235 18.6797 25.7393 20.5525 25.7393 23.2342C25.7393 25.8367 27.4673 27.6543 29.9415 27.6543C32.0393 27.6543 34.2971 26.2291 34.2971 23.0998C34.2971 20.4972 32.5621 18.6797 30.0779 18.6797ZM30.0098 26.0659C28.698 26.0659 27.7459 24.8537 27.7459 23.1836C27.7459 21.7322 28.4564 20.2677 30.0439 20.2677C31.8075 20.2677 32.2737 22.1532 32.2737 23.1501C32.2735 24.8396 31.3216 26.0659 30.0098 26.0659Z" fill="#676766" stroke="#F2ECE5" stroke-width="0.3"/>
<path d="M40.866 26.2102H39.0596C38.7393 26.2102 38.8977 26.0567 38.9765 25.9808C40.3908 24.6208 41.4386 23.4269 41.4386 21.9548C41.4386 20.6872 40.6021 19.4082 38.7331 19.4082C38.0013 19.4082 37.2962 19.6109 36.6941 19.9943C36.3192 20.2331 36.1781 20.583 36.3319 20.8887L36.483 21.2179L36.4939 21.2395C36.5837 21.405 36.7489 21.5037 36.9357 21.5037C37.1313 21.5037 37.2936 21.3999 37.4032 21.3298C37.7732 21.093 38.1494 20.9731 38.5215 20.9731C39.2956 20.9731 39.6719 21.3358 39.6719 22.0784C39.6619 23.049 38.8604 23.9557 36.9476 25.7477C36.8573 25.824 36.3296 26.2737 36.0943 26.567C35.9728 26.7187 35.9757 26.9121 35.9783 27.0827L35.979 27.1509C35.979 27.5607 36.335 27.775 36.6867 27.775H40.8585C40.8851 27.7778 40.9237 27.7808 40.9691 27.7808C41.4234 27.7808 41.6268 27.495 41.6268 27.2118V26.8516C41.6269 26.4349 41.2458 26.2135 40.866 26.2102Z" fill="#676766" stroke="#F2ECE5" stroke-width="0.3"/>
</svg>
