<svg width="41" height="28" viewBox="0 0 41 28" fill="none" xmlns="http://www.w3.org/2000/svg">
<path d="M35.8333 1H5.16667C2.86589 1.00096 1.00098 2.83645 1 5.10095V22.8991C1.00098 25.1635 2.86589 26.999 5.16667 27H35.8333C38.1341 26.999 39.999 25.1635 40 22.8991V5.10095C39.999 2.83645 38.1341 1.00096 35.8333 1ZM2.66667 8.3817H38.3333V11.9905H2.66667V8.3817ZM5.16667 2.64038H35.8333C37.2122 2.64422 38.3294 3.74379 38.3333 5.10095V6.74132H2.66667V5.10095C2.67057 3.74379 3.78776 2.64422 5.16667 2.64038ZM35.8333 25.3596H5.16667C3.78776 25.3558 2.67057 24.2562 2.66667 22.8991V13.6309H38.3333V22.8991C38.3294 24.2562 37.2122 25.3558 35.8333 25.3596Z" fill="#6D94B1" stroke="white" stroke-width="0.25"/>
<path d="M31.7074 16.7894C30.4821 16.7894 29.3581 17.4593 28.7907 18.5281C28.0885 17.2062 26.5602 16.527 25.0885 16.883C23.6165 17.2386 22.582 18.5374 22.582 20.0292C22.582 21.5209 23.6165 22.8197 25.0885 23.1753C26.5602 23.5313 28.0885 22.8521 28.7907 21.5302C29.5387 22.9386 31.2145 23.605 32.7471 23.1033C34.2793 22.6015 35.2155 21.0797 34.957 19.5108C34.6989 17.9418 33.3223 16.7891 31.7074 16.7894ZM25.874 21.6285C24.9766 21.6285 24.249 20.9125 24.249 20.0292C24.249 19.1458 24.9766 18.4298 25.874 18.4298C26.7715 18.4298 27.499 19.1458 27.499 20.0292C27.5 20.4537 27.3291 20.8609 27.0241 21.1611C26.7191 21.4613 26.3053 21.6295 25.874 21.6285ZM31.7074 21.6285C30.8099 21.6285 30.0824 20.9125 30.0824 20.0292C30.0824 19.1458 30.8099 18.4298 31.7074 18.4298C32.6048 18.4298 33.3324 19.1458 33.3324 20.0292C33.3333 20.4537 33.1624 20.8609 32.8574 21.1611C32.5524 21.4613 32.1387 21.6295 31.7074 21.6285Z" fill="#6D94B1" stroke="white" stroke-width="0.25"/>
</svg>
