<svg width="25" height="27" viewBox="0 0 25 27" fill="none" xmlns="http://www.w3.org/2000/svg">
<path d="M24.9949 16.6239C25.0284 15.0718 24.8862 13.4787 24.8444 11.9759C24.8109 10.7112 24.7774 9.43834 24.7356 8.17369C24.6854 6.26027 22.845 5.20913 21.3308 4.3715C19.2896 3.24644 17.24 2.11318 15.1987 0.988126C14.3873 0.544674 13.5507 0.0847981 12.6221 0.0108895C11.5011 -0.0794433 10.4052 0.405069 9.45152 0.988126C8.38071 1.64509 7.28481 2.25278 6.22237 2.89333C4.79184 3.79665 3.30274 4.60144 1.87221 5.51298C1.36191 5.84146 0.876698 6.23564 0.558803 6.74479C0.173981 7.36069 0.0735933 8.10799 0.0317649 8.83065C-0.0602576 10.4895 0.0735932 12.1483 0.107056 13.799C0.140519 15.6549 -0.00169791 19.8512 0.859967 20.5903C1.7049 21.313 2.46618 22.1178 3.46169 22.6105C5.51128 23.6206 7.52741 24.7292 9.47661 25.9118C10.4805 26.5194 11.5931 27.0532 12.7727 26.9957C14.3454 26.9218 15.8094 25.7639 17.1145 25.0084C18.6789 24.1051 20.2349 23.2018 21.7993 22.3067C22.7446 21.7647 23.7234 21.1816 24.2755 20.2536C24.5767 19.7527 24.7356 19.1779 24.8276 18.603C24.9364 17.9707 24.9782 17.2973 24.9949 16.6239ZM23.6983 17.519C23.6983 17.5437 23.6983 17.5601 23.6983 17.5847C23.6983 18.1678 23.6983 18.7673 23.4724 19.3093C23.1378 20.114 22.3598 20.6396 21.5818 21.042C19.1055 22.3149 16.8049 23.8998 14.3622 25.2548C13.9272 25.5012 13.4754 25.7393 12.9818 25.8132C12.1536 25.9446 11.3338 25.5997 10.6143 25.1727C8.14647 23.6945 5.58658 22.3806 3.06851 20.9681C2.52474 20.6642 1.94751 20.3275 1.65471 19.7773C1.4121 19.3257 1.39537 18.8001 1.37864 18.2827C1.33681 16.6485 1.30335 15.0143 1.26152 13.3801C1.21969 11.7706 1.1193 10.1282 1.26989 8.5268C1.31171 8.05872 1.42883 7.5742 1.71327 7.19645C2.21521 6.53127 3.13543 6.13709 3.82142 5.70185C4.61616 5.20913 5.41926 4.69998 6.27256 4.28116C7.8704 3.49281 9.34276 2.40881 10.9322 1.59582C11.4258 1.34124 11.9529 1.10309 12.505 1.13594C12.9651 1.16879 13.3918 1.39052 13.8017 1.61224C15.2238 2.38418 16.646 3.16432 18.0765 3.90341C18.0765 3.90341 18.1016 3.91983 18.0849 3.91162C18.8127 4.33044 19.5322 4.74104 20.26 5.15986C21.2137 5.70185 22.7697 6.29312 23.28 7.30321C23.3804 7.5003 23.4389 7.71381 23.4724 7.93554C23.7401 9.43834 23.6062 11.089 23.6313 12.6082C23.6732 14.2424 23.6899 15.8848 23.6983 17.519ZM0.0317649 8.83886C-0.0602576 10.4977 0.207444 12.1565 0.107056 13.8072L0.0317649 8.83886Z" fill="#A2A2A2"/>
<path d="M12.8911 14.3164H11.6436V26.5869H12.8911V14.3164Z" fill="#A2A2A2"/>
<path fill-rule="evenodd" clip-rule="evenodd" d="M24.3087 8.19053L12.3542 15.0065L11.8271 14.1032L23.9239 7.20508L24.3087 8.19053Z" fill="#A2A2A2"/>
<path fill-rule="evenodd" clip-rule="evenodd" d="M0.450195 8.18231L12.4047 14.9983L12.9318 14.1032L0.826651 7.20508L0.450195 8.18231Z" fill="#A2A2A2"/>
<path fill-rule="evenodd" clip-rule="evenodd" d="M24.2419 16.4677L12.4714 23.1769L11.9443 22.2818L24.1499 15.3262L24.2419 16.4677Z" fill="#A2A2A2"/>
<path fill-rule="evenodd" clip-rule="evenodd" d="M24.2423 12.2136L12.2794 19.0296L11.7607 18.1345L23.8575 11.2363L24.2423 12.2136Z" fill="#A2A2A2"/>
</svg>
