<svg width="21" height="23" viewBox="0 0 21 23" fill="none" xmlns="http://www.w3.org/2000/svg">
<path d="M20.9958 14.0804C21.0239 12.7658 20.9044 11.4164 20.8693 10.1435C20.8412 9.07234 20.813 7.99423 20.7779 6.92307C20.7358 5.30242 19.1898 4.4121 17.9179 3.70264C16.2032 2.74972 14.4816 1.78985 12.7669 0.836937C12.0853 0.461336 11.3826 0.0718235 10.6026 0.00922332C9.66093 -0.067288 8.74037 0.343091 7.93927 0.836937C7.0398 1.39338 6.11924 1.9081 5.22679 2.45063C4.02514 3.21574 2.77431 3.89739 1.57266 4.66946C1.144 4.94768 0.736427 5.28155 0.469394 5.7128C0.146144 6.23446 0.0618183 6.86742 0.0266825 7.47951C-0.0506164 8.88454 0.0618183 10.2896 0.089927 11.6876C0.118036 13.2596 -0.00142624 16.8139 0.722372 17.4399C1.43212 18.052 2.07159 18.7336 2.90782 19.151C4.62948 20.0065 6.32303 20.9455 7.96036 21.9471C8.80362 22.4618 9.73823 22.9139 10.7291 22.8653C12.0502 22.8027 13.2799 21.8219 14.3762 21.182C15.6902 20.4169 16.9973 19.6518 18.3114 18.8936C19.1054 18.4345 19.9276 17.9407 20.3914 17.1547C20.6444 16.7304 20.7779 16.2435 20.8552 15.7567C20.9466 15.2211 20.9817 14.6507 20.9958 14.0804ZM19.9065 14.8385C19.9065 14.8594 19.9065 14.8733 19.9065 14.8942C19.9065 15.388 19.9065 15.8958 19.7168 16.3548C19.4357 17.0365 18.7822 17.4816 18.1287 17.8225C16.0486 18.9006 14.1162 20.243 12.0642 21.3907C11.6988 21.5993 11.3193 21.801 10.9047 21.8636C10.2091 21.9749 9.52039 21.6828 8.91605 21.3211C6.84304 20.0691 4.69272 18.9562 2.57755 17.7599C2.12078 17.5025 1.6359 17.2173 1.38995 16.7513C1.18617 16.3687 1.17211 15.9236 1.15806 15.4854C1.12292 14.1012 1.09481 12.7171 1.05968 11.3329C1.02454 9.96961 0.940215 8.57849 1.0667 7.22216C1.10184 6.82569 1.20022 6.41531 1.43914 6.09535C1.86077 5.53195 2.63376 5.19808 3.20999 4.82944C3.87757 4.4121 4.55218 3.98086 5.26895 3.62612C6.61114 2.95839 7.84792 2.04025 9.18308 1.35165C9.59769 1.13603 10.0404 0.934315 10.5042 0.962138C10.8907 0.98996 11.2491 1.17776 11.5934 1.36556C12.788 2.01939 13.9826 2.68016 15.1843 3.30617C15.1843 3.30617 15.2054 3.32008 15.1913 3.31312C15.8027 3.66786 16.407 4.01564 17.0184 4.37037C17.8195 4.82944 19.1265 5.33024 19.5552 6.18578C19.6395 6.35271 19.6887 6.53355 19.7168 6.72136C19.9417 7.99423 19.8292 9.3923 19.8503 10.6791C19.8855 12.0632 19.8995 13.4544 19.9065 14.8385ZM0.0266825 7.48647C-0.0506164 8.8915 0.174253 10.2965 0.089927 11.6946L0.0266825 7.48647Z" fill="#799B6D"/>
<path d="M10.8272 12.125H9.7793V22.518H10.8272V12.125Z" fill="#799B6D"/>
<path fill-rule="evenodd" clip-rule="evenodd" d="M20.4201 6.93721L10.3783 12.7103L9.93555 11.9452L20.0968 6.10254L20.4201 6.93721Z" fill="#799B6D"/>
<path fill-rule="evenodd" clip-rule="evenodd" d="M0.376953 6.93025L10.4188 12.7034L10.8615 11.9452L0.693176 6.10254L0.376953 6.93025Z" fill="#799B6D"/>
<path fill-rule="evenodd" clip-rule="evenodd" d="M20.3631 13.9483L10.4759 19.631L10.0332 18.8728L20.2858 12.9814L20.3631 13.9483Z" fill="#799B6D"/>
<path fill-rule="evenodd" clip-rule="evenodd" d="M20.3634 10.3453L10.3146 16.1184L9.87891 15.3603L20.0402 9.51758L20.3634 10.3453Z" fill="#799B6D"/>
</svg>
