<svg width="99" height="76" viewBox="0 0 99 76" fill="none" xmlns="http://www.w3.org/2000/svg">
<g clip-path="url(#clip0)">
<path d="M47.8755 111.698C46.9116 111.62 45.9287 111.41 44.9342 111.085L45.0902 110.61C43.1211 109.966 41.0869 108.849 39.0495 107.379L38.7566 107.785C37.9646 107.213 37.1748 106.591 36.3908 105.926L36.7145 105.545C35.0164 104.105 33.3423 102.459 31.7299 100.687L31.3599 101.024C30.6883 100.286 30.0278 99.5272 29.3811 98.7529L29.7651 98.4319C28.2682 96.6395 26.8452 94.7638 25.5298 92.8778L25.1196 93.1644C24.5383 92.331 23.978 91.4958 23.4416 90.6649L23.8617 90.3932C22.524 88.3214 21.3365 86.2786 20.3435 84.3627L19.8996 84.5934C19.4137 83.6559 18.9737 82.748 18.5848 81.8809L19.041 81.6757C18.5213 80.5168 18.096 79.4366 17.7762 78.462C17.4569 77.4888 17.2177 76.5095 17.0548 75.5302L16.5616 75.613C16.415 74.7318 16.3287 73.8503 16.3003 72.9727L16.8 72.9557C16.7342 70.9243 16.9864 68.9134 17.5258 66.9775L17.0442 66.844C17.2816 65.9922 17.5732 65.1548 17.9165 64.3363L18.3774 64.5291C19.1506 62.6855 20.1928 60.9386 21.4742 59.3421L21.0845 59.0295C21.6352 58.3433 22.229 57.6846 22.8635 57.0573L23.2147 57.4126C24.6245 56.0187 26.2407 54.7828 28.0368 53.7516L27.7885 53.3181C28.5478 52.8822 29.3384 52.4822 30.1585 52.1216L30.3591 52.5793C31.2727 52.1776 32.2239 51.8255 33.21 51.528L33.2108 51.5278C34.2027 51.2267 35.1806 51.0102 36.142 50.8723L36.0718 50.3773C36.9609 50.2497 37.8375 50.1875 38.6994 50.1862L38.6993 50.6862C40.7506 50.6833 42.7173 51.0357 44.5739 51.6839L44.7393 51.2118C45.5694 51.5016 46.3777 51.8488 47.1619 52.2484L46.9344 52.6941C48.6978 53.5925 50.3405 54.7642 51.8341 56.15L52.1745 55.7831C52.8145 56.377 53.4271 57.0087 54.0101 57.6738L53.634 58.0038C54.9442 59.4982 56.104 61.1656 57.0882 62.9516L57.5261 62.7096C57.9491 63.4773 58.34 64.2661 58.697 65.0719L58.2398 65.2751C58.6479 66.1963 59.0108 67.1401 59.3257 68.0999C59.6336 69.0385 59.9188 70.0954 60.1755 71.2477L60.6635 71.1383C60.8599 72.0205 61.0393 72.9557 61.1992 73.9334L60.7058 74.0149C61.0375 76.0428 61.2853 78.2579 61.4278 80.5658L61.9268 80.5342C61.9845 81.4687 62.025 82.418 62.047 83.3759L61.5472 83.3882C61.5971 85.5657 61.5506 87.7873 61.3914 89.9791L61.89 90.0145C61.8209 90.9662 61.7307 91.9126 61.6181 92.8477L61.1217 92.7887C60.8509 95.0376 60.45 97.2157 59.9017 99.2403L60.3843 99.3703C60.1302 100.308 59.8447 101.215 59.5258 102.082L59.0566 101.91C58.2449 104.118 57.2214 106.044 55.9648 107.564L56.3499 107.882C55.7263 108.637 55.0445 109.298 54.301 109.852L54.0029 109.451C53.1552 110.082 52.2267 110.563 51.2107 110.872C50.1551 111.19 49.054 111.291 47.9165 111.2L47.8755 111.698Z" stroke="#969695" stroke-dasharray="7 3"/>
<path d="M119.054 53.2245L119.054 53.2253C115.878 68.499 100.11 79.7747 81.4108 79.5763C72.0555 79.4497 66.7775 76.8596 63.7565 72.676C60.7057 68.4511 59.8676 62.4914 59.679 55.4053C59.5868 51.9406 60.4588 47.2422 62.1146 42.1338C63.768 37.0332 66.1918 31.5575 69.1761 26.5453C72.162 21.5304 75.6972 16.9994 79.5652 13.7702C83.4347 10.5397 87.5979 8.64313 91.8576 8.80799C100.444 9.14031 108.053 16.3066 113.136 25.481C118.213 34.6422 120.653 45.6008 119.054 53.2245Z" stroke="#C7C7C7"/>
<path d="M75.984 -30.7999L75.9844 -30.7998C77.0945 -30.5819 78.1016 -30.2369 79.013 -29.7825L79.2361 -30.2298C80.1053 -29.7963 80.8939 -29.2662 81.6063 -28.6519L81.2797 -28.2735C82.8478 -26.9213 84.0421 -25.1322 84.9033 -23.0361L85.3659 -23.226C85.7192 -22.3662 86.0165 -21.4595 86.2611 -20.5157L85.777 -20.3905C86.2987 -18.3779 86.5779 -16.1846 86.6449 -13.9075L87.1448 -13.9221C87.1725 -12.9807 87.1644 -12.0266 87.1228 -11.0666L86.6232 -11.0884C86.529 -8.91342 86.2608 -6.70586 85.8461 -4.54729L86.3372 -4.4529C86.1564 -3.51202 85.9482 -2.58061 85.7147 -1.66525L85.2301 -1.78887C84.6668 0.419076 83.9559 2.52996 83.1309 4.44944L83.5904 4.64687C83.2025 5.54934 82.7894 6.41082 82.3543 7.22181L81.9136 6.98551C81.3723 7.99464 80.7985 8.92041 80.1995 9.74492C79.4764 10.6877 78.7547 11.5524 78.0319 12.3408L78.4006 12.6786C77.7073 13.4347 77.0114 14.1233 76.3108 14.7454L75.9787 14.3717C74.1324 16.0112 72.2666 17.1668 70.3389 17.8733L70.5112 18.3427C69.581 18.6836 68.6339 18.9246 67.6655 19.0678L67.5922 18.5733C65.5225 18.8794 63.3392 18.7243 60.9884 18.1172L60.8634 18.6012C59.953 18.3661 59.0206 18.0654 58.0637 17.7003L58.242 17.2332C57.2396 16.8507 56.2074 16.3954 55.1421 15.8682C54.0738 15.3388 53.0574 14.7458 52.0977 14.0986L51.818 14.513C50.9571 13.9325 50.1407 13.309 49.3722 12.6493L49.698 12.2701C47.8603 10.6925 46.3034 8.90468 45.0726 7.00096L44.6526 7.27222C44.0872 6.39771 43.5888 5.49872 43.1617 4.58386L43.6149 4.37256C42.5896 2.17619 41.9887 -0.105506 41.8676 -2.3473L41.3683 -2.32047C41.3125 -3.35306 41.3553 -4.3793 41.5023 -5.3878L41.9972 -5.3156C42.1634 -6.45564 42.4672 -7.57081 42.9171 -8.64417C43.3347 -9.64073 43.9008 -10.7548 44.6021 -11.9409L44.1715 -12.1953C44.6893 -13.0713 45.278 -13.983 45.9316 -14.9127L46.3408 -14.6253C47.673 -16.5206 49.2786 -18.4931 51.1047 -20.3882L50.7445 -20.735C51.4844 -21.5028 52.2601 -22.258 53.0682 -22.9906L53.4042 -22.6203C55.235 -24.28 57.2305 -25.8193 59.3494 -27.1207L59.0875 -27.5467C60.0108 -28.1138 60.9579 -28.6368 61.9256 -29.1062L62.144 -28.6564C64.3962 -29.7489 66.753 -30.542 69.1727 -30.9173L69.0959 -31.4113C70.1592 -31.5762 71.2358 -31.6625 72.3223 -31.6602L72.3213 -31.1604C73.5317 -31.1578 74.7541 -31.0425 75.984 -30.7999Z" stroke="#A9B3A4" stroke-dasharray="7 3"/>
</g>
<defs>
<clipPath id="clip0">
<rect width="99" height="76" fill="white"/>
</clipPath>
</defs>
</svg>
