<svg width="98" height="64" viewBox="0 0 98 64" fill="none" xmlns="http://www.w3.org/2000/svg">
<g clip-path="url(#clip0)">
<path opacity="0.9" d="M51.061 97.0262C50.2722 96.6171 49.5141 96.0898 48.7874 95.4605L49.1153 95.0827C47.6804 93.8401 46.3573 92.1731 45.1561 90.2051L44.7289 90.4656C44.2614 89.6996 43.8137 88.8916 43.3862 88.0494L43.8324 87.8229C42.9073 86.0006 42.0755 84.0122 41.3406 81.9388L40.869 82.1062C40.5627 81.242 40.2733 80.3639 40.0011 79.4778L40.4793 79.3306C39.8496 77.2806 39.312 75.1863 38.8691 73.1216L38.3799 73.2269C38.1841 72.314 38.0068 71.4071 37.848 70.5123L38.3406 70.4245C37.945 68.1945 37.6662 66.0426 37.507 64.0676L37.0084 64.1083C36.9304 63.1412 36.8808 62.2155 36.86 61.3426L37.3601 61.33C37.3323 60.1644 37.3564 59.0994 37.4323 58.1617C37.5337 56.908 37.7603 55.6961 38.0996 54.5351L37.6195 54.3956C37.9266 53.3446 38.3238 52.3339 38.8023 51.3698L39.2504 51.5914C40.3487 49.379 41.8887 47.4174 43.7629 45.7915L43.4351 45.4143C44.2501 44.7073 45.1262 44.0625 46.0549 43.4866L46.3184 43.9111C48.373 42.6369 50.6933 41.7068 53.1821 41.1968L53.0821 40.7073C54.1306 40.4924 55.208 40.3505 56.3073 40.2869L56.3356 40.7858C57.5484 40.7156 58.789 40.7428 60.0478 40.8751L60.0487 40.8752C61.3213 41.0068 62.5178 41.259 63.6386 41.617L63.7915 41.141C64.8433 41.477 65.8321 41.9041 66.7576 42.4116L66.5165 42.8497C68.6896 44.0413 70.507 45.6917 71.9644 47.658L72.3666 47.3602C73.0035 48.2195 73.5726 49.1364 74.0736 50.0991L73.6297 50.3301C74.7414 52.4662 75.5128 54.8387 75.9379 57.313L76.431 57.2279C76.6124 58.2838 76.7317 59.357 76.7887 60.4373L76.2892 60.4642C76.3541 61.6936 76.3368 62.9323 76.2371 64.1649C76.1473 65.2746 75.9651 66.5232 75.6962 67.8711L76.1868 67.9682C75.9846 68.9821 75.7345 70.0483 75.4396 71.1498L74.9564 71.0213C74.344 73.3089 73.5362 75.7526 72.5607 78.1974L73.0254 78.382C72.6243 79.3873 72.195 80.3926 71.7396 81.3875L71.2847 81.1801C70.2218 83.502 69.0168 85.7624 67.6954 87.8256L68.1167 88.0945C67.5168 89.0312 66.8927 89.9284 66.2466 90.7738L65.8492 90.4708C64.1951 92.6352 62.4105 94.4343 60.5389 95.6725L60.8147 96.089C59.8655 96.717 58.8901 97.2085 57.8931 97.5378L57.7366 97.0634C56.5737 97.4475 55.3883 97.5971 54.1844 97.4731C53.1825 97.3677 52.2187 97.0631 51.2919 96.5825L51.061 97.0262Z" stroke="#969695" stroke-dasharray="7 3"/>
<path d="M106.788 48.7076L106.788 48.7083C106.193 49.6087 105.511 50.4368 104.753 51.1893L105.105 51.5446C104.434 52.2108 103.706 52.8191 102.929 53.3673L102.641 52.9584C100.919 54.1729 98.9457 55.0867 96.8143 55.6711L96.9469 56.1535C96.0437 56.4011 95.1137 56.5908 94.1637 56.7206L94.0956 56.225C92.0133 56.5096 89.8306 56.5004 87.6239 56.1755L87.5517 56.6703C86.6257 56.534 85.696 56.3432 84.7679 56.0967L84.8957 55.6133C83.8638 55.3391 82.8337 54.9944 81.8132 54.577C80.5303 54.0478 79.4345 53.4892 78.504 52.9033L78.2381 53.3266C77.2187 52.6847 76.3839 52.0062 75.711 51.2921L76.0744 50.9491C74.264 49.0281 73.6919 46.8422 73.8679 44.3553L73.3693 44.3194C73.4419 43.2935 73.6369 42.2261 73.9214 41.1185L74.4055 41.2435C74.6982 40.1037 75.0889 38.915 75.5426 37.676C75.9186 36.6491 76.5434 35.4685 77.3747 34.2062L76.9572 33.9306C77.554 33.0245 78.25 32.085 79.0265 31.1383L79.413 31.4559C81.0036 29.5166 82.9379 27.5445 85.048 25.7734L84.7266 25.3901C85.6171 24.6427 86.5385 23.9307 87.4787 23.2711L87.766 23.6807C90.0781 22.0586 92.4873 20.7702 94.8067 20.0599L94.6599 19.5817C95.8205 19.2262 96.9638 19.0099 98.0683 18.963L98.0901 19.4627C99.4213 19.4062 100.677 19.6081 101.823 20.115C102.928 20.6035 103.912 21.3057 104.779 22.18L105.133 21.828C105.88 22.5817 106.54 23.4536 107.115 24.4158L106.686 24.6722C107.881 26.6697 108.707 29.0839 109.179 31.6518L109.671 31.5617C109.867 32.6256 110.002 33.7124 110.08 34.8036L109.581 34.8384C109.762 37.3883 109.618 39.9599 109.176 42.3057L109.667 42.399C109.457 43.5085 109.182 44.5697 108.843 45.5574L108.371 45.3946C107.941 46.6477 107.41 47.7682 106.788 48.7076Z" stroke="#A9B3A4" stroke-dasharray="7 3"/>
<path d="M82.2599 24.7856L82.2595 24.7857C77.6199 27.1194 72.9873 26.9521 68.6078 25.0985C64.2117 23.2379 60.067 19.674 56.4732 15.218C49.28 6.29901 44.4112 -6.04489 44.1496 -14.9426C44.1203 -23.2382 45.7782 -29.2807 49.2938 -33.6364C52.8094 -37.9919 58.2464 -40.7398 65.9461 -42.3088C81.2716 -45.424 96.1687 -38.1285 99.3457 -26.2474C100.957 -20.2232 101.408 -9.8059 99.0718 0.296507C96.7352 10.4016 91.639 20.0778 82.2599 24.7856Z" stroke="#C7C7C7"/>
</g>
<defs>
<clipPath id="clip0">
<rect width="98" height="64" fill="white"/>
</clipPath>
</defs>
</svg>
