<svg width="98" height="64" viewBox="0 0 98 64" fill="none" xmlns="http://www.w3.org/2000/svg">
<g clip-path="url(#clip0)">
<path d="M74.1288 81.506C73.3523 82.0328 72.4618 82.4665 71.4805 82.8165L71.3129 82.3451C69.413 83.0227 67.141 83.3827 64.6671 83.4867L64.6881 83.9867C63.7245 84.0272 62.7342 84.0292 61.7277 83.9971L61.7436 83.4969C59.5182 83.4259 57.2088 83.1857 54.931 82.8225L54.8525 83.3166C53.8716 83.1602 52.8972 82.9813 51.9384 82.7835L52.0391 82.2934C49.6874 81.8084 47.4311 81.2096 45.407 80.5529L45.2531 81.029C44.2622 80.7076 43.3259 80.3722 42.4597 80.0293L42.6433 79.5639C41.4669 79.0982 40.4285 78.6212 39.5662 78.1502C38.6252 77.6363 37.7602 77.0394 36.9739 76.3724L36.651 76.7543C35.936 76.1477 35.2837 75.4847 34.6964 74.7744L35.0812 74.4552C33.7396 72.8326 32.7463 70.9527 32.1302 68.9287L31.6523 69.0746C31.3833 68.1907 31.1843 67.2806 31.0575 66.3534L31.5524 66.2855C31.273 64.2427 31.3537 62.112 31.8204 59.9955L31.3326 59.8876C31.5299 58.9925 31.7944 58.1003 32.1278 57.2182L32.595 57.3954C32.9614 56.4259 33.4135 55.4683 33.9538 54.5331L33.9542 54.5324C34.4983 53.5869 35.1097 52.7428 35.777 51.9947L35.4044 51.6613C36.0339 50.9556 36.7126 50.331 37.4321 49.7839L37.7343 50.1825C39.4148 48.9046 41.3296 48.0622 43.3665 47.6095L43.2582 47.121C44.1524 46.9222 45.068 46.7967 45.9957 46.7403L46.026 47.2398C48.0764 47.1152 50.1938 47.3377 52.271 47.8659L52.3938 47.3808C53.2831 47.607 54.1642 47.8877 55.0291 48.2196L54.8504 48.6869C55.8317 49.0634 56.7919 49.5073 57.7185 50.0134C58.5523 50.4688 59.4632 51.045 60.4221 51.7238L60.7104 51.3152C61.4331 51.8268 62.18 52.394 62.9389 53.0086L62.6248 53.3978C64.1986 54.6722 65.8266 56.1539 67.3971 57.7672L67.7548 57.4178C68.4014 58.082 69.0383 58.7682 69.6578 59.4712L69.2832 59.8023C70.7272 61.441 72.0733 63.1687 73.2246 64.9182L73.6417 64.6429C74.1653 65.4386 74.6496 66.2395 75.0858 67.0396L74.6473 67.2794C75.7614 69.3231 76.5431 71.3384 76.8577 73.2237L77.3504 73.1413C77.5108 74.1027 77.5553 75.037 77.4655 75.9318L76.9684 75.8816C76.8645 76.9159 76.5712 77.8854 76.0601 78.7744C75.5307 79.6906 74.783 80.4579 73.8487 81.0917L74.1288 81.506Z" stroke="#A9B3A4" stroke-dasharray="7 3"/>
<path d="M77.1533 -4.2137L77.154 -4.21413C91.5393 -12.8586 111.955 -8.63263 125.444 6.27485C132.171 13.7531 133.985 19.8179 132.884 25.2682C131.773 30.7687 127.674 35.7832 122.221 41.0999C119.55 43.7036 115.203 46.4443 109.963 48.8642C104.731 51.2808 98.6404 53.3627 92.5067 54.6641C86.3699 55.9662 80.2124 56.4821 74.8383 55.7847C69.4622 55.0871 64.9196 53.183 61.935 49.6925C55.9225 42.6608 56.032 31.4145 59.564 20.7086C63.0913 10.0171 69.9624 0.0912332 77.1533 -4.2137Z" stroke="#969695"/>
<path d="M63.8638 -38.7997L63.8643 -38.7996C64.9744 -38.5816 65.9815 -38.2367 66.8928 -37.7822L67.116 -38.2295C67.9851 -37.7961 68.7738 -37.266 69.4862 -36.6517L69.1595 -36.2732C70.7276 -34.921 71.922 -33.1319 72.7832 -31.0359L73.2458 -31.2257C73.599 -30.3659 73.8963 -29.4593 74.141 -28.5155L73.6569 -28.3902C74.1785 -26.3776 74.4577 -24.1843 74.5248 -21.9072L75.0247 -21.9218C75.0524 -20.9804 75.0443 -20.0264 75.0027 -19.0664L74.5031 -19.0881C74.4089 -16.9132 74.1407 -14.7056 73.7259 -12.547L74.2171 -12.4527C74.0363 -11.5118 73.828 -10.5804 73.5945 -9.66501L73.1099 -9.78863C72.5467 -7.58068 71.8358 -5.46979 71.0108 -3.55031L71.4703 -3.35289C71.0824 -2.45042 70.6693 -1.58894 70.2342 -0.777943L69.7935 -1.01425C69.2521 -0.0051114 68.6783 0.920656 68.0793 1.74517C67.3563 2.68793 66.6346 3.55261 65.9117 4.34101L66.2805 4.67882C65.5871 5.43497 64.8913 6.12357 64.1907 6.74567L63.8585 6.37192C62.0122 8.01139 60.1465 9.16704 58.2188 9.87358L58.3911 10.3429C57.4609 10.6838 56.5138 10.9249 55.5454 11.0681L55.4721 10.5736C53.4023 10.8796 51.2191 10.7246 48.8682 10.1175L48.7433 10.6015C47.8328 10.3664 46.9005 10.0656 45.9436 9.7005L46.1219 9.23348C45.1195 8.85098 44.0873 8.39569 43.0219 7.86846C41.9537 7.33909 40.9373 6.74608 39.9775 6.09888L39.6979 6.51326C38.837 5.9327 38.0206 5.30926 37.2521 4.64951L37.5779 4.27032C35.7402 2.6927 34.1833 0.904921 32.9525 -0.998793L32.5325 -0.727539C31.9671 -1.60205 31.4687 -2.50104 31.0416 -3.4159L31.4948 -3.6272C30.4694 -5.82357 29.8686 -8.10526 29.7475 -10.3471L29.2482 -10.3202C29.1924 -11.3528 29.2352 -12.3791 29.3822 -13.3876L29.8771 -13.3154C30.0432 -14.4554 30.3471 -15.5706 30.7969 -16.6439C31.2146 -17.6405 31.7807 -18.7545 32.482 -19.9407L32.0514 -20.1951C32.5692 -21.071 33.1579 -21.9827 33.8114 -22.9125L34.2207 -22.625C35.5529 -24.5203 37.1585 -26.4929 38.9846 -28.3879L38.6244 -28.7348C39.3643 -29.5026 40.14 -30.2578 40.9481 -30.9904L41.2841 -30.6201C43.1148 -32.2798 45.1104 -33.819 47.2293 -35.1205L46.9674 -35.5464C47.8907 -36.1135 48.8378 -36.6365 49.8054 -37.1059L50.0239 -36.6562C52.276 -37.7487 54.6329 -38.5418 57.0526 -38.9171L56.9758 -39.4111C58.0391 -39.576 59.1157 -39.6623 60.2021 -39.66L60.2012 -39.1601C61.4116 -39.1576 62.634 -39.0422 63.8638 -38.7997Z" stroke="#C7C7C7" stroke-dasharray="7 3"/>
</g>
<defs>
<clipPath id="clip0">
<rect width="98" height="64" fill="white"/>
</clipPath>
</defs>
</svg>
