<svg width="98" height="64" viewBox="0 0 98 64" fill="none" xmlns="http://www.w3.org/2000/svg">
<g clip-path="url(#clip0)">
<path opacity="0.9" d="M77.3978 99.2206C76.5137 99.1313 75.6146 98.9206 74.707 98.6037L74.8725 98.1316C73.0805 97.5058 71.236 96.4441 69.3936 95.0578L69.0926 95.4575C68.3756 94.9179 67.6615 94.3319 66.9535 93.7067L67.2847 93.3317C65.7528 91.9789 64.2464 90.4374 62.7987 88.7812L62.4221 89.1106C61.8186 88.4203 61.2259 87.7108 60.6461 86.9875L61.0363 86.6744C59.695 85.0011 58.423 83.2526 57.2499 81.4967L56.834 81.775C56.3154 80.9987 55.8161 80.2211 55.3386 79.4479L55.7641 79.1846C54.574 77.2577 53.5213 75.3602 52.645 73.5831L52.1965 73.8049C51.7674 72.9347 51.38 72.0925 51.0387 71.2888L51.4989 71.0927C51.0432 70.0195 50.6729 69.0207 50.3976 68.121C50.0296 66.9184 49.7933 65.7083 49.6806 64.5039L49.1828 64.5513C49.0807 63.4612 49.0771 62.3752 49.1665 61.3027L49.6647 61.3434C49.8697 58.8819 50.5778 56.4906 51.7203 54.2881L51.2766 54.0584C51.7733 53.1007 52.35 52.1783 53.0008 51.3005L53.4023 51.5979C54.8422 49.6559 56.656 47.9357 58.7813 46.5438L58.5079 46.1256C59.4032 45.5393 60.3523 45.0101 61.3507 44.5455L61.5609 44.9989C62.6624 44.4864 63.8257 44.0542 65.0445 43.7129L65.0453 43.7127C66.2768 43.3657 67.482 43.1589 68.6558 43.0784L68.6224 42.5795C69.724 42.504 70.8005 42.5364 71.848 42.6667L71.7854 43.1629C74.2448 43.4691 76.5428 44.333 78.6226 45.6233L78.8866 45.1982C79.7955 45.762 80.6625 46.4045 81.4833 47.1146L81.1558 47.493C82.9769 49.0686 84.5689 50.9894 85.8765 53.1325L86.3034 52.8716C86.8614 53.7862 87.3681 54.7398 87.8194 55.7229L87.365 55.9322C87.8787 57.0509 88.3195 58.2087 88.6813 59.3912C89.0071 60.4557 89.2982 61.6836 89.5453 63.0356L90.0371 62.945C90.223 63.962 90.3837 65.0452 90.5159 66.1779L90.0193 66.2367C90.2937 68.5888 90.444 71.1582 90.4388 73.7904L90.9388 73.7906C90.9366 74.873 90.9084 75.9658 90.8519 77.0585L90.3526 77.0335C90.2209 79.5837 89.9344 82.1291 89.4669 84.5342L89.9577 84.6288C89.7455 85.7207 89.4963 86.7848 89.2075 87.8089L88.7263 87.6739C87.9869 90.2956 86.9916 92.626 85.7085 94.4672L86.1185 94.7526C85.4678 95.6864 84.7423 96.5029 83.937 97.1767L83.6166 96.7934C82.6773 97.5793 81.6307 98.1555 80.4658 98.4843C79.4957 98.7558 78.4875 98.828 77.4488 98.7231L77.3978 99.2206Z" stroke="#969695" stroke-dasharray="7 3"/>
<path d="M111.379 33.7572L111.379 33.758C111.159 34.814 110.83 35.8354 110.403 36.8143L110.861 37.0146C110.483 37.8814 110.03 38.7153 109.51 39.5115L109.091 39.2377C107.939 41.0016 106.442 42.5786 104.676 43.9078L104.977 44.3073C104.229 44.8706 103.434 45.3898 102.599 45.8608L102.353 45.4253C100.523 46.4577 98.4903 47.254 96.3194 47.7658L96.4347 48.2524C95.5237 48.4671 94.5892 48.6327 93.6356 48.7457L93.5762 48.2493C92.5159 48.3749 91.4313 48.4344 90.3287 48.4227C88.9411 48.404 87.7165 48.2888 86.6356 48.0874L86.5445 48.5788C85.3602 48.3581 84.3341 48.0353 83.4452 47.6197L83.6566 47.1669C81.2654 46.0488 79.9275 44.228 79.174 41.8514L78.6973 42.002C78.3865 41.0216 78.1741 39.9575 78.03 38.8231L78.5261 38.7607C78.3779 37.5933 78.3027 36.3443 78.2675 35.0253C78.2383 33.9321 78.3837 32.6043 78.6909 31.1244L78.2013 31.0223C78.4219 29.96 78.7224 28.83 79.095 27.6637L79.5714 27.8163C80.3347 25.4272 81.4054 22.8808 82.7138 20.4563L82.2736 20.2185C82.8257 19.1954 83.4197 18.1938 84.0504 17.234L84.4684 17.5088C86.0194 15.1484 87.7837 13.0624 89.6777 11.5469L89.3649 11.1564C90.3126 10.3981 91.2956 9.77537 92.3049 9.32446L92.5094 9.78093C93.726 9.23744 94.9672 8.96218 96.2202 9.01052C97.4273 9.05709 98.6006 9.3471 99.7287 9.84017L99.9285 9.38215C100.901 9.80721 101.836 10.3744 102.725 11.0566L102.421 11.4531C104.268 12.8696 105.926 14.809 107.312 17.0216L107.736 16.7566C108.31 17.6733 108.837 18.6335 109.311 19.6192L108.861 19.8354C109.969 22.139 110.784 24.5823 111.237 26.9259L111.728 26.8315C111.943 27.9401 112.078 29.0279 112.128 30.071L111.628 30.094C111.691 31.4172 111.611 32.6545 111.379 33.7572Z" stroke="#A9B3A4" stroke-dasharray="7 3"/>
<path d="M79.7578 20.5663L79.7575 20.5666C76.3055 24.4467 71.9376 25.9995 67.1832 25.8916C62.4108 25.7833 57.2439 23.999 52.2602 21.1823C42.2849 15.5446 33.2073 5.86608 29.6829 -2.308C26.5966 -10.0082 25.9093 -16.2362 27.571 -21.5814C29.2325 -26.9263 33.273 -31.4855 39.8515 -35.7834C52.9481 -44.3305 69.4856 -43.0428 76.82 -33.1707C80.539 -28.165 84.7999 -18.6483 86.354 -8.39652C87.9085 1.85805 86.7397 12.7316 79.7578 20.5663Z" stroke="#C7C7C7"/>
</g>
<defs>
<clipPath id="clip0">
<rect width="98" height="64" fill="white"/>
</clipPath>
</defs>
</svg>
