<svg width="98" height="64" viewBox="0 0 98 64" fill="none" xmlns="http://www.w3.org/2000/svg">
<g clip-path="url(#clip0)">
<path d="M38.7988 -12.1314C39.3546 -12.9039 40.0512 -13.6274 40.8636 -14.3029L41.1831 -13.9179C42.7567 -15.2264 44.7954 -16.362 47.1153 -17.324L46.9237 -17.7863C47.8272 -18.1609 48.7694 -18.5082 49.7391 -18.8287L49.8962 -18.3536C52.0405 -19.0621 54.3237 -19.6389 56.6197 -20.0875L56.5235 -20.5786C57.5121 -20.7717 58.5024 -20.9412 59.4844 -21.0873L59.5584 -20.5924C61.9672 -20.9508 64.3249 -21.1675 66.4817 -21.2481L66.4625 -21.7481C67.5182 -21.7876 68.5268 -21.7948 69.4712 -21.7704L69.4588 -21.2703C70.7417 -21.2371 71.8972 -21.1449 72.883 -20.9972C73.9588 -20.8359 74.9912 -20.5691 75.973 -20.208L76.1448 -20.6776C77.0373 -20.3493 77.8897 -19.9455 78.6967 -19.4739L78.4451 -19.0419C80.2895 -17.9641 81.8917 -16.5198 83.1848 -14.8065L83.5833 -15.1079C84.1478 -14.36 84.6547 -13.5628 85.0989 -12.724L84.6575 -12.49C85.6364 -10.6414 86.3029 -8.58351 86.5968 -6.40452L87.092 -6.47092C87.2163 -5.54976 87.2756 -4.60787 87.2658 -3.6516L86.7661 -3.6573C86.7553 -2.60586 86.6587 -1.53602 86.4704 -0.456635L86.4702 -0.455804C86.2818 0.634799 85.9938 1.65227 85.6191 2.59792L86.0836 2.78286C85.7303 3.67436 85.3018 4.50587 84.8075 5.27782L84.3867 5.00746C83.2315 6.81138 81.7011 8.28208 79.9185 9.42411L80.1882 9.84559C79.4061 10.3467 78.578 10.7856 77.7142 11.1629L77.514 10.7043C75.6041 11.5384 73.5096 12.0651 71.3466 12.2867L71.3981 12.7843C70.4724 12.8792 69.5354 12.9192 68.596 12.9048L68.6031 12.4045C67.537 12.3882 66.4676 12.3003 65.4084 12.1415C64.4552 11.9986 63.3866 11.7676 62.2365 11.4555L62.1063 11.9384C61.2397 11.7032 60.3306 11.4236 59.3936 11.103L59.5547 10.6296C57.6112 9.96473 55.5439 9.12144 53.4854 8.13286L53.2697 8.58389C52.4223 8.17693 51.5766 7.74563 50.7415 7.29226L50.9793 6.85253C49.0325 5.79559 47.1478 4.61961 45.441 3.35489L45.144 3.7569C44.3679 3.18178 43.6273 2.58801 42.9329 1.97825L43.2622 1.6023C41.4881 0.0443633 40.0402 -1.60268 39.0826 -3.28922L38.6483 -3.04235C38.1603 -3.90189 37.792 -4.77611 37.5655 -5.65949L38.0495 -5.78336C37.7875 -6.80542 37.7286 -7.83192 37.9054 -8.85783C38.0902 -9.91614 38.5351 -10.9086 39.2043 -11.8387L38.7988 -12.1314Z" stroke="#969695" stroke-dasharray="7 3"/>
<path d="M109.048 -1.68091L109.048 -1.68076C110.28 -1.45397 111.474 -1.101 112.622 -0.633445L112.81 -1.09654C113.823 -0.68413 114.799 -0.185097 115.733 0.392829L115.47 0.818159C117.55 2.1047 119.422 3.79475 121.013 5.80133L121.405 5.49054C122.077 6.3387 122.7 7.24153 123.267 8.19252L122.838 8.44906C124.087 10.5408 125.067 12.8724 125.719 15.3718L126.203 15.2453C126.476 16.2915 126.693 17.3663 126.849 18.4644L126.354 18.5352C126.529 19.7595 126.626 21.0137 126.642 22.2905C126.652 23.323 126.613 24.2792 126.53 25.165L127.028 25.2116C126.944 26.1018 126.815 26.9255 126.645 27.6876L126.157 27.5785C125.675 29.7268 124.854 31.3424 123.765 32.5691L124.139 32.9009C123.577 33.5346 122.944 34.0743 122.246 34.5342L121.971 34.1168C120.515 35.0776 118.745 35.6851 116.709 36.071L116.801 36.5623C116.008 36.7127 115.18 36.8292 114.321 36.9202L114.269 36.4229C113.342 36.5212 112.378 36.5896 111.379 36.6391C110.396 36.6878 109.247 36.6193 107.977 36.4391L107.906 36.9342C106.971 36.8015 105.977 36.6102 104.944 36.3645L105.06 35.878C102.972 35.3817 100.716 34.6593 98.4466 33.7448L98.2595 34.2086C97.3374 33.8371 96.4135 33.4343 95.4981 33.0025L95.7115 32.5502C93.6036 31.5561 91.5439 30.4085 89.6584 29.1369L89.3788 29.5516C88.5322 28.9807 87.7196 28.3846 86.9523 27.766L87.2662 27.3766C85.3469 25.8294 83.7308 24.1516 82.5835 22.3875L82.1644 22.6603C81.5971 21.788 81.1384 20.8916 80.8083 19.9758L81.2787 19.806C80.8928 18.7353 80.6938 17.6445 80.7113 16.5391C80.728 15.4811 80.9063 14.4426 81.2256 13.4297L80.7488 13.2796C81.0284 12.3927 81.4109 11.5273 81.8822 10.688L82.3181 10.9327C83.3126 9.16172 84.7229 7.49814 86.4164 5.99051L86.0842 5.61708C86.7796 4.99796 87.52 4.40636 88.2958 3.84528L88.5887 4.25042C90.32 2.99828 92.2334 1.89865 94.2193 0.987512L94.0111 0.533036C94.8743 0.136974 95.7506 -0.22377 96.6313 -0.546436L96.803 -0.0769247C98.9224 -0.853456 101.063 -1.40468 103.098 -1.69298L103.028 -2.18807C103.995 -2.32512 104.94 -2.40407 105.85 -2.42085L105.859 -1.9209C106.994 -1.94182 108.065 -1.86361 109.048 -1.68091Z" stroke="#C7C7C7" stroke-dasharray="7 3"/>
<path d="M44.3802 16.8325L44.3805 16.8322C47.6844 13.0771 51.8891 11.5605 56.4802 11.643C61.0893 11.7258 66.0927 13.4226 70.9277 16.1167C80.6057 21.5094 89.4451 30.8034 92.9086 38.6697C95.9462 46.0829 96.6542 52.0841 95.0891 57.2432C93.524 62.4021 89.6563 66.8164 83.3321 70.992C70.7429 79.295 54.7631 78.1252 47.6108 68.6432C43.9825 63.833 39.7968 54.6732 38.2208 44.7917C36.6444 34.9076 37.6952 24.4177 44.3802 16.8325Z" stroke="#A9B3A4"/>
</g>
<defs>
<clipPath id="clip0">
<rect width="98" height="64" fill="white"/>
</clipPath>
</defs>
</svg>
