<svg width="98" height="64" viewBox="0 0 98 64" fill="none" xmlns="http://www.w3.org/2000/svg">
<g clip-path="url(#clip0)">
<path d="M38.7553 107.698C37.7915 107.62 36.8086 107.411 35.8141 107.086L35.9701 106.61C34.001 105.967 31.9668 104.849 29.9294 103.379L29.6365 103.785C28.8445 103.213 28.0547 102.591 27.2707 101.927L27.5944 101.545C25.8963 100.105 24.2222 98.4592 22.6098 96.6875L22.2398 97.0245C21.5682 96.2865 20.9077 95.5275 20.261 94.7531L20.6449 94.4322C19.1481 92.6397 17.725 90.764 16.4096 88.8781L15.9995 89.1646C15.4182 88.3313 14.8579 87.4961 14.3215 86.6652L14.7416 86.3934C13.4039 84.3217 12.2164 82.2788 11.2234 80.363L10.7795 80.5936C10.2936 79.6562 9.85362 78.7483 9.46471 77.8812L9.92092 77.6759C9.40116 76.517 8.97586 75.4369 8.6561 74.4622C8.33682 73.489 8.09754 72.5097 7.93465 71.5304L7.44147 71.6132C7.29491 70.7321 7.20862 69.8506 7.18019 68.973L7.67988 68.956C7.61408 66.9246 7.86624 64.9136 8.40569 62.9778L7.92411 62.8442C8.16148 61.9924 8.45307 61.155 8.79634 60.3365L9.25733 60.5293C10.0305 58.6858 11.0727 56.9388 12.3541 55.3424L11.9644 55.0297C12.5151 54.3436 13.1089 53.6848 13.7434 53.0575L14.0945 53.4129C15.5044 52.019 17.1205 50.783 18.9167 49.7519L18.6683 49.3183C19.4277 48.8824 20.2183 48.4825 21.0384 48.1218L21.239 48.5796C22.1526 48.1778 23.1038 47.8257 24.0898 47.5283L24.0907 47.528C25.0826 47.2269 26.0605 47.0105 27.0219 46.8725L26.9516 46.3775C27.8408 46.25 28.7173 46.1877 29.5793 46.1864L29.5792 46.6865C31.6305 46.6835 33.5972 47.036 35.4538 47.6842L35.6192 47.212C36.4493 47.5018 37.2575 47.8491 38.0418 48.2487L37.8143 48.6943C39.5776 49.5927 41.2203 50.7644 42.714 52.1502L43.0543 51.7834C43.6944 52.3772 44.3069 53.009 44.89 53.674L44.5139 54.004C45.824 55.4984 46.9839 57.1658 47.968 58.9518L48.406 58.7099C48.829 59.4775 49.2199 60.2664 49.5768 61.0722L49.1197 61.2753C49.5278 62.1966 49.8907 63.1404 50.2056 64.1002C50.5135 65.0387 50.7987 66.0956 51.0553 67.248L51.5433 67.1385C51.7398 68.0208 51.9191 68.9559 52.0791 69.9337L51.5857 70.0152C51.9174 72.043 52.1652 74.2582 52.3077 76.5661L52.8067 76.5345C52.8644 77.4689 52.9049 78.4182 52.9269 79.3762L52.427 79.3884C52.477 81.566 52.4305 83.7875 52.2713 85.9793L52.7699 86.0147C52.7008 86.9664 52.6106 87.9128 52.498 88.848L52.0016 88.7889C51.7308 91.0378 51.3299 93.2159 50.7816 95.2405L51.2641 95.3705C51.0101 96.3087 50.7245 97.2154 50.4057 98.0826L49.9365 97.9107C49.1248 100.119 48.1013 102.044 46.8447 103.564L47.2298 103.883C46.6062 104.637 45.9244 105.298 45.1809 105.852L44.8828 105.451C44.035 106.082 43.1066 106.563 42.0905 106.872C41.035 107.191 39.9339 107.292 38.7964 107.2L38.7553 107.698Z" stroke="#C7C7C7" stroke-dasharray="7 3"/>
<path d="M109.934 49.2247L109.934 49.2255C109.698 50.3627 109.392 51.4772 109.02 52.5663L109.493 52.728C109.167 53.683 108.792 54.6185 108.37 55.5328L107.916 55.3229C106.951 57.412 105.737 59.3891 104.304 61.23L104.698 61.5372C104.083 62.3284 103.427 63.0946 102.735 63.8339L102.37 63.4921C100.808 65.1592 99.0549 66.6886 97.1383 68.0578L97.4291 68.4646C96.6149 69.0463 95.7718 69.5993 94.9021 70.122L94.6443 69.6934C92.6875 70.8694 90.5932 71.8903 88.387 72.7366L88.5664 73.2034C87.6321 73.5619 86.6781 73.8893 85.7064 74.1843L85.5609 73.7058C83.3757 74.3692 81.0991 74.8668 78.7532 75.1817L78.8201 75.6773C77.8285 75.8104 76.8248 75.9113 75.8107 75.9787L75.7772 75.4798C74.628 75.5562 73.465 75.589 72.2907 75.5766C71.1208 75.5607 70.0143 75.5063 68.9677 75.415L68.9245 75.9131C67.9175 75.8252 66.9638 75.7034 66.0606 75.5491L66.1446 75.0563C63.6844 74.6358 61.6201 73.9721 59.886 73.0981L59.6611 73.5445C58.7655 73.0931 57.9522 72.5855 57.2138 72.0252L57.516 71.627C55.735 70.2757 54.4031 68.6055 53.4066 66.6578L52.9615 66.8853C52.5321 66.0462 52.1641 65.1586 51.8489 64.2266L52.3225 64.0666C51.661 62.1106 51.2334 59.9432 50.9612 57.5955L50.4645 57.6528C50.3565 56.721 50.2729 55.7635 50.2087 54.7825L50.7077 54.7502C50.6366 53.6647 50.5894 52.5489 50.5589 51.4056C50.5308 50.3482 50.5925 49.1726 50.7401 47.9014L50.2434 47.8435C50.3558 46.8753 50.5169 45.8565 50.724 44.7973L51.2148 44.8935C51.636 42.7399 52.2507 40.4128 53.038 38.0003L52.5627 37.8449C52.8751 36.8878 53.2142 35.9179 53.5788 34.9406L54.0473 35.1156C54.8586 32.941 55.7969 30.7294 56.8469 28.5416L56.3961 28.3251C56.839 27.4023 57.3016 26.4837 57.7829 25.5738L58.2249 25.8078C59.3431 23.6939 60.5618 21.6287 61.8665 19.669L61.4502 19.3918C62.0235 18.5306 62.6135 17.6895 63.219 16.873L63.6207 17.1709C65.0821 15.2002 66.6315 13.3787 68.251 11.773L67.8989 11.4179C68.6417 10.6814 69.3999 9.98906 70.1717 9.3472L70.4916 9.73167C72.4089 8.13721 74.401 6.86865 76.4415 6.0175L76.2488 5.55606C77.2152 5.15296 78.1947 4.83992 79.1848 4.62696L79.2902 5.11575C80.4286 4.8709 81.5788 4.7634 82.7375 4.80824C83.8376 4.85083 84.9209 5.00521 85.9844 5.26137L86.1013 4.7753C87.0354 5.00027 87.9538 5.30131 88.8545 5.67166L88.6645 6.13405C90.6377 6.94534 92.5314 8.10086 94.323 9.53083L94.6348 9.14016C95.3792 9.73431 96.105 10.374 96.8107 11.0541L96.4638 11.414C98.0199 12.9135 99.4798 14.6151 100.826 16.4622L101.23 16.168C101.795 16.9427 102.339 17.7421 102.862 18.5621L102.44 18.8307C103.63 20.696 104.708 22.6699 105.659 24.7023L106.112 24.4905C106.523 25.3669 106.91 26.2539 107.272 27.1476L106.809 27.3353C107.66 29.4332 108.375 31.5674 108.938 33.6855L109.421 33.5573C109.672 34.5027 109.893 35.4451 110.084 36.38L109.594 36.4794C110.057 38.7579 110.333 40.9868 110.403 43.0993L110.902 43.0831C110.935 44.076 110.923 45.0445 110.864 45.9821L110.365 45.9506C110.293 47.097 110.151 48.1924 109.934 49.2247Z" stroke="#A9B3A4" stroke-dasharray="7 3"/>
<path d="M66.8638 -34.7997L66.8643 -34.7996C70.6038 -34.0654 73.2147 -31.8813 74.9245 -28.8225C76.6432 -25.7481 77.4517 -21.7846 77.5338 -17.5373C77.6982 -9.0336 74.9493 0.418164 71.0793 5.74517C67.3364 10.6255 63.6416 13.3989 59.6411 14.3489C55.6407 15.2988 51.2358 14.4488 46.0219 11.8685C35.6573 6.73248 30.2955 -4.28934 33.7969 -12.6439C35.5811 -16.9011 40.037 -23.2185 45.9832 -28.0847C51.9314 -32.9526 59.2785 -36.2956 66.8638 -34.7997Z" stroke="#969695"/>
</g>
<defs>
<clipPath id="clip0">
<rect width="98" height="64" fill="white"/>
</clipPath>
</defs>
</svg>
