<svg width="98" height="64" viewBox="0 0 98 64" fill="none" xmlns="http://www.w3.org/2000/svg">
<g clip-path="url(#clip0)">
<path d="M99.246 18.5747C100.165 18.7161 101.085 18.9497 102.002 19.2662L101.838 19.7388C103.753 20.3993 105.67 21.4354 107.559 22.7667L107.848 22.3579C108.604 22.8911 109.354 23.4696 110.096 24.0878L109.776 24.472C111.391 25.8179 112.971 27.3574 114.494 29.0327L114.864 28.6961C115.495 29.39 116.116 30.1064 116.725 30.8412L116.34 31.1606C117.727 32.833 119.055 34.6026 120.306 36.4199L120.718 36.1359C121.257 36.918 121.782 37.7087 122.291 38.5039L121.869 38.7739C123.077 40.6605 124.197 42.5735 125.212 44.4602L125.652 44.2229C126.108 45.0705 126.543 45.9128 126.955 46.7451L126.507 46.9675C127.547 49.0697 128.441 51.1054 129.162 52.9972L129.629 52.8186C129.985 53.7507 130.299 54.649 130.569 55.5044L130.092 55.6554C130.45 56.7917 130.728 57.8462 130.919 58.7979C131.146 59.9275 131.263 61.0472 131.276 62.1506L131.776 62.1436C131.789 63.1457 131.719 64.1353 131.57 65.1076L131.076 65.0328C130.736 67.2554 129.974 69.3883 128.844 71.3716L129.278 71.6185C128.792 72.4717 128.24 73.2973 127.626 74.0906L127.231 73.7851C125.889 75.5185 124.242 77.0982 122.334 78.4724L122.626 78.8779C121.834 79.4486 120.998 79.9841 120.122 80.481L119.876 80.0462C117.968 81.128 115.864 82.0246 113.597 82.6979L113.739 83.1771C112.803 83.4552 111.84 83.6956 110.853 83.8959L110.754 83.406C109.656 83.6287 108.527 83.8011 107.369 83.9196L107.369 83.9197C106.174 84.0438 105.007 84.0913 103.871 84.0678L103.86 84.5677C102.822 84.5462 101.808 84.4666 100.819 84.3329L100.887 83.8375C98.498 83.5145 96.2592 82.8696 94.1881 81.9608L93.9865 82.4187C93.0476 82.0067 92.1424 81.5415 91.2726 81.0283L91.5273 80.5977C89.5036 79.4038 87.6738 77.944 86.0602 76.2853L85.7015 76.6341C84.9914 75.9042 84.3227 75.1367 83.6971 74.3373L84.0912 74.0289C82.6495 72.1863 81.4407 70.1702 80.488 68.0514L80.0319 68.2569C79.6139 67.3273 79.2445 66.3784 78.9255 65.4159L79.4002 65.258C79.0319 64.1466 78.732 63.0172 78.5034 61.8789C78.2931 60.831 78.1328 59.6601 78.0261 58.3923L77.5278 58.435C77.4457 57.4609 77.3951 56.4332 77.377 55.3635L77.877 55.3543C77.8393 53.1343 77.9426 50.7295 78.1968 48.249L77.6994 48.1989C77.8026 47.1919 77.9305 46.1729 78.0836 45.1489L78.5782 45.2221C78.9261 42.8958 79.4053 40.5452 80.0227 38.2558L79.5399 38.1264C79.8084 37.1307 80.1028 36.1462 80.4239 35.1797L80.8984 35.3366C81.6673 33.022 82.5882 30.8179 83.6676 28.8188L83.2277 28.5819C83.7253 27.6603 84.2567 26.7806 84.8226 25.9517L85.2355 26.2331C86.6343 24.1846 88.2372 22.4692 90.0513 21.2154L89.7673 20.8044C90.6184 20.2161 91.5173 19.7242 92.465 19.3422L92.6514 19.8058C93.701 19.3827 94.8126 19.0999 95.9891 18.9772C97.0413 18.8695 98.1026 18.9045 99.1691 19.0687L99.246 18.5747Z" stroke="#969695" stroke-dasharray="7 3"/>
<path d="M75.7546 -9.08096L75.7554 -9.08072C76.788 -8.7685 77.7765 -8.35129 78.7141 -7.83988L78.954 -8.27892C79.7841 -7.82614 80.5751 -7.30203 81.3225 -6.71386L81.013 -6.32078C82.6688 -5.0177 84.1082 -3.38776 85.2771 -1.51216L85.7015 -1.77702C86.1969 -0.982215 86.6443 -0.145144 87.0401 0.728103L86.5847 0.934994C87.4522 2.84919 88.067 4.94358 88.386 7.1511L88.8809 7.07896C89.0148 8.0053 89.0976 8.95076 89.1264 9.91058L88.6266 9.92621C88.6587 10.9934 88.6226 12.0791 88.5141 13.1763C88.3736 14.5569 88.1512 15.7667 87.8556 16.8257L88.3372 16.9596C88.0133 18.12 87.6015 19.1138 87.1094 19.9627L86.6769 19.7123C85.3531 21.9961 83.4219 23.1688 80.9882 23.7106L81.0963 24.1987C80.0924 24.4222 79.0138 24.5403 77.8711 24.5841L77.8525 24.0844C76.6767 24.1295 75.4259 24.0947 74.1089 24.0139C73.0174 23.9469 71.7075 23.6855 70.2603 23.2494L70.1155 23.7282C69.0767 23.4151 67.9775 23.0165 66.8484 22.5429L67.0423 22.0817C64.7294 21.1115 62.287 19.8212 59.9869 18.3049L59.7113 18.7225C58.7407 18.0826 57.7951 17.403 56.8944 16.6904L57.2049 16.2981C54.9898 14.5457 53.0669 12.605 51.7236 10.5852L51.3072 10.8625C50.6351 9.85182 50.1011 8.81788 49.7406 7.77282L50.2133 7.60923C49.7788 6.3496 49.6137 5.089 49.7719 3.84514C49.9243 2.64678 50.3163 1.50345 50.9066 0.423121L50.4679 0.183795C50.9767 -0.747525 51.6238 -1.62893 52.3816 -2.45493L52.7498 -2.11716C54.323 -3.83208 56.4006 -5.31338 58.7264 -6.49992L58.4997 -6.94527C59.4633 -7.43687 60.4661 -7.8774 61.4896 -8.26322L61.6655 -7.79537C64.0574 -8.69698 66.5629 -9.29414 68.9373 -9.54009L68.8865 -10.0374C70.0096 -10.1538 71.1051 -10.1932 72.1485 -10.1507L72.1275 -9.65115C73.4511 -9.59733 74.6766 -9.40888 75.7546 -9.08096Z" stroke="#A9B3A4" stroke-dasharray="7 3"/>
<path d="M70.8561 55.3655L70.8564 55.3657C73.5819 56.5695 75.1967 58.6783 75.9756 61.3033C76.7597 63.9454 76.6957 67.1158 76.0217 70.3862C74.6717 76.936 70.9154 83.702 67.0229 87.1051C63.2956 90.1957 59.985 91.6673 56.7667 91.6987C53.5487 91.7301 50.3215 90.3226 46.7586 87.4359C39.6835 81.6979 37.5015 72.3462 41.6143 66.5934C43.7211 63.6465 48.2451 59.5771 53.6662 56.8804C59.0898 54.1824 65.3051 52.9083 70.8561 55.3655Z" stroke="#C7C7C7"/>
</g>
<defs>
<clipPath id="clip0">
<rect width="98" height="64" fill="white"/>
</clipPath>
</defs>
</svg>
