<svg width="98" height="64" viewBox="0 0 98 64" fill="none" xmlns="http://www.w3.org/2000/svg">
<g clip-path="url(#clip0)">
<path d="M106.736 25.6389C107.585 26.0189 108.41 26.488 109.211 27.0364L108.927 27.4487C110.598 28.5932 112.172 30.1004 113.64 31.8848L114.027 31.5672C114.615 32.2819 115.185 33.0385 115.737 33.8313L115.326 34.1168C116.527 35.8428 117.641 37.746 118.666 39.7652L119.112 39.5388C119.537 40.3752 119.945 41.2306 120.338 42.1006L119.882 42.3065C120.776 44.2867 121.587 46.3449 122.312 48.429L122.784 48.2645C123.097 49.1614 123.393 50.0628 123.673 50.9646L123.195 51.1131C123.859 53.2524 124.432 55.394 124.91 57.4822L125.398 57.3702C125.613 58.3083 125.809 59.2357 125.985 60.1475L125.494 60.243C125.94 62.5459 126.262 64.7457 126.456 66.761L126.954 66.7126C127.049 67.7057 127.114 68.6551 127.147 69.5514L126.648 69.5705C126.692 70.7612 126.68 71.8516 126.612 72.8198C126.531 73.9692 126.347 75.0799 126.068 76.1473L126.552 76.2732C126.298 77.2427 125.968 78.1782 125.567 79.0763L125.11 78.8731C124.193 80.9261 122.893 82.7807 121.278 84.3935L121.631 84.7468C120.936 85.4406 120.185 86.0902 119.382 86.6923L119.082 86.2929C117.329 87.6085 115.322 88.695 113.118 89.5143L113.292 89.9826C112.377 90.3229 111.429 90.6177 110.453 90.8645L110.33 90.38C108.204 90.9174 105.938 91.2241 103.574 91.2724L103.583 91.772C102.607 91.7919 101.615 91.7685 100.61 91.6998L100.644 91.2012C99.5267 91.1248 98.3921 90.9917 97.2449 90.7992L97.2441 90.7991C96.0593 90.602 94.9219 90.3385 93.8321 90.0146L93.6889 90.4935C92.6939 90.1977 91.7373 89.8522 90.8191 89.461L91.0158 89.0013C88.7983 88.0566 86.8106 86.8412 85.0546 85.4159L84.7388 85.8039C83.9427 85.1577 83.1933 84.4692 82.4906 83.7438L82.8504 83.3961C81.2156 81.7084 79.8383 79.8157 78.7222 77.7886L78.2838 78.0298C77.7927 77.1378 77.3513 76.2205 76.9602 75.2838L77.4219 75.0909C76.5203 72.9321 75.8892 70.6676 75.5324 68.372L75.0381 68.4493C74.8815 67.4421 74.7769 66.4292 74.7245 65.4166L75.2241 65.3902C75.1636 64.2209 75.1738 63.0524 75.2553 61.8942C75.3302 60.8281 75.4862 59.6566 75.7193 58.4059L75.2275 58.3149C75.4067 57.354 75.6304 56.3496 75.8964 55.3134L76.381 55.437C76.9332 53.2865 77.6704 50.9952 78.5732 48.6709L78.1068 48.4906C78.4733 47.547 78.8668 46.5983 79.2859 45.6516L79.7434 45.8533C80.6956 43.7025 81.7808 41.5631 82.9831 39.5193L82.5518 39.2665C83.0747 38.3776 83.6196 37.5064 84.1854 36.6596L84.6014 36.9367C85.9564 34.9088 87.4287 33.0277 88.9995 31.3863L88.6381 31.0412C89.3622 30.2846 90.1078 29.5772 90.8733 28.928L91.1968 29.3088C93.0886 27.7045 95.0889 26.4754 97.1705 25.7474L97.0057 25.2758C97.9823 24.9343 98.9794 24.6982 99.9945 24.5811L100.051 25.0776C101.176 24.9479 102.322 24.9699 103.489 25.1635C104.532 25.3386 105.546 25.6538 106.531 26.0949L106.736 25.6389Z" stroke="#969695" stroke-dasharray="7 3"/>
<path d="M91.4175 -7.25518L91.4182 -7.25474C92.3311 -6.67992 93.1736 -6.01557 93.9421 -5.27388L94.2897 -5.63363C94.9702 -4.97696 95.5939 -4.2619 96.1586 -3.49663L95.756 -3.19967C97.007 -1.50424 97.9628 0.448991 98.5926 2.56737L99.0721 2.42452C99.339 3.3222 99.5485 4.24795 99.6986 5.19487L99.2046 5.27362C99.5336 7.34932 99.5711 9.53174 99.2935 11.7449L99.7897 11.8065C99.6733 12.7352 99.5025 13.6688 99.2758 14.6019L98.7897 14.4844C98.5377 15.522 98.2151 16.5592 97.8196 17.5884C97.3181 18.8824 96.7829 19.9899 96.2171 20.9327L96.646 21.1894C96.026 22.2224 95.3655 23.0715 94.666 23.7595L94.3153 23.4035C92.4334 25.2546 90.2604 25.8733 87.7702 25.7505L87.745 26.2498C86.7178 26.1991 85.6464 26.027 84.533 25.7663L84.6476 25.2796C83.5018 25.0114 82.305 24.6462 81.0566 24.2191C80.0219 23.8651 78.8282 23.2658 77.5484 22.4616L77.2819 22.8849C76.3632 22.3076 75.409 21.6318 74.4459 20.8758L74.7551 20.4826C72.7823 18.9339 70.7693 17.0422 68.9535 14.9704L68.5771 15.2999C67.8108 14.4256 67.0793 13.5196 66.3997 12.5938L66.8031 12.2978C65.1319 10.0209 63.7923 7.63983 63.0326 5.33617L62.5576 5.49312C62.1774 4.34044 61.9367 3.20194 61.8662 2.09871L62.3653 2.06629C62.2803 0.736539 62.4553 -0.522736 62.9376 -1.68014C63.4023 -2.7952 64.0834 -3.7937 64.9389 -4.67888L64.5794 -5.02595C65.3169 -5.78903 66.1745 -6.46734 67.1242 -7.06289L67.3897 -6.63958C69.3612 -7.87605 71.7572 -8.75354 74.3144 -9.281L74.2138 -9.77052C75.2733 -9.98906 76.357 -10.148 77.4462 -10.2486L77.4917 -9.75089C80.0371 -9.98608 82.6113 -9.89762 84.9659 -9.50526L85.0487 -9.99831C86.1625 -9.81272 87.2293 -9.56025 88.224 -9.24273L88.0714 -8.76656C89.3333 -8.36377 90.465 -7.85716 91.4175 -7.25518Z" stroke="#A9B3A4" stroke-dasharray="7 3"/>
<path d="M69.6083 53.5865L69.6086 53.5868C71.9174 55.47 72.9153 57.9316 72.9704 60.6691C73.0259 63.4245 72.1237 66.4645 70.6067 69.4392C67.5686 75.3967 62.153 80.9247 57.4975 83.1741C53.0842 85.1659 49.5019 85.7071 46.3905 84.8842C43.2793 84.0613 40.5407 81.8485 37.8706 78.1206C32.57 70.7121 32.9454 61.1167 38.4362 56.6601C41.2489 54.3771 46.6898 51.6528 52.6319 50.4898C58.5768 49.3262 64.9074 49.7455 69.6083 53.5865Z" stroke="#C7C7C7"/>
</g>
<defs>
<clipPath id="clip0">
<rect width="98" height="64" fill="white"/>
</clipPath>
</defs>
</svg>
