<?xml version="1.0" encoding="utf-8"?>
<!-- Generator: Adobe Illustrator 22.1.0, SVG Export Plug-In . SVG Version: 6.00 Build 0)  -->
<svg version="1.1" id="Слой_1" xmlns="http://www.w3.org/2000/svg" xmlns:xlink="http://www.w3.org/1999/xlink" x="0px" y="0px"
	 viewBox="0 0 37 33" style="enable-background:new 0 0 37 33;" xml:space="preserve">
<style type="text/css">
	.st0{fill:#6D94B1;stroke:#FFFFFF;stroke-width:0.2;}
</style>
<path class="st0" d="M28.2,13.9L28.2,13.9 M28.2,13.9 M28.2,13.9c-0.1,0,0,1.6,0,1.7c0,0.7,0,1.4,0,2.1c0,1.4,0,2.9,0,4.3
	c0,0.3,0,0.6,0,0.9c0,0.5,0,1-0.2,1.4c-0.2,0.4-0.6,0.6-1,0.8c-1.1,0.7-2.2,1.3-3.3,2c-0.3,0.2-0.6,0.4-0.9,0.2
	c-0.3-0.2-0.4-0.6-0.4-1c0-3.1,0-6.2,0-9.3c-4-2.3-8-4.6-12.1-6.8C10.1,10.2,9.8,10,9.6,10c-0.3,0-0.5,0.2-0.8,0.3
	c-2.2,1.4-4.4,2.7-6.5,4.1c4,2.3,8.1,4.6,12.1,6.8c1.7-1.1,3.4-2.2,5.1-3.2c0.4-0.2,0.7-0.5,1.2-0.4c0.4,0,0.8,0.5,0.7,0.8
	c-0.1,0.2-0.3,0.3-0.4,0.4c-1.9,1.2-3.7,2.4-5.6,3.6c-0.3,0.2-0.6,0.4-0.9,0.3c-0.3,0-0.6-0.2-0.8-0.3c-4.2-2.4-8.5-4.8-12.7-7.2
	c-0.4-0.2-0.8-0.5-0.7-0.9c0-0.3,0.3-0.5,0.6-0.7c7-4.4,14-8.8,21.1-13.2c0.3-0.2,0.5-0.3,0.8-0.3c0.3,0,0.6,0.2,0.9,0.3
	c4.3,2.4,8.5,4.8,12.8,7.3c0.3,0.2,0.7,0.5,0.6,0.9c0,0.2-0.3,0.4-0.4,0.5c-1.9,1.3-3.8,2.5-5.8,3.6c-0.5,0.3-1.2,0.4-1.4,0
	c-0.2-0.4,0.2-0.8,0.6-1.1c1.6-1.1,3.2-2.1,4.9-3.1c-3.8-2.2-7.6-4.3-11.4-6.5c-0.2-0.1-0.4-0.2-0.7-0.2c-0.3,0-0.6,0.2-0.8,0.3
	c-2.2,1.4-4.4,2.7-6.5,4.1c0,0,0.4,0.2,0.4,0.3c0.2,0.1,0.3,0.2,0.5,0.3c0.3,0.2,0.6,0.4,0.9,0.5c0.6,0.4,1.2,0.7,1.9,1.1
	c1.2,0.7,2.5,1.4,3.7,2.1s2.5,1.4,3.7,2.1c0.2,0.1,0.5,0.3,0.7,0.4c0.2,0.1,0.5,0.2,0.7,0.4C27.9,13.4,28.2,13.6,28.2,13.9
	 M28.2,13.9 M28.2,13.9 M23.8,25.2v0.2l0.2-0.1l2.7-1.7l0,0v-0.1v-8v-0.2l-0.2,0.1L25.6,16l0,0c-0.1,0.1-0.3,0.1-0.4,0.1
	c-0.2,0-0.5-0.1-0.6-0.3v0c-0.2-0.3-0.1-0.8,0.2-1l0,0l1-0.7L26,14l-0.1-0.1L14,7.2l-0.1,0l-0.1,0l-2.7,1.7L11,9l0.1,0.1l12.3,7
	l0-0.1l0,0.1c0.2,0.1,0.4,0.4,0.4,0.6V25.2z"/>
<path class="st0" d="M35.8,11.2L35.8,11.2c0.3-0.2,0.8-0.1,1,0.2h0c0.2,0.3,0.1,0.8-0.2,1l0,0l-6.2,3.9l0,0
	c-0.1,0.1-0.3,0.1-0.4,0.1c-0.2,0-0.5-0.1-0.6-0.3v0c-0.2-0.3-0.1-0.8,0.2-1l0,0L35.8,11.2z"/>
<path class="st0" d="M20.2,21L20.2,21c0.3-0.2,0.8-0.1,1,0.2v0c0.2,0.3,0.1,0.8-0.2,1l0,0l-6.2,3.9l0,0c-0.1,0.1-0.3,0.1-0.4,0.1
	c-0.1,0-0.3,0-0.4-0.1l0,0L0.5,18.5h0c-0.4-0.2-0.5-0.6-0.3-1h0c0.2-0.4,0.7-0.5,1-0.3h0l13.1,7.4l0.1,0l0.1,0L20.2,21z"/>
<path class="st0" d="M35.8,14.6L35.8,14.6c0.3-0.2,0.8-0.1,1,0.2h0c0.2,0.3,0.1,0.8-0.2,1l0,0l-6.2,3.9v0c-0.1,0.1-0.3,0.1-0.4,0.1
	c-0.2,0-0.5-0.1-0.6-0.3v0c-0.2-0.3-0.1-0.8,0.2-1l0,0L35.8,14.6z"/>
<path class="st0" d="M20.2,24.3L20.2,24.3c0.3-0.2,0.8-0.1,1,0.2v0c0.2,0.3,0.1,0.8-0.2,1v0l-6.2,3.9c-0.1,0.1-0.3,0.1-0.4,0.1
	c-0.1,0-0.3,0-0.4-0.1l0,0L0.5,21.8h0c-0.4-0.2-0.5-0.6-0.3-1l0,0c0.2-0.4,0.7-0.5,1-0.3h0l13.1,7.4l0.1,0l0.1,0L20.2,24.3z"/>
<path class="st0" d="M35.8,17.9L35.8,17.9c0.3-0.2,0.8-0.1,1,0.2l0,0c0.2,0.3,0.1,0.8-0.2,1l0,0L30.4,23l0,0
	c-0.1,0.1-0.3,0.1-0.4,0.1c-0.2,0-0.5-0.1-0.6-0.3l0,0c-0.2-0.3-0.1-0.8,0.2-1v0L35.8,17.9z"/>
<path class="st0" d="M20.2,27.7L20.2,27.7c0.3-0.2,0.8-0.1,1,0.2v0c0.2,0.3,0.1,0.8-0.2,1l0,0l-6.2,3.9c-0.1,0.1-0.3,0.1-0.4,0.1
	c-0.1,0-0.3,0-0.4-0.1l0,0L0.5,25.1h0c-0.4-0.2-0.5-0.6-0.3-1h0c0.2-0.4,0.7-0.5,1-0.3h0l13.1,7.4l0.1,0l0.1,0L20.2,27.7z"/>
</svg>
