<svg width="96" height="96" viewBox="0 0 96 96" fill="none" xmlns="http://www.w3.org/2000/svg">
<g clip-path="url(#clip0)">
<path d="M92.9532 42.1528L50.2368 0.90986C48.9924 -0.303144 47.0076 -0.303144 45.7632 0.90986L3.04841 42.1512C2.41957 42.7581 2.06448 43.5945 2.06448 44.4685C2.06448 46.2473 3.50656 47.6892 5.2852 47.6892H10.9617V92.7793C10.9617 94.5581 12.4036 96 14.1824 96H36.7275C38.5063 96 39.9482 94.5581 39.9482 92.7793V67.0135H56.0518V92.7793C56.0518 94.5581 57.4937 96 59.2725 96H81.8175C83.5964 96 85.0383 94.5581 85.0383 92.7793V47.6892H90.7148C91.588 47.6892 92.4236 47.3347 93.0305 46.7069C94.2666 45.4279 94.232 43.3889 92.9532 42.1528ZM85.0383 44.4685C83.2594 44.4685 81.8175 45.9104 81.8175 47.6892V92.7793H59.2725V67.0135C59.2725 65.2347 57.8306 63.7928 56.0518 63.7928H39.9482C38.1694 63.7928 36.7275 65.2347 36.7275 67.0135V92.7793H14.1824V47.6892C14.1824 45.9104 12.7406 44.4685 10.9617 44.4685H5.2852L48 3.22717L90.7309 44.4685H85.0383V44.4685Z" fill="#454545"/>
</g>
<defs>
<clipPath id="clip0">
<rect width="96" height="96" fill="white"/>
</clipPath>
</defs>
</svg>
