<svg width="82" height="82" viewBox="0 0 82 82" fill="none" xmlns="http://www.w3.org/2000/svg">
<path d="M59.8033 0H22.1967C9.95721 0 0 9.95721 0 22.1967V59.804C0 72.0428 9.95721 82 22.1967 82H59.804C72.0428 82 82 72.0428 82 59.804V22.1967C82 9.95721 72.0428 0 59.8033 0V0ZM77.1928 59.804C77.1928 69.3921 69.3921 77.1928 59.8033 77.1928H22.1967C12.6079 77.1928 4.80719 69.3921 4.80719 59.804V22.1967C4.80719 12.6079 12.6079 4.80719 22.1967 4.80719H59.804C69.3921 4.80719 77.1928 12.6079 77.1928 22.1967V59.804Z" fill="#676766"/>
<path d="M41.0004 18.5781C28.637 18.5781 18.5791 28.6361 18.5791 40.9994C18.5791 53.3627 28.637 63.4206 41.0004 63.4206C53.3637 63.4206 63.4216 53.3627 63.4216 40.9994C63.4216 28.6361 53.3637 18.5781 41.0004 18.5781ZM41.0004 58.6134C31.2884 58.6134 23.3863 50.712 23.3863 40.9994C23.3863 31.2874 31.2884 23.3853 41.0004 23.3853C50.713 23.3853 58.6144 31.2874 58.6144 40.9994C58.6144 50.712 50.713 58.6134 41.0004 58.6134Z" fill="#676766"/>
<path d="M63.9572 10.6152C60.3037 10.6152 57.332 13.5875 57.332 17.2404C57.332 20.894 60.3037 23.8663 63.9572 23.8663C67.6108 23.8663 70.5831 20.894 70.5831 17.2404C70.5831 13.5869 67.6108 10.6152 63.9572 10.6152ZM63.9572 19.0585C62.955 19.0585 62.1392 18.2427 62.1392 17.2404C62.1392 16.2376 62.955 15.4224 63.9572 15.4224C64.9601 15.4224 65.7759 16.2376 65.7759 17.2404C65.7759 18.2427 64.9601 19.0585 63.9572 19.0585Z" fill="#676766"/>
</svg>
