<svg width="50" height="50" viewBox="0 0 50 50" fill="none" xmlns="http://www.w3.org/2000/svg">
<path d="M48.2682 36.2009C46.3793 36.0739 44.4831 36.1007 42.5985 36.2809V35.2546C43.1461 35.0752 43.6084 34.7001 43.8968 34.2011C44.3065 33.4922 44.2991 32.6166 43.8776 31.9148C43.5364 31.3458 43.1624 30.7972 42.7577 30.2716C42.5199 29.9875 42.1683 29.8233 41.7978 29.8233C41.4272 29.8233 41.0757 29.9875 40.8379 30.2716C40.4334 30.7968 40.0595 31.345 39.718 31.9132C39.2965 32.6154 39.2891 33.4911 39.6988 34.2003C39.9874 34.6999 40.4503 35.0754 40.9987 35.2547V36.4547C37.1838 36.8841 33.5011 38.1079 30.1879 40.0473C27.4645 39.5399 24.8133 38.702 22.2928 37.5523C23.9939 36.8945 25.6256 36.07 27.1643 35.0907L27.2442 35.0411C27.3354 34.9859 27.4282 34.9291 27.4994 34.8811C38.8037 27.4957 47.7258 28.2013 48.1018 28.2381C48.5419 28.2778 48.9308 27.9534 48.9705 27.5133C49.0103 27.0733 48.6858 26.6843 48.2458 26.6446C47.9762 26.6197 43.5208 26.2669 36.9991 28.4549V26.5085C38.0639 26.2748 38.9833 25.6081 39.5364 24.6686C40.3142 23.3654 40.3569 21.7511 39.6492 20.4087C38.9995 19.1976 38.2825 18.0237 37.5014 16.8928C37.2106 16.4582 36.7221 16.1973 36.1992 16.1973C35.6763 16.1973 35.1879 16.4582 34.897 16.8928C34.116 18.0237 33.3989 19.1976 32.7492 20.4087C32.0416 21.7511 32.0843 23.3654 32.862 24.6686C33.4152 25.6081 34.3345 26.2747 35.3993 26.5085V29.0301C34.3283 29.4396 33.2124 29.9148 32.0565 30.47C30.8605 28.5017 28.6974 27.33 26.3955 27.4035C24.0937 27.4771 22.0097 28.7845 20.9418 30.8252C19.1516 29.8665 17.301 29.0252 15.4016 28.3069V26.1397C16.1674 25.9158 16.8203 25.4106 17.2294 24.7254C17.9224 23.5931 17.9873 22.1847 17.4014 20.9935C16.907 20.0018 16.3598 19.0372 15.7624 18.104C15.5161 17.6968 15.0748 17.448 14.5989 17.448C14.123 17.448 13.6818 17.6968 13.4354 18.104C12.8396 19.0372 12.2943 20.0017 11.802 20.9935C11.2171 22.1853 11.2832 23.5937 11.9772 24.7254C12.3855 25.4099 13.0371 25.915 13.8018 26.1397V27.7397C11.9722 27.1248 10.101 26.6415 8.20253 26.2934V25.4014C8.69053 25.2138 9.10411 24.8723 9.38083 24.4286C9.89171 23.5958 9.94055 22.5594 9.51038 21.6822C9.17638 21.0117 8.80658 20.3596 8.40247 19.7287C8.17581 19.3998 7.80198 19.2034 7.40256 19.2034C7.00314 19.2034 6.6293 19.3998 6.40264 19.7287C5.99872 20.3591 5.62892 21.0107 5.29474 21.6806C4.86457 22.5581 4.9135 23.5947 5.42429 24.4277C5.70082 24.8717 6.11439 25.2134 6.60259 25.4013V26.0413C5.01409 25.8089 3.40693 25.7286 1.80315 25.8013C1.51733 25.8222 1.26443 25.994 1.13957 26.2519C1.01471 26.5098 1.03702 26.8147 1.19797 27.0518C1.35892 27.2889 1.63413 27.4221 1.91994 27.4012C2.81506 27.3364 10.9765 26.9364 21.4057 32.897C22.5278 33.5367 23.6929 34.098 24.8925 34.577C23.5622 35.3072 22.1704 35.9192 20.733 36.4057C19.9179 35.0233 19.0756 33.793 18.4716 32.9546C18.1333 32.4821 17.5881 32.2019 17.007 32.2019C16.426 32.2019 15.8806 32.4822 15.5423 32.9546C15.332 33.2474 15.0895 33.5946 14.8319 33.9705C10.6254 32.5206 6.17308 31.9191 1.73265 32.201C1.44684 32.2261 1.19618 32.4019 1.07507 32.6619C0.953962 32.922 0.980772 33.2269 1.14547 33.4619C1.31017 33.6968 1.58764 33.8261 1.87345 33.8009C5.9512 33.5597 10.038 34.0833 13.9232 35.3448C13.5585 35.9224 13.185 36.5448 12.8266 37.1848C11.9706 38.7043 11.9925 40.5657 12.8841 42.0646C13.6005 43.2984 14.8346 44.1438 16.2438 44.3661V46.7205C14.1998 47.1486 12.1176 47.3686 10.0293 47.3773L1.80305 47.4004C1.36126 47.4004 1.00318 47.7585 1.00318 48.2004C1.00318 48.6422 1.36126 49.0003 1.80305 49.0003L10.0317 48.9772C12.3775 48.9683 14.7153 48.7051 17.0044 48.1924C17.0173 48.1924 17.0284 48.2004 17.042 48.2004C17.1658 48.1982 17.2873 48.1666 17.3964 48.1084C19.9648 47.5108 22.4438 46.5789 24.7699 45.3365C26.5781 44.3537 28.3259 43.2635 30.0037 42.0717C30.2509 41.8917 30.5061 41.7269 30.7741 41.5614C37.9268 36.9639 48.024 37.7887 48.1249 37.8014C48.5669 37.841 48.9573 37.5147 48.9968 37.0726C49.0362 36.6306 48.7102 36.2404 48.2682 36.2009ZM34.2322 23.8485C33.7353 23.0284 33.7091 22.0066 34.1634 21.1621C34.8745 19.819 35.672 18.5942 36.1832 17.8022C36.9289 18.8832 37.6139 20.0049 38.235 21.1621C38.6892 22.0066 38.6631 23.0284 38.1661 23.8485C37.7676 24.5607 37.0152 25.0017 36.1992 25.0017C35.3831 25.0017 34.6308 24.5607 34.2322 23.8485ZM8.02246 23.5821C7.89722 23.8102 7.6624 23.9569 7.40256 23.9693C7.14262 23.9568 6.9079 23.8102 6.78266 23.5821C6.56191 23.2189 6.54203 22.7682 6.72989 22.3869C6.95149 21.9389 7.18902 21.5141 7.40265 21.155C7.61619 21.5141 7.85382 21.939 8.07542 22.3878C8.26308 22.7687 8.24321 23.2192 8.02246 23.5821ZM13.3322 23.8813C12.9282 23.2195 12.8911 22.3969 13.2338 21.7014C13.697 20.7614 14.2065 19.8934 14.6016 19.2591C14.9968 19.8934 15.5063 20.7614 15.9695 21.7014C16.3123 22.3969 16.2752 23.2195 15.871 23.8813C15.6239 24.3538 15.1348 24.6499 14.6016 24.6499C14.0684 24.65 13.5794 24.3538 13.3322 23.8813ZM22.348 31.5875C23.1736 30.001 24.812 29.0044 26.6003 29.0012C28.2273 28.9996 29.7437 29.8246 30.6262 31.1915C29.3384 31.8675 28.0105 32.6387 26.6499 33.5258C25.1607 33.01 23.7209 32.3613 22.348 31.5875ZM17.0014 42.8302C15.8726 42.8302 14.8292 42.2288 14.2633 41.252V41.2544C13.6612 40.2436 13.6466 38.9878 14.2249 37.9633C15.0175 36.5571 15.8889 35.1969 16.835 33.8891C16.8726 33.8341 16.9348 33.8013 17.0014 33.8013C17.0679 33.8013 17.1301 33.8341 17.1677 33.8891C18.1138 35.1961 18.9852 36.5556 19.7778 37.961C20.3562 38.9856 20.3415 40.2413 19.7394 41.2521C19.1736 42.2288 18.1303 42.8302 17.0014 42.8302ZM24.0142 43.9279C22.0588 44.9711 19.9882 45.7822 17.8444 46.3446V44.3503C19.219 44.1083 20.417 43.2723 21.1185 42.0655C21.6528 41.1631 21.8823 40.1126 21.7728 39.0697C23.8792 40.0112 26.0683 40.7557 28.312 41.2936C26.9257 42.245 25.4911 43.1242 24.0142 43.9279ZM41.7985 33.7771C41.5165 33.7771 41.252 33.6398 41.0898 33.409C40.965 33.1985 40.9678 32.936 41.097 32.7282C41.3274 32.3386 41.5769 31.969 41.7985 31.6618C42.0193 31.969 42.2697 32.3386 42.5001 32.729C42.6292 32.9365 42.6319 33.1986 42.5073 33.4089C42.345 33.6398 42.0806 33.7771 41.7985 33.7771Z" fill="#676766" stroke="#F2ECE5" stroke-width="0.3"/>
<path d="M13.4021 13.8004H15.4427C15.6389 15.1745 16.8136 16.1964 18.2015 16.2004H25.4007C26.8845 16.2001 28.1104 15.0422 28.1954 13.5607C28.2803 12.0792 27.1948 10.7888 25.7207 10.6189C25.346 8.75036 23.7068 7.40452 21.8012 7.40059C21.4343 7.4049 21.0698 7.4604 20.7182 7.56539C20.0834 5.90354 18.4248 4.86294 16.6524 5.01462C14.88 5.16631 13.4223 6.47343 13.079 8.219C11.6043 8.38887 10.5186 9.68034 10.6044 11.1624C10.6901 12.6444 11.9176 13.8019 13.4021 13.8004ZM21.8011 9.00057C23.1264 9.00057 24.2008 10.0751 24.2008 11.4005C24.2008 11.8423 24.5589 12.2005 25.0007 12.2005H25.4007C26.0633 12.2005 26.6006 12.7377 26.6006 13.4004C26.6023 13.7192 26.4765 14.0254 26.251 14.2508C26.0257 14.4762 25.7194 14.6021 25.4007 14.6004H18.2015C17.5389 14.6004 17.0017 14.0631 17.0017 13.4004C17.0017 12.7377 17.5389 12.2005 18.2015 12.2005H18.6015C19.0433 12.2005 19.4014 11.8423 19.4014 11.4005C19.4014 10.0751 20.4757 9.00057 21.8011 9.00057ZM12.5518 10.1501C12.7771 9.92473 13.0834 9.79883 13.4021 9.80052H13.8021C14.2439 9.80052 14.602 9.44231 14.602 9.00057C14.6035 7.81476 15.4708 6.80773 16.6432 6.63064C17.8156 6.45355 18.9417 7.15937 19.2934 8.29184C18.5652 8.87861 18.0657 9.70208 17.8816 10.6189C16.9202 10.7209 16.0838 11.3219 15.6802 12.2005H13.4021C12.7395 12.2005 12.2022 11.6632 12.2022 11.0005C12.2005 10.6817 12.3263 10.3756 12.5518 10.1501Z" fill="#676766" stroke="#F2ECE5" stroke-width="0.3"/>
<path d="M34.1991 9.80128H41.3983C42.8821 9.801 44.108 8.64313 44.193 7.16164C44.2779 5.68015 43.1924 4.38972 41.7183 4.21985C41.3462 2.34809 39.7038 1 37.7956 1C35.8875 1 34.245 2.34809 33.8729 4.21985C32.3977 4.38981 31.3117 5.68221 31.3984 7.16483C31.485 8.64753 32.7141 9.80447 34.1991 9.80128ZM33.3488 6.15104C33.5742 5.92558 33.8803 5.79968 34.1991 5.80146H34.5991C35.0409 5.80146 35.399 5.44334 35.399 5.00151C35.399 3.67611 36.4734 2.60158 37.7987 2.60158C39.124 2.60158 40.1984 3.67611 40.1984 5.00151C40.1984 5.44334 40.5565 5.80146 40.9983 5.80146H41.3983C41.827 5.80146 42.2231 6.0302 42.4374 6.40144C42.6517 6.77268 42.6517 7.23017 42.4374 7.60141C42.2231 7.97265 41.827 8.20139 41.3983 8.20139H34.1991C33.7126 8.20289 33.2735 7.91049 33.0871 7.46116C32.9008 7.01174 33.0042 6.49425 33.3488 6.15104Z" fill="#676766" stroke="#F2ECE5" stroke-width="0.3"/>
</svg>
