<svg width="43" height="42" viewBox="0 0 43 42" fill="none" xmlns="http://www.w3.org/2000/svg">
<path d="M31.9908 33.1418C32.2074 30.7786 33.2943 29.0494 34.3972 27.276C36.5791 23.8135 38.8893 20.1463 33.6753 10.7538C33.4865 10.3959 33.6229 9.95269 33.9801 9.76281C34.3343 9.56552 34.7813 9.6928 34.9785 10.0471C34.9786 10.0473 34.9787 10.0475 34.9788 10.0477C40.6179 20.1945 38.0671 24.2348 35.6606 28.0584C34.6379 29.6632 33.6552 31.2681 33.4547 33.2742C33.4181 33.6786 33.0609 33.9768 32.6566 33.9402C32.2523 33.9036 31.9542 33.5462 31.9908 33.1418Z" fill="#676766"/>
<path d="M14.2712 10.7828C14.5048 11.4255 14.8348 12.0289 15.2498 12.5723C15.981 13.5578 17.0436 14.246 18.2418 14.5101C19.5172 14.787 21.0493 14.6144 22.798 13.824C25.3287 12.6806 28.2766 10.2813 31.5173 6.15276C29.6724 5.96419 26.3956 5.37039 23.9531 3.51275C21.8875 1.93997 20.0225 1.36222 18.4784 1.50666C17.8149 1.55942 17.1712 1.75802 16.5934 2.08842C16.0231 2.41903 15.5252 2.86117 15.1294 3.38837C14.4951 4.25259 14.0744 5.25494 13.9022 6.31325C13.379 6.41175 12.863 6.54575 12.358 6.71447C12.4998 5.18422 13.0543 3.72118 13.9623 2.48162C14.4798 1.79543 15.1306 1.22089 15.8754 0.792488C16.6414 0.354559 17.4947 0.0915605 18.3741 0.0221498C20.2592 -0.134325 22.4731 0.527685 24.8595 2.3452C27.8515 4.62011 32.3555 4.75251 32.909 4.75251C33.3157 4.72583 33.6671 5.03397 33.6937 5.4408C33.7052 5.61503 33.6545 5.78765 33.5507 5.92808C29.7967 10.9473 26.3595 13.812 23.4076 15.1561C21.3461 16.0829 19.5052 16.2795 17.937 15.9585C16.3922 15.6191 15.0229 14.7311 14.0826 13.4589C13.589 12.8056 13.1956 12.0821 12.9155 11.3124L13.0318 11.2563C13.4311 11.0643 13.8456 10.9059 14.2712 10.7828Z" fill="#676766"/>
<path d="M3.62633 17.1336C9.60232 7.17137 14.3751 7.35593 18.8872 7.53247C20.8043 7.6087 22.6693 7.68092 24.5022 6.83435C24.8848 6.70044 25.3035 6.90225 25.4373 7.28502C25.5525 7.61462 25.4197 7.97983 25.1198 8.15837C22.9661 9.14938 20.9286 9.07314 18.835 8.98889C14.7441 8.84445 10.4125 8.67594 4.88971 17.8879C4.68145 18.2369 4.22984 18.351 3.88101 18.1427C3.53218 17.9344 3.41807 17.4827 3.62633 17.1336Z" fill="#676766"/>
<path d="M26.7966 28.1605C27.0212 25.9137 27.7753 24.2206 28.8541 23.029C29.9167 21.8614 31.3654 21.1177 32.9331 20.9346C33.7443 20.8331 34.5662 20.8534 35.3716 20.9948C35.3716 21.0389 35.3716 21.079 35.3716 21.1232C35.3369 21.5698 35.2644 22.0128 35.155 22.4472C34.4839 22.3259 33.7983 22.307 33.1216 22.391C31.9055 22.5267 30.7791 23.0966 29.9491 23.9959C29.0747 24.9628 28.4571 26.3751 28.2646 28.2849C27.9878 31.0453 28.5894 34.7967 30.5346 39.6875C31.6216 38.179 33.7753 35.6352 36.6029 34.4476C39.0093 33.4406 40.4331 32.1206 41.0909 30.7203C41.3796 30.1259 41.5343 29.4753 41.5441 28.8145C41.5408 28.1535 41.4043 27.4998 41.143 26.8927C40.7124 25.9105 40.0554 25.0444 39.2259 24.365C39.3947 23.8585 39.5287 23.3411 39.627 22.8163C40.8817 23.7038 41.8716 24.916 42.4906 26.323C42.826 27.1108 42.9993 27.9582 43 28.8145C42.9964 29.6976 42.7979 30.5689 42.4184 31.3663C41.6163 33.0795 39.9278 34.6683 37.1684 35.8278C33.4865 37.3685 31.04 41.5853 31.0159 41.6294C30.8156 41.982 30.3676 42.1053 30.0152 41.905C29.8738 41.8245 29.763 41.6994 29.7004 41.5492C27.2338 35.7917 26.4718 31.3823 26.7966 28.1605Z" fill="#676766"/>
<path d="M5.91505 26.793C6.14877 26.4606 6.6075 26.3807 6.93979 26.6145C8.87697 27.9827 9.82752 29.7921 10.8061 31.6498C12.7152 35.2607 14.7326 39.1084 25.4694 39.2729C25.8748 39.2796 26.1979 39.6137 26.1913 40.0192C26.1847 40.4247 25.8507 40.748 25.4453 40.7414C13.8342 40.5488 11.6083 36.328 9.50265 32.3158C8.61226 30.6267 7.74194 28.9737 6.09352 27.8182C5.76124 27.5844 5.68132 27.1255 5.91505 26.793Z" fill="#676766"/>
<path d="M0.372242 20.4916C0.508907 20.4136 0.666929 20.3813 0.823147 20.3995L0.803095 20.4195C7.02374 21.1578 11.223 22.7065 13.8701 24.6082C15.703 25.9282 16.7939 27.4168 17.2832 28.9534C17.7628 30.4565 17.6831 32.0824 17.0586 33.5313C16.7396 34.2852 16.3098 34.987 15.7832 35.6136L15.6789 35.5414C15.3093 35.2877 14.9618 35.0032 14.6401 34.6908C15.0791 34.1725 15.4374 33.5909 15.703 32.9656C16.1901 31.8353 16.2513 30.5667 15.8754 29.3948C15.4744 28.151 14.5639 26.9152 13.0037 25.7838C10.7537 24.1789 7.20823 22.8108 2.0023 22.0525C2.76033 23.7496 3.88735 26.8671 3.49831 29.9244C3.16943 32.5042 3.59858 34.406 4.48495 35.6819C4.86186 36.2294 5.35487 36.6869 5.92881 37.0219C6.50134 37.3508 7.13434 37.561 7.78979 37.6398C8.85624 37.7568 9.93513 37.6192 10.9382 37.2386C11.2904 37.6399 11.6696 38.0166 12.0733 38.366C10.6784 39.008 9.13559 39.2589 7.60931 39.0922C6.76154 38.9885 5.94325 38.7157 5.20287 38.2898C4.44033 37.8446 3.78568 37.2363 3.28574 36.5084C2.20685 34.9516 1.68145 32.7048 2.05043 29.7318C2.55579 25.7597 0.105227 21.5108 0.0972042 21.4988C-0.104836 21.1447 0.0182953 20.6939 0.372242 20.4916Z" fill="#676766"/>
</svg>
