<svg width="61" height="112" viewBox="0 0 61 112" fill="none" xmlns="http://www.w3.org/2000/svg">
    <path class="svg-circle" d="M59.9974 40.6437C60.0777 36.849 59.7364 32.954 59.636 29.2798C59.5556 26.1878 59.4753 23.0758 59.3749 19.9838C59.2544 15.3057 54.8367 12.7358 51.202 10.6879C46.3023 7.93722 41.3825 5.1665 36.4828 2.41587C34.5349 1.33167 32.5269 0.207327 30.2979 0.0266237C27.607 -0.19423 24.9765 0.990347 22.6872 2.41587C20.1169 4.02208 17.4863 5.50782 14.936 7.07388C11.5022 9.28238 7.92785 11.25 4.49403 13.4787C3.2691 14.2818 2.10441 15.2455 1.34134 16.4903C0.417622 17.9961 0.176652 19.8232 0.0762476 21.59C-0.144641 25.6457 0.176652 29.7014 0.256975 33.737C0.337298 38.2746 -0.004076 48.5342 2.06425 50.3412C4.09242 52.108 5.91977 54.0757 8.30939 55.2803C13.2292 57.7499 18.0687 60.4603 22.7475 63.3515C25.1572 64.8373 27.8279 66.1423 30.6593 66.0018C34.4345 65.8211 37.9487 62.9901 41.0813 61.143C44.8364 58.9344 48.5714 56.7259 52.3265 54.5374C54.5957 53.2123 56.9451 51.7868 58.2705 49.518C58.9934 48.2933 59.3749 46.8879 59.5958 45.4824C59.8569 43.9364 59.9573 42.2901 59.9974 40.6437ZM56.8849 42.8322C56.8849 42.8924 56.8849 42.9326 56.8849 42.9928C56.8849 44.4183 56.8849 45.884 56.3427 47.2091C55.5395 49.1767 53.672 50.4617 51.8044 51.4455C45.8605 54.5575 40.3383 58.4325 34.4747 61.7453C33.4305 62.3476 32.3461 62.9299 31.1614 63.1106C29.1733 63.4318 27.2054 62.5886 25.4785 61.5445C19.5546 57.9306 13.4099 54.7181 7.36559 51.2648C6.06034 50.5219 4.67476 49.6987 3.97193 48.3535C3.38959 47.2493 3.34943 45.9643 3.30926 44.6994C3.20886 40.7039 3.12854 36.7085 3.02813 32.713C2.92773 28.7778 2.68676 24.7623 3.04821 20.8472C3.14862 19.7027 3.42975 18.5182 4.1125 17.5946C5.31735 15.9683 7.52624 15.0046 9.17287 13.9405C11.0805 12.7358 13.0083 11.491 15.0565 10.467C18.892 8.53955 22.4262 5.8893 26.2415 3.90161C27.4263 3.2792 28.6914 2.69695 30.0167 2.77726C31.1212 2.85757 32.1453 3.39967 33.1293 3.94177C36.543 5.82907 39.9568 7.73644 43.3906 9.54338C43.3906 9.54338 43.4508 9.58358 43.4107 9.56348C45.1577 10.5875 46.8846 11.5914 48.6317 12.6153C50.9209 13.9405 54.6559 15.386 55.8808 17.8556C56.1218 18.3375 56.2624 18.8595 56.3427 19.4016C56.9853 23.0758 56.664 27.1114 56.7242 30.8257C56.8247 34.8212 56.8648 38.8367 56.8849 42.8322ZM0.0762476 21.6101C-0.144641 25.6658 0.497945 29.7215 0.256975 33.7571L0.0762476 21.6101Z" fill="#676766"/>
    <line x1="23.0898" y1="98.7203" x2="45.0498" y2="98.7203" stroke="#676766" stroke-width="3.12"/>
    <line class="svg-line" id="line5" x1="30.3814" y1="36.0564" x2="1.36844" y2="19.0785" stroke="#676766" stroke-width="2.5"/>
    <line class="svg-line" id="line4" x1="29.3679" y1="35.5212" x2="58.3679" y2="18.5212" stroke="#676766" stroke-width="2.5"/>
    <line class="svg-line" id="line3" x1="29.3679" y1="45.2214" x2="58.3679" y2="28.2214" stroke="#676766" stroke-width="2.5"/>
    <line class="svg-line" id="line2" x1="29.3679" y1="55.6218" x2="58.3679" y2="38.6218" stroke="#676766" stroke-width="2.5"/>
    <path class="svg-line" id="line1" d="M50 109.5H35.5C29.5 109.9 29.5001 105.5 29.5 103.5V35" stroke="#676766" stroke-width="3.05"/>
</svg>