<svg width="287" height="112" viewBox="0 0 287 112" fill="none" xmlns="http://www.w3.org/2000/svg">
<path d="M265.582 95.064V88.844C265.641 85.564 269.654 85.564 269.654 85.564H281.819V82.564H269.654C269.654 82.564 262.527 82.7627 262.647 88.8427L262.647 94.564C262.567 101.245 269.634 101.064 269.634 101.064H279.616C279.616 101.064 283.948 101.064 283.948 103.258V105.444C284.028 108.444 279.875 108.524 279.875 108.524H262.647L262.647 111.564H279.875C279.875 111.564 287.102 111.484 286.982 105.404V102.564C286.982 98.064 279.616 98.064 279.616 98.064H269.634C269.634 98.064 265.582 98.064 265.582 95.064Z" fill="#676766"/>
<path d="M256.657 108.564H238.812C238.812 108.564 234.659 108.484 234.739 105.324V88.724C234.659 85.684 238.812 85.604 238.812 85.604H251.666V82.564H238.812C238.812 82.564 231.585 82.644 231.705 88.724V105.324C231.585 111.524 238.812 111.564 238.812 111.564H256.657V108.564Z" fill="#676766"/>
<path d="M225.714 108.511H207.983C207.983 108.511 203.764 108.592 203.845 105.418V101.251V101.158H220.723V98.1111H203.845V92.9168V88.7496C203.764 85.6969 207.983 85.6166 207.983 85.6166H225.673L225.714 82.564H207.983C207.983 82.564 200.64 82.6443 200.761 88.7496V105.418C200.64 111.644 207.983 111.564 207.983 111.564H225.714V108.511Z" fill="#676766"/>
<path d="M161.831 110.805C161.831 110.805 156.846 92.0277 155.801 87.673C153.59 80.7614 140.845 80.9612 138.875 87.673C137.83 92.0277 132.885 110.525 132.885 110.525L135.739 111.564C135.739 111.564 137.187 106.37 138.634 100.977H153.308V97.9405H139.438C140.564 93.9054 140.966 91.2287 141.77 88.4321C143.097 84.6367 151.821 84.6367 152.906 88.4321C153.952 92.7868 158.937 111.564 158.937 111.564L161.831 110.805Z" fill="#676766"/>
<path d="M107.106 111.564H119.735C119.735 111.564 127.015 111.644 126.894 105.418V104.294C127.015 98.0681 119.735 98.1484 119.735 98.1484H109.881V101.201H119.735C119.735 101.201 123.958 101.121 123.878 104.294V105.418C123.958 108.592 119.735 108.511 119.735 108.511H107.106C107.106 108.511 102.923 108.592 102.963 105.418V89.1512C103.044 85.6166 107.106 85.6166 107.106 85.6166H121.905V82.564H107.106C107.106 82.564 99.9468 82.564 99.9468 89.1512V105.418C99.8261 111.644 107.106 111.564 107.106 111.564Z" fill="#676766"/>
<path d="M93.9564 111.564V82.564H90.9619V111.564H93.9564Z" fill="#676766"/>
<path d="M84.9731 110.805C84.9731 110.805 79.9878 92.0277 78.9425 87.673C76.7313 80.7614 63.9867 80.9612 62.0167 87.673C60.9714 92.0277 56.0264 110.525 56.0264 110.525L58.8808 111.564C58.8808 111.564 60.3282 106.37 61.7755 100.977H76.4499V97.9405H62.5796C63.7053 93.9054 64.1073 91.2287 64.9114 88.4321C66.2381 84.6367 74.9623 84.6367 76.0478 88.4321C77.0931 92.7868 82.0784 111.564 82.0784 111.564L84.9731 110.805Z" fill="#676766"/>
<path d="M66.2677 69.1639L63.7942 77.5639H62.0335L60.3985 72.1039L58.7635 77.5639H57.0027L54.5293 69.1639H56.2901L57.8831 74.6239L59.5181 69.1639H61.2789L62.9139 74.6239L64.5069 69.1639H66.2677Z" fill="#799B6D"/>
<path d="M74.8886 75.1839C74.8886 76.8639 74.0502 77.7039 72.3732 77.7039H69.0194C67.3425 77.7039 66.504 76.8639 66.504 75.1839V71.5439C66.504 69.8639 67.3425 69.0239 69.0194 69.0239H72.3732C74.0502 69.0239 74.8886 69.8639 74.8886 71.5439V75.1839ZM73.2117 75.1839V71.5439C73.2117 70.9839 72.9322 70.7039 72.3732 70.7039H69.0194C68.4604 70.7039 68.181 70.9839 68.181 71.5439V75.1839C68.181 75.7439 68.4604 76.0239 69.0194 76.0239H72.3732C72.9322 76.0239 73.2117 75.7439 73.2117 75.1839Z" fill="#799B6D"/>
<path d="M84.3933 75.1839C84.3933 76.8639 83.5548 77.7039 81.8779 77.7039H78.5241C76.8472 77.7039 76.0087 76.8639 76.0087 75.1839V71.5439C76.0087 69.8639 76.8472 69.0239 78.5241 69.0239H81.8779C83.5548 69.0239 84.3933 69.8639 84.3933 71.5439V75.1839ZM82.7164 75.1839V71.5439C82.7164 70.9839 82.4369 70.7039 81.8779 70.7039H78.5241C77.9651 70.7039 77.6857 70.9839 77.6857 71.5439V75.1839C77.6857 75.7439 77.9651 76.0239 78.5241 76.0239H81.8779C82.4369 76.0239 82.7164 75.7439 82.7164 75.1839Z" fill="#799B6D"/>
<path d="M93.898 75.0439C93.898 76.7239 93.0595 77.5639 91.3826 77.5639H85.5134V69.1639H91.3826C93.0595 69.1639 93.898 70.0039 93.898 71.6839V75.0439ZM87.1903 75.8839H91.3826C91.9416 75.8839 92.2211 75.6039 92.2211 75.0439V71.6839C92.2211 71.1239 91.9416 70.8439 91.3826 70.8439H87.1903V75.8839Z" fill="#799B6D"/>
<path d="M110.669 70.8439H103.962V72.5239H108.992V74.2039H103.962V75.8839H110.669V77.5639H102.285V69.1639H110.669V70.8439Z" fill="#799B6D"/>
<path d="M120.174 77.5639H118.497L113.466 71.7399V77.5639H111.789V69.1639H113.466L118.497 74.9879V69.1639H120.174V77.5639Z" fill="#799B6D"/>
<path d="M129.679 77.5639H123.809C122.133 77.5639 121.294 76.7239 121.294 75.0439V71.6839C121.294 70.0039 122.133 69.1639 123.809 69.1639H129.679V70.8439H123.809C123.251 70.8439 122.971 71.1239 122.971 71.6839V75.0439C122.971 75.6039 123.251 75.8839 123.809 75.8839H128.002V74.2039H126.325V72.5239H129.679V77.5639Z" fill="#799B6D"/>
<path d="M132.476 77.5639H130.799V69.1639H132.476V77.5639Z" fill="#799B6D"/>
<path d="M141.974 77.5639H140.297L135.266 71.7399V77.5639H133.589V69.1639H135.266L140.297 74.9879V69.1639H141.974V77.5639Z" fill="#799B6D"/>
<path d="M151.479 70.8439H144.771V72.5239H149.802V74.2039H144.771V75.8839H151.479V77.5639H143.094V69.1639H151.479V70.8439Z" fill="#799B6D"/>
<path d="M160.983 70.8439H154.276V72.5239H159.306V74.2039H154.276V75.8839H160.983V77.5639H152.599V69.1639H160.983V70.8439Z" fill="#799B6D"/>
<path d="M170.488 71.6839V72.5239C170.488 74.2039 169.649 75.0439 167.973 75.0439L170.488 77.5639H168.112L165.597 75.0439H163.78V77.5639H162.103V69.1639H167.973C169.649 69.1639 170.488 70.0039 170.488 71.6839ZM168.811 71.6839C168.811 71.1239 168.532 70.8439 167.973 70.8439H163.78V73.3639H167.973C168.532 73.3639 168.811 73.0839 168.811 72.5239V71.6839Z" fill="#799B6D"/>
<path d="M173.285 77.5639H171.608V69.1639H173.285V77.5639Z" fill="#799B6D"/>
<path d="M182.783 77.5639H181.106L176.075 71.7399V77.5639H174.399V69.1639H176.075L181.106 74.9879V69.1639H182.783V77.5639Z" fill="#799B6D"/>
<path d="M192.288 77.5639H186.419C184.742 77.5639 183.903 76.7239 183.903 75.0439V71.6839C183.903 70.0039 184.742 69.1639 186.419 69.1639H192.288V70.8439H186.419C185.86 70.8439 185.58 71.1239 185.58 71.6839V75.0439C185.58 75.6039 185.86 75.8839 186.419 75.8839H190.611V74.2039H188.934V72.5239H192.288V77.5639Z" fill="#799B6D"/>
<path d="M194.621 77.5639H192.944V75.8839H194.621V77.5639Z" fill="#799B6D"/>
<path d="M211.386 71.6839V72.5239C211.386 74.2039 210.547 75.0439 208.87 75.0439H204.678V77.5639H203.001V69.1639H208.87C210.547 69.1639 211.386 70.0039 211.386 71.6839ZM209.709 71.6839C209.709 71.1239 209.429 70.8439 208.87 70.8439H204.678V73.3639H208.87C209.429 73.3639 209.709 73.0839 209.709 72.5239V71.6839Z" fill="#799B6D"/>
<path d="M220.89 70.8439H214.183V72.5239H219.213V74.2039H214.183V75.8839H220.89V77.5639H212.506V69.1639H220.89V70.8439Z" fill="#799B6D"/>
<path d="M230.395 71.6839V72.5239C230.395 74.2039 229.557 75.0439 227.88 75.0439L230.395 77.5639H228.019L225.504 75.0439H223.687V77.5639H222.01V69.1639H227.88C229.557 69.1639 230.395 70.0039 230.395 71.6839ZM228.718 71.6839C228.718 71.1239 228.439 70.8439 227.88 70.8439H223.687V73.3639H227.88C228.439 73.3639 228.718 73.0839 228.718 72.5239V71.6839Z" fill="#799B6D"/>
<path d="M239.9 70.8439H233.192V72.5239H238.223V74.2039H233.192V77.5639H231.515V69.1639H239.9V70.8439Z" fill="#799B6D"/>
<path d="M248.981 70.8439H242.274V72.5239H247.304V74.2039H242.274V75.8839H248.981V77.5639H240.597V69.1639H248.981V70.8439Z" fill="#799B6D"/>
<path d="M258.486 77.5639H252.617C250.94 77.5639 250.101 76.7239 250.101 75.0439V71.6839C250.101 70.0039 250.94 69.1639 252.617 69.1639H258.486V70.8439H252.617C252.058 70.8439 251.778 71.1239 251.778 71.6839V75.0439C251.778 75.6039 252.058 75.8839 252.617 75.8839H255.551H258.486V77.5639Z" fill="#799B6D"/>
<path d="M267.991 70.8439H264.637V77.5639H262.96V70.8439H259.606V69.1639H267.991V70.8439Z" fill="#799B6D"/>
<path d="M277.495 70.8439H270.788V72.5239H275.818V74.2039H270.788V75.8839H277.495V77.5639H269.111V69.1639H277.495V70.8439Z" fill="#799B6D"/>
<path d="M287 75.0439C287 76.7239 286.162 77.5639 284.485 77.5639H278.616V69.1639H284.485C286.162 69.1639 287 70.0039 287 71.6839V75.0439ZM280.292 75.8839H284.485C285.044 75.8839 285.323 75.6039 285.323 75.0439V71.6839C285.323 71.1239 285.044 70.8439 284.485 70.8439H280.292V75.8839Z" fill="#799B6D"/>
<path d="M172.812 82.564V105.409C172.772 112.114 179.944 111.552 179.944 111.552H194.771V108.501H179.944C179.944 108.501 175.777 108.421 175.857 105.409V82.564H172.812Z" fill="#676766"/>
<path d="M28.0783 82.564V105.409C28.0382 112.114 35.2111 111.552 35.2111 111.552H50.0377V108.501H35.2111C35.2111 108.501 31.0436 108.421 31.1238 105.409V82.564H28.0783Z" fill="#676766"/>
<path d="M167.821 98.064H189.781L189.781 101.197H167.821V98.064Z" fill="#676766"/>
<path d="M23.0869 98.064H45.0465L45.0467 101.197H23.0869V98.064Z" fill="#676766"/>
<path d="M60.0023 41.5531C60.0826 37.7584 59.7413 33.8634 59.6409 30.1892C59.5605 27.0972 59.4802 23.9852 59.3798 20.8932C59.2593 16.2151 54.8416 13.6452 51.2069 11.5973C46.3072 8.84664 41.3874 6.07592 36.4877 3.32529C34.5398 2.24109 32.5318 1.11675 30.3028 0.936047C27.6119 0.715193 24.9814 1.89977 22.6921 3.32529C20.1218 4.9315 17.4912 6.41724 14.9409 7.9833C11.5071 10.1918 7.93273 12.1594 4.49891 14.3881C3.27398 15.1912 2.10929 16.1549 1.34622 17.3997C0.422505 18.9055 0.181535 20.7326 0.0811306 22.4994C-0.139758 26.5551 0.181535 30.6108 0.261858 34.6464C0.342181 39.184 0.000807158 49.4436 2.06913 51.2506C4.0973 53.0174 5.92465 54.9851 8.31427 56.1897C13.2341 58.6593 18.0736 61.3697 22.7524 64.2609C25.1621 65.7467 27.8328 67.0517 30.6642 66.9112C34.4394 66.7305 37.9536 63.8995 41.0862 62.0524C44.8413 59.8438 48.5763 57.6353 52.3314 55.4468C54.6006 54.1217 56.95 52.6962 58.2754 50.4274C58.9983 49.2027 59.3798 47.7973 59.6007 46.3918C59.8618 44.8458 59.9622 43.1995 60.0023 41.5531ZM56.8898 43.7416C56.8898 43.8018 56.8898 43.842 56.8898 43.9022C56.8898 45.3277 56.8898 46.7934 56.3476 48.1185C55.5444 50.0861 53.6769 51.3711 51.8093 52.3549C45.8654 55.4669 40.3432 59.3419 34.4796 62.6547C33.4354 63.257 32.351 63.8393 31.1663 64.02C29.1782 64.3412 27.2103 63.498 25.4834 62.4539C19.5595 58.84 13.4148 55.6275 7.37047 52.1742C6.06522 51.4313 4.67964 50.6081 3.97681 49.2629C3.39447 48.1587 3.35431 46.8737 3.31414 45.6088C3.21374 41.6133 3.13342 37.6179 3.03301 33.6224C2.93261 29.6872 2.69164 25.6717 3.05309 21.7566C3.1535 20.6121 3.43463 19.4276 4.11738 18.504C5.32223 16.8777 7.53112 15.914 9.17775 14.8499C11.0854 13.6452 13.0132 12.4004 15.0614 11.3764C18.8969 9.44897 22.4311 6.79872 26.2464 4.81103C27.4312 4.18862 28.6963 3.60637 30.0216 3.68668C31.1261 3.76699 32.1502 4.30909 33.1342 4.85119C36.5479 6.73849 39.9617 8.64586 43.3955 10.4528C43.3955 10.4528 43.4557 10.493 43.4156 10.4729C45.1626 11.4969 46.8895 12.5008 48.6366 13.5247C50.9258 14.8499 54.6608 16.2954 55.8857 18.765C56.1267 19.2469 56.2673 19.7689 56.3476 20.311C56.9902 23.9852 56.6689 28.0208 56.7291 31.7351C56.8296 35.7306 56.8697 39.7461 56.8898 43.7416ZM0.0811306 22.5195C-0.139758 26.5752 0.502828 30.6309 0.261858 34.6665Z" fill="#676766"/>
<path d="M31.1306 36.4534H28.0781V87.31H31.1306V36.4534Z" fill="#676766"/>
<path fill-rule="evenodd" clip-rule="evenodd" d="M58.2702 20.9335L29.5747 37.5979L28.3096 35.3894L57.3464 18.5242L58.2702 20.9335Z" fill="#676766"/>
<path fill-rule="evenodd" clip-rule="evenodd" d="M1.08398 20.9132L29.7795 37.5776L31.0446 35.3891L1.98762 18.5239L1.08398 20.9132Z" fill="#676766"/>
<path fill-rule="evenodd" clip-rule="evenodd" d="M58.1956 41.1717L29.9419 57.5751L28.6768 55.3866L57.9747 38.3809L58.1956 41.1717Z" fill="#676766"/>
<path fill-rule="evenodd" clip-rule="evenodd" d="M58.194 30.7716L29.4784 47.436L28.2334 45.2475L57.2703 28.3823L58.194 30.7716Z" fill="#676766"/>
</svg>
