<svg width="48" height="29" viewBox="0 0 48 29" fill="none" xmlns="http://www.w3.org/2000/svg">
<path d="M36.3035 15.5729C35.1864 15.5729 34.9632 16.0761 34.9632 16.4971C34.9632 16.7083 35.0915 17.0811 35.5532 17.0811C36.4625 17.0811 36.6536 15.8649 36.6228 15.6055C36.5908 15.6055 36.5587 15.5729 36.3035 15.5729ZM23.2024 13.5119C22.3726 13.5119 22.2136 14.4687 22.2136 14.5665H23.9052C23.8898 14.4857 24.0489 13.5119 23.2037 13.5119H23.2024ZM11.7122 15.5729C10.5951 15.5729 10.3719 16.0761 10.3719 16.4971C10.3719 16.7083 10.5002 17.0811 10.9619 17.0811C11.8712 17.0811 12.0636 15.8649 12.0315 15.6055C11.9995 15.6055 11.9674 15.5729 11.7122 15.5729ZM43.8358 13.6748C43.165 13.6748 42.6392 14.47 42.6392 15.6537C42.6392 16.3837 42.8944 16.8543 43.4369 16.8543C44.2667 16.8543 44.6502 15.7671 44.6502 14.9563C44.6656 14.0646 44.3783 13.6748 43.8358 13.6748ZM34.0526 0.325901C30.5898 0.325901 27.4142 1.62299 24.9723 3.74786C26.7755 5.48296 28.1325 7.67302 28.8815 10.1381H28.2107C27.4771 7.85161 26.1843 5.80756 24.4926 4.18588C22.801 5.80756 21.5082 7.83597 20.7746 10.1381H20.1038C20.8861 7.57525 22.338 5.28873 24.2528 3.53668C21.748 1.33098 18.4916 0 14.9339 0C7.05016 0 0.666992 6.48804 0.666992 14.5C0.666992 22.512 7.05016 29 14.9339 29C18.4929 29 21.748 27.6703 24.2528 25.4803C22.5291 23.8912 21.1888 21.8954 20.359 19.6414H21.0452C21.8108 21.6203 22.9921 23.388 24.4926 24.8154C25.9932 23.388 27.1731 21.6203 27.9401 19.6414H28.6262C27.8439 21.7989 26.5832 23.7126 24.9723 25.2534C27.4142 27.3783 30.5898 28.6754 34.0526 28.6754C41.744 28.6754 48.0002 22.3164 48.0002 14.4987C48.0002 6.68098 41.7453 0.321991 34.0526 0.321991V0.325901ZM6.68592 18.2648L7.54779 12.7336L5.6009 18.2648H4.56333L4.43508 12.7336L3.50909 18.2648H2.04059L3.25386 10.9177H5.47136L5.53549 15.4269L7.03606 10.9177H9.42927L8.23266 18.2648H6.68464H6.68592ZM11.8712 18.2648L11.9187 17.6808C11.8866 17.6808 11.4403 18.3939 10.3553 18.3939C9.79735 18.3939 8.88675 18.0862 8.88675 16.7396C8.88675 15.0201 10.2591 14.4531 11.5839 14.4531C11.7917 14.4531 12.238 14.4857 12.238 14.4857C12.238 14.4857 12.2855 14.3879 12.2855 14.0959C12.2855 13.6253 11.8712 13.5601 11.312 13.5601C10.3232 13.5601 9.65243 13.8352 9.65243 13.8352L9.87559 12.5055C9.87559 12.5055 10.6733 12.1652 11.7109 12.1652C12.2534 12.1652 13.8014 12.2304 13.8014 14.0307L13.2115 18.2805H11.8712V18.2648ZM17.5054 16.3837C17.5054 18.4278 15.5585 18.3469 15.2071 18.3469C13.931 18.3469 13.5475 18.1683 13.5 18.1527L13.7078 16.8061C13.7078 16.7904 14.3465 17.0329 15.048 17.0329C15.4623 17.0329 15.9894 17.0003 15.9894 16.4971C15.9894 15.7515 14.09 15.9288 14.09 14.1611C14.09 12.6046 15.2225 12.1496 16.3562 12.1496C17.2181 12.1496 17.7606 12.263 17.7606 12.263L17.5695 13.6253C17.5695 13.6253 16.7397 13.5601 16.5319 13.5601C15.9894 13.5601 15.7021 13.6735 15.7021 14.0633C15.7021 14.8585 17.5054 14.4687 17.5054 16.3824V16.3837ZM19.7229 13.7556L19.292 16.4319C19.2599 16.6431 19.324 16.9351 19.8499 16.9351C19.9781 16.9351 20.1371 16.8869 20.2333 16.8869L20.0422 18.2009C19.8832 18.2492 19.4523 18.3952 18.9098 18.3952C18.2082 18.3952 17.6965 17.9898 17.6965 17.0811C17.6965 16.4645 18.5583 11.4365 18.5904 11.4039H20.1064L19.9473 12.3126H20.6976L20.5065 13.7556H19.7242H19.7229ZM23.4089 17.0316C24.1746 17.0316 25.021 16.6588 25.021 16.6588L24.7491 18.1514C24.7491 18.1514 24.2541 18.4108 23.1537 18.4108C21.9404 18.4108 20.536 17.892 20.536 15.7176C20.536 13.8365 21.6685 12.1652 23.1844 12.1652C24.844 12.1652 25.3545 13.3985 25.3545 14.4205C25.3545 14.8259 25.1634 15.831 25.1634 15.831H22.0674C22.0674 15.7984 21.7801 17.0316 23.4076 17.0316H23.4089ZM28.4518 14.0307C27.3988 13.6579 27.3193 15.7176 26.8717 18.2805H25.3083L26.2497 12.3112H27.6695L27.5412 13.1703C27.5412 13.1703 28.0517 12.2291 28.7224 12.2291C28.9135 12.2291 29.0097 12.2448 29.0097 12.2448C28.8186 12.6658 28.6262 13.04 28.4505 14.0294L28.4518 14.0307ZM32.8086 18.184C32.8086 18.184 31.9942 18.3952 31.4837 18.3952C29.6805 18.3952 28.7545 17.1294 28.7545 15.2C28.7545 12.2969 30.4615 10.756 32.2173 10.756C32.9997 10.756 33.9244 11.1289 33.9244 11.1289L33.6692 12.7675C33.6692 12.7675 33.0471 12.3295 32.2815 12.3295C31.2439 12.3295 30.3192 13.3346 30.3192 15.1518C30.3192 16.0435 30.7501 16.8869 31.8197 16.8869C32.3302 16.8869 33.0805 16.5141 33.0805 16.5141L32.8086 18.1853V18.184ZM36.4625 18.2648L36.51 17.6808C36.4779 17.6808 36.0316 18.3939 34.9466 18.3939C34.3874 18.3939 33.4781 18.0862 33.4781 16.7396C33.4781 15.0201 34.8504 14.4531 36.1752 14.4531C36.383 14.4531 36.8293 14.4857 36.8293 14.4857C36.8293 14.4857 36.8768 14.3879 36.8768 14.0959C36.8768 13.6253 36.4625 13.5601 35.9033 13.5601C34.9145 13.5601 34.2437 13.8352 34.2437 13.8352L34.4669 12.5055C34.4669 12.5055 35.2646 12.1652 36.3022 12.1652C36.8447 12.1652 38.3927 12.2304 38.3927 14.0307L37.8028 18.2805C37.7874 18.2648 36.4625 18.2648 36.4625 18.2648ZM39.606 18.2805H38.0426L38.984 12.3112H40.4037L40.2755 13.1703C40.2755 13.1703 40.7859 12.2291 41.4567 12.2291C41.6478 12.2291 41.744 12.2448 41.744 12.2448C41.5362 12.6658 41.3605 13.04 41.1861 14.0294C40.1331 13.6566 40.0536 15.7332 39.606 18.2792V18.2805ZM44.2501 18.2648L44.3142 17.7134C44.3142 17.7134 43.8037 18.3626 42.8944 18.3626C41.6337 18.3626 41.0117 17.1294 41.0117 15.8649C41.0117 13.9016 42.1762 12.1991 43.5652 12.1991C44.4591 12.1991 45.0337 12.9943 45.0337 12.9943L45.3684 10.9346H46.8844L45.7198 18.2661H44.2513L44.2501 18.2648ZM47.0909 18.2322C47.0114 18.2805 46.9472 18.2974 46.8677 18.2974C46.7882 18.2974 46.7087 18.2818 46.6446 18.2322C46.565 18.184 46.5163 18.1345 46.4688 18.0536C46.4214 17.9728 46.4047 17.9076 46.4047 17.8268C46.4047 17.746 46.4201 17.6652 46.4688 17.6C46.5163 17.5192 46.565 17.4696 46.6446 17.4214C46.7241 17.3731 46.7882 17.3562 46.8677 17.3562C46.9472 17.3562 47.0268 17.3718 47.0909 17.4214C47.1704 17.454 47.2191 17.5192 47.2666 17.6C47.314 17.6808 47.3307 17.746 47.3307 17.8268C47.3307 17.9076 47.3153 17.9884 47.2666 18.0536C47.2191 18.1345 47.155 18.1996 47.0909 18.2322ZM47.0434 17.4866C46.9793 17.454 46.9152 17.4383 46.8523 17.4383C46.7895 17.4383 46.7241 17.454 46.6612 17.4866C46.5971 17.5192 46.5496 17.5674 46.5176 17.6326C46.4855 17.6977 46.4701 17.7629 46.4701 17.8268C46.4701 17.8907 46.4855 17.9572 46.5176 18.021C46.5496 18.0862 46.5971 18.1345 46.6612 18.167C46.7254 18.1996 46.7895 18.2153 46.8523 18.2153C46.9165 18.2153 46.9806 18.1996 47.0434 18.167C47.1063 18.1345 47.155 18.0862 47.1871 18.021C47.2191 17.9559 47.2345 17.8907 47.2345 17.8268C47.2345 17.7629 47.2191 17.6964 47.1871 17.6326C47.155 17.5674 47.1075 17.5192 47.0434 17.4866ZM46.9793 18.0862L46.9318 18.0054C46.8998 17.9402 46.8677 17.9076 46.8523 17.892C46.8369 17.8763 46.8203 17.8763 46.7882 17.8763H46.7407V18.0875H46.6612V17.5843H46.8369C46.9011 17.5843 46.9331 17.5843 46.9652 17.6C46.9973 17.6156 47.0126 17.6326 47.0293 17.6482C47.0447 17.6639 47.0447 17.6964 47.0447 17.729C47.0447 17.7616 47.0293 17.7942 47.0126 17.8268C46.9806 17.8594 46.9485 17.875 46.9165 17.875C46.9318 17.875 46.9485 17.8907 46.9639 17.9076C46.9793 17.9246 47.0114 17.9559 47.0434 18.0054L47.1076 18.1032H46.9793V18.0862ZM46.9472 17.729C46.9472 17.7134 46.9472 17.6964 46.9318 17.6964C46.9165 17.6808 46.9165 17.6808 46.8998 17.6639C46.8844 17.6639 46.8523 17.6482 46.8203 17.6482H46.7241V17.7942H46.8203C46.8677 17.7942 46.8998 17.7942 46.9165 17.7786C46.9485 17.7629 46.9485 17.746 46.9485 17.7303L46.9472 17.729Z" fill="#A2A2A2"/>
</svg>
