<svg width="93" height="88" viewBox="0 0 93 88" fill="none" xmlns="http://www.w3.org/2000/svg">
<g clip-path="url(#clip0)">
<path d="M38.7988 11.8686C39.3546 11.0961 40.0512 10.3726 40.8636 9.69705L41.1831 10.0821C42.7567 8.77356 44.7954 7.63799 47.1153 6.67599L46.9237 6.21375C47.8272 5.8391 48.7694 5.49177 49.7391 5.17135L49.8962 5.64644C52.0405 4.93786 54.3237 4.36107 56.6197 3.91247L56.5235 3.42143C57.5121 3.22828 58.5024 3.05884 59.4844 2.91273L59.5584 3.40759C61.9672 3.04922 64.3249 2.83254 66.4817 2.75185L66.4625 2.25191C67.5182 2.21242 68.5268 2.20519 69.4712 2.22962L69.4588 2.72975C70.7417 2.76293 71.8972 2.85507 72.883 3.00285C73.9588 3.16412 74.9912 3.43093 75.973 3.79202L76.1448 3.32244C77.0373 3.65067 77.8897 4.05449 78.6967 4.5261L78.4451 4.9581C80.2895 6.03586 81.8917 7.4802 83.1848 9.19346L83.5833 8.89213C84.1478 9.64002 84.6547 10.4372 85.0989 11.276L84.6575 11.51C85.6364 13.3586 86.3029 15.4165 86.5968 17.5955L87.092 17.5291C87.2163 18.4502 87.2756 19.3921 87.2658 20.3484L86.7661 20.3427C86.7553 21.3941 86.6587 22.464 86.4704 23.5434L86.4702 23.5442C86.2818 24.6348 85.9938 25.6523 85.6191 26.5979L86.0836 26.7829C85.7303 27.6744 85.3018 28.5059 84.8075 29.2778L84.3867 29.0075C83.2315 30.8114 81.7011 32.2821 79.9185 33.4241L80.1882 33.8456C79.4061 34.3467 78.578 34.7856 77.7142 35.1629L77.514 34.7043C75.6041 35.5384 73.5096 36.0651 71.3466 36.2867L71.3981 36.7843C70.4724 36.8792 69.5354 36.9192 68.596 36.9048L68.6031 36.4045C67.537 36.3882 66.4676 36.3003 65.4084 36.1415C64.4552 35.9986 63.3866 35.7676 62.2365 35.4555L62.1063 35.9384C61.2397 35.7032 60.3306 35.4236 59.3936 35.103L59.5547 34.6296C57.6112 33.9647 55.5439 33.1214 53.4854 32.1329L53.2697 32.5839C52.4223 32.1769 51.5766 31.7456 50.7415 31.2923L50.9793 30.8525C49.0325 29.7956 47.1478 28.6196 45.441 27.3549L45.144 27.7569C44.3679 27.1818 43.6273 26.588 42.9329 25.9783L43.2622 25.6023C41.4881 24.0444 40.0402 22.3973 39.0826 20.7108L38.6483 20.9576C38.1603 20.0981 37.792 19.2239 37.5655 18.3405L38.0495 18.2166C37.7875 17.1946 37.7286 16.1681 37.9054 15.1422C38.0902 14.0839 38.5351 13.0914 39.2043 12.1613L38.7988 11.8686Z" stroke="#969695" stroke-dasharray="7 3"/>
<path d="M109.048 22.3191L109.048 22.3192C110.28 22.546 111.474 22.899 112.622 23.3666L112.81 22.9035C113.823 23.3159 114.799 23.8149 115.733 24.3928L115.47 24.8182C117.55 26.1047 119.422 27.7947 121.013 29.8013L121.405 29.4905C122.077 30.3387 122.7 31.2415 123.267 32.1925L122.838 32.4491C124.087 34.5408 125.067 36.8724 125.719 39.3718L126.203 39.2453C126.476 40.2915 126.693 41.3663 126.849 42.4644L126.354 42.5352C126.529 43.7595 126.626 45.0137 126.642 46.2905C126.652 47.323 126.613 48.2792 126.53 49.165L127.028 49.2116C126.944 50.1018 126.815 50.9255 126.645 51.6876L126.157 51.5785C125.675 53.7268 124.854 55.3424 123.765 56.5691L124.139 56.9009C123.577 57.5346 122.944 58.0743 122.246 58.5342L121.971 58.1168C120.515 59.0776 118.745 59.6851 116.709 60.071L116.801 60.5623C116.008 60.7127 115.18 60.8292 114.321 60.9202L114.269 60.4229C113.342 60.5212 112.378 60.5896 111.379 60.6391C110.396 60.6878 109.247 60.6193 107.977 60.4391L107.906 60.9342C106.971 60.8015 105.977 60.6102 104.944 60.3645L105.06 59.878C102.972 59.3817 100.716 58.6593 98.4466 57.7448L98.2595 58.2086C97.3374 57.8371 96.4135 57.4343 95.4981 57.0025L95.7115 56.5502C93.6036 55.5561 91.5439 54.4085 89.6584 53.1369L89.3788 53.5516C88.5322 52.9807 87.7196 52.3846 86.9523 51.766L87.2662 51.3766C85.3469 49.8294 83.7308 48.1516 82.5835 46.3875L82.1644 46.6603C81.5971 45.788 81.1384 44.8916 80.8083 43.9758L81.2787 43.806C80.8928 42.7353 80.6938 41.6445 80.7113 40.5391C80.728 39.4811 80.9063 38.4426 81.2256 37.4297L80.7488 37.2796C81.0284 36.3927 81.4109 35.5273 81.8822 34.688L82.3181 34.9327C83.3126 33.1617 84.7229 31.4981 86.4164 29.9905L86.0842 29.6171C86.7796 28.998 87.52 28.4064 88.2958 27.8453L88.5887 28.2504C90.32 26.9983 92.2334 25.8987 94.2193 24.9875L94.0111 24.533C94.8743 24.137 95.7506 23.7762 96.6313 23.4536L96.803 23.9231C98.9224 23.1465 101.063 22.5953 103.098 22.307L103.028 21.8119C103.995 21.6749 104.94 21.5959 105.85 21.5791L105.859 22.0791C106.994 22.0582 108.065 22.1364 109.048 22.3191Z" stroke="#C7C7C7" stroke-dasharray="7 3"/>
<path d="M44.3802 40.8325L44.3805 40.8322C47.6844 37.0771 51.8891 35.5605 56.4802 35.643C61.0893 35.7258 66.0927 37.4226 70.9277 40.1167C80.6057 45.5094 89.4451 54.8034 92.9086 62.6697C95.9462 70.0829 96.6542 76.0841 95.0891 81.2432C93.524 86.4021 89.6563 90.8164 83.3321 94.992C70.7429 103.295 54.7631 102.125 47.6108 92.6432C43.9825 87.833 39.7968 78.6732 38.2208 68.7917C36.6444 58.9076 37.6952 48.4177 44.3802 40.8325Z" stroke="#A9B3A4"/>
</g>
<defs>
<clipPath id="clip0">
<rect width="93" height="88" fill="white"/>
</clipPath>
</defs>
</svg>
