<svg width="257" height="162" viewBox="0 0 257 162" fill="none" xmlns="http://www.w3.org/2000/svg">
<g clip-path="url(#clip0)">
<g opacity="0.75">
<mask id="path-1-inside-1" fill="white">
<path fill-rule="evenodd" clip-rule="evenodd" d="M176.018 284.789C139.615 261.004 75.5852 182.349 102.167 143.716C128.863 105.089 235.428 135.396 271.832 159.181C308.235 182.966 316.107 233.546 289.41 272.173C262.769 310.861 212.421 308.574 176.018 284.789Z"/>
</mask>
<path fill-rule="evenodd" clip-rule="evenodd" d="M176.018 284.789C139.615 261.004 75.5852 182.349 102.167 143.716C128.863 105.089 235.428 135.396 271.832 159.181C308.235 182.966 316.107 233.546 289.41 272.173C262.769 310.861 212.421 308.574 176.018 284.789Z" stroke="#C74343" stroke-width="2" stroke-dasharray="6.96 3.98" mask="url(#path-1-inside-1)"/>
</g>
<g opacity="0.81">
<mask id="path-2-inside-2" fill="white">
<path fill-rule="evenodd" clip-rule="evenodd" d="M94.7512 48.8431C121.465 16.609 220.745 -28.3571 258.547 7.41839C296.349 43.1939 269.673 132.701 232.225 160.968C194.844 189.282 137.302 183.595 95.964 146.626C54.7192 109.524 68.0371 81.0772 94.7512 48.8431Z"/>
</mask>
<path fill-rule="evenodd" clip-rule="evenodd" d="M94.7512 48.8431C121.465 16.609 220.745 -28.3571 258.547 7.41839C296.349 43.1939 269.673 132.701 232.225 160.968C194.844 189.282 137.302 183.595 95.964 146.626C54.7192 109.524 68.0371 81.0772 94.7512 48.8431Z" stroke="#676766" stroke-width="2" stroke-dasharray="6.96 3.98" mask="url(#path-2-inside-2)"/>
</g>
<g opacity="0.73">
<mask id="path-3-inside-3" fill="white">
<path fill-rule="evenodd" clip-rule="evenodd" d="M365.93 46.5409C367.053 84.4351 342.358 170.273 280.141 185.114C217.878 200.021 181.128 88.2928 194.79 41.2371C208.452 -5.81855 231.123 -26.2088 278.411 -24.7469C325.585 -23.2652 364.808 8.64679 365.93 46.5409Z"/>
</mask>
<path fill-rule="evenodd" clip-rule="evenodd" d="M365.93 46.5409C367.053 84.4351 342.358 170.273 280.141 185.114C217.878 200.021 181.128 88.2928 194.79 41.2371C208.452 -5.81855 231.123 -26.2088 278.411 -24.7469C325.585 -23.2652 364.808 8.64679 365.93 46.5409Z" stroke="#6F8467" stroke-width="2" stroke-dasharray="6.96 3.98" mask="url(#path-3-inside-3)"/>
</g>
</g>
<defs>
<clipPath id="clip0">
<rect width="257" height="162" fill="white"/>
</clipPath>
</defs>
</svg>
