<svg width="73" height="100" viewBox="0 0 73 100" fill="none" xmlns="http://www.w3.org/2000/svg">
<g clip-path="url(#clip0)">
<path d="M38.7553 143.698C37.7915 143.62 36.8086 143.411 35.8141 143.086L35.9701 142.61C34.001 141.967 31.9668 140.849 29.9294 139.379L29.6365 139.785C28.8445 139.213 28.0547 138.591 27.2707 137.927L27.5944 137.545C25.8963 136.105 24.2222 134.459 22.6098 132.688L22.2398 133.024C21.5682 132.287 20.9077 131.527 20.261 130.753L20.6449 130.432C19.1481 128.64 17.725 126.764 16.4096 124.878L15.9995 125.165C15.4182 124.331 14.8579 123.496 14.3215 122.665L14.7416 122.393C13.4039 120.322 12.2164 118.279 11.2234 116.363L10.7795 116.594C10.2936 115.656 9.85362 114.748 9.46471 113.881L9.92092 113.676C9.40116 112.517 8.97586 111.437 8.6561 110.462C8.33682 109.489 8.09754 108.51 7.93465 107.53L7.44147 107.613C7.29491 106.732 7.20862 105.851 7.18019 104.973L7.67988 104.956C7.61408 102.925 7.86624 100.914 8.40569 98.9778L7.92411 98.8442C8.16148 97.9924 8.45307 97.155 8.79634 96.3365L9.25733 96.5293C10.0305 94.6858 11.0727 92.9388 12.3541 91.3424L11.9644 91.0297C12.5151 90.3436 13.1089 89.6848 13.7434 89.0575L14.0945 89.4129C15.5044 88.019 17.1205 86.783 18.9167 85.7519L18.6683 85.3183C19.4277 84.8824 20.2183 84.4825 21.0384 84.1218L21.239 84.5796C22.1526 84.1778 23.1038 83.8257 24.0898 83.5283L24.0907 83.528C25.0826 83.2269 26.0605 83.0105 27.0219 82.8725L26.9516 82.3775C27.8408 82.25 28.7173 82.1877 29.5793 82.1864L29.5792 82.6865C31.6305 82.6835 33.5972 83.036 35.4538 83.6842L35.6192 83.212C36.4493 83.5018 37.2575 83.8491 38.0418 84.2487L37.8143 84.6943C39.5776 85.5927 41.2203 86.7644 42.714 88.1502L43.0543 87.7834C43.6944 88.3772 44.3069 89.009 44.89 89.674L44.5139 90.004C45.824 91.4984 46.9839 93.1658 47.968 94.9518L48.406 94.7099C48.829 95.4775 49.2199 96.2664 49.5768 97.0722L49.1197 97.2753C49.5278 98.1966 49.8907 99.1404 50.2056 100.1C50.5135 101.039 50.7987 102.096 51.0553 103.248L51.5433 103.139C51.7398 104.021 51.9191 104.956 52.0791 105.934L51.5857 106.015C51.9174 108.043 52.1652 110.258 52.3077 112.566L52.8067 112.534C52.8644 113.469 52.9049 114.418 52.9269 115.376L52.427 115.388C52.477 117.566 52.4305 119.787 52.2713 121.979L52.7699 122.015C52.7008 122.966 52.6106 123.913 52.498 124.848L52.0016 124.789C51.7308 127.038 51.3299 129.216 50.7816 131.241L51.2641 131.371C51.0101 132.309 50.7245 133.215 50.4057 134.083L49.9365 133.911C49.1248 136.119 48.1013 138.044 46.8447 139.564L47.2298 139.883C46.6062 140.637 45.9244 141.298 45.1809 141.852L44.8828 141.451C44.035 142.082 43.1066 142.563 42.0905 142.872C41.035 143.191 39.9339 143.292 38.7964 143.2L38.7553 143.698Z" stroke="#C7C7C7" stroke-dasharray="7 3"/>
<path d="M109.934 85.2247L109.934 85.2255C109.698 86.3627 109.392 87.4772 109.02 88.5663L109.493 88.728C109.167 89.683 108.792 90.6185 108.37 91.5328L107.916 91.3229C106.951 93.412 105.737 95.3891 104.304 97.23L104.698 97.5372C104.083 98.3284 103.427 99.0946 102.735 99.8339L102.37 99.4921C100.808 101.159 99.0549 102.689 97.1383 104.058L97.4291 104.465C96.6149 105.046 95.7718 105.599 94.9021 106.122L94.6443 105.693C92.6875 106.869 90.5932 107.89 88.387 108.737L88.5664 109.203C87.6321 109.562 86.6781 109.889 85.7064 110.184L85.5609 109.706C83.3757 110.369 81.0991 110.867 78.7532 111.182L78.8201 111.677C77.8285 111.81 76.8248 111.911 75.8107 111.979L75.7772 111.48C74.628 111.556 73.465 111.589 72.2907 111.577C71.1208 111.561 70.0143 111.506 68.9677 111.415L68.9245 111.913C67.9175 111.825 66.9638 111.703 66.0606 111.549L66.1446 111.056C63.6844 110.636 61.6201 109.972 59.886 109.098L59.6611 109.544C58.7655 109.093 57.9522 108.586 57.2138 108.025L57.516 107.627C55.735 106.276 54.4031 104.606 53.4066 102.658L52.9615 102.885C52.5321 102.046 52.1641 101.159 51.8489 100.227L52.3225 100.067C51.661 98.1106 51.2334 95.9432 50.9612 93.5955L50.4645 93.6528C50.3565 92.721 50.2729 91.7635 50.2087 90.7825L50.7077 90.7502C50.6366 89.6647 50.5894 88.5489 50.5589 87.4056C50.5308 86.3482 50.5925 85.1726 50.7401 83.9014L50.2434 83.8435C50.3558 82.8753 50.5169 81.8565 50.724 80.7973L51.2148 80.8935C51.636 78.7399 52.2507 76.4128 53.038 74.0003L52.5627 73.8449C52.8751 72.8878 53.2142 71.9179 53.5788 70.9406L54.0473 71.1156C54.8586 68.941 55.7969 66.7294 56.8469 64.5416L56.3961 64.3251C56.839 63.4023 57.3016 62.4837 57.7829 61.5738L58.2249 61.8078C59.3431 59.6939 60.5618 57.6287 61.8665 55.669L61.4502 55.3918C62.0235 54.5307 62.6135 53.6895 63.219 52.873L63.6207 53.1709C65.0821 51.2002 66.6315 49.3787 68.251 47.773L67.8989 47.4179C68.6417 46.6814 69.3999 45.9891 70.1717 45.3472L70.4916 45.7317C72.4089 44.1372 74.401 42.8687 76.4415 42.0175L76.2488 41.5561C77.2152 41.153 78.1947 40.8399 79.1848 40.627L79.2902 41.1158C80.4286 40.8709 81.5788 40.7634 82.7375 40.8082C83.8376 40.8508 84.9209 41.0052 85.9844 41.2614L86.1013 40.7753C87.0354 41.0003 87.9538 41.3013 88.8545 41.6717L88.6645 42.1341C90.6377 42.9453 92.5314 44.1009 94.323 45.5308L94.6348 45.1402C95.3792 45.7343 96.105 46.374 96.8107 47.0541L96.4638 47.414C98.0199 48.9135 99.4798 50.6151 100.826 52.4622L101.23 52.168C101.795 52.9427 102.339 53.7421 102.862 54.5621L102.44 54.8307C103.63 56.696 104.708 58.6699 105.659 60.7023L106.112 60.4905C106.523 61.3669 106.91 62.2539 107.272 63.1476L106.809 63.3353C107.66 65.4332 108.375 67.5674 108.938 69.6855L109.421 69.5573C109.672 70.5027 109.893 71.4451 110.084 72.38L109.594 72.4794C110.057 74.7579 110.333 76.9868 110.403 79.0993L110.902 79.0831C110.935 80.076 110.923 81.0445 110.864 81.9821L110.365 81.9506C110.293 83.097 110.151 84.1924 109.934 85.2247Z" stroke="#A9B3A4" stroke-dasharray="7 3"/>
<path d="M66.8638 1.20033L66.8643 1.20041C70.6038 1.93464 73.2147 4.11866 74.9245 7.17749C76.6432 10.2519 77.4517 14.2154 77.5338 18.4627C77.6982 26.9664 74.9493 36.4182 71.0793 41.7452C67.3364 46.6255 63.6416 49.3989 59.6411 50.3489C55.6407 51.2988 51.2358 50.4488 46.0219 47.8685C35.6573 42.7325 30.2955 31.7107 33.7969 23.3561C35.5811 19.0989 40.037 12.7815 45.9832 7.91531C51.9314 3.04744 59.2785 -0.295626 66.8638 1.20033Z" stroke="#969695"/>
</g>
<defs>
<clipPath id="clip0">
<rect width="73" height="100" fill="white"/>
</clipPath>
</defs>
</svg>
