<svg width="72" height="105" viewBox="0 0 72 105" fill="none" xmlns="http://www.w3.org/2000/svg">
<g clip-path="url(#clip0)">
<path d="M74.1288 122.506C73.3523 123.033 72.4618 123.466 71.4805 123.816L71.3129 123.345C69.413 124.023 67.141 124.383 64.6671 124.487L64.6881 124.987C63.7245 125.027 62.7342 125.029 61.7277 124.997L61.7436 124.497C59.5182 124.426 57.2088 124.186 54.931 123.822L54.8525 124.317C53.8716 124.16 52.8972 123.981 51.9384 123.784L52.0391 123.293C49.6874 122.808 47.4311 122.21 45.407 121.553L45.2531 122.029C44.2622 121.708 43.3259 121.372 42.4597 121.029L42.6433 120.564C41.4669 120.098 40.4285 119.621 39.5662 119.15C38.6252 118.636 37.7602 118.039 36.9739 117.372L36.651 117.754C35.936 117.148 35.2837 116.485 34.6964 115.774L35.0812 115.455C33.7396 113.833 32.7463 111.953 32.1302 109.929L31.6523 110.075C31.3833 109.191 31.1843 108.281 31.0575 107.353L31.5524 107.285C31.273 105.243 31.3537 103.112 31.8204 100.996L31.3326 100.888C31.5299 99.9925 31.7944 99.1003 32.1278 98.2182L32.595 98.3954C32.9614 97.4259 33.4135 96.4683 33.9538 95.5331L33.9542 95.5324C34.4983 94.5869 35.1097 93.7428 35.777 92.9947L35.4044 92.6613C36.0339 91.9556 36.7126 91.331 37.4321 90.7839L37.7343 91.1825C39.4148 89.9046 41.3296 89.0622 43.3665 88.6095L43.2582 88.121C44.1524 87.9222 45.068 87.7967 45.9957 87.7403L46.026 88.2398C48.0764 88.1152 50.1938 88.3377 52.271 88.8659L52.3938 88.3808C53.2831 88.607 54.1642 88.8877 55.0291 89.2196L54.8504 89.6869C55.8317 90.0634 56.7919 90.5073 57.7185 91.0134C58.5523 91.4688 59.4632 92.045 60.4221 92.7238L60.7104 92.3152C61.4331 92.8268 62.18 93.394 62.9389 94.0086L62.6248 94.3978C64.1986 95.6722 65.8266 97.1539 67.3971 98.7672L67.7548 98.4178C68.4014 99.082 69.0383 99.7682 69.6578 100.471L69.2832 100.802C70.7272 102.441 72.0733 104.169 73.2246 105.918L73.6417 105.643C74.1653 106.439 74.6496 107.24 75.0858 108.04L74.6473 108.279C75.7614 110.323 76.5431 112.338 76.8577 114.224L77.3504 114.141C77.5108 115.103 77.5553 116.037 77.4655 116.932L76.9684 116.882C76.8645 117.916 76.5712 118.885 76.0601 119.774C75.5307 120.691 74.783 121.458 73.8487 122.092L74.1288 122.506Z" stroke="#A9B3A4" stroke-dasharray="7 3"/>
<path d="M77.1533 36.7863L77.154 36.7859C91.5393 28.1414 111.955 32.3674 125.444 47.2749C132.171 54.7531 133.985 60.8179 132.884 66.2682C131.773 71.7687 127.674 76.7832 122.221 82.0999C119.55 84.7036 115.203 87.4443 109.963 89.8642C104.731 92.2808 98.6404 94.3627 92.5067 95.6641C86.3699 96.9662 80.2124 97.4821 74.8383 96.7847C69.4622 96.0871 64.9196 94.183 61.935 90.6925C55.9225 83.6608 56.032 72.4145 59.564 61.7086C63.0913 51.0171 69.9624 41.0912 77.1533 36.7863Z" stroke="#969695"/>
<path d="M63.8638 2.20033L63.8643 2.20041C64.9744 2.41838 65.9815 2.76331 66.8928 3.21778L67.116 2.77048C67.9851 3.20389 68.7738 3.734 69.4862 4.34832L69.1595 4.72679C70.7276 6.07898 71.922 7.86808 72.7832 9.96411L73.2458 9.77429C73.599 10.6341 73.8963 11.5407 74.141 12.4845L73.6569 12.6098C74.1785 14.6224 74.4577 16.8157 74.5248 19.0928L75.0247 19.0782C75.0524 20.0196 75.0443 20.9736 75.0027 21.9336L74.5031 21.9119C74.4089 24.0868 74.1407 26.2944 73.7259 28.453L74.2171 28.5473C74.0363 29.4882 73.828 30.4196 73.5945 31.335L73.1099 31.2114C72.5467 33.4193 71.8358 35.5302 71.0108 37.4497L71.4703 37.6471C71.0824 38.5496 70.6693 39.4111 70.2342 40.2221L69.7935 39.9858C69.2521 40.9949 68.6783 41.9207 68.0793 42.7452C67.3563 43.6879 66.6346 44.5526 65.9117 45.341L66.2805 45.6788C65.5871 46.435 64.8913 47.1236 64.1907 47.7457L63.8585 47.3719C62.0122 49.0114 60.1465 50.167 58.2188 50.8736L58.3911 51.3429C57.4609 51.6838 56.5138 51.9249 55.5454 52.0681L55.4721 51.5736C53.4023 51.8796 51.2191 51.7246 48.8682 51.1175L48.7433 51.6015C47.8328 51.3664 46.9005 51.0656 45.9436 50.7005L46.1219 50.2335C45.1195 49.851 44.0873 49.3957 43.0219 48.8685C41.9537 48.3391 40.9373 47.7461 39.9775 47.0989L39.6979 47.5133C38.837 46.9327 38.0206 46.3093 37.2521 45.6495L37.5779 45.2703C35.7402 43.6927 34.1833 41.9049 32.9525 40.0012L32.5325 40.2725C31.9671 39.398 31.4687 38.499 31.0416 37.5841L31.4948 37.3728C30.4694 35.1764 29.8686 32.8947 29.7475 30.6529L29.2482 30.6798C29.1924 29.6472 29.2352 28.6209 29.3822 27.6124L29.8771 27.6846C30.0432 26.5446 30.3471 25.4294 30.7969 24.3561C31.2146 23.3595 31.7807 22.2455 32.482 21.0593L32.0514 20.8049C32.5692 19.929 33.1579 19.0173 33.8114 18.0875L34.2207 18.375C35.5529 16.4797 37.1585 14.5071 38.9846 12.6121L38.6244 12.2652C39.3643 11.4974 40.14 10.7422 40.9481 10.0096L41.2841 10.3799C43.1148 8.72024 45.1104 7.18097 47.2293 5.8795L46.9674 5.45357C47.8907 4.88647 48.8378 4.36346 49.8054 3.89407L50.0239 4.34381C52.276 3.25129 54.6329 2.4582 57.0526 2.08291L56.9758 1.58893C58.0391 1.42402 59.1157 1.33771 60.2021 1.34L60.2012 1.83989C61.4116 1.84244 62.634 1.95777 63.8638 2.20033Z" stroke="#C7C7C7" stroke-dasharray="7 3"/>
</g>
<defs>
<clipPath id="clip0">
<rect width="72" height="105" fill="white"/>
</clipPath>
</defs>
</svg>
