<svg width="257" height="162" viewBox="0 0 257 162" fill="none" xmlns="http://www.w3.org/2000/svg">
<g clip-path="url(#clip0)">
<path opacity="0.75" d="M438.797 86.8451C438.917 88.1275 438.961 89.4163 438.93 90.7105L438.43 90.6987C438.379 92.8916 438.112 95.1024 437.646 97.3256L438.135 97.4282C437.873 98.6789 437.549 99.9325 437.165 101.188L436.687 101.042C436.053 103.118 435.254 105.201 434.304 107.288L434.759 107.495C434.23 108.655 433.656 109.815 433.038 110.974L432.596 110.739C431.57 112.665 430.42 114.59 429.158 116.512L429.576 116.786C428.874 117.854 428.139 118.919 427.372 119.982L426.966 119.69C425.68 121.471 424.302 123.247 422.84 125.014L423.225 125.333C422.408 126.321 421.565 127.306 420.697 128.287L420.323 127.956C418.859 129.612 417.326 131.259 415.729 132.893L416.087 133.243C415.19 134.161 414.274 135.075 413.339 135.984L412.99 135.626C411.396 137.178 409.747 138.718 408.05 140.243L408.385 140.614C407.433 141.47 406.467 142.32 405.486 143.166L405.16 142.787C403.468 144.247 401.735 145.691 399.967 147.118L400.281 147.507C399.279 148.316 398.265 149.119 397.242 149.916L396.935 149.522C395.166 150.899 393.366 152.259 391.54 153.6L391.836 154.003C390.797 154.767 389.749 155.524 388.694 156.274L388.405 155.867C386.571 157.171 384.716 158.455 382.844 159.717L383.123 160.132C382.052 160.854 380.976 161.569 379.895 162.276L379.621 161.858C377.732 163.094 375.828 164.308 373.916 165.496L374.18 165.921C373.082 166.604 371.981 167.278 370.878 167.944L370.62 167.516C368.68 168.687 366.735 169.832 364.789 170.949L365.038 171.383C363.913 172.029 362.787 172.665 361.662 173.292L361.419 172.855C359.432 173.962 357.449 175.038 355.473 176.082L355.707 176.524C354.556 177.132 353.408 177.729 352.264 178.314L352.036 177.869C350.001 178.91 347.979 179.916 345.976 180.882L346.194 181.332C345.023 181.897 343.859 182.449 342.702 182.987L342.491 182.534C340.404 183.505 338.343 184.432 336.314 185.312L336.513 185.77C335.318 186.289 334.134 186.791 332.962 187.276L332.771 186.814C330.625 187.704 328.521 188.537 326.471 189.31L326.647 189.778C325.42 190.241 324.211 190.682 323.023 191.102L322.856 190.63C320.631 191.416 318.479 192.124 316.414 192.749L316.559 193.228C315.287 193.613 314.047 193.968 312.842 194.29L312.713 193.807C311.6 194.105 310.519 194.375 309.471 194.616C308.373 194.869 307.275 195.096 306.178 195.296L306.268 195.788C304.992 196.021 303.718 196.22 302.446 196.383L302.382 195.888C300.142 196.176 297.91 196.357 295.688 196.434L295.705 196.934C294.412 196.978 293.123 196.988 291.838 196.964L291.848 196.464C289.598 196.422 287.363 196.273 285.148 196.022L285.092 196.519C283.809 196.374 282.532 196.194 281.262 195.982L281.345 195.488C279.132 195.117 276.942 194.644 274.781 194.073L274.653 194.556C273.406 194.226 272.168 193.864 270.941 193.469L271.094 192.993C268.962 192.308 266.861 191.526 264.798 190.651L264.603 191.112C263.417 190.609 262.242 190.075 261.082 189.512L261.3 189.062C259.289 188.086 257.317 187.019 255.39 185.866L255.134 186.295C254.029 185.634 252.939 184.945 251.865 184.228L252.142 183.812C250.285 182.573 248.474 181.25 246.716 179.848L246.404 180.239C245.398 179.437 244.409 178.609 243.439 177.756L243.769 177.38C242.092 175.907 240.469 174.359 238.905 172.738L238.545 173.085C237.653 172.16 236.779 171.211 235.925 170.24L236.301 169.91C234.829 168.236 233.418 166.495 232.07 164.689L231.669 164.988C230.901 163.958 230.154 162.907 229.428 161.836L229.842 161.556C228.592 159.712 227.407 157.807 226.291 155.846L225.856 156.093C225.221 154.976 224.609 153.842 224.019 152.689L224.464 152.461C223.45 150.48 222.505 148.446 221.633 146.361L221.171 146.554C220.676 145.371 220.204 144.171 219.756 142.956L220.225 142.783C219.456 140.698 218.759 138.566 218.136 136.391L217.656 136.529C217.303 135.296 216.974 134.048 216.669 132.788L217.155 132.671C216.893 131.584 216.65 130.488 216.425 129.382L216.425 129.381C216.198 128.276 215.998 127.177 215.825 126.086L215.331 126.164C215.127 124.884 214.959 123.613 214.826 122.351L215.323 122.299C215.085 120.047 214.959 117.827 214.939 115.639L214.439 115.643C214.428 114.351 214.453 113.07 214.514 111.801L215.013 111.825C215.121 109.576 215.342 107.364 215.671 105.191L215.176 105.116C215.369 103.842 215.598 102.581 215.862 101.333L216.352 101.437C216.816 99.2454 217.391 97.0958 218.069 94.9905L217.593 94.8371C217.987 93.6145 218.416 92.4067 218.878 91.2141L219.344 91.3948C220.15 89.3166 221.057 87.2848 222.061 85.3017L221.615 85.0759C222.193 83.9326 222.803 82.8053 223.444 81.6947L223.877 81.9445C224.987 80.0196 226.188 78.1445 227.475 76.3216L227.067 76.0332C227.805 74.9879 228.571 73.9598 229.363 72.9493L229.756 73.2577C231.125 71.5113 232.574 69.8172 234.097 68.1779L233.73 67.8376C234.601 66.9008 235.494 65.9818 236.411 65.0811L236.761 65.4377C238.343 63.8832 239.992 62.3831 241.704 60.9396L241.381 60.5574C242.358 59.7332 243.356 58.9273 244.371 58.1403L244.678 58.5356C246.432 57.1761 248.244 55.8729 250.105 54.6281L249.828 54.2125C250.891 53.5017 251.97 52.8099 253.065 52.1374L253.327 52.5635C255.221 51.4 257.161 50.2947 259.141 49.2495L258.907 48.8073C260.039 48.2101 261.183 47.6324 262.34 47.0747L262.557 47.5251C264.561 46.5586 266.601 45.6523 268.671 44.8079L268.482 44.3449C269.668 43.8615 270.863 43.3982 272.068 42.9556L272.24 43.4249C274.332 42.6563 276.45 41.95 278.59 41.3081L278.446 40.8292C279.674 40.461 280.908 40.1139 282.148 39.7882L282.275 40.2718C283.354 39.9885 284.437 39.7214 285.525 39.4708C286.583 39.2271 287.678 38.9945 288.808 38.7735L288.712 38.2828C289.944 38.0418 291.218 37.8145 292.529 37.6015L292.609 38.095C294.753 37.7467 296.999 37.4364 299.334 37.1658L299.277 36.6691C300.539 36.5228 301.828 36.3882 303.139 36.2654L303.186 36.7633C305.375 36.5584 307.63 36.3868 309.941 36.2496L309.912 35.7505C311.19 35.6746 312.485 35.6093 313.795 35.5548L313.816 36.0543C316.034 35.962 318.297 35.9004 320.596 35.8708L320.589 35.3709C321.871 35.3544 323.164 35.3477 324.467 35.3512L324.466 35.8512C326.702 35.8571 328.966 35.8928 331.253 35.9592L331.268 35.4594C332.553 35.4967 333.845 35.5436 335.143 35.6004L335.121 36.0999C337.364 36.1981 339.624 36.3256 341.894 36.4834L341.929 35.9846C343.218 36.0742 344.51 36.1735 345.804 36.2827L345.762 36.781C348.008 36.9704 350.26 37.1897 352.512 37.4396L352.568 36.9426C353.854 37.0854 355.141 37.2381 356.427 37.401L356.364 37.897C358.608 38.1812 360.848 38.4961 363.079 38.8428L363.155 38.3487C364.437 38.5478 365.715 38.7573 366.989 38.9775L366.904 39.4702C369.139 39.8563 371.361 40.275 373.564 40.7271L373.664 40.2373C374.939 40.4991 376.208 40.7719 377.468 41.0561L377.358 41.5439C379.579 42.0444 381.775 42.5801 383.941 43.1519L384.068 42.6684C385.328 43.001 386.577 43.3457 387.815 43.7027L387.676 44.1831C389.872 44.8164 392.03 45.4885 394.144 46.2003L394.303 45.7264C395.538 46.1423 396.759 46.5718 397.962 47.015L397.79 47.4842C399.943 48.2768 402.042 49.1132 404.08 49.9945L404.279 49.5356C405.476 50.0536 406.653 50.587 407.808 51.1363L407.593 51.5878C409.672 52.5772 411.677 53.6175 413.597 54.7099L413.844 54.2753C414.982 54.9224 416.09 55.5878 417.167 56.2719L416.899 56.694C418.845 57.9298 420.688 59.2258 422.414 60.5834L422.723 60.1903C423.755 61.0013 424.746 61.8345 425.694 62.6902L425.359 63.0614C427.06 64.5967 428.62 66.2034 430.024 67.8832L430.407 67.5625C431.247 68.5672 432.032 69.5984 432.76 70.6564L432.348 70.9397C433.626 72.7998 434.723 74.7422 435.622 76.7692L436.079 76.5666C436.603 77.7476 437.06 78.9575 437.449 80.1967L436.971 80.3461C437.303 81.406 437.584 82.4878 437.811 83.5916C438.033 84.6861 438.195 85.7865 438.299 86.8919L438.797 86.8451Z" stroke="#C74343" stroke-dasharray="6.96 3.98"/>
<path opacity="0.73" d="M280.123 163.964L280.123 163.963C280.152 162.798 280.162 161.638 280.154 160.482L280.654 160.478C280.644 159.15 280.611 157.828 280.553 156.511L280.054 156.533C279.952 154.211 279.777 151.907 279.53 149.622L280.027 149.568C279.885 148.246 279.718 146.931 279.529 145.622L279.034 145.693C278.702 143.401 278.3 141.128 277.829 138.875L278.319 138.773C278.047 137.471 277.753 136.177 277.436 134.89L276.951 135.009C276.399 132.763 275.781 130.538 275.099 128.334L275.576 128.186C275.184 126.919 274.771 125.658 274.338 124.405L273.865 124.569C273.11 122.386 272.293 120.224 271.417 118.084L271.88 117.895C271.377 116.668 270.856 115.449 270.316 114.237L269.859 114.441C268.92 112.332 267.924 110.246 266.875 108.182L267.321 107.956C266.72 106.774 266.102 105.6 265.467 104.434L265.028 104.673C263.925 102.646 262.771 100.642 261.57 98.662L261.998 98.4027C261.31 97.2691 260.607 96.1432 259.889 95.0252L259.468 95.2954C258.22 93.3526 256.928 91.4335 255.593 89.5385L256.002 89.2506C255.239 88.1681 254.463 87.0936 253.674 86.0271L253.272 86.3245C251.898 84.4677 250.485 82.635 249.035 80.8271L249.425 80.5142C248.596 79.4798 247.754 78.4534 246.902 77.4353L246.518 77.7564C245.034 75.9845 243.516 74.2375 241.967 72.5158L242.338 72.1813C241.451 71.1954 240.553 70.2178 239.646 69.2486L239.281 69.5903C237.7 67.9011 236.09 66.2375 234.453 64.5999L234.807 64.2464C233.869 63.3079 232.923 62.3779 231.968 61.4565L231.621 61.8163C229.954 60.2074 228.263 58.6249 226.55 57.0693L226.887 56.6992C225.904 55.807 224.915 54.9236 223.919 54.0491L223.589 54.4248C221.846 52.894 220.084 51.3905 218.304 49.9151L218.624 49.5302C217.601 48.682 216.573 47.8431 215.539 47.0135L215.226 47.4033C213.416 45.9496 211.591 44.5245 209.754 43.1286L210.056 42.7305C208.996 41.925 207.932 41.1291 206.865 40.3431L206.569 40.7457C204.695 39.3657 202.811 38.0161 200.921 36.6972L201.207 36.2871C200.118 35.5279 199.028 34.7788 197.936 34.0401L197.655 34.4542C195.724 33.1475 193.787 31.8731 191.849 30.6316L192.118 30.2106C190.994 29.4902 189.868 28.7809 188.744 28.0828L188.48 28.5077C186.495 27.276 184.511 26.0792 182.532 24.9178L182.785 24.4866C181.636 23.8125 180.489 23.1503 179.343 22.5002L179.097 22.935C177.059 21.7781 175.028 20.6594 173.009 19.5797L173.245 19.1388C172.064 18.5075 170.887 17.8894 169.715 17.2848L169.486 17.7292C167.397 16.6517 165.324 15.6169 163.27 14.6257L163.487 14.1754C162.285 13.5952 161.09 13.0299 159.902 12.4796L159.692 12.9333C157.552 11.9415 155.437 10.9987 153.353 10.1056L153.55 9.64606C152.306 9.11334 151.074 8.59828 149.853 8.10107L149.665 8.56412C147.466 7.66832 145.307 6.83071 143.194 6.05239L143.367 5.58322C142.099 5.11636 140.848 4.67072 139.616 4.24657L139.453 4.71937C137.184 3.93874 134.977 3.23128 132.841 2.59843L132.983 2.11903C131.68 1.73297 130.403 1.37449 129.154 1.04398L129.026 1.52733C127.894 1.22774 126.786 0.951297 125.703 0.69821C124.602 0.440911 123.498 0.20844 122.393 0.000499891L122.485 -0.490888C121.208 -0.73106 119.928 -0.938725 118.646 -1.11438L118.578 -0.619007C116.341 -0.925484 114.097 -1.13391 111.85 -1.24691L111.875 -1.74629C110.58 -1.81145 109.284 -1.84505 107.987 -1.84765L107.986 -1.34765C105.734 -1.35218 103.481 -1.26254 101.231 -1.08141L101.191 -1.5798C99.8996 -1.4759 98.6096 -1.34202 97.3211 -1.17874L97.3839 -0.682723C95.1552 -0.400275 92.9309 -0.0292164 90.7145 0.427921L90.6135 -0.06177C89.3458 0.199694 88.0809 0.489149 86.8192 0.806088L86.941 1.29102C84.7653 1.83761 82.5993 2.46653 80.4462 3.17532L80.2899 2.7004C79.0615 3.1048 77.8375 3.53501 76.6184 3.99061L76.7934 4.45896C74.6926 5.2441 72.6063 6.10508 70.5376 7.03961L70.3318 6.58396C69.154 7.11606 67.982 7.67185 66.8163 8.2509L67.0388 8.69868C65.0298 9.69666 63.0397 10.7642 61.0715 11.899L60.8217 11.4658C59.7025 12.1112 58.5903 12.7782 57.4858 13.4664L57.7502 13.8908C55.8457 15.0775 53.9638 16.3278 52.1076 17.6395L51.8191 17.2312C50.764 17.9767 49.7173 18.7421 48.6794 19.5267L48.9809 19.9255C47.19 21.2794 45.4253 22.6912 43.6896 24.1589L43.3668 23.7771C42.3802 24.6114 41.403 25.4637 40.4356 26.3336L40.7699 26.7054C39.0999 28.2071 37.4592 29.7616 35.8504 31.3671L35.4972 31.0132C34.5824 31.9262 33.6779 32.8555 32.7842 33.8009L33.1476 34.1444C31.6042 35.777 30.0929 37.4578 28.6164 39.1849L28.2364 38.8599C27.3961 39.8427 26.5671 40.8405 25.7497 41.8528L26.1387 42.1669C24.7269 43.9154 23.35 45.7076 22.0101 47.542L21.6064 47.247C20.8433 48.2918 20.0922 49.3501 19.3535 50.4217L19.7652 50.7055C18.4896 52.556 17.2512 54.4464 16.0521 56.3749L15.6275 56.1109C14.9439 57.2104 14.2731 58.3222 13.6155 59.4461L14.047 59.6986C12.9118 61.6386 11.8159 63.6147 10.7615 65.6254L10.3187 65.3932C9.71792 66.5388 9.13054 67.6956 8.55695 68.8633L9.00573 69.0837C8.01384 71.103 7.06332 73.155 6.15616 75.2382L5.69775 75.0386C5.18217 76.2226 4.68055 77.4167 4.19326 78.6206L4.65675 78.8082C3.81276 80.8933 3.01191 83.0079 2.25607 85.1507L1.78455 84.9843C1.35469 86.203 0.939345 87.4307 0.538861 88.6672L1.01452 88.8212C0.666495 89.8958 0.329728 90.9771 0.00445644 92.0648M280.123 163.964L-0.474593 91.9215M280.123 163.964C280.094 165.155 280.036 166.332 279.949 167.495L280.448 167.532C280.348 168.871 280.21 170.191 280.036 171.493L279.541 171.426C279.227 173.773 278.793 176.057 278.245 178.281L278.73 178.4C278.407 179.711 278.045 181.001 277.644 182.27L277.168 182.119C276.463 184.352 275.639 186.519 274.703 188.623L275.16 188.826C274.614 190.052 274.031 191.256 273.411 192.439L272.968 192.207C271.889 194.265 270.699 196.259 269.403 198.188L269.818 198.467C269.074 199.575 268.295 200.662 267.484 201.728L267.086 201.425C265.686 203.264 264.187 205.041 262.595 206.756L262.961 207.096C262.054 208.074 261.117 209.031 260.152 209.969L259.803 209.61C258.151 211.215 256.414 212.762 254.598 214.253L254.915 214.639C253.885 215.484 252.831 216.311 251.753 217.119L251.453 216.719C249.607 218.102 247.691 219.433 245.709 220.71L245.98 221.131C244.865 221.849 243.731 222.551 242.576 223.236L242.321 222.806C240.338 223.984 238.298 225.113 236.204 226.193L236.433 226.638C235.244 227.251 234.039 227.849 232.818 228.432L232.602 227.98C230.521 228.973 228.393 229.922 226.222 230.826L226.414 231.288C225.184 231.8 223.941 232.298 222.685 232.782L222.506 232.316C220.342 233.15 218.141 233.942 215.907 234.694L216.066 235.168C214.808 235.591 213.539 236.001 212.26 236.398L212.112 235.92C209.896 236.608 207.65 237.258 205.378 237.869L205.508 238.351C204.219 238.698 202.922 239.032 201.618 239.354L201.498 238.869C199.243 239.426 196.965 239.946 194.669 240.429L194.772 240.919C193.462 241.195 192.145 241.459 190.824 241.711L190.73 241.22C188.446 241.657 186.145 242.058 183.832 242.426L183.911 242.919C182.589 243.129 181.263 243.328 179.934 243.515L179.864 243.02C177.555 243.345 175.236 243.637 172.91 243.896L172.965 244.393C171.635 244.54 170.303 244.677 168.969 244.803L168.922 244.306C166.597 244.526 164.266 244.713 161.934 244.868L161.967 245.366C160.63 245.455 159.292 245.533 157.955 245.601L157.93 245.102C155.593 245.22 153.256 245.306 150.923 245.36L150.934 245.86C149.594 245.891 148.255 245.911 146.918 245.922L146.914 245.422C144.569 245.44 142.229 245.426 139.899 245.38L139.89 245.88C138.55 245.854 137.215 245.817 135.882 245.77L135.9 245.27C133.55 245.188 131.211 245.072 128.889 244.926L128.858 245.425C127.519 245.34 126.185 245.245 124.858 245.139L124.897 244.641C122.552 244.454 120.225 244.235 117.921 243.984L117.867 244.481C116.524 244.335 115.189 244.177 113.862 244.009L113.925 243.513C111.587 243.217 109.276 242.888 106.995 242.525L106.916 243.019C105.582 242.807 104.258 242.583 102.945 242.349L103.033 241.856C100.703 241.44 98.4081 240.988 96.1538 240.502L96.0484 240.991C94.7388 240.709 93.4428 240.414 92.1612 240.109L92.2772 239.623C89.9638 239.071 87.6981 238.482 85.4856 237.855L85.3494 238.337C84.0412 237.966 82.7514 237.583 81.4811 237.187L81.6298 236.71C79.3557 236.001 77.1451 235.252 75.0044 234.463L74.8314 234.932C73.5629 234.464 72.3186 233.983 71.1 233.487L71.2883 233.024C69.0707 232.122 66.9392 231.175 64.9019 230.183L64.683 230.633C63.4505 230.033 62.2519 229.416 61.089 228.784L61.3279 228.345C60.3033 227.787 59.3069 227.218 58.3401 226.636C57.3432 226.036 56.3577 225.435 55.3838 224.834L55.1211 225.259C53.9958 224.564 52.8858 223.868 51.7911 223.17L52.0597 222.748C50.092 221.495 48.1739 220.236 46.3054 218.973L46.0253 219.387C44.9318 218.648 43.8552 217.907 42.7955 217.164L43.0826 216.754C41.1696 215.413 39.3121 214.064 37.5098 212.709L37.2093 213.108C36.1508 212.312 35.1112 211.513 34.0906 210.711L34.3995 210.318C32.5647 208.876 30.7916 207.425 29.0801 205.963L28.7554 206.343C27.7482 205.483 26.7621 204.619 25.7971 203.751L26.1315 203.379C24.3974 201.819 22.7322 200.246 21.1357 198.658L20.7831 199.013C19.8448 198.08 18.9299 197.141 18.0386 196.198L18.4022 195.854C16.804 194.162 15.2821 192.452 13.8364 190.724L13.4529 191.044C12.6037 190.029 11.7806 189.007 10.9836 187.977L11.3789 187.671C9.96189 185.841 8.62788 183.989 7.37668 182.112L6.96066 182.39C6.22744 181.29 5.52238 180.181 4.8455 179.064L5.27315 178.805C4.0807 176.837 2.97638 174.841 1.96001 172.815L1.51309 173.039C0.922859 171.862 0.362054 170.675 -0.169337 169.478L0.287689 169.275C-0.639403 167.186 -1.47638 165.064 -2.22336 162.906L-2.69584 163.07C-3.12479 161.831 -3.52426 160.581 -3.89427 159.319L-3.41444 159.178C-4.05295 157 -4.60322 154.785 -5.06535 152.531L-5.55516 152.632C-5.81768 151.352 -6.05192 150.059 -6.25786 148.754L-5.76397 148.676C-6.11514 146.45 -6.3837 144.186 -6.56967 141.882L-7.06806 141.922C-7.17286 140.624 -7.25158 139.312 -7.3042 137.988L-6.8046 137.969C-6.89386 135.722 -6.9077 133.438 -6.84614 131.114L-7.34597 131.1C-7.31158 129.802 -7.25379 128.492 -7.17257 127.168L-6.67351 127.199C-6.53586 124.956 -6.33063 122.676 -6.05784 120.357L-6.55442 120.299C-6.40302 119.012 -6.2309 117.713 -6.03808 116.402L-5.5434 116.475C-5.21626 114.251 -4.82926 111.993 -4.38239 109.697L-4.87319 109.602C-4.62577 108.331 -4.36008 107.049 -4.07614 105.756M280.123 163.964L-4.07614 105.756M0.00445644 92.0648L-0.474593 91.9215M0.00445644 92.0648C0.00451483 92.0647 0.00445164 92.0646 0.00451002 92.0645L-0.474593 91.9215M0.00445644 92.0648C-0.328725 93.1811 -0.649859 94.2892 -0.958924 95.3895L-1.44031 95.2542M-0.474593 91.9215C-0.808583 93.0404 -1.13049 94.1513 -1.44031 95.2542M-1.44031 95.2542C-1.79873 96.5302 -2.14093 97.7957 -2.46697 99.0507L-1.98304 99.1764C-2.57079 101.439 -3.10571 103.667 -3.58778 105.863L-4.07614 105.756M-1.44031 95.2542L-4.07614 105.756" stroke="#6F8467" stroke-dasharray="6.96 3.98"/>
<path opacity="0.81" d="M213.318 313.606L213.317 313.606C212.31 314.095 211.296 314.562 210.275 315.008L210.475 315.466C209.296 315.981 208.108 316.468 206.911 316.927L206.732 316.46C204.643 317.261 202.528 317.976 200.391 318.607L200.533 319.087C199.301 319.45 198.061 319.786 196.815 320.094L196.695 319.609C194.528 320.145 192.341 320.597 190.138 320.965L190.22 321.458C188.955 321.67 187.684 321.855 186.409 322.012L186.348 321.516C184.135 321.789 181.909 321.98 179.673 322.091L179.698 322.591C178.417 322.654 177.134 322.691 175.847 322.702L175.843 322.202C173.618 322.221 171.384 322.161 169.147 322.024L169.117 322.523C167.838 322.445 166.558 322.341 165.277 322.212L165.327 321.715C163.113 321.493 160.897 321.195 158.683 320.823L158.6 321.316C157.338 321.104 156.076 320.868 154.815 320.608L154.916 320.119C152.738 319.67 150.563 319.149 148.396 318.558L148.265 319.04C147.029 318.703 145.795 318.343 144.565 317.961L144.714 317.483C142.591 316.823 140.477 316.095 138.377 315.301L138.2 315.768C137.002 315.315 135.809 314.841 134.62 314.345L134.813 313.883C132.76 313.027 130.721 312.106 128.7 311.122L128.481 311.571C127.33 311.011 126.185 310.43 125.047 309.829L125.28 309.387C123.312 308.349 121.362 307.249 119.434 306.09L119.177 306.519C118.08 305.859 116.991 305.181 115.909 304.483L116.18 304.063C114.311 302.857 112.465 301.595 110.644 300.275L110.35 300.68C109.313 299.929 108.284 299.159 107.264 298.371L107.569 297.975C105.81 296.616 104.077 295.204 102.373 293.738L102.047 294.117C101.076 293.281 100.115 292.429 99.1636 291.56L99.5009 291.19C97.8599 289.691 96.2482 288.14 94.6685 286.539L94.3126 286.89C93.4136 285.979 92.525 285.051 91.6471 284.108L92.0132 283.767C90.4989 282.14 89.0169 280.464 87.5695 278.74L87.1867 279.062C86.3637 278.082 85.552 277.087 84.752 276.077L85.1439 275.766C84.4506 274.891 83.7661 274.004 83.0907 273.106C82.3552 272.122 81.6454 271.148 80.9607 270.183L80.5529 270.472C79.7397 269.326 78.9617 268.192 78.2183 267.072L78.635 266.795C77.2618 264.725 76.0077 262.699 74.868 260.714L74.4344 260.963C73.7342 259.744 73.0769 258.54 72.4613 257.351L72.9053 257.121C71.7568 254.903 70.7553 252.737 69.8937 250.621L69.4306 250.81C68.9003 249.507 68.4223 248.223 67.9953 246.955L68.4691 246.796C67.6752 244.439 67.0593 242.145 66.6111 239.907L66.1209 240.005C65.8445 238.626 65.6311 237.266 65.4784 235.926L65.9752 235.87C65.6978 233.436 65.6231 231.068 65.7366 228.758L65.2372 228.733C65.3053 227.349 65.4403 225.984 65.6392 224.639L66.1338 224.712C66.4831 222.349 67.032 220.044 67.7647 217.788L67.2891 217.634C67.7118 216.333 68.1948 215.048 68.7351 213.777L69.1952 213.973C70.1127 211.816 71.1981 209.7 72.4369 207.617L72.0071 207.361C72.7003 206.196 73.4407 205.041 74.2256 203.896L74.6381 204.178C75.9563 202.255 77.4023 200.357 78.964 198.477L78.5794 198.158C79.4465 197.114 80.3487 196.076 81.2837 195.044L81.6543 195.38C83.2242 193.646 84.8882 191.926 86.6363 190.213L86.2864 189.856C87.2562 188.906 88.2516 187.959 89.2706 187.013L89.6107 187.38C91.333 185.782 93.1239 184.188 94.9753 182.594L94.6491 182.215C95.6791 181.329 96.7275 180.442 97.7929 179.555L98.1129 179.939C99.0272 179.178 99.9543 178.416 100.893 177.653C101.729 176.974 102.615 176.295 103.549 175.617L103.256 175.213C104.268 174.478 105.334 173.747 106.452 173.019L106.725 173.438C108.528 172.265 110.466 171.101 112.527 169.953L112.284 169.516C113.395 168.897 114.541 168.283 115.72 167.674L115.949 168.118C117.888 167.118 119.916 166.132 122.024 165.167L121.816 164.712C122.981 164.178 124.169 163.651 125.381 163.13L125.578 163.59C127.607 162.718 129.698 161.865 131.846 161.034L131.666 160.568C132.86 160.106 134.072 159.651 135.299 159.203L135.471 159.673C137.564 158.91 139.703 158.168 141.883 157.452L141.726 156.977C142.945 156.576 144.175 156.183 145.417 155.798L145.565 156.276C147.703 155.614 149.874 154.976 152.072 154.365L151.938 153.883C153.182 153.538 154.434 153.201 155.693 152.873L155.819 153.357C157.993 152.791 160.19 152.252 162.405 151.743L162.293 151.256C163.553 150.966 164.819 150.686 166.089 150.415L166.193 150.905C168.398 150.435 170.617 149.996 172.844 149.59L172.755 149.098C174.028 148.865 175.304 148.643 176.582 148.432L176.663 148.926C178.894 148.557 181.131 148.222 183.369 147.923L183.303 147.427C184.588 147.256 185.874 147.095 187.158 146.948L187.216 147.444C189.469 147.185 191.719 146.963 193.962 146.781L193.921 146.283C195.215 146.178 196.506 146.086 197.794 146.008L197.824 146.507C200.093 146.37 202.351 146.275 204.591 146.225L204.58 145.725C205.884 145.697 207.183 145.683 208.474 145.685L208.474 146.185C210.753 146.188 213.012 146.241 215.243 146.345L215.266 145.845C216.568 145.906 217.861 145.984 219.144 146.08L219.106 146.579C221.387 146.75 223.634 146.979 225.841 147.267L225.905 146.771C227.196 146.94 228.474 147.13 229.737 147.34L229.655 147.833C231.917 148.21 234.131 148.655 236.288 149.171L236.405 148.685C237.672 148.988 238.92 149.316 240.147 149.668L240.009 150.149C242.216 150.783 244.355 151.499 246.417 152.301L246.598 151.835C247.814 152.307 249.003 152.809 250.164 153.342L249.956 153.796C252.037 154.751 254.026 155.803 255.912 156.958L256.173 156.531C257.284 157.212 258.36 157.928 259.399 158.68L259.106 159.085C260.939 160.412 262.654 161.853 264.239 163.413L264.59 163.057C265.513 163.965 266.392 164.913 267.226 165.902L266.844 166.225C267.564 167.079 268.25 167.964 268.9 168.881C269.551 169.799 270.167 170.737 270.75 171.693L271.177 171.433C271.851 172.54 272.48 173.671 273.065 174.824L272.619 175.05C273.632 177.046 274.512 179.11 275.265 181.233L275.736 181.066C276.166 182.281 276.556 183.515 276.905 184.767L276.423 184.901C277.022 187.045 277.502 189.242 277.869 191.484L278.362 191.403C278.57 192.672 278.741 193.955 278.878 195.251L278.381 195.303C278.614 197.513 278.745 199.76 278.78 202.038L279.279 202.03C279.299 203.317 279.287 204.614 279.246 205.918L278.746 205.902C278.675 208.125 278.518 210.373 278.277 212.638L278.774 212.691C278.638 213.972 278.476 215.258 278.288 216.549L277.794 216.477C277.473 218.684 277.077 220.905 276.61 223.133L277.1 223.235C276.836 224.496 276.549 225.76 276.241 227.024L275.755 226.905C275.225 229.081 274.63 231.26 273.974 233.437L274.453 233.581C274.081 234.815 273.69 236.049 273.28 237.28L272.806 237.122C272.097 239.254 271.331 241.38 270.514 243.496L270.98 243.676C270.515 244.881 270.032 246.082 269.534 247.28L269.072 247.087C268.206 249.166 267.291 251.233 266.331 253.281L266.783 253.494C266.234 254.666 265.669 255.832 265.091 256.992L264.643 256.768C263.635 258.789 262.584 260.79 261.493 262.765L261.93 263.007C261.304 264.142 260.664 265.268 260.011 266.386L259.58 266.134C258.438 268.09 257.258 270.018 256.043 271.913L256.464 272.183C255.764 273.275 255.053 274.356 254.331 275.425L253.917 275.145C252.644 277.029 251.339 278.875 250.004 280.679L250.406 280.976C249.633 282.02 248.851 283.051 248.059 284.066L247.665 283.758C246.262 285.556 244.831 287.306 243.376 289.002L243.755 289.327C242.907 290.317 242.049 291.288 241.185 292.24L240.815 291.903C239.277 293.596 237.716 295.228 236.135 296.792L236.487 297.147C235.558 298.067 234.622 298.963 233.681 299.835L233.341 299.468C231.656 301.029 229.952 302.511 228.237 303.907L228.552 304.295C227.538 305.12 226.519 305.915 225.497 306.679L225.198 306.279C223.346 307.663 221.484 308.943 219.618 310.11L219.883 310.533C218.77 311.23 217.654 311.887 216.539 312.502L216.297 312.064C215.304 312.612 214.31 313.126 213.318 313.606Z" stroke="#676766" stroke-dasharray="6.96 3.98"/>
</g>
<defs>
<clipPath id="clip0">
<rect width="257" height="162" fill="white"/>
</clipPath>
</defs>
</svg>
