<svg width="77" height="114" viewBox="0 0 77 114" fill="none" xmlns="http://www.w3.org/2000/svg">
<g clip-path="url(#clip0)">
<path d="M56.3499 145.882C55.7263 146.637 55.0445 147.298 54.301 147.852L54.0029 147.451C53.1552 148.082 52.2267 148.563 51.2107 148.872C50.1551 149.19 49.054 149.291 47.9165 149.2L47.8755 149.698C46.9116 149.62 45.9287 149.41 44.9342 149.085L45.0902 148.61C43.1211 147.966 41.0869 146.849 39.0495 145.379L38.7566 145.785C37.9646 145.213 37.1748 144.591 36.3908 143.926L36.7145 143.545C35.0164 142.105 33.3423 140.459 31.7299 138.687L31.3599 139.024C30.6883 138.286 30.0278 137.527 29.3811 136.753L29.7651 136.432C28.2682 134.639 26.8452 132.764 25.5298 130.878L25.1196 131.164C24.5383 130.331 23.978 129.496 23.4416 128.665L23.8617 128.393C22.524 126.321 21.3365 124.279 20.3435 122.363L19.8996 122.593C19.4137 121.656 18.9737 120.748 18.5848 119.881L19.041 119.676C18.5213 118.517 18.096 117.437 17.7762 116.462C17.4569 115.489 17.2177 114.509 17.0548 113.53L16.5616 113.613C16.415 112.732 16.3287 111.85 16.3003 110.973L16.8 110.956C16.7342 108.924 16.9864 106.913 17.5258 104.978L17.0442 104.844C17.2816 103.992 17.5732 103.155 17.9165 102.336L18.3774 102.529C19.1506 100.686 20.1928 98.9386 21.4742 97.3421L21.0845 97.0295C21.6352 96.3433 22.229 95.6846 22.8635 95.0573L23.2147 95.4126C24.6245 94.0187 26.2407 92.7828 28.0368 91.7516L27.7885 91.3181C28.5478 90.8822 29.3384 90.4822 30.1585 90.1216L30.3591 90.5793C31.2727 90.1776 32.2239 89.8255 33.21 89.528L33.2108 89.5278C34.2027 89.2267 35.1806 89.0102 36.142 88.8723L36.0718 88.3773C36.9609 88.2497 37.8375 88.1875 38.6994 88.1862L38.6993 88.6862C40.7506 88.6833 42.7173 89.0357 44.5739 89.6839L44.7393 89.2118C45.5694 89.5016 46.3777 89.8488 47.1619 90.2484L46.9344 90.6941C48.6978 91.5925 50.3405 92.7642 51.8341 94.15L52.1745 93.7831C52.8145 94.377 53.4271 95.0087 54.0101 95.6737L53.634 96.0038C54.9441 97.4982 56.104 99.1656 57.0882 100.952L57.5261 100.71C57.9491 101.477 58.34 102.266 58.697 103.072L58.2398 103.275C58.6479 104.196 59.0108 105.14 59.3257 106.1C59.6336 107.038 59.9188 108.095 60.1755 109.248L60.6635 109.138C60.8599 110.021 61.0393 110.956 61.1992 111.933L60.7058 112.015C61.0375 114.043 61.2853 116.258 61.4278 118.566L61.9268 118.534C61.9845 119.469 62.025 120.418 62.047 121.376L61.5472 121.388C61.5971 123.566 61.5506 125.787 61.3914 127.979L61.89 128.015C61.8209 128.966 61.7307 129.913 61.6181 130.848L61.1217 130.789C60.8509 133.038 60.45 135.216 59.9017 137.24L60.3843 137.37C60.1302 138.308 59.8447 139.215 59.5258 140.082L59.0566 139.91C58.2449 142.118 57.2214 144.044 55.9648 145.564L56.3499 145.882Z" stroke="#969695" stroke-dasharray="7 3"/>
<path d="M119.054 91.2245L119.054 91.2253C115.878 106.499 100.11 117.775 81.4108 117.576C72.0555 117.45 66.7775 114.86 63.7565 110.676C60.7057 106.451 59.8676 100.491 59.679 93.4054C59.5868 89.9406 60.4588 85.2422 62.1146 80.1338C63.768 75.0332 66.1918 69.5575 69.1761 64.5453C72.162 59.5304 75.6972 54.9994 79.5652 51.7702C83.4347 48.5397 87.5979 46.6431 91.8576 46.808C100.444 47.1403 108.053 54.3066 113.136 63.481C118.213 72.6422 120.653 83.6008 119.054 91.2245Z" stroke="#C7C7C7"/>
<path d="M75.984 7.20008L75.9844 7.20016C77.0945 7.41814 78.1016 7.76307 79.013 8.21754L79.2361 7.77023C80.1053 8.20365 80.8939 8.73376 81.6063 9.34807L81.2797 9.72655C82.8478 11.0787 84.0421 12.8678 84.9033 14.9639L85.3659 14.774C85.7192 15.6338 86.0165 16.5405 86.2611 17.4843L85.777 17.6095C86.2987 19.6221 86.5779 21.8154 86.6449 24.0925L87.1448 24.0779C87.1725 25.0193 87.1644 25.9734 87.1228 26.9334L86.6232 26.9116C86.529 29.0866 86.2608 31.2941 85.8461 33.4527L86.3372 33.5471C86.1564 34.488 85.9482 35.4194 85.7147 36.3347L85.2301 36.2111C84.6668 38.4191 83.9559 40.53 83.1309 42.4494L83.5904 42.6469C83.2025 43.5493 82.7894 44.4108 82.3543 45.2218L81.9136 44.9855C81.3723 45.9946 80.7985 46.9204 80.1995 47.7449C79.4764 48.6877 78.7547 49.5524 78.0319 50.3408L78.4006 50.6786C77.7073 51.4347 77.0114 52.1233 76.3108 52.7454L75.9787 52.3717C74.1324 54.0112 72.2666 55.1668 70.3389 55.8733L70.5112 56.3427C69.581 56.6836 68.6339 56.9246 67.6655 57.0678L67.5922 56.5733C65.5225 56.8794 63.3392 56.7243 60.9884 56.1172L60.8634 56.6012C59.953 56.3661 59.0206 56.0654 58.0637 55.7003L58.242 55.2332C57.2396 54.8507 56.2074 54.3954 55.1421 53.8682C54.0738 53.3388 53.0574 52.7458 52.0977 52.0986L51.818 52.513C50.9571 51.9325 50.1407 51.309 49.3722 50.6493L49.698 50.2701C47.8603 48.6925 46.3034 46.9047 45.0726 45.001L44.6526 45.2722C44.0872 44.3977 43.5888 43.4987 43.1617 42.5839L43.6149 42.3726C42.5896 40.1762 41.9887 37.8945 41.8676 35.6527L41.3683 35.6795C41.3125 34.6469 41.3553 33.6207 41.5023 32.6122L41.9972 32.6844C42.1634 31.5444 42.4672 30.4292 42.9171 29.3558C43.3347 28.3593 43.9008 27.2452 44.6021 26.0591L44.1715 25.8047C44.6893 24.9287 45.278 24.017 45.9316 23.0873L46.3408 23.3747C47.673 21.4794 49.2786 19.5069 51.1047 17.6118L50.7445 17.265C51.4844 16.4972 52.2601 15.742 53.0682 15.0094L53.4042 15.3797C55.235 13.72 57.2305 12.1807 59.3494 10.8793L59.0875 10.4533C60.0108 9.88623 60.9579 9.36322 61.9256 8.89383L62.144 9.34357C64.3962 8.25105 66.753 7.45795 69.1727 7.08267L69.0959 6.58869C70.1592 6.42377 71.2358 6.33747 72.3223 6.33976L72.3213 6.83965C73.5317 6.8422 74.7541 6.95753 75.984 7.20008Z" stroke="#A9B3A4" stroke-dasharray="7 3"/>
</g>
<defs>
<clipPath id="clip0">
<rect width="77" height="114" fill="white"/>
</clipPath>
</defs>
</svg>
