<svg width="98" height="79" viewBox="0 0 98 79" fill="none" xmlns="http://www.w3.org/2000/svg">
<g clip-path="url(#clip0)">
<path d="M106.736 40.6389C107.585 41.0189 108.41 41.488 109.211 42.0364L108.927 42.4487C110.598 43.5932 112.172 45.1004 113.64 46.8848L114.027 46.5672C114.615 47.2819 115.185 48.0385 115.737 48.8313L115.326 49.1168C116.527 50.8428 117.641 52.746 118.666 54.7652L119.112 54.5388C119.537 55.3752 119.945 56.2306 120.338 57.1006L119.882 57.3065C120.776 59.2867 121.587 61.3449 122.312 63.429L122.784 63.2645C123.097 64.1614 123.393 65.0628 123.673 65.9646L123.195 66.1131C123.859 68.2524 124.432 70.394 124.91 72.4822L125.398 72.3702C125.613 73.3083 125.809 74.2357 125.985 75.1475L125.494 75.243C125.94 77.5459 126.262 79.7457 126.456 81.761L126.954 81.7126C127.049 82.7057 127.114 83.6551 127.147 84.5514L126.648 84.5705C126.692 85.7612 126.68 86.8516 126.612 87.8198C126.531 88.9692 126.347 90.0799 126.068 91.1473L126.552 91.2732C126.298 92.2427 125.968 93.1782 125.567 94.0763L125.11 93.8731C124.193 95.9261 122.893 97.7807 121.278 99.3935L121.631 99.7468C120.936 100.441 120.185 101.09 119.382 101.692L119.082 101.293C117.329 102.609 115.322 103.695 113.118 104.514L113.292 104.983C112.377 105.323 111.429 105.618 110.453 105.864L110.33 105.38C108.204 105.917 105.938 106.224 103.574 106.272L103.583 106.772C102.607 106.792 101.615 106.768 100.61 106.7L100.644 106.201C99.5267 106.125 98.3921 105.992 97.2449 105.799L97.2441 105.799C96.0593 105.602 94.9219 105.339 93.8321 105.015L93.6889 105.494C92.6939 105.198 91.7373 104.852 90.8191 104.461L91.0158 104.001C88.7983 103.057 86.8106 101.841 85.0546 100.416L84.7388 100.804C83.9427 100.158 83.1933 99.4692 82.4906 98.7438L82.8504 98.3961C81.2156 96.7084 79.8383 94.8157 78.7222 92.7886L78.2838 93.0298C77.7927 92.1378 77.3513 91.2205 76.9602 90.2838L77.4219 90.0909C76.5203 87.9321 75.8892 85.6676 75.5324 83.372L75.0381 83.4493C74.8815 82.4421 74.7769 81.4292 74.7245 80.4166L75.2241 80.3902C75.1636 79.2209 75.1738 78.0524 75.2553 76.8942C75.3302 75.8281 75.4862 74.6566 75.7193 73.4059L75.2275 73.3149C75.4067 72.354 75.6304 71.3496 75.8964 70.3134L76.381 70.437C76.9332 68.2865 77.6704 65.9952 78.5732 63.6709L78.1068 63.4906C78.4733 62.547 78.8668 61.5983 79.2859 60.6516L79.7434 60.8533C80.6956 58.7025 81.7808 56.5631 82.9831 54.5193L82.5518 54.2665C83.0747 53.3776 83.6196 52.5064 84.1854 51.6596L84.6014 51.9367C85.9564 49.9088 87.4287 48.0277 88.9995 46.3863L88.6381 46.0412C89.3622 45.2846 90.1078 44.5772 90.8733 43.928L91.1968 44.3088C93.0886 42.7045 95.0889 41.4754 97.1705 40.7474L97.0057 40.2758C97.9823 39.9343 98.9794 39.6982 99.9945 39.5811L100.051 40.0776C101.176 39.9479 102.322 39.9699 103.489 40.1635C104.532 40.3386 105.546 40.6538 106.531 41.0949L106.736 40.6389Z" stroke="#969695" stroke-dasharray="7 3"/>
<path d="M91.4175 7.74482L91.4182 7.74526C92.3311 8.32008 93.1736 8.98443 93.9421 9.72612L94.2897 9.36637C94.9702 10.023 95.5939 10.7381 96.1586 11.5034L95.756 11.8003C97.007 13.4958 97.9628 15.449 98.5926 17.5674L99.0721 17.4245C99.339 18.3222 99.5485 19.2479 99.6986 20.1949L99.2046 20.2736C99.5336 22.3493 99.5711 24.5317 99.2935 26.7449L99.7897 26.8065C99.6733 27.7352 99.5025 28.6688 99.2758 29.6019L98.7897 29.4844C98.5377 30.522 98.2151 31.5592 97.8196 32.5884C97.3181 33.8824 96.7829 34.9899 96.2171 35.9327L96.646 36.1894C96.026 37.2224 95.3655 38.0715 94.666 38.7595L94.3153 38.4035C92.4334 40.2546 90.2604 40.8733 87.7702 40.7505L87.745 41.2498C86.7178 41.1991 85.6464 41.027 84.533 40.7663L84.6476 40.2796C83.5018 40.0114 82.305 39.6462 81.0566 39.2191C80.0219 38.8651 78.8282 38.2658 77.5484 37.4616L77.2819 37.8849C76.3632 37.3076 75.409 36.6318 74.4459 35.8758L74.7552 35.4826C72.7823 33.9339 70.7693 32.0422 68.9535 29.9704L68.5771 30.2999C67.8108 29.4256 67.0793 28.5196 66.3997 27.5938L66.8031 27.2978C65.1319 25.0209 63.7923 22.6398 63.0326 20.3362L62.5576 20.4931C62.1774 19.3404 61.9367 18.2019 61.8662 17.0987L62.3653 17.0663C62.2803 15.7365 62.4553 14.4773 62.9376 13.3199C63.4023 12.2048 64.0834 11.2063 64.9389 10.3211L64.5794 9.97405C65.3169 9.21096 66.1745 8.53266 67.1242 7.93711L67.3897 8.36042C69.3612 7.12395 71.7572 6.24646 74.3144 5.719L74.2138 5.22947C75.2733 5.01094 76.357 4.85203 77.4462 4.75139L77.4917 5.24911C80.0371 5.01392 82.6113 5.10238 84.9659 5.49474L85.0487 5.00169C86.1625 5.18728 87.2293 5.43975 88.224 5.75727L88.0714 6.23344C89.3333 6.63623 90.465 7.14284 91.4175 7.74482Z" stroke="#A9B3A4" stroke-dasharray="7 3"/>
<path d="M69.6083 68.5865L69.6086 68.5868C71.9174 70.47 72.9153 72.9316 72.9704 75.6691C73.0259 78.4245 72.1237 81.4645 70.6067 84.4392C67.5686 90.3967 62.153 95.9247 57.4975 98.1741C53.0842 100.166 49.5019 100.707 46.3905 99.8842C43.2793 99.0613 40.5407 96.8485 37.8706 93.1206C32.57 85.7121 32.9454 76.1167 38.4362 71.6601C41.2489 69.3771 46.6898 66.6528 52.6319 65.4898C58.5768 64.3262 64.9074 64.7455 69.6083 68.5865Z" stroke="#C7C7C7"/>
</g>
<defs>
<clipPath id="clip0">
<rect width="98" height="79" fill="white"/>
</clipPath>
</defs>
</svg>
