<svg width="257" height="162" viewBox="0 0 257 162" fill="none" xmlns="http://www.w3.org/2000/svg">
<g clip-path="url(#clip0)">
<g opacity="0.81">
<mask id="path-1-inside-1" fill="white">
<path fill-rule="evenodd" clip-rule="evenodd" d="M226.956 -132.545C263.693 -112.469 326.767 -23.5866 298.857 20.3444C270.947 64.2754 177.995 55.1588 143.105 23.7886C108.182 -7.50728 102.791 -65.0775 131.199 -112.707C159.754 -160.27 190.219 -152.622 226.956 -132.545Z"/>
</mask>
<path fill-rule="evenodd" clip-rule="evenodd" d="M226.956 -132.545C263.693 -112.469 326.767 -23.5866 298.857 20.3444C270.947 64.2754 177.995 55.1588 143.105 23.7886C108.182 -7.50728 102.791 -65.0775 131.199 -112.707C159.754 -160.27 190.219 -152.622 226.956 -132.545Z" stroke="#676766" stroke-width="2" stroke-dasharray="6.96 3.98" mask="url(#path-1-inside-1)"/>
</g>
<g opacity="0.73">
<mask id="path-2-inside-2" fill="white">
<path fill-rule="evenodd" clip-rule="evenodd" d="M268.709 113.187C247.4 161.08 165.19 253.245 78.7688 234.456C-7.7505 215.722 13.4067 54.4741 58.6287 4.02465C103.851 -46.4248 144.32 -58.248 202.368 -28.0899C260.265 2.02481 290.018 65.2946 268.709 113.187Z"/>
</mask>
<path fill-rule="evenodd" clip-rule="evenodd" d="M268.709 113.187C247.4 161.08 165.19 253.245 78.7688 234.456C-7.7505 215.722 13.4067 54.4741 58.6287 4.02465C103.851 -46.4248 144.32 -58.248 202.368 -28.0899C260.265 2.02481 290.018 65.2946 268.709 113.187Z" stroke="#6F8467" stroke-width="2" stroke-dasharray="6.96 3.98" mask="url(#path-2-inside-2)"/>
</g>
<g opacity="0.75">
<mask id="path-3-inside-3" fill="white">
<path fill-rule="evenodd" clip-rule="evenodd" d="M-26.5875 -101.016C15.7866 -110.781 116.865 -102.444 126.3 -56.5086C135.652 -10.4944 39.9573 45.3383 -2.41681 55.1035C-44.7909 64.8686 -86.7136 35.4956 -96.0651 -10.5185C-105.498 -56.5351 -68.9617 -91.2513 -26.5875 -101.016Z"/>
</mask>
<path fill-rule="evenodd" clip-rule="evenodd" d="M-26.5875 -101.016C15.7866 -110.781 116.865 -102.444 126.3 -56.5086C135.652 -10.4944 39.9573 45.3383 -2.41681 55.1035C-44.7909 64.8686 -86.7136 35.4956 -96.0651 -10.5185C-105.498 -56.5351 -68.9617 -91.2513 -26.5875 -101.016Z" stroke="#C74343" stroke-width="2" stroke-dasharray="6.96 3.98" mask="url(#path-3-inside-3)"/>
</g>
</g>
<defs>
<clipPath id="clip0">
<rect width="257" height="162" fill="white"/>
</clipPath>
</defs>
</svg>
