<svg width="257" height="162" viewBox="0 0 257 162" fill="none" xmlns="http://www.w3.org/2000/svg">
<g clip-path="url(#clip0)">
<g opacity="0.81">
<mask id="path-1-inside-1" fill="white">
<path fill-rule="evenodd" clip-rule="evenodd" d="M91.9559 10.4548C128.693 30.5314 191.767 119.413 163.857 163.344C135.947 207.275 42.9953 198.159 8.10529 166.789C-26.8179 135.493 -32.2085 77.9225 -3.80131 30.2929C24.7541 -17.2704 55.2188 -9.62187 91.9559 10.4548Z"/>
</mask>
<path fill-rule="evenodd" clip-rule="evenodd" d="M91.9559 10.4548C128.693 30.5314 191.767 119.413 163.857 163.344C135.947 207.275 42.9953 198.159 8.10529 166.789C-26.8179 135.493 -32.2085 77.9225 -3.80131 30.2929C24.7541 -17.2704 55.2188 -9.62187 91.9559 10.4548Z" stroke="#676766" stroke-width="2" stroke-dasharray="6.96 3.98" mask="url(#path-1-inside-1)"/>
</g>
<g opacity="0.75">
<mask id="path-2-inside-2" fill="white">
<path fill-rule="evenodd" clip-rule="evenodd" d="M286.412 -68.0164C328.787 -77.7815 429.865 -69.444 439.3 -23.5086C448.652 22.5056 352.957 78.3383 310.583 88.1035C268.209 97.8686 226.286 68.4956 216.935 22.4815C207.502 -23.5351 244.038 -58.2513 286.412 -68.0164Z"/>
</mask>
<path fill-rule="evenodd" clip-rule="evenodd" d="M286.412 -68.0164C328.787 -77.7815 429.865 -69.444 439.3 -23.5086C448.652 22.5056 352.957 78.3383 310.583 88.1035C268.209 97.8686 226.286 68.4956 216.935 22.4815C207.502 -23.5351 244.038 -58.2513 286.412 -68.0164Z" stroke="#C74343" stroke-width="2" stroke-dasharray="6.96 3.98" mask="url(#path-2-inside-2)"/>
</g>
<g opacity="0.73">
<mask id="path-3-inside-3" fill="white">
<path fill-rule="evenodd" clip-rule="evenodd" d="M294.709 280.342C273.4 328.235 191.19 420.4 104.769 401.611C18.2495 382.877 39.4067 221.629 84.6287 171.18C129.851 120.73 170.32 108.907 228.369 139.065C286.265 169.18 316.018 232.45 294.709 280.342Z"/>
</mask>
<path fill-rule="evenodd" clip-rule="evenodd" d="M294.709 280.342C273.4 328.235 191.19 420.4 104.769 401.611C18.2495 382.877 39.4067 221.629 84.6287 171.18C129.851 120.73 170.32 108.907 228.369 139.065C286.265 169.18 316.018 232.45 294.709 280.342Z" stroke="#6F8467" stroke-width="2" stroke-dasharray="6.96 3.98" mask="url(#path-3-inside-3)"/>
</g>
</g>
<defs>
<clipPath id="clip0">
<rect width="257" height="162" fill="white"/>
</clipPath>
</defs>
</svg>
