<svg width="257" height="162" viewBox="0 0 257 162" fill="none" xmlns="http://www.w3.org/2000/svg">
<g clip-path="url(#clip0)">
<g opacity="0.75">
<mask id="path-1-inside-1" fill="white">
<path fill-rule="evenodd" clip-rule="evenodd" d="M297.422 243.432C256.311 257.602 154.917 259.948 140.699 215.261C126.557 170.487 215.845 104.893 256.956 90.7227C298.067 76.5524 342.848 101.35 356.99 146.125C371.214 190.893 338.534 229.262 297.422 243.432Z"/>
</mask>
<path fill-rule="evenodd" clip-rule="evenodd" d="M297.422 243.432C256.311 257.602 154.917 259.948 140.699 215.261C126.557 170.487 215.845 104.893 256.956 90.7227C298.067 76.5524 342.848 101.35 356.99 146.125C371.214 190.893 338.534 229.262 297.422 243.432Z" stroke="#C74343" stroke-width="2" stroke-dasharray="6.96 3.98" mask="url(#path-1-inside-1)"/>
</g>
<g opacity="0.73">
<mask id="path-2-inside-2" fill="white">
<path fill-rule="evenodd" clip-rule="evenodd" d="M219.078 -32.2867C248.804 26.1498 273.54 178.625 187.19 247.759C100.816 317.03 -39.1285 169.417 -52.4936 85.739C-65.8588 2.06135 -45.4528 -46.5618 29.5819 -79.1788C104.454 -111.681 189.352 -90.7232 219.078 -32.2867Z"/>
</mask>
<path fill-rule="evenodd" clip-rule="evenodd" d="M219.078 -32.2867C248.804 26.1498 273.54 178.625 187.19 247.759C100.816 317.03 -39.1285 169.417 -52.4936 85.739C-65.8588 2.06135 -45.4528 -46.5618 29.5819 -79.1788C104.454 -111.681 189.352 -90.7232 219.078 -32.2867Z" stroke="#6F8467" stroke-width="2" stroke-dasharray="6.96 3.98" mask="url(#path-2-inside-2)"/>
</g>
<g opacity="0.81">
<mask id="path-3-inside-3" fill="white">
<path fill-rule="evenodd" clip-rule="evenodd" d="M99.6672 303.569C61.1092 287.26 -10.5236 205.12 12.8607 158.622C36.2449 112.124 129.642 111.914 167.49 139.644C205.363 167.297 216.475 224.041 192.965 274.269C169.301 324.446 138.225 319.877 99.6672 303.569Z"/>
</mask>
<path fill-rule="evenodd" clip-rule="evenodd" d="M99.6672 303.569C61.1092 287.26 -10.5236 205.12 12.8607 158.622C36.2449 112.124 129.642 111.914 167.49 139.644C205.363 167.297 216.475 224.041 192.965 274.269C169.301 324.446 138.225 319.877 99.6672 303.569Z" stroke="#676766" stroke-width="2" stroke-dasharray="6.96 3.98" mask="url(#path-3-inside-3)"/>
</g>
</g>
<defs>
<clipPath id="clip0">
<rect width="257" height="162" fill="white"/>
</clipPath>
</defs>
</svg>
