<svg width="178" height="129" viewBox="0 0 178 129" fill="none" xmlns="http://www.w3.org/2000/svg">
<g clip-path="url(#clip0)">
<mask id="path-1-inside-1" fill="white">
<path fill-rule="evenodd" clip-rule="evenodd" d="M102.847 26.0224C95.6244 60.2598 53.0515 129.107 12.8956 117.229C-27.2937 105.259 -38.0487 14.247 -30.8261 -19.9904C-23.6035 -54.2278 14.818 -72.2776 55.0072 -60.3077C95.2273 -48.3949 110.07 -8.21492 102.847 26.0224Z"/>
</mask>
<path fill-rule="evenodd" clip-rule="evenodd" d="M102.847 26.0224C95.6244 60.2598 53.0515 129.107 12.8956 117.229C-27.2937 105.259 -38.0487 14.247 -30.8261 -19.9904C-23.6035 -54.2278 14.818 -72.2776 55.0072 -60.3077C95.2273 -48.3949 110.07 -8.21492 102.847 26.0224Z" stroke="#C74343" stroke-width="2" stroke-dasharray="6.96 3.98" mask="url(#path-1-inside-1)"/>
<mask id="path-2-inside-2" fill="white">
<path fill-rule="evenodd" clip-rule="evenodd" d="M161.103 136.983C130.828 135.605 61.5405 97.7568 65.7141 60.21C69.8877 22.6631 133.229 -1.03055 165.895 8.30095C198.559 17.5734 220.378 53.3962 217.058 93.5136C213.62 133.635 191.377 138.361 161.103 136.983Z"/>
</mask>
<path fill-rule="evenodd" clip-rule="evenodd" d="M161.103 136.983C130.828 135.605 61.5405 97.7568 65.7141 60.21C69.8877 22.6631 133.229 -1.03055 165.895 8.30095C198.559 17.5734 220.378 53.3962 217.058 93.5136C213.62 133.635 191.377 138.361 161.103 136.983Z" stroke="#ACACAC" stroke-width="2" stroke-dasharray="6.96 3.98" mask="url(#path-2-inside-2)"/>
</g>
<defs>
<clipPath id="clip0">
<rect width="177.896" height="128.279" fill="white"/>
</clipPath>
</defs>
</svg>
