<svg width="345" height="160" viewBox="0 0 345 160" fill="none" xmlns="http://www.w3.org/2000/svg">
<mask id="mask0" mask-type="alpha" maskUnits="userSpaceOnUse" x="0" y="0" width="345" height="160">
<rect opacity="0.9" width="345" height="160" fill="#F9F6F4"/>
</mask>
<g mask="url(#mask0)">
<path opacity="0.75" d="M324.783 -106.4C325.65 -105.397 326.481 -104.366 327.276 -103.307L326.877 -103.007C328.253 -101.176 329.522 -99.2613 330.689 -97.269L331.12 -97.5215C331.785 -96.3852 332.417 -95.2238 333.016 -94.0383L332.57 -93.8128C333.598 -91.7791 334.529 -89.673 335.366 -87.499L335.833 -87.6788C336.305 -86.4544 336.747 -85.2089 337.16 -83.943L336.685 -83.7878C337.39 -81.6309 338.01 -79.4139 338.549 -77.1407L339.036 -77.2561C339.341 -75.968 339.621 -74.6622 339.875 -73.3395L339.384 -73.2451C339.812 -71.0223 340.167 -68.7507 340.453 -66.4336L340.949 -66.4949C341.11 -65.1862 341.25 -63.8634 341.368 -62.527L340.87 -62.4831C341.07 -60.2152 341.208 -57.9076 341.285 -55.5632L341.785 -55.5798C341.828 -54.2731 341.853 -52.9551 341.86 -51.6265L341.36 -51.6241C341.371 -49.3343 341.328 -47.0122 341.233 -44.6606L341.733 -44.6404C341.68 -43.3382 341.611 -42.0271 341.527 -40.7076L341.028 -40.7394C340.882 -38.4522 340.69 -36.1393 340.452 -33.803L340.949 -33.7524C340.817 -32.4502 340.67 -31.141 340.51 -29.825L340.014 -29.8854C339.737 -27.6078 339.418 -25.3098 339.061 -22.9936L339.555 -22.9173C339.355 -21.6202 339.142 -20.3174 338.918 -19.0094L338.425 -19.094C338.036 -16.8296 337.611 -14.5492 337.152 -12.2548L337.642 -12.1567C337.384 -10.8676 337.115 -9.57425 336.835 -8.27687L336.347 -8.38221C335.862 -6.13275 335.345 -3.87108 334.798 -1.59902L335.284 -1.48191C334.976 -0.202675 334.658 1.0798 334.33 2.36519L333.846 2.24182C333.277 4.47538 332.68 6.7179 332.055 8.96765L332.537 9.10138C332.185 10.37 331.824 11.6409 331.455 12.9138L330.975 12.7745C330.332 14.9915 329.663 17.2146 328.97 19.442L329.448 19.5906C329.057 20.8484 328.658 22.1077 328.251 23.368L327.775 23.2146C327.066 25.4144 326.333 27.6176 325.579 29.8226L326.052 29.9844C325.626 31.2318 325.192 32.4797 324.752 33.7279L324.281 33.5616C323.512 35.7419 322.722 37.9231 321.913 40.1037L322.382 40.2776C321.922 41.5166 321.457 42.7553 320.985 43.9935L320.517 43.8155C319.694 45.9759 318.853 48.1348 317.994 50.291L318.458 50.476C317.968 51.7065 317.472 52.9361 316.971 54.1645L316.508 53.9756C315.634 56.1174 314.744 58.2555 313.838 60.3885L314.298 60.5839C313.78 61.8045 313.257 63.0233 312.729 64.2402L312.27 64.0412C311.348 66.1656 310.411 68.2842 309.461 70.3955L309.917 70.6007C309.373 71.8095 308.824 73.0158 308.272 74.2194L307.817 74.0108C306.849 76.1193 305.868 78.2197 304.875 80.3104L305.326 80.525C304.758 81.7217 304.185 82.9152 303.609 84.1053L303.159 83.8874C302.146 85.9797 301.122 88.0613 300.088 90.131L300.535 90.3545C299.942 91.54 299.346 92.7214 298.747 93.8987L298.302 93.6719C297.246 95.7463 296.181 97.8075 295.107 99.8541L295.549 100.086C294.933 101.261 294.314 102.431 293.692 103.595L293.251 103.36C292.153 105.415 291.048 107.454 289.935 109.476L290.373 109.717C289.733 110.881 289.09 112.039 288.445 113.191L288.009 112.946C286.87 114.981 285.724 116.997 284.573 118.992L285.006 119.242C284.342 120.395 283.675 121.54 283.007 122.679L282.576 122.426C281.394 124.439 280.208 126.43 279.019 128.397L279.446 128.656C278.757 129.796 278.066 130.928 277.374 132.052L276.948 131.79C275.723 133.781 274.494 135.745 273.264 137.681L273.687 137.949C272.971 139.076 272.255 140.192 271.54 141.299L271.12 141.027C269.846 142.995 268.572 144.932 267.3 146.834L267.716 147.112C266.974 148.221 266.232 149.318 265.492 150.404L265.079 150.122C263.752 152.066 262.428 153.971 261.109 155.836L261.517 156.125C260.748 157.212 259.98 158.284 259.215 159.343L258.809 159.05C257.423 160.967 256.042 162.837 254.669 164.657L255.068 164.958C254.272 166.015 253.478 167.054 252.687 168.076L252.292 167.771C250.834 169.655 249.387 171.481 247.953 173.244L248.341 173.56C247.494 174.602 246.652 175.622 245.814 176.62L245.431 176.299C243.908 178.115 242.402 179.856 240.917 181.518L241.29 181.851C240.373 182.878 239.464 183.874 238.563 184.84L238.198 184.499C237.412 185.341 236.634 186.159 235.863 186.953C235.048 187.792 234.224 188.618 233.392 189.43L233.742 189.788C232.786 190.721 231.82 191.637 230.844 192.535L230.506 192.167C228.786 193.75 227.033 195.278 225.251 196.752L225.57 197.137C224.537 197.991 223.493 198.828 222.44 199.646L222.133 199.251C220.29 200.683 218.417 202.059 216.515 203.38L216.8 203.791C215.703 204.552 214.597 205.296 213.482 206.021L213.209 205.602C211.254 206.873 209.272 208.087 207.264 209.244L207.513 209.677C206.354 210.345 205.187 210.994 204.012 211.624L203.776 211.183C201.723 212.284 199.645 213.327 197.545 214.312L197.757 214.765C196.548 215.332 195.332 215.88 194.109 216.409L193.91 215.95C191.774 216.874 189.616 217.739 187.439 218.547L187.613 219.016C186.361 219.48 185.103 219.925 183.839 220.351L183.679 219.877C181.475 220.62 179.253 221.304 177.015 221.93L177.149 222.411C175.864 222.771 174.574 223.111 173.279 223.432L173.158 222.946C170.902 223.506 168.631 224.006 166.348 224.449L166.443 224.94C165.134 225.193 163.82 225.428 162.502 225.644L162.421 225.15C160.128 225.526 157.824 225.843 155.512 226.102L155.567 226.599C154.243 226.747 152.915 226.877 151.585 226.987L151.543 226.489C149.229 226.681 146.907 226.816 144.58 226.893L144.597 227.393C143.264 227.437 141.929 227.462 140.593 227.469L140.591 226.969C138.269 226.981 135.944 226.935 133.616 226.833L133.594 227.333C132.263 227.274 130.931 227.197 129.599 227.102L129.635 226.603C127.321 226.437 125.005 226.215 122.691 225.938L122.632 226.434C121.308 226.275 119.986 226.098 118.664 225.903L118.737 225.408C116.442 225.069 114.149 224.675 111.861 224.225L111.765 224.716C110.457 224.459 109.151 224.184 107.847 223.892L107.957 223.404C105.694 222.896 103.437 222.334 101.187 221.718L101.055 222.201C99.7704 221.849 98.4884 221.48 97.2092 221.093L97.3539 220.614C95.1345 219.943 92.9236 219.219 90.7234 218.442L90.5569 218.914C89.3005 218.47 88.0474 218.009 86.7982 217.531L86.9769 217.064C84.8123 216.236 82.6591 215.356 80.5193 214.424L80.3197 214.882C79.0994 214.351 77.8835 213.802 76.6722 213.237L76.8835 212.784C74.7833 211.805 72.6972 210.775 70.627 209.694L70.3957 210.137C69.2148 209.521 68.0391 208.888 66.869 208.239L67.1115 207.802C65.0861 206.679 63.0772 205.506 61.0867 204.284L60.8251 204.711C59.6909 204.014 58.5627 203.303 57.4408 202.575L57.7129 202.155C55.7697 200.895 53.8453 199.586 51.9414 198.23L51.6514 198.638C50.5677 197.866 49.4906 197.079 48.4204 196.276L48.7204 195.876C46.8689 194.487 45.0382 193.053 43.2299 191.571L42.9131 191.958C41.8827 191.114 40.8597 190.256 39.8442 189.382L40.1703 189.003C38.415 187.493 36.6824 185.938 34.974 184.338L34.6323 184.703C33.6636 183.796 32.7027 182.875 31.7499 181.939L32.1002 181.582C31.2695 180.767 30.4449 179.94 29.6267 179.103L29.6261 179.102C28.8063 178.266 28.0019 177.425 27.2129 176.578L26.8472 176.919C25.9415 175.947 25.0558 174.969 24.1901 173.984L24.5657 173.653C23.0219 171.897 21.5417 170.12 20.124 168.323L19.7315 168.633C18.9034 167.583 18.0965 166.527 17.3105 165.465L17.7125 165.168C16.326 163.293 15.005 161.399 13.7486 159.487L13.3307 159.762C12.5998 158.649 11.8906 157.531 11.2028 156.406L11.6294 156.145C10.4144 154.159 9.26668 152.154 8.18503 150.132L7.74416 150.368C7.11554 149.193 6.50909 148.012 5.9246 146.826L6.37311 146.605C5.34606 144.521 4.3871 142.42 3.49481 140.304L3.03413 140.499C2.5178 139.275 2.0237 138.045 1.55159 136.812L2.01857 136.633C1.18959 134.466 0.428631 132.285 -0.265731 130.092L-0.742424 130.243C-1.14378 128.975 -1.52297 127.703 -1.88027 126.427L-1.3988 126.292C-2.02314 124.062 -2.58037 121.821 -3.07196 119.569L-3.56045 119.676C-3.8435 118.379 -4.10485 117.08 -4.34482 115.777L-3.85309 115.687C-4.27209 113.412 -4.62557 111.129 -4.91506 108.839L-5.41112 108.901C-5.57748 107.585 -5.72276 106.266 -5.8473 104.946L-5.34953 104.899C-5.56635 102.599 -5.71995 100.294 -5.81181 97.984L-6.31141 98.0038C-6.36409 96.6791 -6.39655 95.3531 -6.40904 94.026L-5.90906 94.0213C-5.93078 91.7135 -5.89194 89.4025 -5.794 87.0902L-6.29355 87.0691C-6.23746 85.7449 -6.16208 84.4204 -6.06765 83.0959L-5.56889 83.1314C-5.40487 80.8305 -5.18318 78.5293 -4.90528 76.2297L-5.40167 76.1697C-5.24278 74.855 -5.06559 73.5408 -4.87038 72.2275L-4.37583 72.3011C-4.03672 70.0199 -3.64302 67.7413 -3.19609 65.4672L-3.68671 65.3708C-3.43107 64.07 -3.15811 62.7707 -2.86807 61.4732L-2.38011 61.5823C-1.877 59.3316 -1.32231 57.0864 -0.717423 54.8482L-1.2001 54.7178C-0.85487 53.4403 -0.493321 52.1652 -0.115744 50.8927L0.363577 51.035C1.01973 48.8237 1.72447 46.6204 2.47648 44.4269L2.00351 44.2647C2.43349 43.0105 2.87884 41.7595 3.33935 40.512L3.80841 40.6851C4.60743 38.5206 5.45219 36.3666 6.34134 34.2249L5.87956 34.0331C6.38693 32.811 6.90869 31.5929 7.44464 30.3791L7.90205 30.5811C8.83429 28.4697 9.80956 26.3714 10.8265 24.2877L10.3772 24.0684C10.9587 22.8769 11.5539 21.6902 12.1623 20.5086L12.6069 20.7375C13.664 18.6847 14.7616 16.6473 15.8983 14.6269L15.4625 14.3817C16.1118 13.2277 16.7738 12.0792 17.4483 10.9366L17.8789 11.1908C19.0531 9.20157 20.2654 7.23015 21.5144 5.27808L21.0932 5.00858C21.8079 3.89157 22.5346 2.78087 23.273 1.6768L23.6887 1.95479C24.9735 0.0338872 26.2939 -1.86693 27.6489 -3.74611L27.2433 -4.03853C28.0183 -5.11337 28.8046 -6.1811 29.6018 -7.24148L30.0014 -6.94104C31.3908 -8.78896 32.8137 -10.6145 34.2688 -12.416L33.8798 -12.7302C34.7133 -13.762 35.5573 -14.786 36.4116 -15.8018L36.7943 -15.48C38.2829 -17.25 39.803 -18.9953 41.3533 -20.7143L40.982 -21.0492C41.8702 -22.034 42.7682 -23.0101 43.676 -23.9774L44.0406 -23.6353C44.8323 -24.479 45.6314 -25.3158 46.4378 -26.1457C47.2225 -26.9535 48.0294 -27.7675 48.8578 -28.5873L48.506 -28.9427C49.456 -29.8828 50.4339 -30.8303 51.4389 -31.7845L51.7832 -31.4219C53.4257 -32.9813 55.141 -34.5588 56.9251 -36.151L56.5922 -36.524C57.5742 -37.4003 58.5769 -38.281 59.5996 -39.1654L59.9267 -38.7872C61.6654 -40.2907 63.4622 -41.8053 65.3139 -43.3282L64.9963 -43.7143C66.013 -44.5504 67.0461 -45.3889 68.095 -46.2294L68.4077 -45.8392C70.2058 -47.28 72.051 -48.7266 73.9403 -50.1768L73.6359 -50.5734C74.6913 -51.3836 75.7604 -52.1948 76.8428 -53.0067L77.1429 -52.6067C78.9886 -53.9912 80.873 -55.3776 82.7937 -56.7641L82.501 -57.1695C83.5863 -57.953 84.6832 -58.7364 85.7912 -59.5195L86.0798 -59.1111C87.9663 -60.4444 89.885 -61.7766 91.834 -63.1058L91.5522 -63.5189C92.6615 -64.2755 93.7805 -65.0311 94.9089 -65.7854L95.1868 -65.3698C97.11 -66.6555 99.0604 -67.9375 101.036 -69.2142L100.765 -69.6341C101.893 -70.3632 103.029 -71.0905 104.174 -71.8158L104.441 -71.3934C106.4 -72.6345 108.381 -73.8696 110.384 -75.0972L110.122 -75.5235C111.266 -76.2247 112.417 -76.9234 113.575 -77.6194L113.832 -77.1909C115.825 -78.3889 117.837 -79.5787 119.866 -80.759L119.615 -81.1912C120.774 -81.8654 121.939 -82.5364 123.11 -83.204L123.358 -82.7696C125.381 -83.9237 127.422 -85.0677 129.476 -86.2L129.235 -86.6379C130.409 -87.285 131.589 -87.9284 132.772 -88.5677L133.01 -88.1278C135.064 -89.2369 137.131 -90.3337 139.209 -91.4169L138.978 -91.8604C140.167 -92.48 141.361 -93.0952 142.557 -93.7057L142.784 -93.2603C144.867 -94.3226 146.96 -95.3708 149.062 -96.4033L148.842 -96.8521C150.045 -97.4431 151.252 -98.029 152.461 -98.6095L152.677 -98.1588C154.788 -99.1722 156.907 -100.169 159.033 -101.149L158.824 -101.603C160.041 -102.164 161.261 -102.719 162.482 -103.268L162.687 -102.812C164.826 -103.773 166.971 -104.716 169.12 -105.639L168.923 -106.098C170.154 -106.627 171.387 -107.149 172.621 -107.665L172.813 -107.203C174.981 -108.109 177.152 -108.993 179.324 -109.855L179.14 -110.32C180.385 -110.814 181.631 -111.301 182.877 -111.78L183.056 -111.313C185.252 -112.158 187.449 -112.979 189.644 -113.775L189.474 -114.245C190.733 -114.701 191.992 -115.149 193.251 -115.589L193.416 -115.117C195.64 -115.894 197.862 -116.644 200.08 -117.367L199.926 -117.842C201.2 -118.257 202.473 -118.663 203.745 -119.059L203.894 -118.582C206.145 -119.283 208.392 -119.955 210.632 -120.595L210.494 -121.076C211.785 -121.444 213.073 -121.803 214.359 -122.15L214.49 -121.668C216.767 -122.283 219.036 -122.865 221.295 -123.412L221.178 -123.898C222.486 -124.214 223.791 -124.519 225.092 -124.811L225.202 -124.323C227.502 -124.84 229.79 -125.319 232.065 -125.758L231.97 -126.249C233.297 -126.505 234.62 -126.748 235.937 -126.976L236.022 -126.484C238.341 -126.886 240.643 -127.245 242.927 -127.559L242.859 -128.055C244.206 -128.24 245.546 -128.409 246.88 -128.563L246.937 -128.066C249.28 -128.336 251.601 -128.555 253.899 -128.724L253.862 -129.222C255.215 -129.321 256.559 -129.402 257.895 -129.465L257.919 -128.966C260.281 -129.077 262.615 -129.13 264.919 -129.124L264.921 -129.624C266.268 -129.62 267.606 -129.596 268.933 -129.551L268.916 -129.051C271.284 -128.971 273.617 -128.824 275.912 -128.607L275.959 -129.105C277.294 -128.979 278.616 -128.829 279.925 -128.656L279.859 -128.16C282.206 -127.85 284.508 -127.461 286.763 -126.993L286.865 -127.483C288.191 -127.207 289.502 -126.904 290.795 -126.572L290.671 -126.088C292.951 -125.504 295.178 -124.831 297.347 -124.067L297.514 -124.538C298.785 -124.09 300.037 -123.611 301.269 -123.1L301.077 -122.638C303.241 -121.74 305.342 -120.742 307.375 -119.642L307.613 -120.081C308.791 -119.443 309.947 -118.771 311.08 -118.063L310.815 -117.639C312.787 -116.408 314.687 -115.069 316.512 -113.619L316.823 -114.011C317.866 -113.182 318.884 -112.317 319.878 -111.415L319.542 -111.045C320.403 -110.263 321.245 -109.454 322.067 -108.616C322.874 -107.79 323.653 -106.942 324.404 -106.073L324.783 -106.4Z" stroke="#C74343" stroke-dasharray="6.96 3.98"/>
<g opacity="0.8">
<path opacity="0.81" d="M247.198 116.054L247.198 116.053C246.697 115.031 246.208 114.005 245.731 112.975L245.277 113.185C244.73 112.003 244.198 110.815 243.683 109.622L244.142 109.423C243.24 107.336 242.386 105.232 241.581 103.113L241.113 103.29C240.65 102.072 240.203 100.849 239.772 99.6212L240.244 99.4556C239.491 97.3121 238.786 95.1542 238.13 92.9834L237.651 93.1281C237.274 91.8809 236.913 90.6295 236.568 89.3741L237.05 89.2414C236.447 87.0524 235.893 84.851 235.386 82.6384L234.899 82.7501C234.608 81.4806 234.333 80.2075 234.074 78.9311L234.564 78.8315C234.112 76.6077 233.707 74.3736 233.35 72.1303L232.856 72.209C232.651 70.9239 232.462 69.6358 232.288 68.3449L232.783 68.2781C232.48 66.0303 232.224 63.774 232.014 61.5106L231.516 61.5568C231.396 60.2611 231.291 58.963 231.201 57.6628L231.7 57.6283C231.543 55.3667 231.432 53.0988 231.367 50.8258L230.867 50.8402C230.83 49.5389 230.807 48.236 230.799 46.9316L231.299 46.9286C231.286 44.6618 231.317 42.3907 231.393 40.1164L230.893 40.0998C230.937 38.801 230.994 37.5012 231.066 36.2006L231.566 36.2283C231.691 33.9655 231.86 31.7002 232.073 29.4338L231.575 29.3872C231.696 28.092 231.832 26.7965 231.982 25.5008L232.478 25.5582C232.738 23.3079 233.041 21.0572 233.385 18.8071L232.891 18.7314C233.088 17.4448 233.299 16.1585 233.523 14.8726L234.016 14.9586C234.406 12.7266 234.837 10.4958 235.309 8.26754L234.82 8.16386C235.089 6.89342 235.372 5.62379 235.668 4.3552L236.155 4.46876C236.669 2.26217 237.224 0.0586618 237.819 -2.14064L237.336 -2.27119C237.676 -3.52626 238.028 -4.77994 238.394 -6.03205L238.874 -5.892C239.508 -8.06614 240.181 -10.2355 240.894 -12.3991L240.419 -12.5554C240.826 -13.7924 241.246 -15.0276 241.678 -16.2606L242.15 -16.0951C242.899 -18.2317 243.686 -20.3619 244.511 -22.4848L244.045 -22.6658C244.516 -23.877 244.998 -25.0857 245.493 -26.2918L245.956 -26.102C246.816 -28.1987 247.713 -30.2875 248.647 -32.3674L248.191 -32.5722C248.723 -33.7569 249.266 -34.9388 249.822 -36.1175L250.274 -35.9044C251.24 -37.9536 252.241 -39.9935 253.278 -42.0231L252.832 -42.2505C253.424 -43.4093 254.028 -44.5646 254.642 -45.7165L255.083 -45.481C256.15 -47.4785 257.25 -49.4653 258.386 -51.4404L257.952 -51.6896C258.601 -52.8182 259.26 -53.943 259.931 -55.0639L260.36 -54.8071C261.523 -56.7505 262.72 -58.682 263.95 -60.6005L263.529 -60.8703C264.23 -61.9637 264.942 -63.0528 265.664 -64.1376L266.081 -63.8605C267.337 -65.7471 268.626 -67.6205 269.947 -69.4797L269.54 -69.7694C270.292 -70.8275 271.054 -71.8811 271.827 -72.9299L272.23 -72.6333C273.574 -74.4573 274.949 -76.2668 276.356 -78.0611L275.962 -78.3696C276.764 -79.393 277.577 -80.4113 278.399 -81.4246L278.788 -81.1095C280.215 -82.8676 281.672 -84.6102 283.16 -86.3364L282.781 -86.6629C283.632 -87.6495 284.492 -88.6309 285.362 -89.6067L285.735 -89.274C287.241 -90.9632 288.776 -92.636 290.341 -94.2914L289.978 -94.6348C290.871 -95.5802 291.774 -96.52 292.687 -97.454L293.044 -97.1045C294.628 -98.725 296.239 -100.328 297.88 -101.913L297.532 -102.272C298.466 -103.174 299.408 -104.07 300.36 -104.96L300.702 -104.595C302.358 -106.143 304.041 -107.673 305.752 -109.184L305.421 -109.559C306.394 -110.417 307.375 -111.27 308.365 -112.116L308.689 -111.735C310.412 -113.208 312.161 -114.66 313.937 -116.093L313.623 -116.482C314.634 -117.298 315.653 -118.107 316.681 -118.909L316.989 -118.515C317.885 -119.216 318.789 -119.911 319.699 -120.601C320.635 -121.307 321.566 -122 322.493 -122.68L322.197 -123.083C323.26 -123.863 324.316 -124.626 325.367 -125.372L325.656 -124.965C327.562 -126.319 329.448 -127.619 331.314 -128.865L331.036 -129.281C332.125 -130.007 333.207 -130.716 334.282 -131.406L334.552 -130.986C336.521 -132.25 338.469 -133.454 340.395 -134.599L340.139 -135.029C341.285 -135.71 342.424 -136.37 343.556 -137.01L343.802 -136.575C345.831 -137.722 347.837 -138.803 349.82 -139.818L349.592 -140.263C350.772 -140.868 351.945 -141.449 353.109 -142.008L353.326 -141.558C355.432 -142.568 357.512 -143.505 359.567 -144.368L359.373 -144.829C360.596 -145.343 361.81 -145.832 363.016 -146.295L363.195 -145.828C365.374 -146.665 367.524 -147.419 369.646 -148.093L369.495 -148.569C370.753 -148.969 372.001 -149.34 373.241 -149.683L373.374 -149.201C375.616 -149.823 377.828 -150.354 380.011 -150.797L379.912 -151.287C381.217 -151.552 382.512 -151.785 383.797 -151.988L383.875 -151.494C386.163 -151.855 388.419 -152.119 390.645 -152.288L390.607 -152.787C391.927 -152.887 393.237 -152.955 394.536 -152.99L394.55 -152.49C396.852 -152.553 399.123 -152.514 401.365 -152.377L401.395 -152.876C402.709 -152.796 404.014 -152.682 405.308 -152.536L405.252 -152.039C407.525 -151.783 409.769 -151.425 411.985 -150.97L412.086 -151.46C413.37 -151.197 414.644 -150.901 415.91 -150.574L415.785 -150.09C417.986 -149.521 420.161 -148.857 422.312 -148.101L422.477 -148.573C423.709 -148.14 424.932 -147.677 426.149 -147.186L425.961 -146.722C428.059 -145.874 430.134 -144.94 432.191 -143.922L432.413 -144.371C433.579 -143.793 434.74 -143.19 435.894 -142.56L435.655 -142.121C437.636 -141.041 439.599 -139.885 441.548 -138.656L441.814 -139.079C442.915 -138.385 444.01 -137.669 445.1 -136.93L444.82 -136.516C446.685 -135.252 448.538 -133.922 450.379 -132.53L450.68 -132.929C451.719 -132.144 452.753 -131.339 453.785 -130.515L453.473 -130.124C455.233 -128.718 456.985 -127.256 458.728 -125.741L459.056 -126.118C460.041 -125.262 461.023 -124.389 462.004 -123.5L461.668 -123.13C463.338 -121.614 465.002 -120.052 466.661 -118.445L467.009 -118.804C467.941 -117.9 468.872 -116.983 469.801 -116.053L469.447 -115.699C471.044 -114.1 472.637 -112.46 474.227 -110.782L474.59 -111.126C475.484 -110.183 476.378 -109.227 477.271 -108.26L476.903 -107.921C478.439 -106.259 479.972 -104.562 481.504 -102.834L481.878 -103.166C482.745 -102.189 483.612 -101.201 484.478 -100.204L484.101 -99.8765C485.587 -98.1664 487.073 -96.4278 488.56 -94.6626L488.943 -94.9847C489.779 -93.9917 490.616 -92.9902 491.453 -91.9809L491.069 -91.6616C491.799 -90.7811 492.53 -89.8946 493.261 -89.0021C493.965 -88.1434 494.669 -87.2556 495.371 -86.3396L495.768 -86.644C496.574 -85.5931 497.379 -84.5057 498.182 -83.383L497.776 -83.0921C499.076 -81.2746 500.372 -79.3636 501.662 -77.3646L502.082 -77.6356C502.786 -76.545 503.487 -75.4285 504.186 -74.2869L503.759 -74.0258C504.944 -72.0903 506.123 -70.0822 507.292 -68.0057L507.727 -68.251C508.368 -67.1141 509.005 -65.9568 509.64 -64.7799L509.199 -64.5427C510.279 -62.5394 511.351 -60.4789 512.412 -58.3648L512.858 -58.5891C513.451 -57.4089 514.04 -56.2122 514.625 -54.9995L514.175 -54.7821C515.166 -52.7296 516.147 -50.631 517.117 -48.4893L517.572 -48.6955C518.12 -47.4851 518.665 -46.2609 519.205 -45.0236L518.747 -44.8234C519.661 -42.7319 520.564 -40.6026 521.454 -38.4382L521.917 -38.6284C522.424 -37.3961 522.927 -36.1524 523.426 -34.8978L522.961 -34.713C523.806 -32.5885 524.639 -30.4326 525.459 -28.2478L525.928 -28.4235C526.396 -27.1749 526.861 -25.9168 527.321 -24.6497L526.851 -24.4791C527.633 -22.3254 528.402 -20.1456 529.157 -17.9418L529.63 -18.104C530.063 -16.8427 530.491 -15.5736 530.914 -14.2971L530.439 -14.1398C531.162 -11.9597 531.871 -9.75796 532.566 -7.53645L533.043 -7.68566C533.44 -6.41419 533.833 -5.13629 534.221 -3.85233L533.742 -3.70775C534.408 -1.50364 535.06 0.718343 535.696 2.95638L536.177 2.81972C536.54 4.09986 536.899 5.38521 537.253 6.67545L536.771 6.80761C537.381 9.03352 537.975 11.274 538.554 13.5272L539.038 13.4029C539.368 14.6907 539.694 15.9828 540.014 17.2786L539.528 17.3984C540.083 19.644 540.621 21.9011 541.141 24.1678L541.629 24.0559C541.926 25.351 542.218 26.6492 542.505 27.9503L542.016 28.0578C542.514 30.3209 542.995 32.5925 543.457 34.8711L543.947 34.7716C544.211 36.0736 544.47 37.3779 544.722 38.6841L544.231 38.7789C544.671 41.0573 545.093 43.3416 545.495 45.6299L545.988 45.5433C546.218 46.8521 546.442 48.1624 546.659 49.4736L546.166 49.5554C546.546 51.8469 546.907 54.1416 547.247 56.4377L547.741 56.3644C547.936 57.68 548.124 58.996 548.306 60.3122L547.811 60.3804C548.128 62.683 548.424 64.9859 548.699 67.2875L549.195 67.2283C549.353 68.5503 549.504 69.8721 549.647 71.193L549.15 71.247C549.401 73.5583 549.63 75.8673 549.835 78.1723L550.333 78.1279C550.452 79.4562 550.563 80.7832 550.666 82.1086L550.167 82.1473C550.347 84.4653 550.503 86.7782 550.635 89.0841L551.134 89.0556C551.21 90.3896 551.278 91.7212 551.337 93.0502L550.838 93.0725C550.942 95.3951 551.02 97.7095 551.071 100.014L551.571 100.003C551.601 101.341 551.622 102.676 551.634 104.008L551.134 104.012C551.155 106.337 551.148 108.65 551.112 110.95L551.612 110.958C551.591 112.299 551.561 113.636 551.521 114.968L551.021 114.953C550.95 117.278 550.85 119.588 550.718 121.881L551.217 121.909C551.14 123.25 551.053 124.585 550.954 125.914L550.456 125.878C550.284 128.198 550.079 130.499 549.84 132.779L550.338 132.831C550.198 134.169 550.046 135.5 549.882 136.823L549.386 136.762C549.101 139.073 548.779 141.36 548.42 143.622L548.913 143.7C548.702 145.029 548.479 146.349 548.242 147.66L547.75 147.571C547.335 149.866 546.88 152.132 546.385 154.366L546.873 154.474C546.581 155.787 546.276 157.089 545.956 158.379L545.471 158.259C544.909 160.525 544.303 162.757 543.651 164.95L544.13 165.093C543.748 166.378 543.35 167.651 542.936 168.911L542.461 168.755C541.731 170.976 540.952 173.155 540.122 175.289L540.588 175.47C540.103 176.715 539.601 177.945 539.082 179.159L538.622 178.962C537.702 181.113 536.726 183.213 535.694 185.259L536.14 185.485C535.541 186.672 534.923 187.841 534.286 188.992L533.848 188.75C532.716 190.794 531.522 192.78 530.265 194.702L530.684 194.975C529.956 196.089 529.207 197.182 528.436 198.253L528.03 197.961C526.673 199.848 525.248 201.667 523.756 203.415L524.136 203.739C523.271 204.753 522.383 205.742 521.471 206.707L521.108 206.363C519.52 208.043 517.863 209.647 516.133 211.172L516.463 211.547C515.468 212.424 514.448 213.275 513.405 214.099L513.095 213.707C512.188 214.423 511.264 215.118 510.32 215.793C509.368 216.474 508.404 217.134 507.429 217.774L507.703 218.192C506.582 218.928 505.446 219.637 504.297 220.32L504.041 219.89C502.035 221.081 499.987 222.191 497.898 223.223L498.119 223.671C496.919 224.264 495.705 224.831 494.478 225.373L494.276 224.915C492.148 225.856 489.981 226.718 487.778 227.506L487.947 227.977C486.69 228.426 485.422 228.852 484.143 229.253L483.993 228.776C481.776 229.471 479.527 230.094 477.247 230.646L477.365 231.132C476.068 231.447 474.762 231.738 473.447 232.007L473.347 231.517C471.075 231.983 468.776 232.381 466.451 232.714L466.522 233.209C465.198 233.399 463.866 233.568 462.526 233.717L462.471 233.22C460.169 233.475 457.845 233.669 455.5 233.803L455.529 234.302C454.19 234.379 452.845 234.437 451.494 234.475L451.479 233.975C449.165 234.042 446.833 234.052 444.485 234.008L444.476 234.508C443.141 234.483 441.8 234.441 440.455 234.381L440.477 233.882C438.156 233.779 435.822 233.625 433.476 233.421L433.432 233.92C432.106 233.804 430.776 233.673 429.443 233.527L429.498 233.03C427.184 232.776 424.861 232.475 422.529 232.128L422.456 232.623C421.14 232.427 419.821 232.217 418.501 231.992L418.585 231.5C416.289 231.11 413.988 230.677 411.682 230.202L411.581 230.692C410.275 230.423 408.968 230.141 407.659 229.846L407.769 229.359C405.497 228.846 403.222 228.295 400.946 227.705L400.82 228.189C399.527 227.854 398.233 227.507 396.94 227.147L397.074 226.666C394.828 226.042 392.583 225.382 390.339 224.687L390.191 225.165C388.914 224.769 387.636 224.362 386.36 223.944L386.515 223.469C384.299 222.743 382.086 221.983 379.877 221.192L379.709 221.663C378.448 221.211 377.189 220.749 375.932 220.276L376.108 219.808C373.923 218.987 371.744 218.136 369.571 217.254L369.383 217.717C368.142 217.214 366.903 216.7 365.666 216.177L365.861 215.717C363.709 214.807 361.566 213.868 359.432 212.902L359.226 213.358C358.005 212.805 356.787 212.243 355.572 211.673L355.785 211.22C353.668 210.226 351.562 209.205 349.468 208.159L349.245 208.606C348.046 208.007 346.851 207.4 345.66 206.784L345.89 206.34C343.81 205.265 341.743 204.165 339.691 203.041L339.451 203.48C338.276 202.836 337.105 202.185 335.94 201.526L336.186 201.091C334.145 199.937 332.12 198.76 330.113 197.562L329.856 197.991C328.706 197.304 327.562 196.611 326.423 195.91L326.686 195.484C324.686 194.253 322.705 193.001 320.745 191.729L320.473 192.148C319.349 191.419 318.232 190.683 317.121 189.94L317.399 189.524C315.446 188.218 313.514 186.892 311.606 185.547L311.318 185.956C310.221 185.183 309.132 184.404 308.051 183.619L308.345 183.215C306.443 181.833 304.566 180.434 302.715 179.018L302.412 179.415C301.344 178.597 300.285 177.774 299.236 176.946L299.546 176.554C297.7 175.097 295.884 173.624 294.099 172.137L293.779 172.521C292.743 171.657 291.717 170.789 290.702 169.915L291.028 169.536C289.248 168.004 287.501 166.458 285.789 164.898L285.452 165.268C284.451 164.355 283.462 163.438 282.485 162.517L282.828 162.153C281.115 160.538 279.441 158.911 277.807 157.271L277.453 157.624C276.498 156.666 275.557 155.705 274.63 154.739L274.991 154.393C273.356 152.69 271.766 150.976 270.222 149.253L269.849 149.587C268.95 148.583 268.067 147.576 267.199 146.566L267.578 146.24C266.036 144.444 264.545 142.639 263.108 140.827L262.716 141.138C261.883 140.088 261.069 139.036 260.273 137.981L260.672 137.68C259.241 135.785 257.87 133.883 256.563 131.977L256.151 132.26C255.386 131.146 254.643 130.03 253.922 128.913L254.342 128.642C253.06 126.655 251.848 124.665 250.709 122.673L250.275 122.922C249.599 121.74 248.949 120.557 248.325 119.375L248.767 119.141C248.224 118.112 247.701 117.083 247.198 116.054Z" stroke="#676766" stroke-dasharray="6.96 3.98"/>
</g>
<path opacity="0.73" d="M187.743 193.079L187.743 193.078C187.693 191.907 187.665 190.744 187.659 189.591L187.159 189.594C187.152 188.267 187.174 186.953 187.224 185.651L187.724 185.67C187.813 183.355 187.992 181.078 188.257 178.84L187.761 178.781C187.916 177.469 188.101 176.169 188.315 174.883L188.809 174.965C189.188 172.688 189.658 170.452 190.216 168.257L189.731 168.134C190.055 166.857 190.409 165.595 190.792 164.346L191.27 164.492C191.943 162.295 192.706 160.141 193.554 158.028L193.09 157.841C193.58 156.622 194.099 155.416 194.645 154.223L195.1 154.432C196.052 152.353 197.09 150.316 198.209 148.322L197.773 148.077C198.416 146.931 199.085 145.798 199.781 144.68L200.206 144.944C201.408 143.009 202.689 141.116 204.045 139.264L203.642 138.968C204.416 137.91 205.214 136.866 206.036 135.834L206.427 136.146C207.846 134.366 209.335 132.626 210.891 130.925L210.522 130.588C211.404 129.624 212.307 128.672 213.231 127.733L213.587 128.084C215.185 126.461 216.845 124.875 218.565 123.327L218.23 122.955C219.198 122.084 220.184 121.224 221.188 120.377L221.511 120.759C223.255 119.287 225.053 117.852 226.902 116.452L226.601 116.053C227.637 115.269 228.688 114.496 229.756 113.734L230.046 114.141C231.905 112.815 233.81 111.523 235.76 110.264L235.489 109.844C236.581 109.139 237.687 108.445 238.806 107.761L239.067 108.188C241.017 106.996 243.007 105.837 245.036 104.71L244.793 104.272C245.929 103.641 247.078 103.019 248.238 102.407L248.471 102.849C250.494 101.782 252.551 100.745 254.641 99.7388L254.424 99.2883C255.597 98.7234 256.78 98.168 257.973 97.622L258.181 98.0767C260.26 97.1249 262.369 96.202 264.505 95.3078L264.312 94.8466C265.516 94.3423 266.729 93.8472 267.95 93.3611L268.135 93.8257C270.259 92.9803 272.408 92.1625 274.579 91.3721L274.408 90.9022C275.639 90.4541 276.877 90.0148 278.122 89.5843L278.286 90.0568C280.446 89.3099 282.626 88.5894 284.825 87.8953L284.674 87.4185C285.927 87.0229 287.186 86.6359 288.451 86.2574L288.594 86.7364C290.784 86.0811 292.99 85.4513 295.211 84.847L295.079 84.3645C296.35 84.0188 297.625 83.6813 298.905 83.3521L299.03 83.8364C301.244 83.2669 303.472 82.7223 305.71 82.2024L305.597 81.7153C306.88 81.4175 308.166 81.1278 309.455 80.8462L309.562 81.3347C311.8 80.846 314.047 80.3816 316.303 79.9415L316.207 79.4508C317.498 79.1989 318.792 78.9549 320.088 78.7189L320.177 79.2108C322.435 78.7996 324.699 78.4124 326.969 78.0491L326.89 77.5554C328.189 77.3475 329.489 77.1475 330.79 76.9553L330.863 77.4499C333.136 77.1142 335.413 76.8022 337.692 76.514L337.63 76.018C338.935 75.8528 340.241 75.6955 341.548 75.5459L341.604 76.0427C343.889 75.7811 346.174 75.5432 348.458 75.3289L348.411 74.8311C349.723 74.708 351.035 74.5927 352.346 74.4851L352.387 74.9835C354.678 74.7954 356.967 74.6311 359.252 74.4904L359.221 73.9914C360.54 73.9102 361.856 73.8368 363.172 73.7713L363.196 74.2707C365.493 74.1563 367.784 74.0657 370.067 73.9989L370.052 73.4992C371.375 73.4605 372.695 73.4297 374.013 73.4069L374.021 73.9069C376.324 73.867 378.618 73.8514 380.901 73.8599L380.903 73.3599C382.225 73.3649 383.543 73.3779 384.857 73.399L384.849 73.8989C387.158 73.9359 389.453 73.9978 391.734 74.0845L391.753 73.5848C393.072 73.6349 394.386 73.6933 395.694 73.7598L395.668 74.2592C397.98 74.3768 400.275 74.5202 402.551 74.6891L402.588 74.1905C403.902 74.288 405.209 74.3939 406.509 74.5084L406.465 75.0065C408.778 75.21 411.069 75.4404 413.336 75.6975L413.392 75.2007C414.699 75.3489 415.998 75.506 417.289 75.6719L417.225 76.1678C419.534 76.4645 421.815 76.7895 424.067 77.1426L424.144 76.6486C425.444 76.8525 426.734 77.0657 428.014 77.2882L427.929 77.7808C430.226 78.1802 432.489 78.6097 434.716 79.069L434.817 78.5793C436.11 78.8461 437.39 79.1229 438.658 79.4097L438.548 79.8974C440.822 80.4119 443.054 80.9587 445.241 81.5375L445.369 81.0542C446.654 81.3944 447.924 81.7456 449.177 82.1079L449.039 82.5882C451.272 83.2338 453.454 83.9143 455.579 84.6296L455.739 84.1557C457.014 84.5846 458.268 85.026 459.502 85.4799L459.33 85.9491C461.518 86.7539 463.639 87.5977 465.69 88.4801L465.887 88.0208C467.121 88.552 468.33 89.0972 469.512 89.6563L469.299 90.1083C470.328 90.5949 471.336 91.0921 472.324 91.5997C473.394 92.15 474.455 92.7015 475.507 93.2543L475.74 92.8117C476.944 93.4448 478.137 94.0796 479.317 94.7162L479.079 95.1563C481.197 96.2988 483.276 97.4471 485.315 98.6019L485.561 98.1669C486.755 98.8428 487.935 99.5209 489.102 100.201L488.85 100.633C490.925 101.844 492.958 103.062 494.948 104.288L495.21 103.862C496.374 104.579 497.523 105.299 498.658 106.022L498.39 106.443C500.418 107.735 502.399 109.036 504.335 110.347L504.615 109.933C505.75 110.702 506.87 111.474 507.973 112.251L507.686 112.66C509.652 114.042 511.567 115.436 513.432 116.843L513.733 116.444C514.821 117.264 515.892 118.089 516.946 118.919L516.636 119.312C518.524 120.797 520.356 122.297 522.134 123.812L522.459 123.431C523.505 124.323 524.532 125.219 525.54 126.122L525.207 126.494C526.994 128.093 528.721 129.709 530.389 131.344L530.739 130.987C531.717 131.945 532.674 132.909 533.611 133.88L533.251 134.227C534.914 135.95 536.513 137.693 538.047 139.459L538.425 139.131C539.32 140.161 540.193 141.198 541.046 142.243L540.658 142.559C542.167 144.41 543.608 146.286 544.981 148.187L545.387 147.894C546.184 148.998 546.959 150.111 547.711 151.233L547.295 151.511C548.62 153.487 549.874 155.492 551.057 157.526L551.49 157.274C552.173 158.45 552.834 159.635 553.471 160.831L553.03 161.066C554.143 163.155 555.185 165.276 556.155 167.431L556.611 167.225C557.168 168.463 557.703 169.712 558.213 170.972L557.75 171.16C558.635 173.344 559.449 175.561 560.192 177.814L560.667 177.658C561.091 178.943 561.493 180.241 561.871 181.55L561.391 181.689C562.043 183.945 562.627 186.235 563.143 188.563L563.631 188.455C563.923 189.772 564.193 191.101 564.442 192.441L563.95 192.532C564.377 194.835 564.74 197.173 565.038 199.549L565.535 199.486C565.702 200.821 565.85 202.167 565.978 203.525L565.48 203.571C565.699 205.897 565.858 208.257 565.958 210.654L566.458 210.633C566.514 211.979 566.552 213.336 566.572 214.705L566.072 214.712C566.105 217.044 566.084 219.409 566.009 221.81L566.509 221.826C566.466 223.179 566.407 224.543 566.331 225.918L565.832 225.89C565.703 228.219 565.525 230.581 565.298 232.976L565.796 233.023C565.669 234.355 565.528 235.697 565.372 237.049L564.875 236.992C564.608 239.309 564.296 241.657 563.939 244.036L564.434 244.11C564.234 245.448 564.02 246.795 563.792 248.152L563.298 248.069C562.911 250.373 562.484 252.707 562.017 255.071L562.507 255.168C562.248 256.48 561.976 257.801 561.692 259.131L561.203 259.027C560.955 260.188 560.698 261.356 560.431 262.531C560.167 263.692 559.893 264.848 559.609 265.999L560.094 266.119C559.769 267.439 559.43 268.753 559.079 270.06L558.596 269.93C557.979 272.229 557.322 274.508 556.627 276.765L557.104 276.912C556.703 278.215 556.289 279.511 555.863 280.799L555.388 280.642C554.64 282.901 553.854 285.137 553.031 287.349L553.5 287.523C553.025 288.799 552.538 290.067 552.039 291.327L551.574 291.143C550.697 293.356 549.784 295.544 548.834 297.705L549.291 297.906C548.743 299.153 548.183 300.392 547.612 301.621L547.158 301.41C546.155 303.568 545.116 305.698 544.041 307.799L544.486 308.027C543.866 309.24 543.235 310.444 542.592 311.637L542.152 311.4C541.023 313.496 539.86 315.561 538.663 317.596L539.093 317.849C538.403 319.023 537.701 320.186 536.989 321.339L536.563 321.076C535.312 323.101 534.027 325.092 532.71 327.05L533.125 327.329C532.364 328.46 531.593 329.579 530.812 330.687L530.403 330.399C529.031 332.344 527.626 334.253 526.191 336.126L526.588 336.43C525.759 337.512 524.92 338.581 524.072 339.638L523.682 339.325C522.191 341.18 520.67 342.998 519.119 344.775L519.496 345.104C518.601 346.13 517.696 347.143 516.782 348.143L516.413 347.805C514.806 349.562 513.171 351.277 511.508 352.949L511.862 353.301C510.9 354.268 509.929 355.221 508.949 356.159L508.603 355.797C506.883 357.444 505.136 359.044 503.364 360.598L503.693 360.974C502.671 361.871 501.639 362.752 500.6 363.618L500.28 363.233C498.45 364.757 496.595 366.231 494.716 367.655L495.018 368.053C493.93 368.878 492.835 369.685 491.732 370.475L491.441 370.069C489.506 371.455 487.548 372.788 485.568 374.066L485.84 374.486C484.695 375.226 483.543 375.947 482.384 376.649L482.125 376.222C480.09 377.456 478.034 378.632 475.96 379.749L476.197 380.19C474.999 380.835 473.795 381.46 472.585 382.066L472.361 381.619C470.234 382.684 468.088 383.687 465.927 384.626L466.126 385.084C464.875 385.628 463.619 386.15 462.358 386.651L462.173 386.186C459.965 387.063 457.741 387.873 455.504 388.615L455.662 389.09C454.369 389.519 453.072 389.925 451.77 390.309L451.629 389.829C449.352 390.5 447.063 391.1 444.764 391.627L444.875 392.114C443.55 392.418 442.22 392.698 440.888 392.954L440.794 392.463C438.466 392.91 436.129 393.281 433.786 393.576L433.849 394.072C432.5 394.242 431.149 394.387 429.796 394.505L429.752 394.007C427.395 394.214 425.033 394.342 422.669 394.391L422.679 394.89C421.321 394.918 419.962 394.919 418.603 394.894L418.613 394.394C416.252 394.35 413.891 394.225 411.53 394.017L411.486 394.515C410.135 394.396 408.785 394.25 407.436 394.077L407.499 393.581C406.327 393.43 405.155 393.259 403.984 393.067C402.892 392.888 401.781 392.692 400.65 392.481L400.558 392.972C399.276 392.732 397.97 392.472 396.641 392.19L396.744 391.701C394.562 391.239 392.317 390.722 390.016 390.149L389.895 390.634C388.648 390.323 387.384 389.997 386.104 389.654L386.233 389.171C384.063 388.59 381.848 387.962 379.592 387.288L379.449 387.767C378.188 387.39 376.914 386.999 375.628 386.593L375.779 386.117C373.632 385.44 371.453 384.723 369.244 383.967L369.082 384.44C367.847 384.017 366.603 383.582 365.35 383.134L365.519 382.664C363.376 381.898 361.208 381.097 359.019 380.26L358.84 380.727C357.629 380.264 356.41 379.789 355.185 379.304L355.369 378.839C353.252 378.001 351.116 377.129 348.964 376.226L348.77 376.687C347.565 376.18 346.354 375.664 345.139 375.137L345.338 374.678C343.247 373.772 341.142 372.835 339.028 371.869L338.82 372.324C337.624 371.778 336.426 371.222 335.224 370.657L335.437 370.205C333.373 369.234 331.3 368.236 329.222 367.21L329.001 367.658C327.819 367.074 326.634 366.482 325.449 365.881L325.675 365.435C323.639 364.402 321.6 363.344 319.557 362.259L319.323 362.701C318.156 362.081 316.989 361.453 315.822 360.817L316.061 360.378C314.056 359.285 312.049 358.167 310.043 357.024L309.796 357.458C308.65 356.805 307.504 356.144 306.359 355.475L306.611 355.044C304.635 353.889 302.661 352.71 300.69 351.507L300.43 351.934C299.305 351.248 298.182 350.553 297.06 349.851L297.325 349.427C295.381 348.211 293.443 346.971 291.511 345.709L291.237 346.127C290.135 345.407 289.034 344.679 287.937 343.943L288.215 343.528C286.308 342.249 284.408 340.949 282.519 339.626L282.232 340.036C281.153 339.28 280.077 338.517 279.005 337.747L279.297 337.341C277.43 336.001 275.574 334.639 273.731 333.255L273.431 333.655C272.377 332.863 271.328 332.065 270.282 331.26L270.588 330.864C268.766 329.46 266.958 328.035 265.166 326.589L264.852 326.978C263.826 326.15 262.805 325.316 261.79 324.474L262.109 324.089C260.338 322.621 258.582 321.132 256.846 319.621L256.518 319.999C255.523 319.134 254.534 318.261 253.551 317.383L253.884 317.01C252.169 315.476 250.472 313.921 248.797 312.345L248.454 312.709C247.493 311.805 246.539 310.895 245.593 309.977L245.94 309.618C244.287 308.016 242.656 306.394 241.049 304.751L240.691 305.101C239.768 304.157 238.853 303.207 237.947 302.25L238.309 301.906C236.726 300.236 235.167 298.544 233.636 296.833L233.263 297.166C232.383 296.182 231.511 295.192 230.649 294.194L231.027 293.867C229.521 292.126 228.044 290.365 226.596 288.583L226.208 288.898C225.375 287.873 224.552 286.841 223.739 285.803L224.133 285.495C222.715 283.683 221.327 281.85 219.973 279.998L219.57 280.293C218.79 279.226 218.021 278.153 217.264 277.073L217.673 276.786C216.352 274.902 215.065 272.998 213.815 271.074L213.395 271.346C212.676 270.239 211.968 269.125 211.273 268.005L211.698 267.741C210.485 265.787 209.31 263.812 208.174 261.817L207.739 262.065C207.087 260.918 206.447 259.764 205.82 258.604L206.26 258.367C205.167 256.343 204.116 254.3 203.107 252.238L202.658 252.457C202.078 251.273 201.513 250.081 200.962 248.884L201.417 248.675C200.457 246.587 199.541 244.48 198.671 242.353L198.208 242.543C197.709 241.323 197.225 240.097 196.757 238.865L197.224 238.687C196.409 236.541 195.64 234.376 194.921 232.192L194.446 232.349C194.034 231.098 193.638 229.841 193.258 228.578L193.737 228.435C193.077 226.239 192.466 224.024 191.907 221.791L191.422 221.913C191.103 220.637 190.8 219.354 190.515 218.066L191.003 217.958C190.507 215.723 190.063 213.47 189.673 211.198L189.18 211.283C188.957 209.987 188.752 208.686 188.564 207.378L189.059 207.307C188.735 205.045 188.463 202.765 188.246 200.468L187.748 200.515C187.625 199.207 187.519 197.893 187.432 196.574L187.931 196.54C187.854 195.391 187.792 194.237 187.743 193.079Z" stroke="#6F8467" stroke-dasharray="6.96 3.98"/>
</g>
</svg>
