<svg width="436" height="52" viewBox="0 0 436 52" fill="none" xmlns="http://www.w3.org/2000/svg">
<mask id="mask0" mask-type="alpha" maskUnits="userSpaceOnUse" x="0" y="0" width="437" height="52">
<rect opacity="0.9" width="436.25" height="52" fill="#F9F6F4"/>
</mask>
<g mask="url(#mask0)">
<path opacity="0.75" d="M391.977 -58.4192C392.723 -57.3525 393.375 -56.2147 393.94 -55.0124L393.487 -54.8C394.412 -52.8296 395.098 -50.6768 395.565 -48.3696L396.055 -48.4689C396.311 -47.2092 396.502 -45.9063 396.632 -44.565L396.134 -44.5168C396.345 -42.3437 396.394 -40.0648 396.298 -37.7007L396.798 -37.6804C396.745 -36.3944 396.65 -35.0846 396.515 -33.7543L396.018 -33.8048C395.794 -31.5995 395.458 -29.3357 395.024 -27.0286L395.515 -26.936C395.275 -25.6622 395.005 -24.3759 394.706 -23.0796L394.219 -23.1917C393.716 -21.0065 393.133 -18.7921 392.478 -16.5607L392.958 -16.4201C392.591 -15.169 392.202 -13.913 391.793 -12.6543L391.318 -12.8089C390.616 -10.6521 389.854 -8.48655 389.041 -6.32336L389.509 -6.14733C389.048 -4.92148 388.57 -3.69654 388.077 -2.47451L387.614 -2.66145C386.759 -0.541654 385.859 1.56961 384.922 3.66182L385.378 3.86621C384.841 5.06698 384.291 6.26141 383.73 7.44752L383.278 7.23384C382.293 9.31705 381.275 11.3746 380.233 13.3957L380.677 13.6249C380.072 14.7989 379.458 15.9605 378.837 17.1078L378.398 16.8699C377.29 18.9185 376.161 20.9211 375.019 22.8655L375.451 23.1186C374.777 24.2661 374.1 25.3934 373.42 26.4981L372.994 26.236C371.758 28.2441 370.515 30.177 369.276 32.0197L369.691 32.2987C368.941 33.4137 368.193 34.4959 367.448 35.5421L367.041 35.2523C365.644 37.2162 364.262 39.0516 362.911 40.737L363.301 41.0497C362.446 42.1165 361.604 43.1241 360.778 44.0669L360.402 43.7373C359.617 44.6329 358.848 45.4686 358.098 46.24C357.324 47.037 356.529 47.8008 355.714 48.5314L356.048 48.9036C355.093 49.76 354.112 50.5713 353.107 51.3376L352.804 50.94C351.035 52.2888 349.191 53.4966 347.286 54.5642L347.531 55.0004C346.416 55.6248 345.282 56.2017 344.128 56.7312L343.92 56.2769C341.912 57.1991 339.848 57.9762 337.742 58.6085L337.886 59.0874C336.667 59.4536 335.434 59.7718 334.19 60.042L334.084 59.5534C331.934 60.0203 329.751 60.3425 327.549 60.5205L327.589 61.0189C326.323 61.1213 325.05 61.1764 323.775 61.1845L323.771 60.6845C321.578 60.6983 319.374 60.5714 317.173 60.3043L317.113 60.8007C315.854 60.6479 314.596 60.4496 313.341 60.2059L313.437 59.7151C311.288 59.2976 309.149 58.7457 307.035 58.0597L306.881 58.5353C305.676 58.1444 304.478 57.7104 303.291 57.2333L303.478 56.7694C301.45 55.9546 299.453 55.0131 297.496 53.9454L297.257 54.3842C296.146 53.7779 295.049 53.1312 293.967 52.4442L294.235 52.0221C292.395 50.8537 290.6 49.5677 288.861 48.1645L288.547 48.5536C287.564 47.76 286.598 46.9293 285.652 46.0615L285.99 45.6931C285.182 44.9516 284.389 44.1829 283.611 43.3868L283.61 43.3862C282.831 42.5909 282.09 41.7824 281.387 40.9619L281.007 41.2872C280.17 40.3103 279.386 39.3162 278.654 38.3066L279.058 38.013C277.745 36.2019 276.599 34.341 275.614 32.4404L275.17 32.6706C274.581 31.5356 274.049 30.3865 273.572 29.2253L274.034 29.0351C273.194 26.9911 272.524 24.9092 272.017 22.801L271.531 22.918C271.234 21.6845 270.992 20.4423 270.803 19.1935L271.297 19.1186C270.97 16.955 270.803 14.7708 270.788 12.5783L270.288 12.5819C270.279 11.3192 270.319 10.054 270.408 8.78879L270.907 8.82369C271.059 6.65037 271.353 4.47576 271.781 2.31172L271.291 2.2147C271.535 0.97787 271.823 -0.255234 272.152 -1.48241L272.635 -1.35289C273.199 -3.45706 273.887 -5.54439 274.688 -7.60365L274.222 -7.785C274.68 -8.96022 275.174 -10.1261 275.703 -11.2807L276.158 -11.0723C277.068 -13.0571 278.083 -15.0086 279.195 -16.916L278.763 -17.1678C279.399 -18.2585 280.066 -19.3347 280.763 -20.3946L281.18 -20.1199C282.384 -21.9501 283.677 -23.7313 285.051 -25.4533L284.66 -25.7652C285.449 -26.7533 286.264 -27.722 287.104 -28.6694L287.478 -28.3377C288.207 -29.1595 288.955 -29.9652 289.721 -30.7534C290.504 -31.5593 291.348 -32.3831 292.249 -33.2207L291.909 -33.5869C292.867 -34.478 293.889 -35.3837 294.967 -36.2994L295.291 -35.9182C297.011 -37.378 298.878 -38.8642 300.869 -40.3574L300.57 -40.7575C301.64 -41.5599 302.746 -42.3641 303.884 -43.1671L304.172 -42.7586C306.061 -44.0914 308.039 -45.4212 310.089 -46.7341L309.82 -47.1552C310.956 -47.8829 312.115 -48.6054 313.293 -49.3203L313.553 -48.8928C315.558 -50.1097 317.62 -51.3047 319.725 -52.4662L319.483 -52.9039C320.672 -53.5602 321.875 -54.2058 323.089 -54.8387L323.32 -54.3953C325.423 -55.4914 327.559 -56.5492 329.715 -57.5578L329.503 -58.0107C330.74 -58.5892 331.984 -59.1516 333.232 -59.6959L333.432 -59.2376C335.624 -60.1935 337.83 -61.0931 340.035 -61.9255L339.859 -62.3933C341.143 -62.8779 342.428 -63.34 343.71 -63.7772L343.871 -63.3039C346.153 -64.082 348.427 -64.7809 350.677 -65.3885L350.547 -65.8712C351.88 -66.2312 353.206 -66.5593 354.521 -66.8531L354.63 -66.3651C357.005 -66.8957 359.343 -67.3132 361.626 -67.6032L361.563 -68.0992C362.942 -68.2744 364.303 -68.4034 365.64 -68.4831L365.67 -67.984C368.116 -68.1297 370.482 -68.1085 372.742 -67.9014L372.788 -68.3993C374.173 -68.2724 375.521 -68.0763 376.826 -67.8067L376.725 -67.317C379.099 -66.8264 381.324 -66.0897 383.367 -65.0813L383.588 -65.5297C384.817 -64.9234 385.983 -64.2199 387.08 -63.4134L386.784 -63.0106C387.717 -62.3247 388.599 -61.5629 389.425 -60.721C390.212 -59.9156 390.925 -59.0514 391.567 -58.1326L391.977 -58.4192Z" stroke="#C74343" stroke-dasharray="6.96 3.98"/>
<g opacity="0.5">
<path opacity="0.81" d="M362.73 20.558L362.73 20.5572C362.227 19.531 361.757 18.4927 361.322 17.4434L360.86 17.6352C360.354 16.4183 359.894 15.1868 359.477 13.9426L359.951 13.7839C359.227 11.6204 358.638 9.41783 358.181 7.18595L357.691 7.28623C357.428 5.99955 357.208 4.70332 357.031 3.39941L357.527 3.33229C357.222 1.0808 357.046 -1.19426 356.998 -3.48324L356.498 -3.47268C356.471 -4.78329 356.484 -6.09828 356.539 -7.41586L357.038 -7.39521C357.132 -9.65995 357.347 -11.9328 357.681 -14.2046L357.187 -14.2774C357.378 -15.5731 357.607 -16.8682 357.874 -18.1612L358.364 -18.06C358.822 -20.2784 359.393 -22.4907 360.075 -24.6883L359.597 -24.8364C359.985 -26.0858 360.407 -27.3304 360.865 -28.5685L361.334 -28.3951C362.12 -30.5195 363.01 -32.6251 364.001 -34.7039L363.549 -34.9191C364.113 -36.1006 364.709 -37.2735 365.337 -38.4363L365.777 -38.1986C366.853 -40.1911 368.025 -42.1539 369.29 -44.0793L368.872 -44.3539C369.59 -45.4468 370.338 -46.5277 371.115 -47.5953L371.519 -47.3011C372.853 -49.1322 374.273 -50.924 375.779 -52.6696L375.4 -52.9962C376.255 -53.9867 377.136 -54.9623 378.045 -55.922L378.408 -55.5782C379.965 -57.2226 381.602 -58.8197 383.317 -60.3631L382.983 -60.7348C383.955 -61.6099 384.952 -62.4678 385.974 -63.3074L386.291 -62.9211C387.17 -63.643 388.067 -64.3514 388.982 -65.0454C389.903 -65.74 390.812 -66.4001 391.708 -67.0265L391.422 -67.4363C392.519 -68.203 393.598 -68.9199 394.659 -69.5883L394.926 -69.1651C396.942 -70.4348 398.894 -71.5271 400.786 -72.4528L400.567 -72.902C401.766 -73.4888 402.943 -74.0098 404.098 -74.4674L404.283 -74.0025C406.492 -74.8777 408.618 -75.517 410.671 -75.94L410.57 -76.4297C411.876 -76.6987 413.155 -76.8819 414.407 -76.9835L414.448 -76.4852C416.742 -76.6713 418.947 -76.5795 421.08 -76.239L421.158 -76.7327C422.44 -76.5281 423.696 -76.2353 424.929 -75.8601L424.784 -75.3817C426.881 -74.7442 428.916 -73.8637 430.906 -72.7682L431.147 -73.2062C432.26 -72.5933 433.358 -71.9147 434.444 -71.1756L434.162 -70.7623C435.95 -69.5449 437.707 -68.1593 439.444 -66.6278L439.775 -67.0029C440.726 -66.1643 441.671 -65.2831 442.612 -64.363L442.262 -64.0056C443.82 -62.481 445.367 -60.8477 446.913 -59.1227L447.285 -59.4563C448.133 -58.5094 448.981 -57.5356 449.828 -56.5376L449.447 -56.2139C450.169 -55.3648 450.891 -54.498 451.614 -53.6151C452.295 -52.7848 452.975 -51.8783 453.653 -50.901L454.063 -51.1859C454.78 -50.1527 455.492 -49.0432 456.196 -47.8645L455.767 -47.608C456.873 -45.7565 457.962 -43.7306 459.021 -41.5572L459.471 -41.7762C460.035 -40.6192 460.59 -39.4213 461.134 -38.1865L460.677 -37.9848C461.571 -35.9555 462.438 -33.8254 463.268 -31.6128L463.736 -31.7885C464.193 -30.5719 464.638 -29.3307 465.071 -28.0679L464.598 -27.9057C465.33 -25.7735 466.025 -23.5793 466.679 -21.3377L467.159 -21.4778C467.526 -20.222 467.879 -18.9515 468.218 -17.6689L467.734 -17.5411C468.316 -15.3397 468.855 -13.1024 469.347 -10.8421L469.836 -10.9484C470.115 -9.66453 470.379 -8.37331 470.626 -7.07709L470.135 -6.98338C470.565 -4.72941 470.945 -2.46053 471.269 -0.189329L471.764 -0.260051C471.951 1.04664 472.119 2.35418 472.268 3.66018L471.772 3.71686C472.033 6.01056 472.235 8.29901 472.371 10.5692L472.87 10.5393C472.949 11.8624 473.007 13.1795 473.04 14.488L472.54 14.5009C472.6 16.8278 472.586 19.1266 472.492 21.3829L472.991 21.4038C472.936 22.7338 472.852 24.0495 472.739 25.3479L472.241 25.3047C472.039 27.6362 471.743 29.91 471.345 32.109L471.837 32.1981C471.599 33.5134 471.325 34.8028 471.013 36.0626L470.527 35.9425C469.963 38.2213 469.275 40.3996 468.455 42.4563L468.919 42.6416C468.423 43.8844 467.879 45.0843 467.284 46.2366L466.84 46.0073C465.774 48.0738 464.546 49.9813 463.144 51.7039L463.532 52.0195C462.696 53.0461 461.799 54.0092 460.839 54.903L460.498 54.5369C459.672 55.3057 458.798 56.0221 457.874 56.6824C456.914 57.3687 455.922 57.9967 454.901 58.5686L455.145 59.0049C453.955 59.6708 452.727 60.2615 451.463 60.7802L451.273 60.3177C449.121 61.2013 446.865 61.8738 444.526 62.3507L444.626 62.8406C443.302 63.1105 441.952 63.3183 440.581 63.4668L440.528 62.9697C438.226 63.2192 435.86 63.2999 433.45 63.2252L433.435 63.7249C432.087 63.6832 430.727 63.5932 429.356 63.4575L429.405 62.9599C427.09 62.7306 424.745 62.3694 422.386 61.8878L422.286 62.3777C420.961 62.107 419.632 61.7988 418.303 61.4548L418.428 60.9708C416.158 60.3836 413.884 59.6918 411.621 58.9055L411.457 59.3778C410.174 58.9322 408.895 58.4565 407.622 57.9525L407.806 57.4876C405.61 56.6178 403.431 55.6633 401.284 54.6338L401.068 55.0847C399.839 54.4952 398.62 53.8813 397.414 53.2447L397.648 52.8025C395.543 51.6917 393.478 50.5117 391.466 49.272L391.204 49.6978C390.038 48.9796 388.89 48.2415 387.762 47.4854L388.04 47.07C386.048 45.735 384.12 44.3436 382.269 42.9062L381.962 43.3012C380.875 42.4569 379.814 41.5967 378.783 40.7228L379.106 40.3414C377.26 38.777 375.51 37.1688 373.871 35.529L373.517 35.8824C372.537 34.9021 371.597 33.9103 370.699 32.9095L371.071 32.5756C369.438 30.7544 367.949 28.905 366.626 27.043L366.219 27.3327C365.411 26.1969 364.664 25.0558 363.983 23.9128L364.412 23.6568C363.796 22.6235 363.234 21.5897 362.73 20.558Z" stroke="#676766" stroke-dasharray="6.96 3.98"/>
</g>
<path opacity="0.73" d="M341.158 48.6746L341.158 48.6742C341.11 47.5493 341.119 46.4485 341.182 45.3718L340.683 45.3425C340.759 44.0456 340.913 42.7821 341.14 41.5515L341.632 41.6423C342.038 39.4436 342.682 37.3524 343.541 35.3664L343.082 35.1681C343.587 33.9974 344.166 32.8628 344.813 31.7639L345.244 32.0176C346.345 30.1469 347.648 28.3793 349.129 26.7134L348.755 26.3812C349.593 25.4387 350.487 24.5291 351.431 23.652L351.771 24.0183C353.351 22.5517 355.076 21.1755 356.928 19.8887L356.643 19.4782C357.677 18.7596 358.749 18.0692 359.856 17.4066L360.112 17.8356C361.974 16.7214 363.935 15.6859 365.979 14.7282L365.767 14.2754C366.911 13.7395 368.08 13.2279 369.271 12.7406L369.46 13.2033C371.481 12.3769 373.567 11.6201 375.703 10.9324L375.549 10.4564C376.755 10.0681 377.977 9.70175 379.212 9.35718L379.346 9.83877C381.467 9.24669 383.628 8.71912 385.814 8.25527L385.71 7.76616C386.954 7.50218 388.206 7.25878 389.463 7.0358L389.55 7.52811C391.733 7.14096 393.933 6.81559 396.137 6.55118L396.077 6.05475C397.345 5.90263 398.614 5.77062 399.881 5.65856L399.925 6.15662C402.149 5.96 404.369 5.82505 406.571 5.75092L406.554 5.2512C407.836 5.20803 409.112 5.18539 410.379 5.18313L410.38 5.68312C412.632 5.6791 414.856 5.73965 417.037 5.86378L417.066 5.36459C418.352 5.43781 419.624 5.53306 420.878 5.65015L420.831 6.14798C423.093 6.35921 425.296 6.64176 427.421 6.99435L427.503 6.50109C428.784 6.71359 430.037 6.95145 431.259 7.21441L431.154 7.70322C433.412 8.1891 435.559 8.76074 437.57 9.4161L437.725 8.94069C438.971 9.34669 440.166 9.78483 441.305 10.2547L441.114 10.717C442.163 11.1498 443.163 11.6093 444.107 12.0949C445.166 12.639 446.199 13.1863 447.207 13.7374L447.447 13.2987C448.647 13.9554 449.813 14.6176 450.943 15.2862L450.689 15.7166C452.772 16.9487 454.732 18.202 456.572 19.4819L456.858 19.0715C457.982 19.8535 459.062 20.6458 460.097 21.4496L459.791 21.8446C461.698 23.3253 463.453 24.8439 465.055 26.4084L465.405 26.0506C466.382 27.0041 467.303 27.9752 468.17 28.9655L467.794 29.2948C469.358 31.083 470.74 32.933 471.942 34.8558L472.366 34.5909C473.08 35.7337 473.731 36.9025 474.32 38.0994L473.871 38.3201C474.887 40.3865 475.715 42.5381 476.356 44.7874L476.837 44.6504C477.199 45.9227 477.502 47.2256 477.747 48.5612L477.255 48.6511C477.658 50.8585 477.899 53.1586 477.978 55.5615L478.478 55.5451C478.521 56.8527 478.516 58.1897 478.464 59.5576L477.964 59.5385C477.879 61.7663 477.667 64.0789 477.328 66.4833L477.823 66.5531C477.641 67.8487 477.422 69.1701 477.166 70.5184L476.675 70.4254C476.462 71.5493 476.223 72.6924 475.96 73.8553C475.686 75.0577 475.383 76.2458 475.052 77.4186L475.533 77.5546C475.147 78.9211 474.722 80.267 474.261 81.5907L473.789 81.4264C472.975 83.7667 472.046 86.037 471.014 88.2282L471.466 88.4413C470.861 89.7254 470.221 90.9827 469.548 92.2112L469.11 91.9709C467.918 94.1451 466.622 96.2284 465.234 98.2107L465.644 98.4975C464.829 99.6614 463.983 100.791 463.107 101.884L462.717 101.571C461.166 103.507 459.523 105.327 457.802 107.019L458.153 107.376C457.139 108.373 456.097 109.327 455.032 110.235L454.707 109.855C452.819 111.464 450.853 112.927 448.828 114.231L449.098 114.651C447.902 115.421 446.685 116.137 445.449 116.794L445.214 116.353C443.03 117.516 440.79 118.497 438.511 119.282L438.674 119.755C437.332 120.217 435.977 120.612 434.612 120.937L434.496 120.45C432.111 121.018 429.697 121.369 427.272 121.487L427.297 121.986C425.889 122.055 424.478 122.046 423.067 121.957L423.099 121.458C421.889 121.381 420.679 121.245 419.471 121.047C418.353 120.863 417.175 120.632 415.946 120.354L415.835 120.842C414.536 120.548 413.181 120.202 411.779 119.806L411.915 119.325C409.726 118.706 407.421 117.961 405.032 117.095L404.861 117.565C403.585 117.102 402.285 116.604 400.967 116.072L401.154 115.608C398.978 114.73 396.753 113.759 394.5 112.696L394.287 113.149C393.045 112.563 391.795 111.95 390.542 111.309L390.769 110.864C388.651 109.782 386.521 108.622 384.397 107.386L384.146 107.818C382.954 107.125 381.764 106.407 380.579 105.666L380.844 105.242C378.81 103.969 376.791 102.627 374.805 101.216L374.515 101.624C373.386 100.822 372.267 99.9977 371.161 99.1519L371.464 98.7548C369.547 97.2884 367.671 95.7568 365.851 94.1616L365.521 94.5376C364.476 93.6216 363.45 92.6847 362.445 91.727L362.79 91.365C361.036 89.6941 359.348 87.9605 357.743 86.1655L357.37 86.4989C356.442 85.4614 355.541 84.4033 354.67 83.325L355.059 83.0109C353.536 81.125 352.106 79.1777 350.786 77.1706L350.369 77.4453C349.604 76.2823 348.875 75.099 348.186 73.8958L348.62 73.6474C347.42 71.551 346.341 69.3946 345.4 67.1798L344.94 67.3753C344.398 66.0976 343.901 64.8003 343.452 63.4838L343.925 63.3226C343.153 61.0554 342.527 58.7312 342.063 56.3516L341.572 56.4472C341.308 55.0929 341.096 53.7205 340.94 52.3305L341.436 52.2744C341.303 51.0875 341.209 49.8875 341.158 48.6746Z" stroke="#6F8467" stroke-dasharray="6.96 3.98"/>
</g>
</svg>
