<svg width="59" height="18" viewBox="0 0 59 18" fill="none" xmlns="http://www.w3.org/2000/svg">
<path d="M55.5305 0.921875H58.8303L56.1076 13.514H52.8396L55.5305 0.921875ZM9.01669 0.954405C10.0206 0.954405 10.8694 1.33147 11.563 2.0856C12.2567 2.83972 12.4648 3.88347 12.1873 5.21683C11.931 6.50682 11.3491 7.51804 10.4416 8.25048C9.53402 8.98292 8.46075 9.34914 7.22175 9.34914H4.69078L3.79382 13.514H0.269531L2.96041 0.954405H9.01464H9.01669ZM40.4103 0.954405C41.4142 0.954405 42.2685 1.33147 42.9731 2.0856C43.6776 2.83972 43.8912 3.88347 43.6137 5.21683C43.4429 6.0696 43.1173 6.81288 42.6368 7.44668C42.1564 8.08049 41.569 8.55584 40.8747 8.87274C40.1803 9.18964 39.417 9.34809 38.5846 9.34809H36.0854L35.2202 13.5129H31.696L34.3868 0.953355H40.4093L40.4103 0.954405ZM13.4379 4.13496C13.5445 4.11327 13.7742 4.05871 14.1268 3.97126C14.4794 3.88382 14.773 3.81281 15.0074 3.75825C15.2418 3.70368 15.5513 3.64912 15.9361 3.59455C16.3209 3.53998 16.6947 3.5127 17.0576 3.5127C17.6555 3.49101 18.2163 3.53474 18.7397 3.64387C19.2632 3.753 19.7437 3.92789 20.181 4.16854C20.6184 4.40919 20.928 4.76981 21.1098 5.25041C21.2916 5.73101 21.3076 6.2994 21.158 6.95559L19.812 13.514H16.5768L16.8013 12.5297C16.353 12.9886 15.7871 13.3167 15.1037 13.514C14.4203 13.7113 13.7742 13.7606 13.1653 13.6619C12.5564 13.5633 12.0705 13.2191 11.7076 12.6294C11.3447 12.0397 11.2487 11.2635 11.4195 10.3009C11.6546 9.16411 12.3219 8.34982 13.4215 7.85803C14.5211 7.36623 16.0215 7.12034 17.9227 7.12034C17.987 6.79225 17.9549 6.52991 17.8264 6.33333C17.6979 6.13676 17.5055 5.99999 17.2493 5.92304C16.993 5.84609 16.6513 5.8188 16.2242 5.84119C15.6686 5.86288 15.0706 5.95032 14.4302 6.10353C13.7899 6.25673 13.3628 6.39874 13.1489 6.52956L13.4379 4.13496ZM44.8951 4.13496C45.0236 4.11327 45.2105 4.06955 45.4558 4.00379C45.7012 3.93803 45.9308 3.87787 46.1447 3.82331C46.3586 3.76874 46.5988 3.71942 46.8654 3.67535C47.1319 3.63128 47.4097 3.59315 47.6988 3.56097C47.9878 3.52879 48.2814 3.51235 48.5793 3.51165C49.1985 3.48997 49.7698 3.53369 50.2933 3.64282C50.8168 3.75195 51.2972 3.92684 51.7346 4.16749C52.1719 4.40814 52.487 4.76876 52.6797 5.24936C52.8724 5.72996 52.894 6.29836 52.7443 6.95454L51.3666 13.5129H48.0985L48.323 12.5286C47.8747 12.9876 47.3034 13.3157 46.6091 13.5129C45.9147 13.7102 45.258 13.7595 44.6388 13.6609C44.0197 13.5623 43.5283 13.2181 43.1647 12.6283C42.8012 12.0386 42.7052 11.2624 42.8767 10.2998C43.0264 9.51284 43.4002 8.88428 43.9982 8.41418C44.5961 7.94407 45.3328 7.61073 46.2083 7.41415C47.0837 7.21758 48.1621 7.11929 49.4435 7.11929C49.5501 6.61631 49.4592 6.27212 49.1708 6.08674C48.8824 5.90135 48.4071 5.8195 47.7449 5.84119C47.3601 5.84119 46.9436 5.88491 46.4953 5.97236C46.047 6.0598 45.6571 6.15285 45.3257 6.25148C44.9942 6.35012 44.7434 6.44316 44.5732 6.53061L44.8951 4.13496ZM6.83836 6.95559C7.13769 6.95559 7.43121 6.87899 7.71892 6.72579C8.00663 6.57258 8.25231 6.36481 8.45596 6.10248C8.65962 5.84014 8.79322 5.54493 8.85678 5.21683C8.98525 4.73553 8.93195 4.33119 8.69686 4.00379C8.46177 3.6764 8.12007 3.51235 7.67176 3.51165H5.9742L5.20538 6.95454H6.83938L6.83836 6.95559ZM38.2648 6.95559C38.7131 6.95559 39.1402 6.7863 39.5462 6.44771C39.9521 6.10912 40.2084 5.69918 40.315 5.21788C40.4216 4.73658 40.3522 4.33224 40.1069 4.00484C39.8615 3.67745 39.5253 3.5134 39.0982 3.5127H37.3043L36.599 6.95559H38.2648ZM22.632 3.70893L23.9452 13.579L21.5741 17.7113H25.1938L32.882 3.70893H29.5504L26.347 9.54642L25.8344 3.70893H22.631H22.632ZM17.3138 10.2348C17.3138 10.0158 17.3671 9.72061 17.4737 9.34914H16.6403C15.6364 9.34914 14.9957 9.62232 14.7183 10.1687C14.5044 10.5625 14.4989 10.8906 14.7019 11.153C14.9049 11.4153 15.1984 11.5465 15.5824 11.5465C16.5221 11.5024 17.0989 11.0652 17.3128 10.2348H17.3138ZM48.8038 10.2348C48.8469 9.86332 48.9111 9.56811 48.9965 9.34914H48.1959C47.1278 9.34914 46.4765 9.62232 46.2421 10.1687C46.0282 10.5625 46.0227 10.8906 46.2257 11.153C46.4287 11.4153 46.7222 11.5465 47.1063 11.5465C48.0671 11.5024 48.633 11.0652 48.8038 10.2348Z" fill="#A2A2A2"/>
</svg>
