<svg width="22" height="22" viewBox="0 0 22 22" fill="none" xmlns="http://www.w3.org/2000/svg">
<path d="M0 0V22H22V0H0ZM21.2667 21.2667H0.733333V0.733333H21.2667V21.2667Z" fill="#454545"/>
<path d="M17.8591 4.65909L4.65909 17.8591L4.14062 17.3406L17.3406 4.14062L17.8591 4.65909Z" fill="#454545"/>
<path d="M6.2332 8.4332C7.4465 8.4332 8.4332 7.4465 8.4332 6.2332C8.4332 5.0199 7.4465 4.0332 6.2332 4.0332C5.0199 4.0332 4.0332 5.0199 4.0332 6.2332C4.0332 7.4465 5.0199 8.4332 6.2332 8.4332ZM6.2332 4.76654C7.04207 4.76654 7.69987 5.42434 7.69987 6.2332C7.69987 7.04207 7.04207 7.69987 6.2332 7.69987C5.42434 7.69987 4.76654 7.04207 4.76654 6.2332C4.76654 5.42434 5.42434 4.76654 6.2332 4.76654Z" fill="#454545"/>
<path d="M15.7674 13.5664C14.5541 13.5664 13.5674 14.5531 13.5674 15.7664C13.5674 16.9797 14.5541 17.9664 15.7674 17.9664C16.9807 17.9664 17.9674 16.9797 17.9674 15.7664C17.9674 14.5531 16.9807 13.5664 15.7674 13.5664ZM15.7674 17.2331C14.9585 17.2331 14.3007 16.5753 14.3007 15.7664C14.3007 14.9575 14.9585 14.2997 15.7674 14.2997C16.5762 14.2997 17.234 14.9575 17.234 15.7664C17.234 16.5753 16.5762 17.2331 15.7674 17.2331Z" fill="#454545"/>
</svg>
