<svg width="16" height="20" viewBox="0 0 16 20" fill="none" xmlns="http://www.w3.org/2000/svg">
<path d="M8.26771 0C2.87037 0 0 3.45873 0 7.23009C0 8.97915 0.977306 11.1602 2.54173 11.852C2.77929 11.9591 2.90853 11.9135 2.96146 11.6932C3.00823 11.5258 3.21379 10.7196 3.31349 10.3393C3.34426 10.2174 3.32826 10.1115 3.22979 9.99708C2.71036 9.39641 2.29802 8.30218 2.29802 7.27564C2.29802 4.64528 4.38926 2.09124 7.94769 2.09124C11.0248 2.09124 13.1776 4.09016 13.1776 6.94946C13.1776 10.1805 11.468 12.4157 9.24625 12.4157C8.01662 12.4157 7.10085 11.4507 7.39134 10.2568C7.74213 8.83514 8.43019 7.30641 8.43019 6.2811C8.43019 5.36164 7.91076 4.60097 6.84976 4.60097C5.59797 4.60097 4.58251 5.84045 4.58251 7.50458C4.58251 8.56189 4.95669 9.27579 4.95669 9.27579C4.95669 9.27579 3.71844 14.278 3.48827 15.2122C3.09932 16.7939 3.5412 19.3553 3.57935 19.5757C3.60274 19.6975 3.73936 19.7357 3.81568 19.636C3.93753 19.476 5.43426 17.3404 5.85399 15.7969C6.00662 15.2344 6.63313 12.9536 6.63313 12.9536C7.04546 13.6983 8.23571 14.3223 9.5035 14.3223C13.2749 14.3223 16 11.0076 16 6.89407C15.9865 2.95038 12.6114 0 8.26771 0Z" fill="#799B6D"/>
</svg>
