<svg width="49" height="44" viewBox="0 0 49 44" fill="none" xmlns="http://www.w3.org/2000/svg">
<path d="M19.8955 5.50657C15.7895 1.46827 7.75452 1 2.0671 1C1.47808 1 1 1.47033 1 2.04993C1 7.6464 1.47378 15.5529 5.57981 19.5934C7.31275 21.2986 9.96974 22.0609 12.6032 22.0609C15.4651 22.0609 18.3013 21.16 19.8955 19.5913C22.9538 16.582 23.5151 9.06607 19.8955 5.50657ZM18.3868 18.1086C16.1032 20.3535 9.76276 20.7378 7.09087 18.1086C3.77653 14.8474 3.20242 8.22187 3.1405 3.10627C8.33923 3.1672 15.0724 3.73203 18.3867 6.99337C21.0587 9.62253 20.6681 15.8638 18.3868 18.1086Z" fill="#676766" stroke="#F9F6F4" stroke-width="0.4"/>
<path d="M46.9328 5.1543C41.2454 5.1543 33.2104 5.6205 29.1042 9.66086C25.4848 13.2204 26.046 20.7363 29.1042 23.7456C30.6984 25.3122 33.5326 26.2131 36.3945 26.2131C39.0279 26.2131 41.6828 25.4529 43.42 23.7478C47.5239 19.7074 47.9998 11.8009 47.9998 6.20433C47.9999 5.62473 47.5218 5.1543 46.9328 5.1543ZM41.9069 22.2609C39.235 24.89 32.8924 24.5057 30.611 22.2609C28.3297 20.016 27.9391 13.7748 30.611 11.1456C33.9253 7.88426 40.6584 7.31943 45.8572 7.2585C45.7954 12.3762 45.2212 19.0017 41.9069 22.2609Z" fill="#676766" stroke="#F9F6F4" stroke-width="0.4"/>
<path d="M39.2267 14.2434C38.9749 13.7163 38.2535 13.5357 37.7221 13.7793C29.5378 17.5656 25.5171 24.168 23.6902 30.9551C21.4302 16.5239 14.8933 12.1244 12.1211 10.2576C11.7754 10.0245 11.5065 9.85437 11.3571 9.70947C10.941 9.29997 10.2644 9.29997 9.84825 9.70947C9.43209 10.119 9.43209 10.7847 9.84825 11.1942C10.0595 11.4 10.4245 11.6583 10.9174 11.9901C14.0418 14.0922 22.3414 19.6803 22.3414 41.9508C22.3414 42.5304 22.8195 43.0008 23.4085 43.0008C23.9975 43.0008 24.4756 42.5304 24.4756 41.953C24.4756 32.9545 26.932 21.0916 38.6313 15.682C38.6313 15.6799 38.8041 15.6001 38.8041 15.6001C39.3355 15.3522 39.4785 14.7684 39.2267 14.2434Z" fill="#676766" stroke="#F9F6F4" stroke-width="0.4"/>
</svg>
