<svg width="324" height="52" viewBox="0 0 324 52" fill="none" xmlns="http://www.w3.org/2000/svg">
<g clip-path="url(#clip0)">
<path opacity="0.75" d="M267.351 40.9799C267.354 39.6783 267.475 38.3722 267.706 37.0642L268.198 37.1508C268.575 35.0071 269.253 32.8518 270.199 30.6958L269.741 30.495C270.257 29.3179 270.85 28.1426 271.516 26.9708L271.951 27.2177C273.029 25.3192 274.3 23.4268 275.739 21.5486L275.342 21.2445C276.124 20.2229 276.956 19.2063 277.832 18.1961L278.21 18.5237C279.662 16.849 281.239 15.1904 282.922 13.5539L282.573 13.1954C283.503 12.2917 284.464 11.3952 285.454 10.5067L285.788 10.8788C287.456 9.38105 289.208 7.90562 291.027 6.45723L290.715 6.06607C291.735 5.25401 292.776 4.45061 293.835 3.65669L294.135 4.05676C295.95 2.69645 297.819 1.36372 299.729 0.0627534L299.448 -0.350506C300.53 -1.08775 301.626 -1.81473 302.732 -2.5307L303.004 -2.11096C304.922 -3.35293 306.873 -4.56183 308.844 -5.73372L308.588 -6.16345C309.719 -6.83603 310.856 -7.4964 311.997 -8.14383L312.244 -7.70896C314.248 -8.84607 316.264 -9.9432 318.28 -10.9963L318.048 -11.4395C319.219 -12.0512 320.389 -12.648 321.557 -13.2293L321.78 -12.7817C323.865 -13.8196 325.941 -14.8076 327.993 -15.7412L327.786 -16.1964C328.997 -16.7473 330.2 -17.2794 331.391 -17.7916L331.589 -17.3323C333.755 -18.2634 335.884 -19.1288 337.958 -19.923L337.779 -20.3899C339.034 -20.8704 340.268 -21.3249 341.479 -21.7523L341.646 -21.2808C343.918 -22.0831 346.105 -22.7888 348.179 -23.3901L348.04 -23.8703C349.353 -24.2509 350.622 -24.5901 351.84 -24.8857L351.958 -24.3998C353.115 -24.6807 354.225 -24.9217 355.282 -25.1213C356.374 -25.3276 357.464 -25.4946 358.551 -25.6234L358.492 -26.1199C359.765 -26.2709 361.035 -26.3698 362.298 -26.4182L362.317 -25.9186C364.54 -26.0038 366.742 -25.9307 368.915 -25.7077L368.966 -26.205C370.236 -26.0746 371.497 -25.8933 372.744 -25.6629L372.653 -25.1712C374.827 -24.7699 376.962 -24.2178 379.048 -23.5234L379.205 -23.9979C380.413 -23.5957 381.605 -23.1464 382.778 -22.6516L382.583 -22.1909C384.61 -21.3358 386.581 -20.3431 388.484 -19.2216L388.738 -19.6524C389.833 -19.0075 390.905 -18.3204 391.953 -17.5928L391.668 -17.1821C393.47 -15.9311 395.2 -14.5591 396.846 -13.0743L397.181 -13.4456C398.123 -12.596 399.037 -11.71 399.923 -10.7889L399.563 -10.4424C401.08 -8.86429 402.511 -7.18242 403.846 -5.40467L404.246 -5.70486C405.006 -4.69178 405.736 -3.6479 406.432 -2.57468L406.013 -2.30253C407.202 -0.469536 408.294 1.45003 409.279 3.4489L409.728 3.22782C410.287 4.36294 410.813 5.52334 411.302 6.70772L410.84 6.8987C411.673 8.91309 412.401 10.9976 413.015 13.1458L413.496 13.0083C413.844 14.2232 414.155 15.4582 414.429 16.7122L413.941 16.819C414.175 17.8903 414.382 18.9757 414.56 20.0743L414.56 20.0751C414.74 21.1743 414.881 22.2618 414.984 23.3374L415.481 23.2898C415.604 24.5704 415.673 25.8346 415.691 27.0817L415.191 27.089C415.223 29.3262 415.089 31.5073 414.802 33.6286L415.297 33.6958C415.125 34.9627 414.899 36.2087 414.622 37.4332L414.134 37.3226C413.645 39.4779 412.995 41.5657 412.196 43.5819L412.661 43.7659C412.194 44.9455 411.677 46.1008 411.113 47.2309L410.666 47.0077C409.689 48.9657 408.568 50.848 407.32 52.6501L407.73 52.9349C407.011 53.9727 406.25 54.984 405.45 55.9679L405.062 55.6523C403.687 57.3423 402.194 58.9513 400.599 60.4749L400.944 60.8364C400.033 61.7072 399.088 62.5502 398.112 63.3644L397.792 62.9806C396.12 64.3768 394.357 65.6884 392.516 66.9114L392.793 67.3278C391.742 68.0258 390.667 68.6949 389.57 69.3345L389.318 68.9026C387.432 70.0021 385.479 71.014 383.472 71.9342L383.68 72.3887C382.532 72.9149 381.368 73.4112 380.188 73.8771L380.004 73.412C377.967 74.2165 375.885 74.9293 373.77 75.5469L373.91 76.0269C372.697 76.3812 371.472 76.7044 370.24 76.9958L370.125 76.5092C369.056 76.7619 367.981 76.9905 366.901 77.1945C365.797 77.403 364.632 77.5909 363.413 77.7574L363.481 78.2528C362.184 78.43 360.828 78.583 359.418 78.7111L359.373 78.2132C357.127 78.4175 354.745 78.5587 352.256 78.6337L352.271 79.1335C350.934 79.1738 349.567 79.1952 348.174 79.1971L348.173 78.6971C345.862 78.7002 343.479 78.6496 341.046 78.5435L341.025 79.043C339.676 78.9841 338.313 78.9082 336.938 78.815L336.972 78.3161C334.631 78.1574 332.258 77.9483 329.868 77.6871L329.814 78.1842C328.463 78.0366 327.108 77.8725 325.751 77.6916L325.817 77.196C323.467 76.8826 321.111 76.5186 318.767 76.1025L318.68 76.5948C317.335 76.3561 315.994 76.1003 314.66 75.8272L314.76 75.3374C312.418 74.8577 310.096 74.3244 307.813 73.736L307.689 74.2202C306.359 73.8776 305.043 73.5163 303.743 73.1361L303.883 72.6562C301.569 71.9795 299.308 71.2429 297.117 70.4447L296.946 70.9145C295.649 70.4416 294.375 69.9472 293.131 69.4307L293.322 68.9689C291.075 68.0363 288.923 67.0326 286.888 65.9558L286.654 66.3977C285.426 65.7473 284.239 65.0701 283.099 64.3656L283.362 63.9403C281.277 62.6516 279.355 61.2733 277.626 59.8032L277.302 60.1842C276.242 59.2832 275.252 58.3472 274.34 57.3756L274.704 57.0334C273.045 55.2657 271.65 53.3833 270.559 51.383L270.12 51.6224C269.464 50.4195 268.915 49.173 268.482 47.8821L268.956 47.723C268.587 46.6253 268.305 45.4948 268.113 44.331C267.933 43.2195 267.847 42.1025 267.851 40.9813L267.351 40.9799Z" stroke="#C74343" stroke-dasharray="6.96 3.98"/>
<path opacity="0.81" d="M241.695 -12.9835L241.696 -12.9841C242.501 -13.7953 243.329 -14.5784 244.178 -15.3334L243.846 -15.707C244.83 -16.5826 245.844 -17.4207 246.883 -18.221L247.188 -17.8248C248.996 -19.2166 250.885 -20.4936 252.845 -21.655L252.59 -22.0852C253.72 -22.7548 254.873 -23.3863 256.047 -23.9795L256.273 -23.5332C258.301 -24.5576 260.393 -25.4672 262.541 -26.2613L262.367 -26.7303C263.597 -27.185 264.844 -27.602 266.107 -27.9813L266.251 -27.5025C268.422 -28.1545 270.64 -28.6942 272.896 -29.121L272.803 -29.6123C274.09 -29.8556 275.389 -30.0625 276.698 -30.2328L276.763 -29.7369C279.009 -30.0291 281.287 -30.2127 283.586 -30.2871L283.57 -30.7868C284.878 -30.8291 286.192 -30.8363 287.512 -30.8084L287.501 -30.3085C289.766 -30.2606 292.047 -30.1084 294.335 -29.8514L294.391 -30.3483C295.692 -30.2022 296.995 -30.0225 298.299 -29.809L298.218 -29.3156C300.453 -28.9498 302.691 -28.4842 304.925 -27.9183L305.047 -28.403C306.315 -28.0818 307.581 -27.7285 308.844 -27.343L308.698 -26.8648C310.865 -26.2036 313.022 -25.4471 315.164 -24.5947L315.349 -25.0593C316.565 -24.5757 317.775 -24.0614 318.979 -23.5164L318.773 -23.0609C320.836 -22.127 322.88 -21.1022 324.9 -19.9862L325.142 -20.4238C326.287 -19.791 327.423 -19.1291 328.551 -18.438L328.29 -18.0117C329.259 -17.4174 330.222 -16.8014 331.177 -16.1636C332.135 -15.5199 333.056 -14.8771 333.94 -14.2349L334.234 -14.6396C335.317 -13.8537 336.348 -13.0684 337.326 -12.2836L337.014 -11.8935C338.873 -10.4028 340.543 -8.91539 342.037 -7.42982L342.389 -7.78432C343.336 -6.8426 344.213 -5.90083 345.023 -4.95858L344.644 -4.63259C346.194 -2.83059 347.493 -1.03017 348.564 0.771584L348.994 0.516119C349.675 1.6623 350.266 2.8104 350.772 3.9612L350.314 4.16236C351.24 6.26906 351.874 8.38304 352.25 10.51L352.742 10.4231C352.968 11.7008 353.102 12.9835 353.151 14.2722L352.651 14.2912C352.734 16.4811 352.567 18.6923 352.183 20.931L352.675 21.0157C352.46 22.2682 352.178 23.5278 351.834 24.7953L351.352 24.6645C350.786 26.7521 350.051 28.8651 349.171 31.0079L349.634 31.1977C349.153 32.371 348.629 33.5521 348.067 34.7415L347.615 34.5279C346.683 36.499 345.646 38.495 344.521 40.5195L344.958 40.7624C344.34 41.8737 343.697 42.9928 343.031 44.1203L342.6 43.866C342.034 44.8254 341.451 45.7911 340.853 46.7635C340.291 47.678 339.657 48.6174 338.955 49.5772L339.358 49.8724C338.616 50.8872 337.8 51.9228 336.916 52.9739L336.534 52.6521C335.146 54.303 333.587 55.9944 331.88 57.7059L332.233 58.0591C331.324 58.9701 330.374 59.8864 329.385 60.8047L329.045 60.4383C327.42 61.9475 325.69 63.463 323.87 64.9709L324.189 65.3559C323.189 66.1851 322.162 67.0119 321.11 67.834L320.802 67.4401C319.026 68.8282 317.18 70.2031 315.275 71.554L315.565 71.9618C314.498 72.7185 313.412 73.4677 312.311 74.2074L312.032 73.7923C310.142 75.0617 308.204 76.3031 306.229 77.5066L306.489 77.9336C305.367 78.6172 304.233 79.2887 303.089 79.9462L302.84 79.5127C300.85 80.6561 298.83 81.7571 296.79 82.8064L297.019 83.251C295.845 83.8547 294.664 84.4413 293.479 85.0092L293.263 84.5582C291.181 85.5555 289.084 86.4944 286.983 87.3652L287.174 87.8271C285.95 88.3346 284.724 88.8192 283.498 89.2789L283.323 88.8107C281.143 89.6282 278.966 90.3665 276.803 91.0148L276.947 91.4938C275.671 91.876 274.401 92.2272 273.137 92.5453L273.015 92.0604C270.745 92.6317 268.5 93.0949 266.291 93.4379L266.368 93.932C265.047 94.1371 263.739 94.2996 262.447 94.4168L262.401 93.9188C260.063 94.1308 257.78 94.1928 255.568 94.0898L255.545 94.5892C254.208 94.5269 252.896 94.405 251.613 94.2199L251.684 93.725C249.383 93.393 247.178 92.8559 245.092 92.0944L244.921 92.5641C243.677 92.1103 242.474 91.5777 241.315 90.962L241.55 90.5205C240.553 89.991 239.59 89.3991 238.664 88.7422C237.702 88.0595 236.784 87.3272 235.91 86.5487L235.577 86.9222C234.559 86.0157 233.599 85.0478 232.696 84.0235L233.071 83.6928C231.532 81.948 230.159 80.0355 228.943 77.9806L228.513 78.2352C227.825 77.0722 227.187 75.865 226.599 74.6181L227.051 74.4047C226.063 72.3107 225.213 70.1017 224.496 67.7999L224.018 67.9487C223.617 66.6614 223.257 65.3461 222.937 64.0066L223.424 63.8905C222.883 61.6273 222.458 59.2931 222.142 56.9067L221.646 56.9724C221.469 55.6316 221.326 54.275 221.216 52.9059L221.714 52.8659C221.527 50.5285 221.437 48.1535 221.44 45.7576L220.94 45.757C220.942 44.3992 220.974 43.035 221.034 41.6675L221.533 41.6895C221.637 39.3292 221.827 36.9584 222.098 34.5929L221.601 34.536C221.756 33.1816 221.938 31.829 222.145 30.4813L222.639 30.5573C223.001 28.2054 223.441 25.868 223.955 23.561L223.467 23.4523C223.764 22.1158 224.086 20.7893 224.432 19.476L224.915 19.6033C225.526 17.2845 226.21 15.0071 226.964 12.7881L226.49 12.6273C226.932 11.3239 227.399 10.0403 227.887 8.77998L228.353 8.96075C229.228 6.70467 230.176 4.52436 231.189 2.4393L230.74 2.22066C231.346 0.974148 231.976 -0.238879 232.628 -1.41431L233.065 -1.17168C234.252 -3.31069 235.513 -5.32225 236.84 -7.18166L236.433 -7.4721C237.243 -8.60634 238.077 -9.68519 238.934 -10.703L239.317 -10.3809C240.092 -11.3011 240.885 -12.17 241.695 -12.9835Z" stroke="#676766" stroke-dasharray="6.96 3.98"/>
<path opacity="0.73" d="M363.242 37.0734L363.242 37.0738C362.788 38.1042 362.294 39.0877 361.761 40.0257L362.196 40.2725C361.555 41.4022 360.858 42.4677 360.11 43.4711L359.71 43.1723C358.374 44.9652 356.871 46.5563 355.224 47.9586L355.548 48.3394C354.577 49.1659 353.556 49.9279 352.49 50.6277L352.216 50.2098C350.401 51.4011 348.451 52.4108 346.386 53.2507L346.575 53.7139C345.407 54.1891 344.203 54.6102 342.968 54.9796L342.825 54.5006C340.76 55.1182 338.604 55.5901 336.374 55.926L336.449 56.4204C335.204 56.608 333.937 56.7535 332.651 56.8587L332.61 56.3603C330.448 56.5372 328.231 56.5993 325.975 56.5551L325.965 57.055C324.702 57.0303 323.427 56.9724 322.143 56.8831L322.178 56.3843C320 56.2327 317.795 55.9897 315.575 55.6627L315.502 56.1573C314.248 55.9727 312.99 55.7614 311.731 55.5248L311.823 55.0334C309.658 54.627 307.487 54.1454 305.321 53.5955L305.198 54.0802C303.966 53.7672 302.735 53.4323 301.509 53.0766L301.648 52.5964C299.519 51.9789 297.402 51.2985 295.308 50.5618L295.142 51.0335C293.938 50.6096 292.741 50.1673 291.555 49.7077L291.735 49.2414C289.653 48.4349 287.603 47.575 285.595 46.6684L285.389 47.1241C284.22 46.5962 283.065 46.0525 281.927 45.4944L282.147 45.0455C280.126 44.0539 278.157 43.0166 276.256 41.9414L276.01 42.3766C274.888 41.7424 273.789 41.0949 272.716 40.4357L272.978 40.0097C271.042 38.8205 269.191 37.5935 267.441 36.338L267.149 36.7443C266.094 35.9875 265.075 35.2202 264.095 34.4444L264.405 34.0524C262.595 32.6187 260.922 31.1571 259.407 29.6804L259.058 30.0383C258.12 29.1235 257.241 28.2021 256.427 27.2772L256.802 26.9469C256.053 26.095 255.36 25.2412 254.727 24.388C254.018 23.4322 253.333 22.4847 252.672 21.545L252.263 21.8325C251.476 20.7127 250.723 19.6035 250.005 18.5042L250.424 18.2307C249.1 16.2048 247.895 14.214 246.81 12.2527L246.372 12.4947C245.71 11.2963 245.091 10.1084 244.517 8.92972L244.967 8.71092C243.91 6.53959 243.008 4.402 242.261 2.29026L241.79 2.45686C241.335 1.16978 240.938 -0.108582 240.598 -1.37997L241.081 -1.50903C240.468 -3.80472 240.045 -6.07506 239.818 -8.3307L239.32 -8.28046C239.185 -9.62116 239.117 -10.9574 239.118 -12.2914L239.618 -12.2911C239.619 -14.5939 239.828 -16.8899 240.247 -19.1907L239.755 -19.2803C239.992 -20.5818 240.296 -21.8846 240.667 -23.1906L241.148 -23.0539C241.762 -25.2124 242.562 -27.3822 243.554 -29.5724L243.098 -29.7786C243.637 -30.9705 244.233 -32.1677 244.884 -33.3717L245.324 -33.1338C246.385 -35.0946 247.597 -37.0754 248.964 -39.0824L248.55 -39.3638C249.287 -40.4453 250.067 -41.5339 250.892 -42.6305L251.292 -42.3299C251.98 -43.244 252.699 -44.164 253.449 -45.0905C254.226 -46.0482 255.023 -46.9801 255.839 -47.8856L255.467 -48.2203C256.418 -49.2754 257.393 -50.2952 258.391 -51.279L258.742 -50.9229C260.507 -52.6623 262.344 -54.2883 264.238 -55.7978L263.926 -56.1888C265.037 -57.0735 266.166 -57.9183 267.313 -58.7228L267.6 -58.3135C269.63 -59.7373 271.713 -61.0334 273.834 -62.1982L273.593 -62.6365C274.839 -63.3204 276.098 -63.9595 277.366 -64.5529L277.578 -64.1C279.825 -65.151 282.103 -66.0574 284.394 -66.8152L284.237 -67.2899C285.588 -67.7365 286.944 -68.132 288.301 -68.4755L288.423 -67.9908C290.829 -68.5998 293.238 -69.0437 295.632 -69.3181L295.575 -69.8148C296.988 -69.9769 298.396 -70.0804 299.795 -70.1245L299.811 -69.6247C302.285 -69.7026 304.728 -69.5926 307.118 -69.2896L307.181 -69.7856C308.589 -69.6072 309.979 -69.3626 311.347 -69.0507L311.236 -68.5632C313.626 -68.0183 315.947 -67.2658 318.174 -66.3001L318.373 -66.7589C319.666 -66.1984 320.928 -65.567 322.154 -64.8633L321.906 -64.4296C322.957 -63.8263 323.982 -63.1692 324.978 -62.4577C325.9 -61.7988 326.855 -61.0711 327.834 -60.2784L328.149 -60.6671C329.185 -59.8293 330.247 -58.9203 331.33 -57.9447L330.995 -57.5733C332.685 -56.0507 334.424 -54.3641 336.184 -52.5309L336.545 -52.8771C337.485 -51.8976 338.431 -50.8767 339.379 -49.8171L339.006 -49.4838C340.569 -47.735 342.136 -45.88 343.688 -43.931L344.079 -44.2424C344.934 -43.1683 345.784 -42.0659 346.625 -40.9372L346.225 -40.6382C347.646 -38.7318 349.045 -36.75 350.403 -34.7025L350.82 -34.979C351.583 -33.8301 352.333 -32.6606 353.068 -31.4722L352.643 -31.2091C353.905 -29.1682 355.123 -27.0717 356.281 -24.9283L356.721 -25.166C357.38 -23.9474 358.02 -22.7136 358.638 -21.4663L358.19 -21.2442C359.262 -19.0816 360.268 -16.8784 361.195 -14.6431L361.657 -14.8347C362.19 -13.5512 362.697 -12.257 363.175 -10.9537L362.706 -10.7814C363.54 -8.50754 364.288 -6.20655 364.935 -3.88685L365.416 -4.02118C365.79 -2.68034 366.131 -1.33304 366.436 0.0191304L365.948 0.12903C366.481 2.4938 366.903 4.87247 367.2 7.25638L367.696 7.19456C367.868 8.57586 367.998 9.95924 368.085 11.343L367.586 11.3741C367.736 13.7852 367.751 16.1963 367.616 18.5987L368.115 18.6268C368.037 20.0128 367.909 21.3962 367.73 22.7753L367.234 22.7108C366.925 25.0858 366.459 27.4474 365.824 29.7871L366.306 29.9182C365.944 31.2497 365.528 32.5744 365.054 33.8907L364.584 33.7214C364.179 34.8453 363.733 35.9629 363.242 37.0734Z" stroke="#6F8467" stroke-dasharray="6.96 3.98"/>
</g>
<defs>
<clipPath id="clip0">
<rect width="324" height="52" fill="white"/>
</clipPath>
</defs>
</svg>
