<svg width="324" height="52" viewBox="0 0 324 52" fill="none" xmlns="http://www.w3.org/2000/svg">
<g clip-path="url(#clip0)">
<g opacity="0.75">
<mask id="path-1-inside-1" fill="white">
<path fill-rule="evenodd" clip-rule="evenodd" d="M375.126 -6.34329C381.186 21.6263 374.824 88.0708 344.514 93.8824C314.153 99.6382 278.239 36.1814 272.179 8.21175C266.12 -19.7579 285.812 -47.0917 316.174 -52.8475C346.537 -58.6567 369.067 -34.3129 375.126 -6.34329Z"/>
</mask>
<path fill-rule="evenodd" clip-rule="evenodd" d="M375.126 -6.34329C381.186 21.6263 374.824 88.0708 344.514 93.8824C314.153 99.6382 278.239 36.1814 272.179 8.21175C266.12 -19.7579 285.812 -47.0917 316.174 -52.8475C346.537 -58.6567 369.067 -34.3129 375.126 -6.34329Z" stroke="#C74343" stroke-width="2" stroke-dasharray="6.96 3.98" mask="url(#path-1-inside-1)"/>
</g>
<g opacity="0.81">
<mask id="path-2-inside-2" fill="white">
<path fill-rule="evenodd" clip-rule="evenodd" d="M328.093 135.207C300.679 137.959 233.384 113.134 232.212 78.9004C231.039 44.667 284.91 15.0659 315.519 19.1334C346.119 23.1483 370.447 52.4106 372.724 88.8376C374.896 125.284 355.508 132.454 328.093 135.207Z"/>
</mask>
<path fill-rule="evenodd" clip-rule="evenodd" d="M328.093 135.207C300.679 137.959 233.384 113.134 232.212 78.9004C231.039 44.667 284.91 15.0659 315.519 19.1334C346.119 23.1483 370.447 52.4106 372.724 88.8376C374.896 125.284 355.508 132.454 328.093 135.207Z" stroke="#676766" stroke-width="2" stroke-dasharray="6.96 3.98" mask="url(#path-2-inside-2)"/>
</g>
<g opacity="0.73">
<mask id="path-3-inside-3" fill="white">
<path fill-rule="evenodd" clip-rule="evenodd" d="M217.94 -1.93312C233.667 -21.3023 282.868 -53.4708 320.256 -34.1276C357.695 -14.7974 327.992 56.6839 300.958 74.2649C273.925 91.8459 253.862 92.2648 230.922 71.2125C208.047 50.199 202.213 17.4361 217.94 -1.93312Z"/>
</mask>
<path fill-rule="evenodd" clip-rule="evenodd" d="M217.94 -1.93312C233.667 -21.3023 282.868 -53.4708 320.256 -34.1276C357.695 -14.7974 327.992 56.6839 300.958 74.2649C273.925 91.8459 253.862 92.2648 230.922 71.2125C208.047 50.199 202.213 17.4361 217.94 -1.93312Z" stroke="#6F8467" stroke-width="2" stroke-dasharray="6.96 3.98" mask="url(#path-3-inside-3)"/>
</g>
</g>
<defs>
<clipPath id="clip0">
<rect width="324" height="52" fill="white"/>
</clipPath>
</defs>
</svg>
