<svg width="324" height="52" viewBox="0 0 324 52" fill="none" xmlns="http://www.w3.org/2000/svg">
<g clip-path="url(#clip0)">
<g opacity="0.75">
<mask id="path-1-inside-1" fill="white">
<path fill-rule="evenodd" clip-rule="evenodd" d="M273.366 -71.8714C301.129 -64.9249 357.894 -29.8105 349.689 -0.0587012C341.412 29.7142 268.613 33.8306 240.851 26.8841C213.088 19.9375 197.294 -9.81929 205.571 -39.5922C213.802 -69.3909 245.603 -78.818 273.366 -71.8714Z"/>
</mask>
<path fill-rule="evenodd" clip-rule="evenodd" d="M273.366 -71.8714C301.129 -64.9249 357.894 -29.8105 349.689 -0.0587012C341.412 29.7142 268.613 33.8306 240.851 26.8841C213.088 19.9375 197.294 -9.81929 205.571 -39.5922C213.802 -69.3909 245.603 -78.818 273.366 -71.8714Z" stroke="#C74343" stroke-width="2" stroke-dasharray="6.96 3.98" mask="url(#path-1-inside-1)"/>
</g>
<g opacity="0.81">
<mask id="path-2-inside-2" fill="white">
<path fill-rule="evenodd" clip-rule="evenodd" d="M374.744 57.3386C365.077 83.1398 313.03 132.495 281.814 118.394C250.597 104.292 247.898 42.8841 265.095 17.2367C282.239 -8.42538 319.247 -17.288 352.919 -3.20643C386.562 10.9779 384.41 31.5374 374.744 57.3386Z"/>
</mask>
<path fill-rule="evenodd" clip-rule="evenodd" d="M374.744 57.3386C365.077 83.1398 313.03 132.495 281.814 118.394C250.597 104.292 247.898 42.8841 265.095 17.2367C282.239 -8.42538 319.247 -17.288 352.919 -3.20643C386.562 10.9779 384.41 31.5374 374.744 57.3386Z" stroke="#676766" stroke-width="2" stroke-dasharray="6.96 3.98" mask="url(#path-2-inside-2)"/>
</g>
<g opacity="0.73">
<mask id="path-3-inside-3" fill="white">
<path fill-rule="evenodd" clip-rule="evenodd" d="M233.756 115.715C212.583 102.515 174.553 57.6911 189.103 18.1905C203.633 -21.3598 278.25 -0.76488 299.053 23.8756C319.855 48.5161 322.763 68.3715 304.723 93.7487C286.713 119.057 254.928 128.914 233.756 115.715Z"/>
</mask>
<path fill-rule="evenodd" clip-rule="evenodd" d="M233.756 115.715C212.583 102.515 174.553 57.6911 189.103 18.1905C203.633 -21.3598 278.25 -0.76488 299.053 23.8756C319.855 48.5161 322.763 68.3715 304.723 93.7487C286.713 119.057 254.928 128.914 233.756 115.715Z" stroke="#6F8467" stroke-width="2" stroke-dasharray="6.96 3.98" mask="url(#path-3-inside-3)"/>
</g>
</g>
<defs>
<clipPath id="clip0">
<rect width="324" height="52" fill="white"/>
</clipPath>
</defs>
</svg>
