<svg width="667" height="52" viewBox="0 0 667 52" fill="none" xmlns="http://www.w3.org/2000/svg">
<g clip-path="url(#clip0)">
<path opacity="0.75" d="M642.32 90.2432C641.019 90.2741 639.71 90.188 638.396 89.9927L638.47 89.4982C636.317 89.1781 634.144 88.5579 631.964 87.6705L631.775 88.1337C630.585 87.6492 629.394 87.0871 628.205 86.4531L628.44 86.0119C626.513 84.9847 624.588 83.7649 622.672 82.3765L622.379 82.7813C621.336 82.0261 620.298 81.2221 619.265 80.3733L619.582 79.987C617.869 78.5799 616.169 77.0478 614.488 75.4089L614.139 75.7669C613.211 74.8619 612.289 73.925 611.375 72.9591L611.738 72.6153C610.196 70.9871 608.675 69.2757 607.178 67.4959L606.795 67.8177C605.956 66.8198 605.126 65.8008 604.304 64.7632L604.696 64.4527C603.287 62.6749 601.905 60.8419 600.554 58.9671L600.148 59.2594C599.382 58.197 598.626 57.1213 597.881 56.0347L598.294 55.7519C597.001 53.867 595.74 51.9491 594.516 50.0108L594.094 50.2777C593.391 49.1653 592.701 48.0461 592.023 46.9227L592.451 46.6645C591.261 44.6914 590.111 42.705 589.004 40.7182L588.567 40.9615C587.925 39.8075 587.297 38.6534 586.684 37.5017L587.126 37.2671C586.033 35.2105 584.99 33.1618 584.002 31.1352L583.552 31.3543C582.969 30.1584 582.405 28.9701 581.861 27.7925L582.315 27.5828C581.327 25.4421 580.405 23.337 579.556 21.2852L579.094 21.4764C578.58 20.235 578.093 19.0129 577.633 17.8139L578.1 17.635C577.237 15.3845 576.474 13.2175 575.817 11.1599L575.341 11.3118C574.925 10.0094 574.553 8.74993 574.225 7.54006L574.707 7.40922C574.396 6.25994 574.125 5.15696 573.897 4.10589C573.662 3.01975 573.466 1.93467 573.308 0.851917L572.813 0.923983C572.629 -0.345226 572.496 -1.61141 572.414 -2.8726L572.913 -2.90507C572.768 -5.12485 572.783 -7.32893 572.948 -9.50636L572.449 -9.54415C572.546 -10.8177 572.693 -12.0823 572.89 -13.3357L573.384 -13.2581C573.727 -15.4412 574.222 -17.5903 574.861 -19.6938L574.382 -19.839C574.752 -21.0573 575.169 -22.2604 575.633 -23.446L576.099 -23.264C576.899 -25.3129 577.839 -27.3095 578.909 -29.2421L578.472 -29.4843C579.088 -30.5957 579.746 -31.686 580.445 -32.7532L580.863 -32.4791C582.066 -34.3137 583.391 -36.0793 584.832 -37.7645L584.451 -38.0893C585.276 -39.0536 586.137 -39.9916 587.034 -40.9015L587.39 -40.5505C588.927 -42.1095 590.57 -43.585 592.312 -44.9666L592.001 -45.3583C592.993 -46.1456 594.018 -46.9025 595.072 -47.6272L595.355 -47.2152C597.156 -48.4529 599.045 -49.5959 601.017 -50.6342L600.784 -51.0766C601.904 -51.6663 603.05 -52.2224 604.221 -52.7434L604.424 -52.2865C606.416 -53.1725 608.48 -53.9558 610.611 -54.6275L610.461 -55.1044C611.666 -55.4842 612.892 -55.8287 614.139 -56.1362L614.258 -55.6507C615.323 -55.9134 616.402 -56.1489 617.496 -56.3562L617.497 -56.3564C618.591 -56.5657 619.674 -56.7354 620.747 -56.8668L620.686 -57.3631C621.963 -57.5196 623.225 -57.6225 624.471 -57.6737L624.491 -57.1742C626.727 -57.2662 628.911 -57.1904 631.039 -56.9593L631.093 -57.4564C632.364 -57.3184 633.616 -57.1257 634.847 -56.8808L634.75 -56.3904C636.917 -55.9593 639.022 -55.3646 641.058 -54.6205L641.23 -55.0901C642.421 -54.6547 643.59 -54.1688 644.735 -53.6352L644.524 -53.182C646.507 -52.2574 648.419 -51.1876 650.253 -49.9872L650.527 -50.4056C651.584 -49.7143 652.615 -48.9803 653.62 -48.2063L653.315 -47.8102C655.041 -46.4808 656.689 -45.032 658.254 -43.4779L658.607 -43.8327C659.502 -42.9445 660.369 -42.0224 661.209 -41.0692L660.834 -40.7386C662.274 -39.1041 663.633 -37.3765 664.904 -35.5693L665.313 -35.857C666.039 -34.8257 666.736 -33.7688 667.405 -32.6889L666.98 -32.4257C668.13 -30.5692 669.193 -28.6437 670.167 -26.662L670.615 -26.8825C671.172 -25.7494 671.699 -24.5982 672.196 -23.4312L671.736 -23.2353C672.595 -21.2202 673.363 -19.1577 674.037 -17.0601L674.513 -17.213C674.899 -16.0094 675.255 -14.7943 675.579 -13.5702L675.096 -13.4422C675.377 -12.3803 675.634 -11.3116 675.867 -10.2374C676.105 -9.13926 676.324 -7.98014 676.523 -6.76602L677.016 -6.84689C677.228 -5.5554 677.417 -4.20339 677.582 -2.79814L677.086 -2.73957C677.35 -0.499427 677.555 1.87818 677.696 4.36352L678.195 4.33512C678.271 5.67073 678.329 7.03696 678.368 8.4292L677.868 8.44322C677.933 10.7541 677.946 13.1374 677.905 15.5719L678.405 15.5804C678.382 16.9298 678.342 18.2947 678.286 19.6717L677.786 19.6512C677.69 21.9948 677.544 24.3735 677.347 26.7693L677.845 26.8103C677.734 28.1639 677.606 29.5231 677.461 30.8844L676.964 30.8316C676.713 33.1894 676.412 35.5538 676.059 37.9083L676.553 37.9825C676.351 39.3329 676.131 40.6802 675.893 42.0211L675.401 41.9339C674.984 44.2887 674.513 46.6235 673.985 48.9213L674.473 49.0331C674.166 50.3709 673.84 51.6965 673.494 53.0064L673.011 52.8789C672.396 55.2101 671.72 57.4905 670.98 59.7013L671.455 59.8599C671.017 61.1696 670.556 62.4554 670.073 63.7134L669.606 63.5341C668.734 65.8056 667.788 67.9839 666.766 70.0463L667.214 70.2683C666.596 71.514 665.951 72.7184 665.277 73.8765L664.845 73.6251C663.613 75.7435 662.286 77.7018 660.863 79.4699L661.252 79.7834C660.38 80.867 659.47 81.8812 658.523 82.8191L658.172 82.4639C656.449 84.1701 654.604 85.615 652.634 86.7587L652.885 87.1911C651.7 87.8789 650.468 88.461 649.19 88.9285L649.018 88.4589C647.93 88.8565 646.808 89.1692 645.65 89.3913C644.543 89.601 643.429 89.7166 642.308 89.7433L642.32 90.2432Z" stroke="#C74343" stroke-dasharray="6.96 3.98"/>
<path opacity="0.81" d="M616.683 15.6291L616.683 15.6292C617.817 15.7779 618.941 15.9615 620.056 16.1792L620.152 15.6884C621.446 15.9409 622.726 16.2387 623.993 16.5803L623.863 17.0631C626.066 17.6572 628.226 18.3854 630.338 19.24L630.526 18.7765C631.743 19.2692 632.944 19.8035 634.128 20.378L633.91 20.8278C635.954 21.8198 637.946 22.9328 639.879 24.1592L640.147 23.737C641.254 24.4393 642.342 25.1784 643.409 25.9529L643.115 26.3576C644.95 27.6889 646.724 29.126 648.431 30.6618L648.765 30.2901C649.739 31.1659 650.691 32.0735 651.62 33.0116L651.264 33.3635C652.859 34.973 654.385 36.673 655.838 38.4568L656.226 38.141C657.052 39.1552 657.855 40.1963 658.633 41.2629L658.229 41.5575C659.563 43.3876 660.825 45.2937 662.008 47.2697L662.437 47.0129C663.109 48.136 663.756 49.2815 664.377 50.4481L663.935 50.683C664.999 52.6823 665.986 54.7444 666.889 56.8636L667.349 56.6675C667.862 57.8703 668.349 59.0914 668.808 60.3296L668.339 60.5034C669.126 62.6272 669.833 64.8019 670.453 67.0222L670.935 66.8876C671.287 68.1474 671.612 69.4217 671.908 70.7096L671.421 70.8218C671.929 73.0288 672.353 75.276 672.689 77.5586L673.184 77.4857C673.375 78.7798 673.538 80.0852 673.671 81.4009L673.174 81.4515C673.289 82.5828 673.383 83.7219 673.454 84.8681C673.523 86.02 673.57 87.1421 673.596 88.2352L674.096 88.2234C674.127 89.5613 674.127 90.8567 674.096 92.1109L673.596 92.0986C673.538 94.481 673.367 96.7111 673.091 98.7995L673.587 98.8651C673.412 100.189 673.195 101.457 672.936 102.673L672.447 102.569C671.953 104.894 671.309 107.019 670.525 108.962L670.989 109.149C670.49 110.386 669.936 111.552 669.327 112.652L668.889 112.41C667.775 114.423 666.478 116.209 665.014 117.797L665.382 118.136C664.502 119.09 663.563 119.974 662.568 120.794L662.25 120.408C660.559 121.802 658.699 123.01 656.686 124.061L656.917 124.504C655.79 125.092 654.617 125.631 653.401 126.126L653.213 125.663C651.209 126.478 649.083 127.175 646.846 127.774L646.975 128.257C645.75 128.586 644.493 128.885 643.207 129.159L643.103 128.67C640.97 129.124 638.754 129.509 636.462 129.841L636.534 130.336C635.275 130.519 633.995 130.685 632.695 130.839L632.636 130.343C631.53 130.474 630.408 130.595 629.272 130.709C628.204 130.816 627.073 130.882 625.884 130.905L625.894 131.405C624.637 131.43 623.319 131.409 621.947 131.343L621.971 130.844C619.817 130.741 617.527 130.526 615.13 130.206L615.064 130.701C613.788 130.531 612.483 130.33 611.153 130.1L611.239 129.607C609.053 129.23 606.799 128.773 604.497 128.24L604.384 128.727C603.118 128.434 601.838 128.118 600.547 127.78L600.673 127.296C598.493 126.725 596.28 126.09 594.051 125.394L593.902 125.872C592.654 125.482 591.4 125.073 590.144 124.645L590.305 124.172C588.15 123.438 585.988 122.649 583.833 121.808L583.651 122.274C582.427 121.796 581.206 121.301 579.989 120.789L580.183 120.329C578.068 119.439 575.968 118.5 573.896 117.514L573.681 117.965C572.49 117.397 571.307 116.814 570.137 116.215L570.365 115.77C568.31 114.719 566.292 113.621 564.326 112.477L564.074 112.91C562.929 112.244 561.8 111.562 560.691 110.866L560.957 110.443C558.986 109.205 557.079 107.921 555.252 106.594L554.958 106.998C553.881 106.216 552.832 105.418 551.813 104.606L552.124 104.215C550.294 102.756 548.565 101.251 546.953 99.7022L546.607 100.063C545.643 99.1366 544.721 98.1947 543.844 97.2377L544.213 96.8999C542.627 95.1689 541.193 93.3904 539.934 91.5687L539.523 91.853C538.762 90.7522 538.064 89.6349 537.433 88.502L537.87 88.2588C536.739 86.2271 535.83 84.1484 535.171 82.0275L534.693 82.1759C534.301 80.912 533.995 79.6321 533.782 78.3373L534.275 78.2562C534.092 77.1425 533.979 76.018 533.94 74.8833C533.9 73.704 533.926 72.5301 534.015 71.3627L533.517 71.3247C533.62 69.9654 533.808 68.6152 534.075 67.2759L534.566 67.3737C535.021 65.0922 535.709 62.8407 536.607 60.6283L536.143 60.4404C536.651 59.1882 537.225 57.9494 537.86 56.7255L538.304 56.9557C539.37 54.9003 540.612 52.8854 542.007 50.9196L541.6 50.6301C542.38 49.5308 543.208 48.4472 544.08 47.3809L544.467 47.6973C545.939 45.8956 547.538 44.1423 549.244 42.4445L548.892 42.09C549.85 41.1361 550.843 40.1999 551.865 39.2827L552.199 39.6549C553.944 38.0889 555.779 36.5779 557.686 35.1281L557.384 34.73C558.465 33.9084 559.569 33.1064 560.693 32.3253L560.978 32.7358C562.918 31.3876 564.919 30.1014 566.964 28.883L566.708 28.4534C567.88 27.7558 569.065 27.0804 570.263 26.4283L570.502 26.8674C572.592 25.7293 574.718 24.6624 576.864 23.6724L576.654 23.2184C577.898 22.6448 579.148 22.0969 580.402 21.5757L580.594 22.0374C582.808 21.1173 585.034 20.2811 587.256 19.535L587.096 19.061C588.401 18.6228 589.705 18.2154 591.003 17.84L591.142 18.3204C593.467 17.6485 595.775 17.0803 598.048 16.6227L597.949 16.1325C599.308 15.8589 600.655 15.6245 601.985 15.4308L602.057 15.9256C604.478 15.5731 606.842 15.3567 609.125 15.2848L609.109 14.7851C610.502 14.7413 611.866 14.7508 613.195 14.8156L613.171 15.315C614.372 15.3736 615.544 15.4778 616.683 15.6291Z" stroke="#676766" stroke-dasharray="6.96 3.98"/>
<path opacity="0.73" d="M621.255 -37.6835L621.255 -37.6833C622.256 -37.1668 623.207 -36.6127 624.111 -36.0234L624.384 -36.4422C625.472 -35.7325 626.492 -34.9718 627.448 -34.1638L627.125 -33.782C628.832 -32.3383 630.328 -30.7409 631.626 -29.0103L632.026 -29.3103C632.791 -28.2901 633.489 -27.2244 634.122 -26.1174L633.688 -25.8693C634.765 -23.9848 635.653 -21.9763 636.364 -19.8638L636.838 -20.0234C637.241 -18.8282 637.587 -17.6012 637.88 -16.3459L637.393 -16.2324C637.882 -14.1335 638.22 -11.9523 638.418 -9.70611L638.916 -9.75003C639.027 -8.49576 639.094 -7.22226 639.12 -5.93257L638.62 -5.92255C638.664 -3.75378 638.589 -1.53719 638.406 0.712607L638.904 0.753153C638.802 2.01223 638.666 3.28112 638.498 4.55727L638.002 4.49192C637.717 6.65618 637.338 8.84244 636.875 11.0381L637.364 11.1413C637.103 12.381 636.815 13.6234 636.501 14.8662L636.016 14.7439C635.477 16.8794 634.863 19.0168 634.181 21.1445L634.657 21.2972C634.269 22.508 633.859 23.7156 633.428 24.9179L632.958 24.7493C632.21 26.8366 631.401 28.908 630.537 30.9522L630.997 31.1468C630.5 32.3229 629.985 33.49 629.453 34.6459L628.999 34.4369C628.066 36.4652 627.081 38.4591 626.053 40.4073L626.495 40.6408C625.896 41.7753 625.282 42.8943 624.655 43.9957L624.221 43.7483C623.107 45.7053 621.95 47.606 620.76 49.4378L621.179 49.7102C620.477 50.7907 619.763 51.8474 619.039 52.8779L618.63 52.5904C617.324 54.4493 615.986 56.2214 614.625 57.8914L615.012 58.2073C614.192 59.2138 613.363 60.1839 612.529 61.1141L612.157 60.7801C610.614 62.4989 609.052 64.079 607.485 65.4998L607.821 65.8702C606.85 66.7504 605.876 67.5707 604.903 68.3263L604.597 67.9313C603.7 68.6272 602.805 69.2666 601.915 69.8457C600.917 70.4945 599.929 71.1197 598.951 71.7211L599.213 72.1471C598.046 72.8637 596.893 73.5469 595.751 74.1962L595.504 73.7617C593.401 74.9582 591.34 76.0386 589.315 77.0006L589.53 77.4522C588.293 78.04 587.069 78.5842 585.857 79.0842L585.667 78.622C583.434 79.5431 581.245 80.3124 579.092 80.9273L579.229 81.4081C577.916 81.7828 576.616 82.101 575.326 82.3618L575.227 81.8717C572.898 82.3426 570.606 82.6241 568.34 82.7126L568.36 83.2123C567.014 83.2649 565.676 83.2501 564.344 83.1672L564.375 82.6682C562.077 82.525 559.798 82.1758 557.528 81.6157L557.408 82.1011C556.123 81.7843 554.842 81.4008 553.561 80.9499L553.727 80.4783C551.61 79.7331 549.494 78.8007 547.369 77.6765L547.135 78.1184C545.979 77.5066 544.82 76.8389 543.659 76.1146L543.923 75.6903C542.032 74.5108 540.129 73.1788 538.21 71.6913L537.904 72.0865C536.87 71.2849 535.831 70.4389 534.787 69.5479L535.112 69.1676C534.242 68.4249 533.368 67.6505 532.489 66.8443C531.581 66.0101 530.7 65.1573 529.847 64.2875L529.49 64.6377C528.495 63.6242 527.537 62.5877 526.617 61.5308L526.994 61.2024C525.366 59.3337 523.856 57.4006 522.466 55.4171L522.057 55.704C521.242 54.5416 520.469 53.3619 519.736 52.1677L520.162 51.9063C518.866 49.7928 517.701 47.6339 516.669 45.4452L516.217 45.6585C515.611 44.3732 515.05 43.0777 514.536 41.775L515.001 41.5915C514.09 39.2843 513.326 36.955 512.71 34.621L512.227 34.7485C511.864 33.3729 511.553 31.9954 511.294 30.6197L511.785 30.5271C511.325 28.0886 511.031 25.6564 510.904 23.2507L510.405 23.277C510.33 21.8564 510.313 20.4445 510.355 19.0454L510.855 19.0604C510.93 16.5868 511.19 14.155 511.639 11.7876L511.148 11.6943C511.413 10.3002 511.743 8.92771 512.138 7.58134L512.618 7.72227C513.309 5.37011 514.203 3.10006 515.304 0.936525L514.858 0.70977C515.497 -0.545902 516.205 -1.76653 516.983 -2.94741L517.4 -2.67238C518.067 -3.68494 518.786 -4.6678 519.558 -5.61795C520.272 -6.49774 521.057 -7.40535 521.909 -8.33457L521.54 -8.67238C522.44 -9.65446 523.413 -10.6593 524.453 -11.6799L524.803 -11.3229C526.427 -12.9156 528.217 -14.5478 530.155 -16.1916L529.832 -16.5729C530.867 -17.4512 531.945 -18.3326 533.061 -19.2129L533.37 -18.8203C535.212 -20.2731 537.16 -21.7232 539.201 -23.1515L538.914 -23.5612C540.039 -24.3483 541.191 -25.1287 542.37 -25.8994L542.643 -25.481C544.634 -26.7826 546.698 -28.0563 548.825 -29.2866L548.575 -29.7195C549.768 -30.4099 550.982 -31.0867 552.213 -31.7473L552.45 -31.3067C554.564 -32.4412 556.732 -33.5275 558.943 -34.5519L558.732 -35.0055C559.989 -35.5879 561.26 -36.1505 562.543 -36.6907L562.737 -36.2298C564.962 -37.1664 567.223 -38.0353 569.511 -38.8235L569.348 -39.2962C570.662 -39.7488 571.985 -40.175 573.315 -40.5722L573.458 -40.0932C575.779 -40.7863 578.122 -41.3908 580.477 -41.8938L580.372 -42.3828C581.734 -42.6735 583.099 -42.9305 584.468 -43.1514L584.547 -42.6578C586.94 -43.044 589.34 -43.3187 591.738 -43.4684L591.707 -43.9674C593.096 -44.0542 594.485 -44.0993 595.872 -44.1003L595.872 -43.6003C598.288 -43.6019 600.695 -43.4682 603.085 -43.1854L603.143 -43.682C604.522 -43.5189 605.895 -43.3066 607.26 -43.0424L607.165 -42.5515C609.517 -42.0967 611.845 -41.4868 614.141 -40.7084L614.302 -41.1819C615.609 -40.7389 616.905 -40.2417 618.19 -39.6879L617.992 -39.2288C619.089 -38.7559 620.177 -38.2413 621.255 -37.6835Z" stroke="#6F8467" stroke-dasharray="6.96 3.98"/>
</g>
<defs>
<clipPath id="clip0">
<rect width="667" height="52" fill="white"/>
</clipPath>
</defs>
</svg>
