<svg width="324" height="52" viewBox="0 0 324 52" fill="none" xmlns="http://www.w3.org/2000/svg">
<g clip-path="url(#clip0)">
<path opacity="0.75" d="M325.32 96.2432C324.019 96.2741 322.71 96.188 321.396 95.9927L321.47 95.4982C319.317 95.1781 317.144 94.5579 314.964 93.6705L314.775 94.1337C313.585 93.6492 312.394 93.0871 311.205 92.4531L311.44 92.0119C309.513 90.9847 307.588 89.7649 305.672 88.3765L305.379 88.7813C304.336 88.0261 303.298 87.2221 302.265 86.3733L302.582 85.987C300.869 84.5799 299.169 83.0478 297.488 81.4089L297.139 81.7669C296.211 80.8619 295.289 79.925 294.375 78.9591L294.738 78.6153C293.196 76.9871 291.675 75.2757 290.178 73.4959L289.795 73.8177C288.956 72.8198 288.126 71.8008 287.304 70.7632L287.696 70.4527C286.287 68.6749 284.905 66.8419 283.554 64.9671L283.148 65.2594C282.382 64.197 281.626 63.1213 280.881 62.0347L281.294 61.7519C280.001 59.867 278.74 57.9491 277.516 56.0108L277.094 56.2777C276.391 55.1653 275.701 54.0461 275.023 52.9227L275.451 52.6645C274.261 50.6914 273.111 48.705 272.004 46.7182L271.567 46.9615C270.925 45.8075 270.297 44.6534 269.684 43.5017L270.126 43.2671C269.033 41.2105 267.99 39.1618 267.002 37.1352L266.552 37.3543C265.969 36.1584 265.405 34.9701 264.861 33.7925L265.315 33.5828C264.327 31.4421 263.405 29.337 262.556 27.2852L262.094 27.4764C261.58 26.235 261.093 25.0129 260.633 23.8139L261.1 23.635C260.237 21.3845 259.474 19.2175 258.817 17.1599L258.341 17.3118C257.925 16.0094 257.553 14.7499 257.225 13.5401L257.707 13.4092C257.396 12.2599 257.125 11.157 256.897 10.1059C256.662 9.01975 256.466 7.93467 256.308 6.85192L255.813 6.92398C255.629 5.65477 255.496 4.38859 255.414 3.1274L255.913 3.09493C255.768 0.875146 255.783 -1.32893 255.948 -3.50636L255.449 -3.54415C255.546 -4.81775 255.693 -6.08233 255.89 -7.33575L256.384 -7.25809C256.727 -9.44122 257.222 -11.5903 257.861 -13.6938L257.382 -13.839C257.752 -15.0573 258.169 -16.2604 258.633 -17.446L259.099 -17.264C259.899 -19.3129 260.839 -21.3095 261.909 -23.2421L261.472 -23.4843C262.088 -24.5957 262.746 -25.686 263.445 -26.7532L263.863 -26.4791C265.066 -28.3137 266.391 -30.0793 267.832 -31.7645L267.451 -32.0893C268.276 -33.0536 269.137 -33.9916 270.034 -34.9015L270.39 -34.5505C271.927 -36.1095 273.57 -37.585 275.312 -38.9666L275.001 -39.3583C275.993 -40.1456 277.018 -40.9025 278.072 -41.6272L278.355 -41.2152C280.156 -42.4529 282.045 -43.5959 284.017 -44.6342L283.784 -45.0766C284.904 -45.6663 286.05 -46.2224 287.221 -46.7434L287.424 -46.2865C289.416 -47.1725 291.48 -47.9558 293.611 -48.6275L293.461 -49.1044C294.666 -49.4842 295.892 -49.8287 297.139 -50.1362L297.258 -49.6507C298.323 -49.9134 299.402 -50.1489 300.496 -50.3562L300.497 -50.3564C301.591 -50.5657 302.674 -50.7354 303.747 -50.8668L303.686 -51.3631C304.963 -51.5196 306.225 -51.6225 307.471 -51.6737L307.491 -51.1742C309.727 -51.2662 311.911 -51.1904 314.039 -50.9593L314.093 -51.4564C315.364 -51.3184 316.616 -51.1257 317.847 -50.8808L317.75 -50.3904C319.917 -49.9593 322.022 -49.3646 324.058 -48.6205L324.23 -49.0901C325.421 -48.6547 326.59 -48.1688 327.735 -47.6352L327.524 -47.182C329.507 -46.2574 331.419 -45.1876 333.253 -43.9872L333.527 -44.4056C334.584 -43.7143 335.615 -42.9803 336.62 -42.2063L336.315 -41.8102C338.041 -40.4808 339.689 -39.032 341.254 -37.4779L341.607 -37.8327C342.502 -36.9445 343.369 -36.0224 344.209 -35.0692L343.834 -34.7386C345.274 -33.1041 346.633 -31.3765 347.904 -29.5693L348.313 -29.857C349.039 -28.8257 349.736 -27.7688 350.405 -26.6889L349.98 -26.4257C351.13 -24.5692 352.193 -22.6437 353.167 -20.662L353.615 -20.8825C354.172 -19.7494 354.699 -18.5982 355.196 -17.4312L354.736 -17.2353C355.595 -15.2202 356.363 -13.1577 357.037 -11.0601L357.513 -11.213C357.899 -10.0094 358.255 -8.79433 358.579 -7.57017L358.096 -7.4422C358.377 -6.38033 358.634 -5.31156 358.867 -4.23742C359.105 -3.13926 359.324 -1.98014 359.523 -0.766023L360.016 -0.846892C360.228 0.444603 360.417 1.79661 360.582 3.20186L360.086 3.26043C360.35 5.50057 360.555 7.87818 360.696 10.3635L361.195 10.3351C361.271 11.6707 361.329 13.037 361.368 14.4292L360.868 14.4432C360.933 16.7541 360.946 19.1374 360.905 21.5719L361.405 21.5804C361.382 22.9298 361.342 24.2947 361.286 25.6717L360.786 25.6512C360.69 27.9948 360.544 30.3735 360.347 32.7693L360.845 32.8103C360.734 34.1639 360.606 35.5231 360.461 36.8844L359.964 36.8316C359.713 39.1894 359.412 41.5538 359.059 43.9083L359.553 43.9825C359.351 45.3329 359.131 46.6802 358.893 48.0211L358.401 47.9339C357.984 50.2887 357.513 52.6235 356.985 54.9213L357.473 55.0331C357.166 56.3709 356.84 57.6965 356.494 59.0064L356.011 58.8789C355.396 61.2101 354.72 63.4905 353.98 65.7013L354.455 65.8599C354.017 67.1696 353.556 68.4554 353.073 69.7134L352.606 69.5341C351.734 71.8056 350.788 73.9839 349.766 76.0463L350.214 76.2683C349.596 77.514 348.951 78.7184 348.277 79.8765L347.845 79.6251C346.613 81.7435 345.286 83.7018 343.863 85.4699L344.252 85.7834C343.38 86.867 342.47 87.8812 341.523 88.8191L341.172 88.4639C339.449 90.1701 337.604 91.615 335.634 92.7587L335.885 93.1911C334.7 93.8789 333.468 94.461 332.19 94.9285L332.018 94.4589C330.93 94.8565 329.808 95.1692 328.65 95.3913C327.543 95.601 326.429 95.7166 325.308 95.7433L325.32 96.2432Z" stroke="#C74343" stroke-dasharray="6.96 3.98"/>
<path opacity="0.81" d="M299.683 21.6291L299.683 21.6292C300.817 21.7779 301.941 21.9615 303.056 22.1792L303.152 21.6884C304.446 21.9409 305.726 22.2387 306.993 22.5803L306.863 23.0631C309.066 23.6572 311.226 24.3854 313.338 25.24L313.526 24.7765C314.743 25.2692 315.944 25.8035 317.128 26.378L316.91 26.8278C318.954 27.8198 320.946 28.9328 322.879 30.1592L323.147 29.737C324.254 30.4393 325.342 31.1784 326.409 31.9529L326.115 32.3576C327.95 33.6889 329.724 35.126 331.431 36.6618L331.765 36.2901C332.739 37.1659 333.691 38.0735 334.62 39.0116L334.264 39.3635C335.859 40.973 337.385 42.673 338.838 44.4568L339.226 44.141C340.052 45.1552 340.855 46.1963 341.633 47.2629L341.229 47.5575C342.563 49.3876 343.825 51.2937 345.008 53.2697L345.437 53.0129C346.109 54.136 346.756 55.2815 347.377 56.4481L346.935 56.683C347.999 58.6823 348.986 60.7444 349.889 62.8636L350.349 62.6675C350.862 63.8703 351.349 65.0914 351.808 66.3296L351.339 66.5034C352.126 68.6272 352.833 70.8019 353.453 73.0222L353.935 72.8876C354.287 74.1474 354.612 75.4217 354.908 76.7096L354.421 76.8218C354.929 79.0288 355.353 81.276 355.689 83.5586L356.184 83.4857C356.375 84.7798 356.538 86.0852 356.671 87.4009L356.174 87.4515C356.289 88.5828 356.383 89.7219 356.454 90.8681C356.523 92.02 356.57 93.1421 356.596 94.2352L357.096 94.2234C357.127 95.5613 357.127 96.8567 357.096 98.1109L356.596 98.0986C356.538 100.481 356.367 102.711 356.091 104.8L356.587 104.865C356.412 106.189 356.195 107.457 355.936 108.673L355.447 108.569C354.953 110.894 354.309 113.019 353.525 114.962L353.989 115.149C353.49 116.386 352.936 117.552 352.327 118.652L351.889 118.41C350.775 120.423 349.478 122.209 348.014 123.797L348.382 124.136C347.502 125.09 346.563 125.974 345.568 126.794L345.25 126.408C343.559 127.802 341.699 129.01 339.686 130.061L339.917 130.504C338.79 131.092 337.617 131.631 336.401 132.126L336.213 131.663C334.209 132.478 332.083 133.175 329.846 133.774L329.975 134.257C328.75 134.586 327.493 134.885 326.207 135.159L326.103 134.67C323.97 135.124 321.754 135.509 319.462 135.841L319.534 136.336C318.275 136.519 316.995 136.685 315.695 136.839L315.636 136.343C314.53 136.474 313.408 136.595 312.272 136.709C311.204 136.816 310.073 136.882 308.884 136.905L308.894 137.405C307.637 137.43 306.319 137.409 304.947 137.343L304.971 136.844C302.817 136.741 300.527 136.526 298.13 136.206L298.064 136.701C296.788 136.531 295.483 136.33 294.153 136.1L294.239 135.607C292.053 135.23 289.799 134.773 287.497 134.24L287.384 134.727C286.118 134.434 284.838 134.118 283.547 133.78L283.673 133.296C281.493 132.725 279.28 132.09 277.051 131.394L276.902 131.872C275.654 131.482 274.4 131.073 273.144 130.645L273.305 130.172C271.15 129.438 268.988 128.649 266.833 127.808L266.651 128.274C265.427 127.796 264.206 127.301 262.989 126.789L263.183 126.329C261.068 125.439 258.968 124.5 256.896 123.514L256.681 123.965C255.49 123.397 254.307 122.814 253.137 122.215L253.365 121.77C251.31 120.719 249.292 119.621 247.326 118.477L247.074 118.91C245.929 118.244 244.8 117.562 243.691 116.866L243.957 116.443C241.986 115.205 240.079 113.921 238.252 112.594L237.958 112.998C236.881 112.216 235.832 111.418 234.813 110.606L235.124 110.215C233.294 108.756 231.565 107.251 229.953 105.702L229.607 106.063C228.643 105.137 227.721 104.195 226.844 103.238L227.213 102.9C225.627 101.169 224.193 99.3904 222.934 97.5687L222.523 97.853C221.762 96.7522 221.064 95.6349 220.433 94.502L220.87 94.2588C219.739 92.2271 218.83 90.1484 218.171 88.0275L217.693 88.1759C217.301 86.912 216.995 85.6321 216.782 84.3373L217.275 84.2562C217.092 83.1425 216.979 82.018 216.94 80.8833C216.9 79.704 216.926 78.5301 217.015 77.3627L216.517 77.3247C216.62 75.9654 216.808 74.6152 217.075 73.2759L217.566 73.3737C218.021 71.0922 218.709 68.8407 219.607 66.6283L219.143 66.4404C219.651 65.1882 220.225 63.9494 220.86 62.7255L221.304 62.9557C222.37 60.9003 223.612 58.8854 225.007 56.9196L224.6 56.6301C225.38 55.5308 226.208 54.4472 227.08 53.3809L227.467 53.6973C228.939 51.8956 230.538 50.1423 232.244 48.4445L231.892 48.09C232.85 47.1361 233.843 46.1999 234.865 45.2827L235.199 45.6549C236.944 44.0889 238.779 42.5779 240.686 41.1281L240.384 40.73C241.465 39.9084 242.569 39.1064 243.693 38.3253L243.978 38.7358C245.918 37.3876 247.919 36.1014 249.964 34.883L249.708 34.4534C250.88 33.7558 252.065 33.0804 253.263 32.4283L253.502 32.8674C255.592 31.7293 257.718 30.6624 259.864 29.6724L259.654 29.2184C260.898 28.6448 262.148 28.0969 263.402 27.5757L263.594 28.0374C265.808 27.1173 268.034 26.2811 270.256 25.535L270.096 25.061C271.401 24.6228 272.705 24.2154 274.003 23.84L274.142 24.3204C276.467 23.6485 278.775 23.0803 281.048 22.6227L280.949 22.1325C282.308 21.8589 283.655 21.6245 284.985 21.4308L285.057 21.9256C287.478 21.5731 289.842 21.3567 292.125 21.2848L292.109 20.7851C293.502 20.7413 294.866 20.7508 296.195 20.8156L296.171 21.315C297.372 21.3736 298.544 21.4778 299.683 21.6291Z" stroke="#676766" stroke-dasharray="6.96 3.98"/>
<path opacity="0.73" d="M304.255 -31.6835L304.255 -31.6833C305.256 -31.1668 306.207 -30.6127 307.111 -30.0234L307.384 -30.4422C308.472 -29.7325 309.492 -28.9718 310.448 -28.1638L310.125 -27.782C311.832 -26.3383 313.328 -24.7409 314.626 -23.0103L315.026 -23.3103C315.791 -22.2901 316.489 -21.2244 317.122 -20.1174L316.688 -19.8693C317.765 -17.9848 318.653 -15.9763 319.364 -13.8638L319.838 -14.0234C320.241 -12.8282 320.587 -11.6012 320.88 -10.3459L320.393 -10.2324C320.882 -8.13346 321.22 -5.95225 321.418 -3.70611L321.916 -3.75003C322.027 -2.49576 322.094 -1.22226 322.12 0.0674253L321.62 0.0774471C321.664 2.24622 321.589 4.46281 321.406 6.71261L321.904 6.75315C321.802 8.01223 321.666 9.28112 321.498 10.5573L321.002 10.4919C320.717 12.6562 320.338 14.8424 319.875 17.0381L320.364 17.1413C320.103 18.381 319.815 19.6234 319.501 20.8662L319.016 20.7439C318.477 22.8794 317.863 25.0168 317.181 27.1445L317.657 27.2972C317.269 28.508 316.859 29.7156 316.428 30.9179L315.958 30.7493C315.21 32.8366 314.401 34.908 313.537 36.9522L313.997 37.1468C313.5 38.3229 312.985 39.49 312.453 40.6459L311.999 40.4369C311.066 42.4652 310.081 44.4591 309.053 46.4073L309.495 46.6408C308.896 47.7753 308.282 48.8943 307.655 49.9957L307.221 49.7483C306.107 51.7053 304.95 53.606 303.76 55.4378L304.179 55.7102C303.477 56.7907 302.763 57.8474 302.039 58.8779L301.63 58.5904C300.324 60.4493 298.986 62.2214 297.625 63.8914L298.012 64.2073C297.192 65.2138 296.363 66.1839 295.529 67.1141L295.157 66.7801C293.614 68.4989 292.052 70.079 290.485 71.4998L290.821 71.8702C289.85 72.7504 288.876 73.5707 287.903 74.3263L287.597 73.9313C286.7 74.6272 285.805 75.2666 284.915 75.8457C283.917 76.4945 282.929 77.1197 281.951 77.7211L282.213 78.1471C281.046 78.8637 279.893 79.5469 278.751 80.1962L278.504 79.7617C276.401 80.9582 274.34 82.0386 272.315 83.0006L272.53 83.4522C271.293 84.04 270.069 84.5842 268.857 85.0842L268.667 84.622C266.434 85.5431 264.245 86.3124 262.092 86.9273L262.229 87.4081C260.916 87.7828 259.616 88.101 258.326 88.3618L258.227 87.8717C255.898 88.3426 253.606 88.6241 251.34 88.7126L251.36 89.2123C250.014 89.2649 248.676 89.2501 247.344 89.1672L247.375 88.6682C245.077 88.525 242.798 88.1758 240.528 87.6157L240.408 88.1011C239.123 87.7843 237.842 87.4008 236.561 86.9499L236.727 86.4783C234.61 85.7331 232.494 84.8007 230.369 83.6765L230.135 84.1184C228.979 83.5066 227.82 82.8389 226.659 82.1146L226.923 81.6903C225.032 80.5108 223.129 79.1788 221.21 77.6913L220.904 78.0865C219.87 77.2849 218.831 76.4389 217.787 75.5479L218.112 75.1676C217.242 74.4249 216.368 73.6505 215.489 72.8443C214.581 72.0101 213.7 71.1573 212.847 70.2875L212.49 70.6377C211.495 69.6242 210.537 68.5877 209.617 67.5308L209.994 67.2024C208.366 65.3337 206.856 63.4006 205.466 61.4171L205.057 61.704C204.242 60.5416 203.469 59.3619 202.736 58.1677L203.162 57.9063C201.866 55.7928 200.701 53.6339 199.669 51.4452L199.217 51.6585C198.611 50.3732 198.05 49.0777 197.536 47.775L198.001 47.5915C197.09 45.2843 196.326 42.955 195.71 40.621L195.227 40.7485C194.864 39.3729 194.553 37.9954 194.294 36.6197L194.785 36.5271C194.325 34.0886 194.031 31.6564 193.904 29.2507L193.405 29.277C193.33 27.8564 193.313 26.4445 193.355 25.0454L193.855 25.0604C193.93 22.5868 194.19 20.155 194.639 17.7876L194.148 17.6943C194.413 16.3002 194.743 14.9277 195.138 13.5813L195.618 13.7223C196.309 11.3701 197.203 9.10006 198.304 6.93653L197.858 6.70977C198.497 5.4541 199.205 4.23347 199.983 3.05259L200.4 3.32762C201.067 2.31506 201.786 1.3322 202.558 0.382052C203.272 -0.497742 204.057 -1.40535 204.909 -2.33457L204.54 -2.67238C205.44 -3.65446 206.413 -4.65935 207.453 -5.67988L207.803 -5.32294C209.427 -6.91563 211.217 -8.54776 213.155 -10.1916L212.832 -10.5729C213.867 -11.4512 214.945 -12.3326 216.061 -13.2129L216.37 -12.8203C218.212 -14.2731 220.16 -15.7232 222.201 -17.1515L221.914 -17.5612C223.039 -18.3483 224.191 -19.1287 225.37 -19.8994L225.643 -19.481C227.634 -20.7826 229.698 -22.0563 231.825 -23.2866L231.575 -23.7195C232.768 -24.4099 233.982 -25.0867 235.213 -25.7473L235.45 -25.3067C237.564 -26.4412 239.732 -27.5275 241.943 -28.5519L241.732 -29.0055C242.989 -29.5879 244.26 -30.1505 245.543 -30.6907L245.737 -30.2298C247.962 -31.1664 250.223 -32.0353 252.511 -32.8235L252.348 -33.2962C253.662 -33.7488 254.985 -34.175 256.315 -34.5722L256.458 -34.0932C258.779 -34.7863 261.122 -35.3908 263.477 -35.8938L263.372 -36.3828C264.734 -36.6735 266.099 -36.9305 267.468 -37.1514L267.547 -36.6578C269.94 -37.044 272.34 -37.3187 274.738 -37.4684L274.707 -37.9674C276.096 -38.0542 277.485 -38.0993 278.872 -38.1003L278.872 -37.6003C281.288 -37.6019 283.695 -37.4682 286.085 -37.1854L286.143 -37.682C287.522 -37.5189 288.895 -37.3066 290.26 -37.0424L290.165 -36.5515C292.517 -36.0967 294.845 -35.4868 297.141 -34.7084L297.302 -35.1819C298.609 -34.7389 299.905 -34.2417 301.19 -33.6879L300.992 -33.2288C302.089 -32.7559 303.177 -32.2413 304.255 -31.6835Z" stroke="#6F8467" stroke-dasharray="6.96 3.98"/>
</g>
<defs>
<clipPath id="clip0">
<rect width="324" height="52" fill="white"/>
</clipPath>
</defs>
</svg>
