<svg width="667" height="52" viewBox="0 0 667 52" fill="none" xmlns="http://www.w3.org/2000/svg">
<g clip-path="url(#clip0)">
<g opacity="0.75">
<mask id="path-1-inside-1" fill="white">
<path fill-rule="evenodd" clip-rule="evenodd" d="M520.364 -46.7669C540.307 -67.2925 599.169 -98.7654 620.784 -76.7359C642.38 -54.633 609.402 10.3977 589.459 30.9234C569.516 51.449 535.852 50.1741 514.255 28.0712C492.613 5.99597 500.421 -26.2412 520.364 -46.7669Z"/>
</mask>
<path fill-rule="evenodd" clip-rule="evenodd" d="M520.364 -46.7669C540.307 -67.2925 599.169 -98.7654 620.784 -76.7359C642.38 -54.633 609.402 10.3977 589.459 30.9234C569.516 51.449 535.852 50.1741 514.255 28.0712C492.613 5.99597 500.421 -26.2412 520.364 -46.7669Z" stroke="#C74343" stroke-width="2" stroke-dasharray="6.96 3.98" mask="url(#path-1-inside-1)"/>
</g>
<g opacity="0.81">
<mask id="path-2-inside-2" fill="white">
<path fill-rule="evenodd" clip-rule="evenodd" d="M683.003 -69.597C700.467 -48.2864 717.031 21.5024 689.167 41.4241C661.303 61.3459 606.835 32.8584 593.283 5.11238C579.693 -22.5965 590.602 -59.0534 619.682 -81.1092C648.837 -103.088 665.539 -90.9076 683.003 -69.597Z"/>
</mask>
<path fill-rule="evenodd" clip-rule="evenodd" d="M683.003 -69.597C700.467 -48.2864 717.031 21.5024 689.167 41.4241C661.303 61.3459 606.835 32.8584 593.283 5.11238C579.693 -22.5965 590.602 -59.0534 619.682 -81.1092C648.837 -103.088 665.539 -90.9076 683.003 -69.597Z" stroke="#676766" stroke-width="2" stroke-dasharray="6.96 3.98" mask="url(#path-2-inside-2)"/>
</g>
<g opacity="0.73">
<mask id="path-3-inside-3" fill="white">
<path fill-rule="evenodd" clip-rule="evenodd" d="M650.392 105.875C625.771 101.835 573.425 75.0886 571.661 33.0305C569.86 -9.06597 646.658 -18.7576 675.338 -4.01479C704.018 10.728 714.34 27.9373 707.449 58.3012C700.56 88.5894 675.013 109.915 650.392 105.875Z"/>
</mask>
<path fill-rule="evenodd" clip-rule="evenodd" d="M650.392 105.875C625.771 101.835 573.425 75.0886 571.661 33.0305C569.86 -9.06597 646.658 -18.7576 675.338 -4.01479C704.018 10.728 714.34 27.9373 707.449 58.3012C700.56 88.5894 675.013 109.915 650.392 105.875Z" stroke="#6F8467" stroke-width="2" stroke-dasharray="6.96 3.98" mask="url(#path-3-inside-3)"/>
</g>
</g>
<defs>
<clipPath id="clip0">
<rect width="667" height="52" fill="white"/>
</clipPath>
</defs>
</svg>
