<svg width="324" height="52" viewBox="0 0 324 52" fill="none" xmlns="http://www.w3.org/2000/svg">
<g clip-path="url(#clip0)">
<g opacity="0.75">
<mask id="path-1-inside-1" fill="white">
<path fill-rule="evenodd" clip-rule="evenodd" d="M177.364 -32.7669C197.307 -53.2925 256.169 -84.7654 277.784 -62.7359C299.38 -40.633 266.402 24.3977 246.459 44.9234C226.516 65.449 192.852 64.1741 171.255 42.0712C149.613 19.996 157.421 -12.2412 177.364 -32.7669Z"/>
</mask>
<path fill-rule="evenodd" clip-rule="evenodd" d="M177.364 -32.7669C197.307 -53.2925 256.169 -84.7654 277.784 -62.7359C299.38 -40.633 266.402 24.3977 246.459 44.9234C226.516 65.449 192.852 64.1741 171.255 42.0712C149.613 19.996 157.421 -12.2412 177.364 -32.7669Z" stroke="#C74343" stroke-width="2" stroke-dasharray="6.96 3.98" mask="url(#path-1-inside-1)"/>
</g>
<g opacity="0.81">
<mask id="path-2-inside-2" fill="white">
<path fill-rule="evenodd" clip-rule="evenodd" d="M340.003 -55.597C357.467 -34.2864 374.031 35.5024 346.167 55.4241C318.303 75.3459 263.835 46.8584 250.283 19.1124C236.693 -8.59648 247.602 -45.0534 276.682 -67.1092C305.837 -89.0881 322.539 -76.9076 340.003 -55.597Z"/>
</mask>
<path fill-rule="evenodd" clip-rule="evenodd" d="M340.003 -55.597C357.467 -34.2864 374.031 35.5024 346.167 55.4241C318.303 75.3459 263.835 46.8584 250.283 19.1124C236.693 -8.59648 247.602 -45.0534 276.682 -67.1092C305.837 -89.0881 322.539 -76.9076 340.003 -55.597Z" stroke="#676766" stroke-width="2" stroke-dasharray="6.96 3.98" mask="url(#path-2-inside-2)"/>
</g>
<g opacity="0.73">
<mask id="path-3-inside-3" fill="white">
<path fill-rule="evenodd" clip-rule="evenodd" d="M307.392 119.875C282.771 115.835 230.425 89.0886 228.661 47.0305C226.86 4.93403 303.658 -4.75758 332.338 9.98521C361.018 24.728 371.34 41.9373 364.449 72.3012C357.56 102.589 332.013 123.915 307.392 119.875Z"/>
</mask>
<path fill-rule="evenodd" clip-rule="evenodd" d="M307.392 119.875C282.771 115.835 230.425 89.0886 228.661 47.0305C226.86 4.93403 303.658 -4.75758 332.338 9.98521C361.018 24.728 371.34 41.9373 364.449 72.3012C357.56 102.589 332.013 123.915 307.392 119.875Z" stroke="#6F8467" stroke-width="2" stroke-dasharray="6.96 3.98" mask="url(#path-3-inside-3)"/>
</g>
</g>
<defs>
<clipPath id="clip0">
<rect width="324" height="52" fill="white"/>
</clipPath>
</defs>
</svg>
