<svg width="324" height="52" viewBox="0 0 324 52" fill="none" xmlns="http://www.w3.org/2000/svg">
<g clip-path="url(#clip0)">
<path opacity="0.75" d="M229.615 98.7481C229.617 97.4465 229.737 96.1403 229.966 94.832L230.458 94.9182C230.833 92.774 231.509 90.618 232.452 88.4609L231.994 88.2607C232.508 87.083 233.101 85.907 233.765 84.7344L234.2 84.9809C235.276 83.0812 236.545 81.1874 237.982 79.3076L237.584 79.004C238.366 77.9815 239.196 76.964 240.071 75.9528L240.449 76.2799C241.9 74.6036 243.475 72.9433 245.156 71.3049L244.807 70.9468C245.736 70.0422 246.696 69.1446 247.685 68.255L248.019 68.6267C249.686 67.1271 251.436 65.6497 253.253 64.1993L252.941 63.8085C253.96 62.9953 255 62.1908 256.059 61.3957L256.359 61.7954C258.172 60.4331 260.04 59.0983 261.949 57.7952L261.667 57.3823C262.748 56.6439 263.843 55.9157 264.948 55.1985L265.221 55.6179C267.138 54.3738 269.087 53.1628 271.056 51.9887L270.8 51.5592C271.93 50.8854 273.067 50.2238 274.207 49.5751L274.454 50.0097C276.457 48.8704 278.472 47.771 280.487 46.7157L280.255 46.2728C281.425 45.6598 282.595 45.0616 283.762 44.4791L283.985 44.9264C286.069 43.8862 288.143 42.8959 290.195 41.96L289.987 41.5051C291.198 40.9528 292.4 40.4194 293.591 39.9059L293.789 40.365C295.954 39.4314 298.082 38.5637 300.155 37.7672L299.976 37.3005C301.23 36.8186 302.464 36.3627 303.674 35.934L303.841 36.4053C306.113 35.6006 308.299 34.8924 310.373 34.2888L310.233 33.8088C311.546 33.4267 312.814 33.0861 314.032 32.7891L314.15 33.2749C315.307 32.9928 316.417 32.7505 317.473 32.5498C318.565 32.3423 319.655 32.1741 320.741 32.0441L320.682 31.5476C321.955 31.3952 323.225 31.2949 324.488 31.2451L324.507 31.7447C326.73 31.6571 328.933 31.7277 331.105 31.9483L331.156 31.4509C332.427 31.5799 333.687 31.7598 334.935 31.9888L334.845 32.4806C337.018 32.8796 339.154 33.4293 341.241 34.1213L341.398 33.6468C342.607 34.0475 343.799 34.4955 344.972 34.9891L344.778 35.45C346.806 36.3029 348.778 37.2933 350.682 38.4127L350.936 37.9816C352.031 38.6254 353.104 39.3113 354.153 40.0377L353.868 40.4488C355.672 41.6977 357.403 43.0678 359.051 44.5508L359.385 44.1791C360.328 45.0277 361.244 45.9127 362.13 46.8327L361.77 47.1797C363.289 48.7561 364.723 50.4364 366.059 52.2127L366.459 51.912C367.22 52.9243 367.951 53.9673 368.648 55.0398L368.229 55.3124C369.42 57.1441 370.515 59.0624 371.502 61.0602L371.951 60.8387C372.511 61.9731 373.038 63.133 373.529 64.3168L373.067 64.5083C373.902 66.5218 374.632 68.6055 375.249 70.753L375.73 70.6149C376.079 71.8295 376.392 73.0641 376.667 74.3178L376.179 74.4251C376.414 75.4962 376.622 76.5813 376.801 77.6798L376.801 77.6806C376.983 78.7796 377.125 79.867 377.229 80.9424L377.726 80.8943C377.85 82.1747 377.921 83.4388 377.94 84.686L377.44 84.6937C377.475 86.9309 377.343 89.1121 377.058 91.2338L377.553 91.3005C377.383 92.5675 377.158 93.8138 376.882 95.0386L376.394 94.9286C375.908 97.0844 375.26 99.1729 374.464 101.19L374.929 101.373C374.463 102.554 373.947 103.709 373.385 104.84L372.937 104.617C371.962 106.577 370.844 108.46 369.597 110.264L370.008 110.548C369.29 111.587 368.53 112.599 367.731 113.583L367.342 113.268C365.969 114.96 364.479 116.57 362.885 118.096L363.231 118.457C362.32 119.329 361.376 120.173 360.402 120.988L360.081 120.605C358.41 122.003 356.648 123.316 354.809 124.541L355.086 124.957C354.037 125.656 352.962 126.327 351.866 126.968L351.614 126.536C349.728 127.638 347.776 128.652 345.77 129.574L345.979 130.028C344.832 130.556 343.668 131.053 342.489 131.521L342.305 131.056C340.268 131.862 338.187 132.578 336.073 133.197L336.213 133.677C335 134.033 333.776 134.358 332.544 134.65L332.429 134.164C331.36 134.418 330.285 134.647 329.205 134.853C328.102 135.062 326.937 135.252 325.718 135.419L325.787 135.915C324.49 136.093 323.134 136.248 321.725 136.378L321.679 135.88C319.433 136.087 317.051 136.23 314.562 136.308L314.578 136.808C313.241 136.85 311.874 136.872 310.481 136.876L310.48 136.376C308.168 136.382 305.785 136.334 303.352 136.23L303.331 136.73C301.983 136.672 300.619 136.598 299.244 136.506L299.278 136.007C296.937 135.851 294.563 135.645 292.173 135.386L292.119 135.883C290.769 135.737 289.413 135.575 288.056 135.395L288.122 134.9C285.771 134.589 283.415 134.227 281.071 133.814L280.984 134.306C279.639 134.069 278.298 133.815 276.963 133.543L277.063 133.053C274.72 132.576 272.398 132.045 270.114 131.46L269.99 131.944C268.66 131.603 267.344 131.243 266.043 130.864L266.183 130.384C263.868 129.71 261.606 128.976 259.414 128.18L259.244 128.65C257.946 128.179 256.672 127.686 255.427 127.17L255.618 126.708C253.37 125.778 251.216 124.777 249.181 123.702L248.947 124.145C247.718 123.496 246.53 122.82 245.39 122.116L245.652 121.691C243.566 120.405 241.642 119.028 239.911 117.56L239.588 117.941C238.527 117.042 237.536 116.107 236.623 115.136L236.987 114.793C235.325 113.028 233.928 111.147 232.835 109.148L232.396 109.388C231.739 108.185 231.188 106.94 230.754 105.649L231.228 105.49C230.858 104.392 230.574 103.262 230.382 102.098C230.2 100.987 230.113 99.8702 230.115 98.749L229.615 98.7481Z" stroke="#C74343" stroke-dasharray="6.96 3.98"/>
<path opacity="0.81" d="M295.879 24.9827L295.88 24.9834C296.61 25.8626 297.311 26.7616 297.981 27.679L298.384 27.3841C299.162 28.4482 299.899 29.537 300.596 30.6485L300.172 30.9141C301.385 32.8469 302.475 34.8494 303.443 36.9114L303.896 36.6989C304.454 37.8876 304.973 39.0959 305.451 40.3218L304.985 40.5035C305.81 42.6203 306.515 44.7904 307.1 47.004L307.584 46.8763C307.918 48.1437 308.214 49.4251 308.471 50.7185L307.98 50.8159C308.421 53.0392 308.746 55.299 308.955 57.5858L309.453 57.5403C309.572 58.8445 309.654 60.1572 309.698 61.4768L309.198 61.4935C309.274 63.7575 309.238 66.0421 309.092 68.3382L309.591 68.37C309.508 69.6755 309.389 70.9846 309.235 72.2957L308.739 72.2373C308.474 74.4868 308.104 76.7425 307.629 78.996L308.119 79.0991C307.849 80.3799 307.545 81.66 307.208 82.9378L306.724 82.8101C306.146 84.9998 305.468 87.1829 304.691 89.3517L305.162 89.5204C304.721 90.7514 304.248 91.9778 303.743 93.1981L303.281 93.0071C302.415 95.1002 301.456 97.1756 300.402 99.2261L300.847 99.4546C300.249 100.618 299.621 101.774 298.964 102.92L298.53 102.671C297.403 104.635 296.187 106.572 294.883 108.475L295.295 108.758C294.556 109.837 293.788 110.905 292.992 111.962L292.593 111.661C291.908 112.569 291.203 113.468 290.477 114.358C289.744 115.249 289.016 116.105 288.292 116.924L288.667 117.255C287.781 118.258 286.901 119.208 286.026 120.107L285.667 119.759C284.005 121.467 282.365 122.987 280.743 124.331L281.062 124.716C280.034 125.569 279.013 126.351 277.997 127.068L277.709 126.659C275.767 128.029 273.85 129.15 271.954 130.044L272.167 130.496C270.961 131.064 269.762 131.543 268.568 131.936L268.412 131.461C266.226 132.181 264.061 132.61 261.908 132.78L261.947 133.278C260.654 133.38 259.364 133.391 258.077 133.316L258.106 132.817C255.918 132.69 253.733 132.312 251.541 131.715L251.41 132.197C250.183 131.863 248.957 131.462 247.728 130.998L247.904 130.53C245.88 129.767 243.848 128.833 241.799 127.753L241.566 128.195C240.444 127.603 239.318 126.969 238.188 126.296L238.444 125.866C236.571 124.75 234.684 123.526 232.776 122.212L232.493 122.624C231.446 121.903 230.393 121.156 229.335 120.385L229.629 119.981C228.728 119.325 227.823 118.652 226.912 117.964C226.056 117.317 225.181 116.595 224.293 115.805L223.961 116.178C223.022 115.342 222.069 114.431 221.107 113.451L221.464 113.101C219.954 111.561 218.419 109.848 216.879 107.984L216.494 108.302C215.674 107.31 214.853 106.276 214.034 105.204L214.431 104.9C213.084 103.138 211.741 101.271 210.415 99.3158L210.001 99.5965C209.271 98.5213 208.547 97.4195 207.829 96.2938L208.251 96.025C207.039 94.1243 205.847 92.155 204.685 90.1298L204.251 90.3787C203.6 89.2442 202.958 88.0923 202.327 86.9251L202.767 86.6874C201.685 84.6843 200.635 82.6363 199.626 80.5549L199.176 80.773C198.603 79.5906 198.043 78.3975 197.498 77.1957L197.953 76.9892C197.006 74.8994 196.103 72.7834 195.254 70.652L194.79 70.837C194.301 69.6108 193.83 68.3794 193.379 67.145L193.848 66.9732C193.055 64.8052 192.321 62.6282 191.655 60.4535L191.177 60.5999C190.789 59.3325 190.424 58.0656 190.084 56.8016L190.567 56.6717C189.962 54.4241 189.435 52.1863 188.997 49.9709L188.507 50.068C188.248 48.7621 188.02 47.4637 187.825 46.1751L188.319 46.1001C187.968 43.7863 187.722 41.5066 187.592 39.2756L187.093 39.3047C187.015 37.9702 186.978 36.6525 186.986 35.3547L187.486 35.3574C187.498 33.0098 187.655 30.7309 187.97 28.5389L187.475 28.4679C187.665 27.1434 187.912 25.8493 188.219 24.5896L188.705 24.708C189.256 22.4488 190.001 20.3061 190.959 18.3024L190.508 18.0867C191.079 16.8926 191.724 15.7458 192.448 14.6512L192.865 14.927C193.487 13.9856 194.169 13.0839 194.911 12.2251C195.683 11.3325 196.5 10.4889 197.359 9.69302L197.019 9.32633C198.018 8.39957 199.074 7.53671 200.18 6.73571L200.473 7.14067C202.357 5.77614 204.393 4.59222 206.554 3.57905L206.342 3.12631C207.566 2.55287 208.828 2.03386 210.126 1.56742L210.295 2.03794C212.474 1.25459 214.754 0.620334 217.114 0.126725L217.012 -0.362687C218.332 -0.638727 219.675 -0.871009 221.039 -1.06109L221.108 -0.565872C223.413 -0.887026 225.777 -1.08695 228.183 -1.17295L228.165 -1.67263C229.516 -1.72094 230.88 -1.73352 232.254 -1.71168L232.246 -1.21174C234.59 -1.17446 236.963 -1.03627 239.348 -0.803729L239.396 -1.30137C240.748 -1.16958 242.102 -1.00769 243.458 -0.816892L243.388 -0.321771C245.728 0.00754434 248.069 0.423456 250.398 0.919733L250.502 0.430713C251.836 0.714864 253.165 1.02521 254.486 1.36059L254.363 1.84523C256.67 2.43046 258.954 3.09227 261.202 3.82439L261.356 3.34898C262.658 3.77311 263.948 4.22074 265.222 4.69065L265.049 5.15976C267.299 5.98943 269.5 6.88876 271.637 7.85098L271.842 7.39508C273.097 7.96027 274.33 8.54712 275.538 9.15427L275.314 9.601C277.475 10.6878 279.555 11.8396 281.533 13.0484L281.794 12.6218C282.977 13.3444 284.124 14.0875 285.232 14.8494L284.948 15.2614C286.964 16.6479 288.845 18.0957 290.569 19.5946L290.897 19.2172C291.949 20.1315 292.943 21.0652 293.874 22.0161L293.517 22.3659C294.358 23.2255 295.147 24.0983 295.879 24.9827Z" stroke="#676766" stroke-dasharray="6.96 3.98"/>
<path opacity="0.73" d="M373.704 37.3914L373.704 37.3918C373.873 38.5051 373.982 39.6004 374.035 40.6778L374.534 40.6534C374.598 41.9509 374.581 43.2236 374.487 44.4715L373.988 44.434C373.82 46.6635 373.404 48.8118 372.764 50.8784L373.242 51.0263C372.864 52.2446 372.411 53.4348 371.885 54.5967L371.43 54.3907C370.536 56.3688 369.43 58.266 368.136 60.0812L368.543 60.3714C367.812 61.3983 367.021 62.3986 366.176 63.372L365.798 63.0442C364.386 64.6719 362.818 66.2253 361.115 67.7033L361.443 68.0809C360.492 68.9063 359.5 69.7078 358.47 70.4853L358.169 70.0863C356.438 71.3938 354.599 72.6338 352.67 73.8054L352.929 74.2327C351.85 74.8884 350.742 75.5224 349.61 76.1348L349.372 75.695C347.452 76.7335 345.459 77.7097 343.41 78.6227L343.613 79.0795C342.456 79.595 341.28 80.0903 340.09 80.5654L339.905 80.101C337.859 80.9173 335.768 81.6737 333.644 82.3694L333.8 82.8445C332.592 83.2405 331.373 83.6168 330.147 83.9734L330.007 83.4933C327.878 84.1125 325.726 84.6721 323.564 85.1714L323.676 85.6586C322.432 85.9459 321.185 86.2133 319.937 86.4607L319.839 85.9702C317.649 86.4044 315.457 86.7767 313.276 87.0867L313.346 87.5817C312.076 87.7622 310.81 87.9217 309.55 88.06L309.496 87.5629C307.257 87.8086 305.039 87.9871 302.858 88.0977L302.883 88.597C301.596 88.6623 300.322 88.7041 299.062 88.7222L299.055 88.2223C296.784 88.255 294.563 88.2105 292.412 88.088L292.384 88.5872C291.088 88.5133 289.816 88.4114 288.573 88.281L288.625 87.7838C286.328 87.5429 284.132 87.205 282.062 86.7693L281.959 87.2585C280.677 86.9886 279.442 86.6813 278.259 86.3363L278.399 85.8563C277.309 85.5385 276.267 85.1889 275.275 84.8074C274.164 84.3801 273.079 83.9468 272.018 83.5071L271.826 83.969C270.562 83.445 269.332 82.9116 268.136 82.3681L268.343 81.913C266.14 80.9114 264.056 79.8758 262.089 78.8007L261.85 79.2394C260.648 78.5826 259.489 77.9108 258.374 77.2227L258.636 76.7971C256.581 75.5297 254.673 74.2081 252.912 72.8246L252.603 73.2178C251.53 72.3746 250.509 71.5081 249.541 70.6164L249.88 70.2487C248.132 68.6387 246.56 66.9477 245.159 65.1649L244.766 65.4738C243.934 64.4142 243.161 63.3221 242.447 62.1952L242.869 61.9276C241.637 59.9823 240.583 57.9319 239.705 55.7644L239.241 55.9522C238.744 54.7261 238.303 53.4633 237.917 52.1616L238.396 52.0194C237.758 49.8681 237.272 47.6071 236.936 45.2266L236.44 45.2965C236.258 44.001 236.119 42.6713 236.024 41.3056L236.523 41.271C236.368 39.0469 236.331 36.7249 236.41 34.298L235.91 34.2818C235.953 32.9741 236.029 31.6368 236.138 30.2688L236.636 30.3087C236.727 29.1683 236.842 28.0062 236.979 26.8217C237.122 25.597 237.296 24.3832 237.5 23.1816L237.007 23.0981C237.244 21.698 237.522 20.3143 237.838 18.9488L238.325 19.0615C238.883 16.6473 239.563 14.2904 240.354 12.0011L239.882 11.8379C240.345 10.4962 240.847 9.17752 241.384 7.88386L241.846 8.07571C242.797 5.78618 243.862 3.57586 245.029 1.45612L244.591 1.21496C245.276 -0.0297476 245.997 -1.24355 246.75 -2.42419L247.172 -2.15523C248.506 -4.24617 249.944 -6.23176 251.473 -8.09924L251.086 -8.41602C251.988 -9.51667 252.92 -10.5768 253.882 -11.5939L254.246 -11.2503C255.951 -13.0531 257.748 -14.7186 259.622 -16.2323L259.308 -16.6213C260.414 -17.5152 261.548 -18.3569 262.706 -19.1435L262.987 -18.7299C265.034 -20.1207 267.156 -21.3365 269.337 -22.3613L269.124 -22.8138C270.408 -23.4172 271.713 -23.9554 273.036 -24.4248L273.203 -23.9537C275.513 -24.7739 277.876 -25.3816 280.274 -25.7592L280.196 -26.2531C281.588 -26.4722 282.992 -26.6149 284.404 -26.6778L284.427 -26.1783C285.638 -26.2321 286.856 -26.2265 288.078 -26.1591C289.209 -26.0966 290.405 -25.9933 291.657 -25.8488L291.714 -26.3455C293.038 -26.1927 294.422 -25.9944 295.859 -25.7506L295.775 -25.2576C298.017 -24.877 300.39 -24.3844 302.858 -23.7791L302.977 -24.2647C304.296 -23.9413 305.641 -23.586 307.009 -23.1986L306.873 -22.7175C309.13 -22.0783 311.447 -21.3513 313.801 -20.5365L313.964 -21.009C315.261 -20.5599 316.57 -20.0843 317.885 -19.582L317.707 -19.1149C319.928 -18.2666 322.171 -17.3421 324.415 -16.3411L324.619 -16.7977C325.878 -16.236 327.138 -15.6503 328.395 -15.0406L328.177 -14.5907C330.337 -13.5436 332.488 -12.4254 334.614 -11.236L334.858 -11.6724C336.067 -10.9962 337.268 -10.297 338.458 -9.5748L338.199 -9.14734C340.263 -7.89518 342.293 -6.57383 344.273 -5.18312L344.56 -5.59232C345.698 -4.79378 346.819 -3.97237 347.921 -3.12807L347.617 -2.73115C349.54 -1.25813 351.404 0.284441 353.193 1.89671L353.527 1.52529C354.561 2.45722 355.571 3.41247 356.552 4.39109L356.199 4.74518C357.916 6.45666 359.546 8.23931 361.074 10.0932L361.46 9.77526C362.345 10.8495 363.196 11.9477 364.01 13.0701L363.606 13.3636C365.024 15.3191 366.328 17.3472 367.501 19.4483L367.937 19.2046C368.614 20.4167 369.248 21.6531 369.835 22.9139L369.381 23.125C370.392 25.2962 371.264 27.5398 371.981 29.8559L372.459 29.7082C372.866 31.0264 373.224 32.368 373.529 33.7332L373.042 33.8423C373.302 35.008 373.524 36.191 373.704 37.3914Z" stroke="#6F8467" stroke-dasharray="6.96 3.98"/>
</g>
<defs>
<clipPath id="clip0">
<rect width="324" height="52" fill="white"/>
</clipPath>
</defs>
</svg>
