<svg width="131" height="51" viewBox="0 0 131 51" fill="none" xmlns="http://www.w3.org/2000/svg">
<path d="M6.25164 5.77148C10.7288 5.77148 12.6882 8.47115 12.6882 12.753V16.1977C12.6882 20.7598 10.5439 23.087 5.97071 23.087H3.17205V34.4426H0V5.77148H6.25164ZM6.06317 20.2915C8.39597 20.2915 9.60861 19.174 9.60861 16.4744V12.6572C9.60861 10.0498 8.67691 8.74786 6.3441 8.74786H3.17205V20.2915H6.06317Z" fill="#676766"/>
<path d="M17.542 12.6562C17.542 8.28214 19.6863 5.49023 24.0746 5.49023C28.4628 5.49023 30.7921 8.28214 30.7921 12.6562V27.4565C30.7921 31.8306 28.6477 34.6225 24.167 34.6225C19.6863 34.6225 17.6345 31.7384 17.6345 27.4565L17.542 12.6562ZM20.714 27.6445C20.714 30.252 21.8342 31.7384 24.0746 31.7384C26.3149 31.7384 27.4351 30.2484 27.4351 27.6445V12.564C27.4351 9.95657 26.4074 8.47016 24.0746 8.47016C21.7418 8.47016 20.714 10.0524 20.714 12.564V27.6445Z" fill="#676766"/>
<path d="M48.7039 12.657V13.402H45.6243V12.4726C45.6243 9.86513 44.5965 8.37872 42.3598 8.37872C40.1194 8.37872 39.0952 9.86868 39.0952 12.4726C39.0952 18.8936 48.7074 19.5463 48.7074 27.5531C48.7074 31.9272 46.6555 34.7191 42.1748 34.7191C37.6941 34.7191 35.7383 31.9272 35.7383 27.5531V25.8787H38.7254V27.6489C38.7254 30.2563 39.7531 31.7427 42.0859 31.7427C44.4187 31.7427 45.4465 30.2528 45.4465 27.6489C45.4465 21.2279 35.8343 20.6674 35.8343 12.5683C35.8343 8.10201 37.8862 5.40234 42.1784 5.40234C46.4706 5.40234 48.7039 8.28294 48.7039 12.657Z" fill="#676766"/>
<path d="M57.1974 5.77148V34.4391H54.0254V5.77148H57.1974Z" fill="#676766"/>
<path d="M67.0849 34.4391V8.65562H61.7686V5.77148H75.5769V8.65562H70.353V34.4391H67.0849Z" fill="#676766"/>
<path d="M86.6804 5.77148C91.1575 5.77148 93.1169 8.09866 93.1169 12.2883V14.6155C93.1169 17.7799 91.9967 19.7346 89.5715 20.4795C92.1852 21.2245 93.2094 23.3637 93.2094 26.4358V30.998C93.1169 32.2077 93.3018 33.3251 93.7677 34.4426H90.5032C90.0373 33.3251 89.8488 32.1154 89.9449 30.998V26.5281C89.9449 23.2714 88.4513 22.2462 85.7451 22.2462H83.4123V34.5313H80.2402V5.77148H86.6804ZM85.8411 19.2663C88.3588 19.2663 89.9449 18.4291 89.9449 15.3569V12.565C89.9449 9.95757 89.0132 8.65562 86.5843 8.65562H83.5047V19.2663H85.8411Z" fill="#676766"/>
<path d="M98.7178 12.6562C98.7178 8.28214 100.862 5.49023 105.25 5.49023C109.635 5.49023 111.875 8.28214 111.875 12.6562V27.4565C111.875 31.8306 109.731 34.6225 105.25 34.6225C100.773 34.6225 98.7178 31.7384 98.7178 27.4565V12.6562ZM101.89 27.6445C101.89 30.252 103.01 31.7384 105.343 31.7384C107.676 31.7384 108.796 30.2484 108.796 27.6445V12.564C108.796 9.95657 107.768 8.47016 105.343 8.47016C102.918 8.47016 101.89 10.0524 101.89 12.564V27.6445Z" fill="#676766"/>
<path d="M120.179 34.4391H117.288V5.77148H121.392L128.017 26.5281V5.77148H130.816V34.4391H127.455L120.083 11.2631L120.179 34.4391Z" fill="#676766"/>
<path d="M131 0H98.7178V2.88414H131V0Z" fill="#676766"/>
<path d="M43.1143 48.9719V43.2391L40.7104 48.9719H40.3761L37.9722 43.2391V48.9719H37.1045V41.9727H38.374L40.5788 47.2407L42.7836 41.9727H44.0531V48.9719H43.1143Z" fill="#676766"/>
<path d="M45.5859 48.9721V43.9062H46.3861V47.7731L49.0603 43.9062H49.7964V48.9721H48.9962V45.0379L46.3221 48.9721H45.5859Z" fill="#676766"/>
<path d="M54.6767 48.9721L53.1404 46.9039L51.6042 48.9721H50.6689L52.607 46.3718L50.7365 43.9062H51.6718L53.0764 45.8397L54.4811 43.9062H55.4164L53.5458 46.3718L55.4839 48.9721H54.6767Z" fill="#676766"/>
<path d="M59.6853 48.9725V48.373C59.2834 48.8413 58.6824 49.1073 58.0139 49.1073C57.1462 49.1073 56.2109 48.5078 56.2109 47.44C56.2109 46.3083 57.1462 45.7727 58.0139 45.7727C58.6824 45.7727 59.2834 45.9713 59.6853 46.4396V45.5066C59.6853 44.8397 59.1518 44.4388 58.4157 44.4388C57.8147 44.4388 57.2813 44.6374 56.8795 45.1731L56.4776 44.641C57.0111 44.1089 57.6796 43.7754 58.4833 43.7754C59.5537 43.7754 60.4214 44.2437 60.4214 45.5101V48.9761C60.4214 48.9725 59.6853 48.9725 59.6853 48.9725ZM59.6853 47.9083V46.9753C59.351 46.5744 58.8176 46.3757 58.2806 46.3757C57.5445 46.3757 57.0111 46.844 57.0111 47.5074C57.0111 48.1743 57.5445 48.6391 58.2806 48.6391C58.8176 48.5752 59.351 48.373 59.6853 47.9083Z" fill="#676766"/>
<path d="M62.0244 48.9721V43.9062H62.8245V47.7731L65.4987 43.9062H66.2989V48.9721H65.4987V45.0379L62.8245 48.9721H62.0244Z" fill="#676766"/>
<path d="M67.2393 48.5084C67.7087 48.5084 67.9754 47.9762 68.1745 46.4401L68.5088 43.9746H72.0507V49.0405H71.2505V44.6415H69.1773L68.9782 46.5075C68.779 48.3735 68.1781 49.1079 67.2393 49.1079V48.5084Z" fill="#676766"/>
<path d="M76.7937 48.9725V48.373C76.3918 48.8413 75.7908 49.1073 75.1223 49.1073C74.2546 49.1073 73.3193 48.5078 73.3193 47.44C73.3193 46.3083 74.2546 45.7727 75.1223 45.7727C75.7908 45.7727 76.3918 45.9713 76.7937 46.4396V45.5066C76.7937 44.8397 76.2602 44.4388 75.5241 44.4388C74.9231 44.4388 74.3897 44.6374 73.9879 45.1731L73.586 44.641C74.1195 44.1089 74.788 43.7754 75.5917 43.7754C76.6621 43.7754 77.5298 44.2437 77.5298 45.5101V48.9761C77.5262 48.9725 76.7937 48.9725 76.7937 48.9725ZM76.7937 47.9083V46.9753C76.4594 46.5744 75.926 46.3757 75.389 46.3757C74.6529 46.3757 74.1195 46.844 74.1195 47.5074C74.1195 48.1743 74.6529 48.6391 75.389 48.6391C75.9224 48.5752 76.4594 48.373 76.7937 47.9083Z" fill="#676766"/>
<path d="M81.8711 48.9719V41.9727H86.4834V42.7708H82.7423V48.9719H81.8711Z" fill="#676766"/>
<path d="M88.4222 48.2401V50.9079H87.6221V43.9086H88.4222V44.6429C88.7565 44.1108 89.425 43.7773 90.1611 43.7773C91.4982 43.7773 92.4335 44.7777 92.4335 46.4451C92.4335 48.1124 91.4982 49.1128 90.1611 49.1128C89.4215 49.1057 88.8205 48.7723 88.4222 48.2401ZM91.5622 46.438C91.5622 45.3063 90.9613 44.5046 89.9584 44.5046C89.3574 44.5046 88.6889 44.8381 88.4222 45.3028V47.5697C88.6889 48.0379 89.2899 48.3678 89.9584 48.3678C90.9613 48.4388 91.5622 47.5732 91.5622 46.438Z" fill="#676766"/>
<path d="M93.3662 46.4392C93.3662 44.9741 94.3015 43.7715 95.9053 43.7715C97.4415 43.7715 98.4443 44.9705 98.4443 46.4392C98.4443 47.9079 97.5091 49.107 95.9053 49.107C94.3015 49.107 93.3662 47.9079 93.3662 46.4392ZM97.5766 46.4392C97.5766 45.4388 96.9757 44.5058 95.9053 44.5058C94.8349 44.5058 94.2339 45.4388 94.2339 46.4392C94.2339 47.507 94.8349 48.3726 95.9053 48.3726C96.9757 48.44 97.5766 47.507 97.5766 46.4392Z" fill="#676766"/>
<path d="M102.989 48.9721L101.453 46.9039L99.9167 48.9721H98.9814L100.92 46.3718L99.049 43.9062H99.9843L101.389 45.8397L102.794 43.9062H103.729L101.926 46.3718L103.864 48.9721H102.989Z" fill="#676766"/>
<path d="M104.46 46.4392C104.46 44.9741 105.395 43.7715 106.999 43.7715C108.535 43.7715 109.538 44.9705 109.538 46.4392C109.538 47.9079 108.603 49.107 106.999 49.107C105.459 49.107 104.46 47.9079 104.46 46.4392ZM108.667 46.4392C108.667 45.4388 108.066 44.5058 106.995 44.5058C105.925 44.5058 105.324 45.4388 105.324 46.4392C105.324 47.507 105.925 48.3726 106.995 48.3726C108.066 48.44 108.667 47.507 108.667 46.4392Z" fill="#676766"/>
<path d="M111.744 48.9721V44.5732H110.275V43.9062H114.016V44.5732H112.548V48.9721H111.744Z" fill="#676766"/>
<path d="M114.685 46.4392C114.685 44.9741 115.62 43.7715 117.224 43.7715C118.76 43.7715 119.763 44.9705 119.763 46.4392C119.763 47.9079 118.827 49.107 117.224 49.107C115.684 49.107 114.685 47.9079 114.685 46.4392ZM118.891 46.4392C118.891 45.4388 118.29 44.5058 117.22 44.5058C116.15 44.5058 115.549 45.4388 115.549 46.4392C115.549 47.507 116.15 48.3726 117.22 48.3726C118.29 48.44 118.891 47.507 118.891 46.4392Z" fill="#676766"/>
<path d="M121.032 48.9721V43.9062H123.838C124.706 43.9062 125.243 44.4384 125.243 45.2401C125.243 45.8397 124.841 46.2405 124.443 46.3718C124.976 46.5066 125.378 47.0387 125.378 47.6383C125.378 48.4364 124.844 49.0395 123.909 49.0395H121.036V48.9721H121.032ZM124.439 45.3749C124.439 44.9067 124.172 44.6406 123.703 44.6406H121.832V46.0419H123.703C124.172 46.0419 124.439 45.7723 124.439 45.3749ZM124.507 47.507C124.507 47.1061 124.24 46.7088 123.703 46.7088H121.832V48.2413H123.703C124.24 48.3052 124.507 48.0391 124.507 47.507Z" fill="#676766"/>
<path d="M129.987 48.9725V48.373C129.585 48.8413 128.984 49.1073 128.316 49.1073C127.448 49.1073 126.513 48.5078 126.513 47.44C126.513 46.3083 127.448 45.7727 128.316 45.7727C128.984 45.7727 129.585 45.9713 129.987 46.4396V45.5066C129.987 44.8397 129.454 44.4388 128.717 44.4388C128.117 44.4388 127.583 44.6374 127.181 45.1731L126.779 44.641C127.313 44.1089 127.981 43.7754 128.785 43.7754C129.855 43.7754 130.723 44.2437 130.723 45.5101V48.9761C130.723 48.9725 129.987 48.9725 129.987 48.9725ZM129.987 47.9083V46.9753C129.653 46.5744 129.119 46.3757 128.582 46.3757C127.846 46.3757 127.313 46.844 127.313 47.5074C127.313 48.1743 127.846 48.6391 128.582 48.6391C129.183 48.5752 129.72 48.373 129.987 47.9083Z" fill="#676766"/>
<path d="M0 45.5321C0 43.4142 1.56469 41.9668 3.55255 41.9668C4.77585 41.9668 5.62576 42.5557 6.1734 43.3326L5.44796 43.737C5.05323 43.1588 4.33845 42.7331 3.55255 42.7331C2.04121 42.7331 0.889027 43.8896 0.889027 45.5356C0.889027 47.1675 2.03765 48.3382 3.55255 48.3382C4.33845 48.3382 5.05679 47.9231 5.44796 47.3342L6.18407 47.7386C5.60443 48.5226 4.77585 49.1044 3.55255 49.1044C1.56469 49.0973 0 47.6499 0 45.5321Z" fill="#676766"/>
<path d="M8.16476 48.9738V44.6635H6.71387V43.9824H10.4016V44.6635H8.93999V48.9738H8.16476Z" fill="#676766"/>
<path d="M11.2618 50.2257C11.3756 50.2789 11.5641 50.3073 11.685 50.3073C12.0264 50.3073 12.254 50.1938 12.4318 49.7787L12.7625 49.0231L10.668 43.9785H11.5072L13.175 48.0724L14.8322 43.9785H15.6821L13.175 49.9845C12.8728 50.7082 12.3678 50.9884 11.7028 50.9991C11.5357 50.9991 11.2796 50.9671 11.1338 50.9281L11.2618 50.2257Z" fill="#676766"/>
<path d="M15.9069 48.3313C16.3727 48.2497 16.6643 47.9163 16.8599 46.4405L17.18 43.9785H20.6614V48.2888H21.241V50.2435H20.4623V48.9734H16.6821V50.2435H15.9033V48.3313H15.9069ZM17.6351 46.5327C17.5107 47.4728 17.2724 48.0014 16.9097 48.2888H19.8826V44.6632H17.8627L17.6351 46.5327Z" fill="#676766"/>
<path d="M22.3076 48.9738V43.9824H23.0864V47.796L25.7073 43.9824H26.4754V48.9738H25.6966V45.0857L23.0544 48.9738H22.3076Z" fill="#676766"/>
<path d="M27.8613 48.9734L29.1984 47.0081C28.4516 46.9159 27.9147 46.3483 27.9147 45.5075C27.9147 44.6596 28.4836 43.9785 29.5007 43.9785H32.1429V48.9699H31.3641V47.04H29.995L28.7717 48.9734H27.8613ZM31.3641 46.3589V44.6632H29.5825C29.0348 44.6632 28.7112 45.0144 28.7112 45.5111C28.7112 46.0077 29.0135 46.3589 29.5825 46.3589H31.3641Z" fill="#676766"/>
</svg>
