<svg width="48" height="35" viewBox="0 0 48 35" fill="none" xmlns="http://www.w3.org/2000/svg">
<path d="M46.5094 3.20415L31.7369 15.2869L24.9926 0.475837C24.6007 -0.158606 23.527 -0.158606 23.1371 0.475801L16.3919 15.2869L1.62027 3.20504C1.62027 3.20504 0.143346 2.18825 0.131319 4.01451C-0.165196 4.09413 0.133419 3.69562 0.131319 4.01451C0.137533 4.04105 0.135029 4.06847 0.143906 4.0959L8.60257 29.8318H7.19812C6.74625 29.8318 6.38049 30.1971 6.38049 30.6465V34.1852C6.38049 34.6355 6.74625 35 7.19812 35H40.9333C41.3852 35 41.751 34.6346 41.751 34.1852V30.6465C41.751 30.1962 41.3852 29.8318 40.9333 29.8318H39.5289L47.9876 4.0959C47.9964 4.06936 47.9938 4.04193 48 4.01451C47.9876 2.378 46.5094 3.20415 46.5094 3.20415ZM40.1148 33.3713H8.01487V31.4631H40.1148V33.3713ZM37.6894 29.7672H10.4394L2.76638 6.42081L16.1601 17.3756C16.3732 17.5499 16.6555 17.6154 16.921 17.5526C17.1891 17.4906 17.4119 17.3084 17.5255 17.0589L24.0648 2.69989L30.6042 17.0589C30.7178 17.3084 30.9406 17.4906 31.2087 17.5526C31.4742 17.6163 31.7565 17.5499 31.9695 17.3756L45.3633 6.42081L37.6894 29.7672Z" fill="#676766"/>
</svg>
