<svg width="21" height="19" viewBox="0 0 21 19" fill="none" xmlns="http://www.w3.org/2000/svg">
<path d="M7.1584 2.47586C10.6279 1.54621 14.1904 3.24769 15.7194 6.34855L16.6249 4.28551L17.6691 4.74235L16.2033 8.08172C16.1317 8.2441 15.9915 8.35946 15.8285 8.40313C15.7454 8.42541 15.6561 8.42927 15.5669 8.41135L11.8212 7.64706L12.0504 6.53134L14.8028 7.0927C13.5769 4.31902 10.476 2.76554 7.45306 3.57553C4.11351 4.47036 2.12325 7.91191 3.01681 11.2467C3.91037 14.5815 7.35475 16.5668 10.6943 15.672L10.989 16.7717C7.0421 17.8292 2.97162 15.483 1.91557 11.5418C0.859521 7.60054 3.21154 3.53342 7.1584 2.47586Z" fill="white"/>
</svg>
