<svg width="28" height="27" viewBox="0 0 28 27" fill="none" xmlns="http://www.w3.org/2000/svg">
<path d="M27.8196 9.1698C27.6828 9.03764 27.4915 8.97497 27.3013 9H19.8734V5.77356C19.8734 2.58489 17.2438 0 14.0001 0C10.7563 0 8.12678 2.58489 8.12678 5.77356V9H0.698671C0.491357 9 0.28411 9 0.18042 9.1698C0.0411528 9.30137 -0.0234549 9.49183 0.00769172 9.67925L2.59888 23.6038C2.96087 25.5462 4.66706 26.9676 6.67565 27H21.3244C23.3387 26.9513 25.0413 25.5187 25.4011 23.5698L27.9923 9.67925C28.0235 9.49183 27.9588 9.30137 27.8196 9.1698ZM9.50867 5.77356C9.50867 3.33519 11.5195 1.35849 14 1.35849C16.4805 1.35849 18.4913 3.33519 18.4913 5.77356V9H9.50867V5.77356Z" fill="#9FC990"/>
</svg>
