<svg width="39" height="39" viewBox="0 0 39 39" fill="none" xmlns="http://www.w3.org/2000/svg">
<path d="M19.5 0C8.74788 0 0 8.74788 0 19.5C0 30.2521 8.74788 39 19.5 39C30.2521 39 39 30.2521 39 19.5C39 8.74788 30.2521 0 19.5 0ZM19.5 37.375C9.64366 37.375 1.62497 29.3563 1.62497 19.5C1.62497 9.64366 9.64366 1.62497 19.5 1.62497C29.3563 1.62497 37.375 9.64366 37.375 19.5C37.375 29.3563 29.3563 37.375 19.5 37.375Z" fill="#A2A2A2"/>
<path d="M29.9652 22.7834C29.5249 22.6779 29.09 22.9493 28.9869 23.3857C27.9395 27.7949 24.0389 30.8743 19.5003 30.8743C14.9562 30.8743 11.054 27.7901 10.0113 23.3754C9.90734 22.9374 9.46699 22.6715 9.03381 22.7707C8.59658 22.8739 8.32602 23.3118 8.42915 23.7482C9.6463 28.901 14.1992 32.4992 19.5003 32.4992C24.795 32.4992 29.3463 28.9064 30.5674 23.7617C30.6714 23.3246 30.4017 22.8866 29.9652 22.7834Z" fill="#A2A2A2"/>
<path d="M13 16.2499C13.8974 16.2499 14.6249 15.5224 14.6249 14.625C14.6249 13.7275 13.8974 13 13 13C12.1025 13 11.375 13.7275 11.375 14.625C11.375 15.5224 12.1025 16.2499 13 16.2499Z" fill="#A2A2A2"/>
<path d="M26 16.2499C26.8974 16.2499 27.6249 15.5224 27.6249 14.625C27.6249 13.7275 26.8974 13 26 13C25.1025 13 24.375 13.7275 24.375 14.625C24.375 15.5224 25.1025 16.2499 26 16.2499Z" fill="#A2A2A2"/>
</svg>
