<svg width="23" height="22" viewBox="0 0 23 22" fill="none" xmlns="http://www.w3.org/2000/svg">
<path d="M22.1324 9.97039C22.5777 9.5299 22.7349 8.88341 22.5428 8.28245C22.3503 7.68148 21.8488 7.25249 21.2327 7.16145L15.7549 6.35357C15.5216 6.31909 15.32 6.17057 15.2158 5.95584L12.7668 0.917769C12.4918 0.35175 11.9337 0 11.3117 0C10.6902 0 10.132 0.35175 9.85706 0.917769L7.40761 5.95584C7.30341 6.17057 7.10137 6.31909 6.86806 6.35357L1.39021 7.16191C0.774562 7.25249 0.273074 7.68148 0.0805426 8.28245C-0.111536 8.88341 0.0456605 9.5299 0.490974 9.97039L4.4544 13.8916C4.62338 14.059 4.70084 14.2999 4.66098 14.5353L3.7255 20.0727C3.6204 20.6949 3.86729 21.3115 4.37059 21.683C4.87344 22.055 5.52805 22.1032 6.07937 21.8085L10.9783 19.1941C11.1871 19.0828 11.4363 19.0828 11.6451 19.1941L16.5445 21.8085C16.7837 21.9363 17.0428 21.9993 17.3005 21.9993C17.6353 21.9993 17.9687 21.8931 18.2532 21.683C18.7565 21.3115 19.0034 20.6949 18.8983 20.0727L17.9624 14.5358C17.9225 14.2999 18 14.0594 18.169 13.8921L22.1324 9.97039ZM17.07 14.6912L18.0054 20.2282C18.0526 20.5068 17.9461 20.773 17.7205 20.9395C17.4944 21.1055 17.2131 21.1257 16.9662 20.9951L12.0669 18.3802C11.8308 18.2547 11.5708 18.1912 11.3117 18.1912C11.0526 18.1912 10.793 18.2547 10.5565 18.3807L5.65806 20.9951C5.41026 21.1257 5.12894 21.1055 4.90334 20.9395C4.67774 20.773 4.57173 20.5073 4.61839 20.2282L5.55387 14.6912C5.64402 14.1569 5.46961 13.6116 5.08726 13.2336L1.12338 9.31195C0.923603 9.11423 0.855651 8.83559 0.942177 8.56661C1.02825 8.29716 1.24434 8.11232 1.52022 8.0714L6.99763 7.26352C7.5263 7.18582 7.98339 6.84924 8.21941 6.36277L10.6689 1.3247C10.7921 1.07088 11.0326 0.919608 11.3112 0.919608C11.5903 0.919608 11.8304 1.07088 11.9541 1.3247L14.4035 6.36277C14.6395 6.84924 15.0962 7.18582 15.6248 7.26352L21.1027 8.0714C21.3786 8.11232 21.5947 8.29716 21.6807 8.56661C21.7668 8.83559 21.6993 9.11423 21.4995 9.31195L17.5361 13.2332C17.1538 13.6116 16.9794 14.1564 17.07 14.6912Z" fill="#A2A2A2"/>
</svg>
