<svg width="46" height="88" viewBox="0 0 46 88" fill="none" xmlns="http://www.w3.org/2000/svg">
<path d="M45.0332 25.6973V25.667V25.7277V25.6973Z" fill="#676766" stroke="#676766" stroke-width="0.25"/>
<path d="M45.2283 31.4223C45.2884 28.582 45.0332 25.6666 44.9582 22.9165C44.8981 20.6022 44.8381 18.2729 44.763 15.9586C44.673 12.4571 41.3709 10.5335 38.6542 9.0007C34.9918 6.94189 31.3145 4.86804 27.6521 2.80922C26.1962 1.99772 24.6953 1.15615 23.0292 1.0209C21.0179 0.855597 19.0517 1.74224 17.3406 2.80922C15.4194 4.01145 13.4531 5.12351 11.5469 6.29569C8.98025 7.94875 6.30854 9.42148 3.74191 11.0896C2.82633 11.6907 1.95577 12.412 1.38541 13.3438C0.694967 14.4708 0.514852 15.8384 0.439805 17.1608C0.274699 20.1965 0.514852 23.2321 0.574891 26.2527C0.634929 29.649 0.379766 37.3282 1.92575 38.6807C3.44172 40.0032 4.80759 41.4759 6.59373 42.3776C10.2711 44.226 13.8884 46.2548 17.3856 48.4188C19.1868 49.5309 21.183 50.5077 23.2994 50.4025C26.1212 50.2672 28.7478 48.1483 31.0893 46.7657C33.8961 45.1127 36.6879 43.4596 39.4947 41.8216C41.1908 40.8297 42.9469 39.7628 43.9375 38.0646C44.4779 37.1479 44.7631 36.096 44.9282 35.044C45.1233 33.8869 45.1983 32.6546 45.2283 31.4223ZM42.9019 33.0603C42.9019 33.1054 42.9019 33.1355 42.9019 33.1805C42.9019 34.2475 42.9019 35.3446 42.4966 36.3364C41.8962 37.8091 40.5003 38.7709 39.1044 39.5073C34.6616 41.8366 30.534 44.737 26.1512 47.2166C25.3707 47.6674 24.5602 48.1032 23.6746 48.2385C22.1887 48.4789 20.7177 47.8478 19.4269 47.0663C14.9991 44.3613 10.4062 41.9568 5.88828 39.372C4.91266 38.816 3.877 38.1999 3.35166 37.193C2.91638 36.3665 2.88636 35.4047 2.85634 34.4579C2.7813 31.4674 2.72126 28.4768 2.64621 25.4863C2.57116 22.5408 2.39105 19.5352 2.66122 16.6048C2.73627 15.7482 2.9464 14.8616 3.45673 14.1703C4.3573 12.953 6.00835 12.2317 7.23914 11.4352C8.66505 10.5335 10.106 9.60182 11.6369 8.8354C14.5038 7.39272 17.1455 5.40904 19.9973 3.92128C20.8828 3.45542 21.8284 3.01961 22.8191 3.07972C23.6446 3.13983 24.4101 3.54559 25.1455 3.95134C27.6972 5.36396 30.2488 6.79161 32.8154 8.14411C32.8154 8.14411 32.8605 8.17417 32.8304 8.15914C34.1363 8.92556 35.4271 9.67696 36.7329 10.4434C38.444 11.4352 41.2358 12.5172 42.1514 14.3657C42.3315 14.7263 42.4366 15.117 42.4966 15.5228C42.9769 18.2729 42.7368 21.2935 42.7818 24.0737C42.8568 27.0642 42.8869 30.0698 42.9019 33.0603ZM0.439805 17.1759C0.274699 20.2115 0.755005 23.2471 0.574891 26.2677Z" fill="#676766"/>
<path d="M0.439805 17.1759C0.274699 20.2115 0.755005 23.2471 0.574891 26.2677M45.2283 31.4223C45.2884 28.582 45.0332 25.6666 44.9582 22.9165C44.8981 20.6022 44.8381 18.2729 44.763 15.9586C44.673 12.4571 41.3709 10.5335 38.6542 9.0007C34.9918 6.94189 31.3145 4.86804 27.6521 2.80922C26.1962 1.99772 24.6953 1.15615 23.0292 1.0209C21.0179 0.855597 19.0517 1.74224 17.3406 2.80922C15.4194 4.01145 13.4531 5.12351 11.5469 6.29569C8.98025 7.94875 6.30854 9.42148 3.74191 11.0896C2.82633 11.6907 1.95577 12.412 1.38541 13.3438C0.694967 14.4708 0.514852 15.8384 0.439805 17.1608C0.274699 20.1965 0.514852 23.2321 0.574891 26.2527C0.634929 29.649 0.379766 37.3282 1.92575 38.6807C3.44172 40.0032 4.80759 41.4759 6.59373 42.3776C10.2711 44.226 13.8884 46.2548 17.3856 48.4188C19.1868 49.5309 21.183 50.5077 23.2994 50.4025C26.1212 50.2672 28.7478 48.1483 31.0893 46.7657C33.8961 45.1127 36.6879 43.4596 39.4947 41.8216C41.1908 40.8297 42.9469 39.7628 43.9375 38.0646C44.4779 37.1479 44.7631 36.096 44.9282 35.044C45.1233 33.8869 45.1983 32.6546 45.2283 31.4223ZM42.9019 33.0603C42.9019 33.1054 42.9019 33.1355 42.9019 33.1805C42.9019 34.2475 42.9019 35.3446 42.4966 36.3364C41.8962 37.8091 40.5003 38.7709 39.1044 39.5073C34.6616 41.8366 30.534 44.737 26.1512 47.2166C25.3707 47.6674 24.5602 48.1032 23.6746 48.2385C22.1887 48.4789 20.7177 47.8478 19.4269 47.0663C14.9991 44.3613 10.4062 41.9568 5.88828 39.372C4.91266 38.816 3.877 38.1999 3.35166 37.193C2.91638 36.3665 2.88636 35.4047 2.85634 34.4579C2.7813 31.4674 2.72126 28.4768 2.64621 25.4863C2.57116 22.5408 2.39105 19.5352 2.66122 16.6048C2.73627 15.7482 2.9464 14.8616 3.45673 14.1703C4.3573 12.953 6.00835 12.2317 7.23914 11.4352C8.66505 10.5335 10.106 9.60182 11.6369 8.8354C14.5038 7.39272 17.1455 5.40904 19.9973 3.92128C20.8828 3.45542 21.8284 3.01961 22.8191 3.07972C23.6446 3.13983 24.4101 3.54559 25.1455 3.95134C27.6972 5.36396 30.2488 6.79161 32.8154 8.14411C32.8154 8.14411 32.8605 8.17417 32.8304 8.15914C34.1363 8.92556 35.4271 9.67696 36.7329 10.4434C38.444 11.4352 41.2358 12.5172 42.1514 14.3657C42.3315 14.7263 42.4366 15.117 42.4966 15.5228C42.9769 18.2729 42.7368 21.2935 42.7818 24.0737C42.8568 27.0642 42.8869 30.0698 42.9019 33.0603Z" stroke="#676766" stroke-width="0.25"/>
<path d="M23.5594 27H20.8594V66H23.5594V27Z" fill="#676766"/>
<path fill-rule="evenodd" clip-rule="evenodd" d="M43.9978 15.9889L22.5491 28.462L21.6035 26.809L43.3073 14.1855L43.9978 15.9889Z" fill="#676766" stroke="#676766" stroke-width="0.25"/>
<path fill-rule="evenodd" clip-rule="evenodd" d="M1.19043 15.9739L22.6391 28.447L23.5847 26.809L1.86586 14.1855L1.19043 15.9739Z" fill="#676766" stroke="#676766" stroke-width="0.25"/>
<path fill-rule="evenodd" clip-rule="evenodd" d="M43.8775 31.1367L22.7591 43.4145L21.8135 41.7765L43.7124 29.0479L43.8775 31.1367Z" fill="#676766" stroke="#676766" stroke-width="0.25"/>
<path fill-rule="evenodd" clip-rule="evenodd" d="M43.8767 23.3528L22.413 35.8259L21.4824 34.1879L43.1863 21.5645L43.8767 23.3528Z" fill="#676766" stroke="#676766" stroke-width="0.25"/>
<path fill-rule="evenodd" clip-rule="evenodd" d="M20.8644 61.7939V82.0758C20.828 88.0368 27.1836 87.5279 27.1836 87.5279H40.3137V84.8201H27.1836C27.1836 84.8201 23.4868 84.7474 23.5596 82.0758V61.7939H20.8644Z" fill="#676766"/>
</svg>
