<svg width="23" height="22" viewBox="0 0 23 22" fill="none" xmlns="http://www.w3.org/2000/svg">
<path d="M22.1324 9.97039C22.5777 9.5299 22.7349 8.88341 22.5428 8.28245C22.3503 7.68148 21.8488 7.25249 21.2327 7.16145L15.7549 6.35357C15.5216 6.31909 15.32 6.17057 15.2158 5.95584L12.7668 0.917769C12.4918 0.35175 11.9337 0 11.3117 0C10.6902 0 10.132 0.35175 9.85706 0.917769L7.40761 5.95584C7.30341 6.17057 7.10137 6.31909 6.86806 6.35357L1.39021 7.16191C0.774562 7.25249 0.273074 7.68148 0.0805426 8.28245C-0.111536 8.88341 0.0456605 9.5299 0.490974 9.97039L4.4544 13.8916C4.62338 14.059 4.70084 14.2999 4.66098 14.5353L3.7255 20.0727C3.6204 20.6949 3.86729 21.3115 4.37059 21.683C4.87344 22.055 5.52805 22.1032 6.07937 21.8085L10.9783 19.1941C11.1871 19.0828 11.4363 19.0828 11.6451 19.1941L16.5445 21.8085C16.7837 21.9363 17.0428 21.9993 17.3005 21.9993C17.6353 21.9993 17.9687 21.8931 18.2532 21.683C18.7565 21.3115 19.0034 20.6949 18.8983 20.0727L17.9624 14.5358C17.9225 14.2999 18 14.0594 18.169 13.8921L22.1324 9.97039Z" fill="#9FC890"/>
</svg>
