<svg width="197" height="68" viewBox="0 0 197 68" fill="none" xmlns="http://www.w3.org/2000/svg">
<path d="M188.369 56.3409H171.537V47.9604C171.51 46.3396 171.827 44.7315 172.466 43.2416C173.106 41.7516 174.054 40.4136 175.248 39.3152C176.437 38.1306 177.853 37.1983 179.412 36.5742C180.971 35.9501 182.64 35.6472 184.32 35.6836C185.98 35.6555 187.629 35.9627 189.168 36.5867C190.707 37.2108 192.103 38.1388 193.273 39.3152C194.461 40.4335 195.403 41.7859 196.039 43.2868C196.675 44.7877 196.992 46.4042 196.97 48.0339V67.9413H189.975V47.681C190 46.8703 189.864 46.0627 189.573 45.3053C189.282 44.548 188.843 43.8561 188.281 43.2702C187.807 42.7077 187.217 42.2547 186.551 41.9425C185.885 41.6302 185.159 41.4662 184.423 41.4618C183.656 41.4356 182.892 41.5789 182.187 41.8814C181.482 42.1838 180.852 42.6379 180.343 43.2114C179.783 43.7655 179.342 44.4285 179.048 45.1593C178.755 45.8901 178.614 46.6733 178.635 47.4605V50.401H188.384V56.2821" fill="#8CBC43"/>
<path d="M146.914 48.0192V53.9002H135.486C134.922 53.8793 134.358 53.9742 133.831 54.179C133.305 54.3838 132.825 54.6943 132.423 55.0912C131.655 55.8774 131.227 56.9333 131.23 58.0317C131.212 58.5832 131.315 59.1321 131.531 59.64C131.747 60.1478 132.072 60.6025 132.482 60.9722C132.885 61.3838 133.37 61.7074 133.905 61.9225C134.439 62.1376 135.013 62.2396 135.59 62.222H146.929V68.0001H134.853C132.072 68.0534 129.368 67.0855 127.254 65.2801C126.152 64.4585 125.257 63.3913 124.641 62.1635C124.025 60.9358 123.705 59.5814 123.705 58.2081C123.741 56.569 124.252 54.9754 125.178 53.6209C126.021 52.2391 127.324 51.1979 128.859 50.6804C127.601 50.2407 126.551 49.3499 125.914 48.1809C125.157 46.9566 124.754 45.547 124.751 44.1082C124.758 43.0704 125.002 42.0478 125.463 41.118C125.925 40.1882 126.593 39.3756 127.416 38.7418C129.042 37.3016 131.134 36.4974 133.307 36.4775H146.841V42.3586H135.059C134.287 42.3344 133.536 42.6143 132.968 43.1379C132.568 43.5513 132.298 44.073 132.191 44.6382C132.085 45.2033 132.147 45.7873 132.369 46.3177C132.592 46.8482 132.965 47.3018 133.443 47.6225C133.922 47.9432 134.483 48.1169 135.059 48.1221H146.841" fill="#8CBC43"/>
<path d="M75.9753 36.2129C75.2406 37.226 74.8485 38.4466 74.8561 39.6974C74.824 40.7919 75.0223 41.8809 75.4384 42.8939C75.8544 43.907 76.4789 44.8216 77.2713 45.5785C78.9745 47.0413 81.1232 47.8859 83.3682 47.9751H83.9425C85.0571 47.9196 86.1515 48.2872 87.0057 49.0042C87.451 49.3893 87.8039 49.8693 88.0384 50.4088C88.2729 50.9483 88.383 51.5335 88.3606 52.1212V51.9448C88.399 52.5516 88.2967 53.1592 88.0617 53.7202C87.8268 54.2811 87.4654 54.7805 87.0057 55.1794C86.1431 55.8798 85.0534 56.2407 83.9425 56.1939H74.002V62.0749H87.1382C88.3118 62.0891 89.474 61.8433 90.541 61.3552C91.608 60.867 92.5532 60.1487 93.3088 59.252C94.9613 57.4648 95.8629 55.112 95.827 52.6799V51.4596C95.8629 49.0275 94.9613 46.6747 93.3088 44.8875C92.5532 43.9908 91.608 43.2725 90.541 42.7844C89.474 42.2962 88.3118 42.0504 87.1382 42.0646H86.4755C85.9568 42.1065 85.4351 42.0377 84.945 41.8628C84.4549 41.6879 84.0078 41.4109 83.6333 41.0501C82.9903 40.2092 82.6715 39.1656 82.7349 38.1095C82.7095 37.8062 82.7095 37.5013 82.7349 37.198C82.8192 36.8728 82.9587 36.5645 83.1473 36.2864H75.9312" fill="#8CBC43"/>
<path d="M102.69 42.0354L108.492 52.0332L110.863 56.15C112.15 56.0083 113.335 55.3827 114.177 54.4004C114.736 53.8484 115.176 53.188 115.47 52.4597C115.764 51.7315 115.905 50.9508 115.885 50.166V42.0354H106.121V36.1543H122.969V49.6955C123.006 51.3258 122.697 52.9456 122.062 54.4483C121.428 55.951 120.482 57.3025 119.287 58.4142C118.104 59.5934 116.695 60.5217 115.143 61.1433C113.592 61.7648 111.931 62.0668 110.259 62.0311H106.121L100.334 52.0185L94.5459 42.0207H102.69" fill="#8CBC43"/>
<path d="M148.799 36.2129V42.0352H161.493L147.886 56.7526V62.0455H170.241V56.1939H156.295L169.711 41.7852V36.2129H148.799Z" fill="#8CBC43"/>
<path d="M46.6098 0.220819C43.6443 0.23244 40.7487 1.12099 38.2887 2.77429C35.8286 4.42759 33.9144 6.77151 32.7876 9.51012C31.6608 12.2487 31.372 15.2593 31.9577 18.1616C32.5433 21.064 33.9772 23.728 36.0782 25.8174C38.1793 27.9068 40.8533 29.3279 43.7627 29.9012C46.672 30.4745 49.6863 30.1744 52.425 29.0388C55.1637 27.9031 57.5039 25.9828 59.1502 23.5203C60.7966 21.0578 61.6753 18.1635 61.6753 15.2029C61.6753 13.2304 61.2852 11.2774 60.5274 9.45587C59.7695 7.63432 58.6589 5.9801 57.2591 4.58811C55.8594 3.19613 54.1981 2.09379 52.3706 1.34434C50.5432 0.594884 48.5854 0.213076 46.6098 0.220819Z" fill="#8CBC43"/>
<path d="M28.8203 59.5754C11.1629 58.6932 -0.309262 45.5784 3.31352 28.8614C6.67123 13.0854 22.1932 0.735135 38.7461 0H0V62.8099H62.9128V42.976C55.6672 54.4 42.0007 60.1929 28.8203 59.5754Z" fill="#8CBC43"/>
</svg>
