<svg width="96" height="96" viewBox="0 0 96 96" fill="none" xmlns="http://www.w3.org/2000/svg">
<path d="M48 0C41.8144 0 36.8 5.0144 36.8 11.2C36.807 17.3826 41.8174 22.393 48 22.4C54.1856 22.4 59.2 17.3856 59.2 11.2C59.2 5.0144 54.1856 0 48 0ZM48 19.2C43.5818 19.2 40 15.6182 40 11.2C40.0052 6.784 43.584 3.2052 48 3.2C52.4182 3.2 56 6.7818 56 11.2C56 15.6182 52.4182 19.2 48 19.2Z" fill="#454545"/>
<path d="M52.8 24H43.2C35.2508 24.0088 28.8088 30.4508 28.8 38.4V65.6H35.2V96H38.4V59.2H35.2V62.4H32V38.4C32.007 32.2174 37.0174 27.207 43.2 27.2H52.8C58.9826 27.207 63.993 32.2174 64 38.4V62.4H60.8V59.2H57.6V96H60.8V65.6H67.2V38.4C67.1912 30.4508 60.7492 24.0088 52.8 24Z" fill="#454545"/>
<path d="M49.6 65.6H46.4V96H49.6V65.6Z" fill="#454545"/>
<path d="M80 16C74.698 16 70.4 20.298 70.4 25.6C70.4052 30.8998 74.7002 35.1948 80 35.2C85.302 35.2 89.6 30.902 89.6 25.6C89.6 20.298 85.302 16 80 16ZM80 32C76.4654 32 73.6 29.1346 73.6 25.6C73.6 22.0654 76.4654 19.2 80 19.2C83.5346 19.2 86.4 22.0654 86.4 25.6C86.4 29.1346 83.5346 32 80 32Z" fill="#454545"/>
<path d="M84.8 36.8H70.4V40H84.8C89.216 40.0052 92.7948 43.584 92.8 48V68.8H89.6V65.6H86.4V96H89.6V72H96V48C95.993 41.8174 90.9826 36.807 84.8 36.8Z" fill="#454545"/>
<path d="M70.4 65.6V68.8H64V72H70.4V96H73.6V65.6H70.4Z" fill="#454545"/>
<path d="M81.6 72H78.4V96H81.6V72Z" fill="#454545"/>
<path d="M16 16C10.698 16 6.4 20.298 6.4 25.6C6.4052 30.8998 10.7002 35.1948 16 35.2C21.302 35.2 25.6 30.902 25.6 25.6C25.6 20.298 21.302 16 16 16ZM16 32C12.4654 32 9.6 29.1346 9.6 25.6C9.6 22.0654 12.4654 19.2 16 19.2C19.5346 19.2 22.4 22.0654 22.4 25.6C22.4 29.1346 19.5346 32 16 32Z" fill="#454545"/>
<path d="M11.2 36.8C5.0174 36.807 0.007 41.8174 0 48V72H6.4V96H9.6V65.6H6.4V68.8H3.2V48C3.2052 43.584 6.784 40.0052 11.2 40H25.6V36.8H11.2Z" fill="#454545"/>
<path d="M25.6 68.8V65.6H22.4V96H25.6V72H32V68.8H25.6Z" fill="#454545"/>
<path d="M17.6 72H14.4V96H17.6V72Z" fill="#454545"/>
</svg>
