<svg width="454" height="454" viewBox="0 0 454 454" fill="none" xmlns="http://www.w3.org/2000/svg">
<path d="M6.89935 258.659C6.67236 221.383 4.34578 184.165 4.28904 146.889C4.28904 109.273 4.28904 71.6576 4.17554 34.0986C4.17554 22.7514 4.17554 11.4043 4.06205 0.0571289H2.7569C2.35968 31.9993 2.58666 63.9983 2.58666 95.9405C2.58666 133.386 2.41642 170.718 3.72158 208.164C4.40253 226.887 5.02673 245.609 5.08348 264.332C5.08348 282.715 3.55134 301.04 2.18944 319.366C0.77079 337.578 -0.19389 355.733 0.0330934 374.002C0.203331 392.044 1.33825 410.086 1.84896 428.185C2.07595 436.809 1.84896 445.433 2.70015 453.943H4.23229C3.43785 443.957 3.94856 433.688 3.49459 423.816C2.58666 405.32 1.84896 386.825 1.73547 368.329C1.56523 331.734 7.12633 295.31 6.89935 258.659Z" fill="#40321D" fill-opacity="0.03"/>
<path d="M13.7094 357.322C17.7383 320.273 17.7383 282.884 16.3197 245.722C14.8443 208.504 11.9503 171.342 9.79392 134.123C8.71575 115.457 8.71575 97.0748 10.3046 78.4655C11.8368 60.0264 14.3336 41.644 15.0713 23.0914C15.355 15.3754 15.4118 7.71606 15.4118 0H14.1066C14.1066 9.58834 14.0499 19.1199 13.6526 28.7083C12.8582 47.2041 10.1911 65.5297 8.659 83.9689C5.59472 121.131 9.85066 158.406 12.1205 195.455C14.4471 232.673 16.2062 269.892 15.2983 307.167C14.8443 325.776 13.5959 344.386 11.4395 362.882C10.3614 372.186 9.11297 381.377 8.88598 390.796C8.659 400.1 9.11297 409.462 9.85066 418.766C10.8153 430.567 12.5745 442.255 14.1634 453.942H15.0713C14.6741 449.687 14.2768 445.375 13.7661 441.12C12.7447 431.816 11.7233 422.511 11.0991 413.149C10.4749 403.845 10.3046 394.54 10.7586 385.179C11.2126 375.874 12.7447 366.626 13.7094 357.322Z" fill="#40321D" fill-opacity="0.03"/>
<path d="M98.5432 238.064C98.7135 235.17 99.6214 231.993 100.416 229.213C101.437 225.582 102.856 221.667 105.239 218.66C107.85 215.369 110.346 218.263 111.481 221.156C112.957 224.844 113.184 228.986 113.24 232.901C113.297 236.248 113.07 239.709 112.106 242.886C110.403 248.616 104.048 249.127 100.643 244.645C98.827 242.262 99.3944 238.461 99.4512 235.624C99.5079 234.035 99.7916 232.163 100.075 230.574C100.359 229.156 99.9051 229.61 99.7916 230.234C99.2242 232.844 98.6567 235.454 98.146 238.064C98.0893 238.404 98.6 238.518 98.6567 238.177C99.2242 235.397 100.132 232.39 100.246 229.553C100.246 229.383 100.019 229.383 99.9619 229.497C98.373 234.716 95.9329 241.071 99.6782 245.95C102.061 249.014 106.147 250.148 109.665 248.503C112.843 246.971 113.865 243.056 114.319 239.879C114.943 235.397 114.829 230.801 114.205 226.319C113.638 222.178 110.29 211.341 104.502 217.242C101.834 219.965 100.529 224.107 99.4512 227.624C98.4297 230.915 97.2948 234.659 98.146 238.12C98.0893 238.461 98.4865 238.347 98.5432 238.064Z" fill="#40321D" fill-opacity="0.03"/>
<path d="M107.793 259.566C119.086 254.686 120.107 242.205 118.916 231.368C118.064 223.879 117.157 216.674 117.837 209.071C118.291 204.021 118.462 197.61 113.128 195.057C105.58 191.426 100.7 205.724 98.9411 210.433C96.2173 217.695 93.9475 224.843 92.9828 232.503C91.9614 240.332 91.6209 248.162 95.7066 255.254C96.8982 257.353 98.9978 258.658 101.097 259.849C102.913 260.871 102.63 259.849 102.176 261.098C101.608 262.403 107.623 259.679 107.793 259.566C108.02 259.452 107.793 259.169 107.623 259.225C106.034 259.963 104.275 261.041 102.459 261.211C102.516 261.211 102.857 260.757 102.97 260.7C103.084 260.644 103.027 260.474 102.913 260.417C101.438 259.679 98.8276 258.771 98.5439 256.899C98.4304 255.991 97.0685 254.573 96.6145 253.722C94.6284 250.148 94.0042 245.836 93.9475 241.864C93.8907 234.091 95.5363 226.092 97.8062 218.716C99.1113 214.347 100.87 209.979 102.743 205.78C104.218 202.49 106.432 197.44 110.347 196.476C113.014 195.795 115.114 198.915 115.795 201.014C116.759 203.795 116.305 207.028 116.078 209.922C115.568 216.56 116.078 223.085 117.1 229.666C118.745 240.389 118.235 253.325 107.623 259.396C107.396 259.396 107.566 259.679 107.793 259.566Z" fill="#40321D" fill-opacity="0.03"/>
<path d="M108.928 267.282C114.773 265.41 119.37 262.063 122.945 257.013C126.917 251.396 127.711 244.815 127.484 238.12C127.201 229.099 125.328 220.248 125.328 211.227C125.328 204.816 126.69 198.405 127.257 192.051C127.995 183.937 127.03 166.122 114.49 168.392C109.723 169.243 105.637 173.725 102.857 177.356C98.9979 182.349 96.3308 187.966 94.1177 193.866C90.4293 203.625 88.6701 214.007 86.5138 224.163C84.8682 231.936 83.3928 239.765 83.79 247.765C84.1872 255.141 86.7975 262.573 92.9261 267.112C95.5931 269.098 99.6221 269.892 102.857 269.438C104.843 269.155 107.056 267.963 108.928 267.282C109.155 267.169 109.042 266.828 108.815 266.885C106.886 267.509 104.899 268.19 102.913 268.701C102.573 268.814 100.303 268.247 99.7923 267.906C99.3951 267.623 98.4872 267.566 97.9765 267.452C96.7281 267.112 95.6499 266.545 94.5717 265.864C88.2729 261.892 86.1733 253.779 85.7761 246.857C85.3789 240.106 86.6273 233.298 87.8757 226.659C89.4078 218.773 90.8832 210.83 92.9828 203.057C94.9689 195.682 97.636 188.306 101.722 181.838C104.672 177.186 108.872 171.853 114.376 170.151C121.696 167.881 124.988 177.243 125.555 182.689C126.236 189.1 125.101 195.625 124.307 201.923C123.569 207.54 123.455 213.043 123.853 218.716C124.42 225.922 125.612 233.014 125.725 240.219C125.895 252.247 119.483 261.665 108.701 266.885C108.531 267.055 108.701 267.339 108.928 267.282Z" fill="#40321D" fill-opacity="0.03"/>
<path d="M94.1189 249.75C93.6649 254.743 97.6939 260.586 102.971 261.21C107.795 261.778 114.32 257.409 115.342 252.643C115.399 252.473 115.172 252.36 115.058 252.473C111.994 255.423 109.1 259.111 104.503 259.735C98.9423 260.473 95.3106 254.232 94.4594 249.693C94.4026 249.523 94.1189 249.58 94.1189 249.75Z" fill="#40321D" fill-opacity="0.03"/>
<path d="M89.2375 262.345C92.1883 268.076 98.0899 270.459 104.389 269.608C107.566 269.154 110.631 267.735 113.355 266.09C116.532 264.161 118.518 261.778 120.334 258.658C120.391 258.601 120.278 258.487 120.221 258.601C116.873 262.856 110.461 266.147 105.24 267.508C98.9411 269.154 93.7205 266.884 89.4645 262.175C89.4078 262.005 89.1808 262.175 89.2375 262.345Z" fill="#40321D" fill-opacity="0.03"/>
<path d="M94.9128 252.871C94.8561 254.971 95.1398 256.049 96.7855 257.524C98.4311 258.999 100.758 259.85 102.857 260.304C105.297 260.871 107.397 260.701 109.61 259.453C112.334 257.921 113.185 255.254 114.887 252.928C114.944 252.871 114.831 252.815 114.774 252.871C111.596 255.935 108.191 259.623 103.368 258.545C100.814 257.978 95.4236 256.162 95.3101 252.871C95.3101 252.644 94.9696 252.644 94.9128 252.871Z" fill="#40321D" fill-opacity="0.03"/>
<path d="M94.3438 251.453C94.3438 256.673 100.643 258.489 104.898 258.602C107.452 258.659 110.062 257.581 111.992 255.992C113.24 254.971 114.375 253.836 115.34 252.531C116.361 251.226 116.531 250.205 117.269 248.673C117.326 248.56 117.156 248.503 117.099 248.56C114.772 252.304 110.289 256.276 105.75 256.787C103.593 257.07 101.267 256.56 99.2807 255.652C97.2378 254.744 96.1596 252.872 94.741 251.283C94.5707 251.17 94.3438 251.283 94.3438 251.453Z" fill="#40321D" fill-opacity="0.03"/>
<path d="M99.9619 259.283C102.913 259.453 107.452 260.361 108.758 256.957C108.814 256.73 108.587 256.616 108.417 256.673C106.828 257.524 105.183 257.808 103.367 257.921C102.062 257.978 100.756 257.978 99.8484 259.056C99.7917 259.113 99.8484 259.283 99.9619 259.283Z" fill="#40321D" fill-opacity="0.03"/>
<path d="M107.623 257.523C106.431 257.92 105.126 258.091 103.878 258.374C102.289 258.715 100.586 257.977 99.2244 257.24C98.9975 257.126 98.7137 257.353 98.884 257.58C99.9621 258.998 101.04 259.85 102.913 259.963C104.786 260.076 106.261 258.772 107.793 257.92C108.02 257.807 107.907 257.41 107.623 257.523Z" fill="#40321D" fill-opacity="0.03"/>
<path d="M94.402 252.076C95.3099 254.97 95.9341 257.012 98.4877 258.884C100.19 260.133 104.333 261.778 106.205 260.36C106.489 260.133 106.489 259.792 106.205 259.622C105.297 258.941 104.219 259.055 103.084 258.884C101.892 258.714 100.758 258.317 99.6794 257.75C97.5798 256.672 95.4802 254.119 94.6857 251.963C94.629 251.793 94.3452 251.849 94.402 252.076Z" fill="#40321D" fill-opacity="0.03"/>
<path d="M95.8197 221.837C92.9824 232.05 87.9888 249.638 99.565 256.503C104.445 259.396 110.46 257.808 114.319 254.063C116.475 251.964 117.667 249.014 118.405 246.177C119.483 242.149 118.575 238.631 118.348 234.603C118.348 234.546 118.291 234.546 118.291 234.603C118.121 237.667 117.724 241.128 117.156 244.191C116.702 246.688 115.738 249.014 114.319 251.113C110.971 256.219 104.275 257.467 99.2812 254.12C94.4011 250.829 94.0606 243.681 94.1741 238.461C94.2876 232.958 95.0253 227.171 96.1602 221.837C96.1602 221.724 95.8765 221.667 95.8197 221.837Z" fill="#40321D" fill-opacity="0.03"/>
<path d="M88.1601 223.255C87.1387 225.751 86.1173 227.964 85.4363 230.574C84.7554 233.184 84.3014 235.85 84.0177 238.573C83.3367 244.077 83.9042 249.807 85.7768 255.027C88.7276 263.367 95.9343 270.345 105.297 269.041C113.412 267.906 120.051 260.757 123.853 254.006C129.414 244.134 127.939 232.616 125.158 222.12C125.102 221.836 124.648 221.893 124.648 222.177C124.704 232.162 127.485 241.637 122.945 251.112C119.711 257.864 113.809 264.331 106.432 266.544C96.9557 269.324 89.8057 260.984 87.0252 252.928C83.8474 243.623 85.72 232.559 88.3871 223.368C88.4438 223.198 88.2169 223.141 88.1601 223.255Z" fill="#40321D" fill-opacity="0.03"/>
<path d="M82.0876 216.958C81.1229 225.979 78.9098 234.83 77.7182 243.794C76.867 250.318 77.3777 256.503 79.4205 262.8C82.7118 272.956 90.8832 284.757 102.459 286.119C112.73 287.31 119.767 275.736 123.966 268.19C130.095 257.183 136.11 245.95 137.472 233.241C138.266 226.092 137.585 218.83 136.564 211.738C135.258 202.717 134.18 193.98 134.18 184.845C134.18 177.64 135.485 170.264 133.499 163.229C132.137 158.463 128.449 153.641 123.512 152.279C114.433 149.783 106.261 160.733 102.062 167.087C98.9411 171.739 96.728 176.732 94.5149 181.838C90.9967 189.952 87.6487 198.065 84.9249 206.462C80.442 220.305 78.2289 235.397 77.6614 249.921C77.6047 250.999 79.307 250.999 79.3638 249.921C80.215 232.163 83.7332 214.405 90.032 197.724C94.6852 185.356 99.5086 172.193 108.247 162.038C111.425 158.35 115.738 154.208 120.845 153.868C127.938 153.414 131.74 161.924 132.535 167.598C132.989 170.945 132.762 174.406 132.591 177.753C132.308 182.292 132.308 186.774 132.478 191.313C132.762 199.88 134.407 208.107 135.372 216.561C136.223 223.709 136.223 230.915 134.918 238.007C133.556 245.155 130.492 251.51 127.144 257.921C122.604 266.715 118.064 278.176 108.645 282.885C103.197 285.608 97.2387 282.941 92.8693 279.424C87.6487 275.225 84.017 269.098 81.6336 262.914C75.959 248.049 81.7471 232.106 82.5983 216.844C82.4848 216.731 82.0876 216.731 82.0876 216.958Z" fill="#40321D" fill-opacity="0.03"/>
<path d="M78.6834 244.985C78.4564 247.084 77.9457 248.899 78.0592 251.055C78.1727 252.984 78.5132 254.913 78.9104 256.842C79.8183 261.268 81.5775 265.523 83.7338 269.438C87.3655 276.019 93.6643 283.168 101.552 284.302C108.362 285.267 113.979 280.161 117.838 275.225C123.172 268.473 126.804 260.53 130.719 252.984C130.719 252.928 130.663 252.928 130.663 252.928C128.393 256.332 125.953 259.566 123.853 263.083C122.208 265.863 120.392 268.587 118.519 271.253C114.887 276.416 109.894 282.317 103.084 282.43C95.31 282.544 89.0112 274.43 85.4929 268.473C83.4501 264.956 81.9179 261.098 80.8965 257.183C80.329 255.197 79.9886 253.155 79.7616 251.055C79.5346 249.126 78.9671 246.914 79.0806 244.985C79.0239 244.758 78.6834 244.814 78.6834 244.985Z" fill="#40321D" fill-opacity="0.03"/>
<path d="M83.0528 199.03C81.9179 203.228 80.4993 207.313 79.4778 211.625C78.3429 216.277 77.3782 220.929 76.3568 225.582C74.4842 234.035 72.1576 242.376 71.3632 250.999C70.1148 265.24 75.3354 278.459 84.0175 289.58C91.1107 298.601 101.836 306.09 113.809 303.14C125.272 300.303 132.649 289.977 137.359 279.878C142.693 268.417 146.154 255.368 148.14 242.943C150.978 225.525 148.594 208.164 148.538 190.633C148.481 181.612 148.878 172.591 149.275 163.57C149.502 158.066 149.673 152.62 149.105 147.116C148.197 138.095 145.814 127.429 137.869 121.869C130.606 116.819 121.243 119.543 115.058 124.819C107.51 131.287 103.084 141.102 99.5091 150.123C94.9127 161.584 91.3945 173.498 87.3088 185.129C84.585 192.845 81.8612 200.561 80.1588 208.561C78.5699 215.937 77.6052 223.539 74.9949 230.688C74.5977 231.766 76.2433 232.163 76.6405 231.142C79.6481 223.369 80.7263 215.142 82.5421 207.086C84.4715 198.405 87.7627 189.952 90.6568 181.555C94.9695 169.243 98.5445 156.534 103.992 144.62C108.305 135.202 114.774 123.628 125.896 121.415C138.096 118.919 144.168 130.72 146.325 140.592C149.105 153.414 147.232 166.804 146.892 179.739C146.665 188.817 146.722 197.952 147.289 207.029C147.8 215.823 148.197 224.561 147.516 233.355C146.495 247.141 142.806 261.325 137.813 274.204C133.33 285.778 126.123 297.636 113.469 301.211C95.5369 306.317 81.237 285.098 75.9596 271.027C71.5902 259.453 73.406 247.198 76.1298 235.511C77.5485 229.44 78.8536 223.369 80.1588 217.298C81.4072 211.284 82.3719 205.043 83.904 199.086C83.8473 198.803 83.1663 198.632 83.0528 199.03Z" fill="#40321D" fill-opacity="0.03"/>
<path d="M59.105 250.546C57.0621 270.914 65.574 292.473 78.3418 308.189C84.3001 315.508 92.0743 321.976 101.381 324.359C110.8 326.798 120.391 323.678 127.881 317.891C138.152 309.948 145.529 298.317 151.317 286.913C157.673 274.431 162.099 260.985 165.39 247.368C168.625 233.979 170.667 220.249 171.746 206.519C172.313 199.483 172.71 192.448 172.143 185.413C171.519 177.527 169.646 169.754 167.376 162.208C165.05 154.378 162.326 146.719 160.113 138.89C158.41 133.046 157.275 127.145 156.254 121.188C154.154 109.103 152.338 96.3946 146.21 85.6148C141.387 77.1612 131.626 69.3884 121.412 73.0762C112.049 76.4803 106.318 87.1467 102.629 95.7137C96.841 109.103 94.8549 124.025 92.0176 138.209C90.3152 146.549 88.3859 154.889 85.662 162.946C82.8248 171.286 78.7958 179.115 75.3343 187.228C68.6383 202.774 62.9637 218.83 60.1831 235.511C57.7431 250.319 57.1189 267.85 63.7014 281.75C64.0986 282.658 65.4038 281.864 65.0065 280.956C61.6018 273.353 60.8641 264.162 60.6371 255.935C60.4101 247.198 61.4315 238.461 63.1907 229.95C66.6522 212.873 73.1779 196.533 80.2712 180.704C83.6759 173.101 87.0239 165.555 89.4073 157.556C91.7906 149.386 93.4362 140.989 95.0819 132.649C97.7489 118.862 100.132 104.621 106.488 91.9692C110.914 83.2319 118.972 71.6011 130.378 74.4379C142.975 77.5583 148.139 92.4231 150.92 103.43C153.984 115.628 155.119 128.167 158.637 140.308C163.234 156.251 169.589 171.683 170.554 188.42C171.348 202.15 169.362 216.504 167.092 230.007C164.766 244.134 161.191 258.091 156.084 271.481C151.147 284.53 144.451 297.126 135.428 307.849C128.165 316.416 118.291 323.735 106.545 323.054C91.0529 322.146 79.3632 307.849 72.27 295.537C68.0708 288.332 64.9498 280.502 62.7934 272.446C60.9208 265.41 59.5022 257.751 60.1264 250.489C60.0129 249.921 59.1617 249.921 59.105 250.546Z" fill="#40321D" fill-opacity="0.03"/>
<path d="M3.77844 215.085C4.51614 220.418 4.62963 225.922 5.25384 231.312C5.87804 236.815 6.38876 242.318 6.78598 247.822C7.58042 258.602 7.8074 269.211 6.55899 279.934C5.31058 290.43 3.26773 300.756 2.3598 311.252C1.45186 321.181 3.15424 331.45 1.33837 341.265C1.28162 341.663 1.79234 341.776 1.90583 341.436C4.85662 332.471 3.32448 322.77 4.06217 313.465C4.91336 302.572 7.01296 291.849 8.37486 281.069C9.79351 269.949 9.45303 259.055 8.60185 247.878C8.14788 242.375 7.58042 236.872 6.89947 231.368C6.21852 225.865 4.85662 220.532 4.00543 215.085C4.00543 214.858 3.77844 214.915 3.77844 215.085Z" fill="#40321D" fill-opacity="0.03"/>
<path d="M5.99091 246.857C4.79925 252.19 5.30996 257.977 5.30996 263.424C5.30996 266.374 5.30996 269.325 5.30996 272.275C5.30996 274.885 5.08298 277.495 5.87742 279.991C5.99091 280.331 6.44488 280.331 6.55837 279.991C7.29607 277.495 7.12583 274.885 7.12583 272.275C7.12583 269.325 7.12583 266.374 7.12583 263.424C7.12583 257.977 7.63654 252.247 6.44488 246.857C6.38814 246.63 6.04766 246.63 5.99091 246.857Z" fill="#40321D" fill-opacity="0.03"/>
<path d="M4.91333 247.538C5.70777 250.261 5.82126 253.041 5.70777 255.878C5.65102 258.147 4.68634 261.608 5.82126 263.651C5.9915 263.934 6.38872 263.934 6.55896 263.651C7.80737 261.438 7.23991 257.523 7.18316 255.027C7.18316 252.474 7.06967 249.296 5.14031 247.367C5.08357 247.254 4.85658 247.367 4.91333 247.538Z" fill="#40321D" fill-opacity="0.03"/>
<path d="M5.9898 252.588C5.70607 257.921 5.53583 263.198 5.93305 268.531C5.93305 268.871 6.44377 268.871 6.44377 268.531C6.89773 263.198 6.7275 257.921 6.38702 252.588C6.38702 252.305 5.9898 252.305 5.9898 252.588Z" fill="#40321D" fill-opacity="0.03"/>
<path d="M13.3685 0.0571289C13.482 3.17759 13.6523 6.24132 13.709 9.36179C14.0495 21.3898 13.8225 33.4745 13.1983 45.5024C12.6308 57.1333 11.5527 68.7641 10.134 80.3382C9.45307 85.8415 8.94235 91.4016 8.65862 96.9617C8.37489 102.976 8.65862 108.99 8.43164 115.004C8.43164 115.117 8.60188 115.117 8.60188 115.004C9.22608 103.6 9.7368 91.8555 11.7229 80.5651C13.7658 69.0478 14.4467 57.19 15.0709 45.5024C15.8654 30.354 15.9221 15.2056 15.2411 0.0571289H13.3685V0.0571289Z" fill="#40321D" fill-opacity="0.03"/>
<path d="M11.5526 80.2803C12.9145 75.401 13.709 69.387 13.3118 64.2808C13.255 63.4298 11.9499 63.1461 11.7796 64.0539C11.2122 66.4935 10.7582 68.9332 10.4745 71.4295C10.1907 73.8692 9.62327 76.7627 10.4177 79.1456C10.588 79.5995 11.1554 79.5995 11.3257 79.1456C12.0633 77.0464 11.8364 74.6635 12.0066 72.5075C12.2336 69.7842 12.7443 67.1176 13.3685 64.451C12.8578 64.3943 12.3471 64.3376 11.8364 64.2241C12.2903 69.5005 10.0772 75.0039 11.3257 80.2236C11.2122 80.5072 11.4959 80.4505 11.5526 80.2803Z" fill="#40321D" fill-opacity="0.03"/>
<path d="M13.4812 54.6369C13.3677 58.8354 12.0626 63.6579 13.4245 67.7996C13.4812 67.9698 13.765 67.9698 13.8217 67.7996C15.1836 63.7146 13.9352 58.8354 13.765 54.6369C13.765 54.4667 13.4812 54.4667 13.4812 54.6369Z" fill="#40321D" fill-opacity="0.03"/>
<path d="M12.3457 53.5013C12.1754 58.1536 10.1893 62.579 11.7782 67.1746C11.835 67.4016 12.1187 67.3448 12.1754 67.1179C12.7996 62.579 12.7429 58.0402 12.7429 53.4446C12.6861 53.2744 12.3457 53.2744 12.3457 53.5013Z" fill="#40321D" fill-opacity="0.03"/>
<path d="M12.8008 438.795C13.2547 443.787 13.6519 448.95 14.5031 453.943H16.773C15.9218 448.61 15.2976 443.22 14.7869 437.773C13.8789 427.618 12.5738 417.519 11.8361 407.363C11.0984 397.151 10.9281 386.938 11.4389 376.726C11.7226 371.449 12.517 366.23 13.198 361.01C13.8789 355.563 14.1627 350.23 14.3896 344.727C14.3896 344.557 14.1059 344.557 14.1059 344.727C13.2547 355.45 10.4174 365.946 9.56624 376.726C8.71505 387.279 9.11227 397.888 9.84997 408.441C10.5309 418.597 11.9496 428.639 12.8008 438.795Z" fill="#40321D" fill-opacity="0.03"/>
<path d="M59.334 305.862C60.9229 312.217 62.8523 318.344 66.9947 323.564C71.4777 329.237 77.8332 331.677 84.4725 334.003C90.8848 336.216 99.6236 339.847 97.4673 348.13C96.7863 350.683 95.6514 353.123 94.9137 355.676C93.8923 359.307 93.9491 363.279 93.8356 366.967C93.6653 375.931 94.6867 384.895 95.084 393.859C95.6514 406.228 94.0625 418.426 92.8141 430.681C92.0197 438.397 91.3955 446.283 92.0197 453.999H93.8923C93.1546 441.801 95.1407 429.376 96.3891 417.348C97.2971 408.781 97.6375 400.327 97.1836 391.703C96.7296 382.739 95.8217 373.832 96.1054 364.867C96.2189 361.236 96.5026 357.719 97.6375 354.258C98.432 351.761 99.6804 349.322 100.021 346.712C100.815 340.641 95.9352 336.726 90.9415 334.287C84.132 330.996 76.5848 329.975 70.9102 324.642C65.4059 319.479 63.2495 312.444 61.4337 305.352C60.015 299.791 56.9507 294.799 54.4539 289.693C51.4464 283.452 50.3115 277.097 49.971 270.175C49.6872 263.651 50.2547 257.126 50.8222 250.658C51.4464 243.85 51.6734 237.269 51.5031 230.404C51.5031 230.12 51.1059 230.12 51.1059 230.404C50.8222 239.311 49.1198 248.275 48.3821 257.126C47.6444 265.75 47.4174 274.771 49.6305 283.225C51.7868 291.224 57.3479 297.862 59.334 305.862Z" fill="#40321D" fill-opacity="0.03"/>
<path d="M122.945 18.7799C121.527 14.5247 121.186 10.3263 120.789 5.90091C120.619 3.97189 120.392 1.98614 120.108 0.0571289H118.008C118.179 1.30531 118.349 2.49676 118.462 3.74495C118.916 7.48951 118.916 11.2341 119.711 14.9219C120.505 18.7799 122.037 22.5245 123.513 26.2123C126.35 33.361 129.698 41.1338 128.563 49.0201C127.598 55.8283 122.264 61.048 117.327 65.4167C107.113 74.3809 96.3881 82.6643 91.2242 95.6568C87.9897 103.883 86.0603 112.848 83.677 121.301C81.1802 130.266 78.6266 139.173 75.9028 148.081C70.285 166.123 63.0782 183.654 57.2901 201.639C54.5096 210.32 52.1263 219.17 50.5374 228.191C49.7997 232.39 49.1755 236.588 48.7783 240.843C48.5513 243.283 48.381 245.666 48.3243 248.106C48.2675 250.262 48.835 252.247 48.8918 254.347C48.8918 254.574 49.2322 254.574 49.2322 254.347C49.2322 252.588 49.6294 250.091 49.9132 248.333C50.1969 246.574 50.1402 244.702 50.2537 242.943C50.6509 238.177 51.3886 233.411 52.2965 228.702C53.9421 220.078 56.3255 211.625 58.9925 203.228C64.3266 186.264 71.1362 169.867 76.5838 152.96C82.2583 135.372 87.025 117.443 92.1321 99.6283C96.2178 85.3309 108.078 76.2532 118.859 66.8918C123.683 62.7501 128.109 57.9843 130.095 51.8568C132.365 44.7649 129.811 36.7084 127.258 30.0136C125.782 26.2123 124.194 22.5812 122.945 18.7799Z" fill="#40321D" fill-opacity="0.03"/>
<path d="M103.255 0.0571289C104.731 7.26256 106.49 14.4113 107.738 21.6167C109.157 29.4462 109.838 37.3892 108.987 45.3322C108.022 54.183 104.39 61.8423 99.737 69.3314C95.3108 76.4801 90.8279 83.6288 86.9124 91.0612C83.1672 98.3234 80.4434 105.869 78.287 113.699C73.7474 130.266 70.9101 147.286 64.7247 163.399C61.547 171.739 58.0855 179.966 54.9645 188.306C51.8434 196.817 48.7792 205.327 45.6581 213.781C42.8776 221.383 40.2105 228.702 38.9054 236.702C37.657 244.361 37.2597 252.191 37.43 260.02C37.657 274.204 39.2458 288.502 44.2962 301.834C49.1764 314.713 56.4399 327.082 65.9732 337.181C69.2077 340.585 72.7827 343.535 76.6414 346.202C79.9894 348.471 82.8834 351.478 82.8267 355.677C82.8267 359.194 81.2946 362.825 80.3866 366.173C78.8545 371.563 78.1735 377.009 77.8898 382.626C77.0386 396.753 78.4573 410.937 79.9894 425.008C80.7271 431.929 81.5215 438.851 82.089 445.83C82.316 448.553 82.4862 451.276 82.6565 454H84.6993C84.6993 452.695 84.6993 451.446 84.5858 450.255C84.2453 445.489 83.7914 440.723 83.2807 435.958C82.3727 426.88 81.2946 417.802 80.5569 408.668C79.8192 399.647 79.5354 390.569 80.1029 381.548C80.5001 374.74 82.0322 368.499 83.8481 361.974C84.9263 358.23 85.6072 354.485 83.9616 350.797C81.7485 345.918 75.9037 343.365 71.9882 340.018C61.093 330.656 53.2053 317.55 47.6442 304.501C41.9129 290.998 40.097 276.644 39.6431 262.063C39.3593 253.836 39.7566 245.553 41.005 237.439C42.2534 229.44 44.9772 222.064 47.7577 214.518C53.9998 197.668 60.2418 180.817 66.8243 164.137C73.1231 148.137 75.9037 131.003 80.3866 114.436C83.7914 101.784 89.4092 90.4371 96.2187 79.2602C102.631 68.7073 109.441 58.8921 110.973 46.4102C112.902 30.6377 108.476 15.4892 105.014 0.227336H103.255V0.0571289Z" fill="#40321D" fill-opacity="0.03"/>
<path d="M64.7805 336.273C66.2558 337.919 67.9015 339.337 69.5471 340.755C72.9519 343.649 76.6403 346.372 79.1372 350.117C82.3149 354.769 81.5205 359.705 80.2721 364.868C78.7399 371.109 77.2645 377.407 76.4701 383.761C75.6189 390.853 76.2431 397.775 76.8673 404.867C77.605 412.696 78.2292 420.526 78.6832 428.355C79.1372 436.128 80.2153 443.844 81.0098 451.617C81.0665 452.354 81.18 453.149 81.2368 453.943H83.5633C82.5419 445.036 81.2935 436.185 80.7828 427.277C79.9316 412.015 76.7538 396.47 78.9669 381.208C79.9316 374.57 81.6907 368.045 83.2796 361.521C84.2443 357.436 83.3931 353.124 81.2368 349.549C79.0804 345.918 75.5622 343.308 72.3277 340.699C70.455 339.223 68.5824 337.692 66.7666 336.103C65.1209 334.628 62.9646 332.869 61.7729 330.997C61.6594 330.827 61.3757 330.997 61.4892 331.167C62.6241 332.926 63.3618 334.685 64.7805 336.273Z" fill="#40321D" fill-opacity="0.03"/>
<path d="M78.9104 332.641C81.6342 333.946 84.6417 334.684 87.3655 336.102C92.0187 338.542 94.6858 342.286 94.856 347.506C94.9695 352.215 93.7778 356.924 93.2671 361.576C92.4727 368.952 93.4941 376.328 94.4588 383.647C96.3882 398.568 95.6504 413.944 95.083 428.922C94.7993 437.092 93.7211 445.602 94.0616 453.885H96.2747C95.8774 444.864 96.9556 435.673 97.2961 426.652C97.8635 410.823 98.0905 395.051 96.0477 379.335C95.1397 372.186 94.856 365.264 95.8207 358.116C96.4449 353.804 97.4663 349.265 96.7286 344.896C96.0477 340.868 93.7211 337.861 90.3731 335.591C87.8195 333.833 84.9255 333.038 82.0882 332.017C80.4993 331.45 78.9104 330.712 77.3783 329.918C75.9029 329.18 73.9168 328.443 72.6116 327.478C72.4414 327.308 72.1576 327.592 72.3279 327.762C74.5977 329.691 76.1866 331.336 78.9104 332.641Z" fill="#40321D" fill-opacity="0.03"/>
<path d="M94.6855 339.053C94.7423 340.755 95.1395 342.457 95.48 344.159C95.8205 345.691 96.0474 347.677 97.3526 348.641C97.6363 348.868 98.147 348.641 98.2038 348.301C98.4875 346.939 97.7498 345.577 97.4094 344.272C96.9554 342.457 96.6716 340.585 96.0474 338.826C95.8205 338.145 94.6855 338.202 94.6855 339.053Z" fill="#40321D" fill-opacity="0.03"/>
<path d="M94.0609 338.826C94.0041 338.769 94.0041 338.712 93.9474 338.655C93.7771 338.485 93.6069 338.485 93.3799 338.599C93.0962 338.712 92.926 339.45 93.0395 339.62C93.2664 340.301 93.6069 340.925 93.8906 341.549C94.2879 342.343 94.6851 343.081 95.0823 343.875C95.4228 344.442 95.6498 345.123 96.274 345.407C96.6712 345.577 97.1252 345.237 97.2386 344.84C97.4656 343.875 96.274 342.343 95.82 341.549C95.4795 340.982 95.139 340.357 94.7986 339.79C94.6851 339.563 94.5148 339.336 94.4014 339.052C94.3446 338.939 94.2311 338.826 94.1176 338.769C93.7204 338.542 94.1744 338.996 94.0041 339.223C93.8339 339.279 93.6637 339.393 93.4934 339.45C93.4934 339.45 93.4934 339.45 93.4367 339.45C93.8339 339.62 94.3446 339.223 94.0609 338.826Z" fill="#40321D" fill-opacity="0.03"/>
<path d="M91.3933 338.089C97.5786 337.805 95.479 350.4 95.0818 353.861C95.025 354.202 95.5358 354.258 95.706 354.031C98.0326 350.911 97.7488 346.145 97.1246 342.457C96.6139 339.337 94.7413 336.443 91.3933 337.805C91.2231 337.805 91.2231 338.089 91.3933 338.089Z" fill="#40321D" fill-opacity="0.03"/>
<path d="M96.2743 341.323C96.2175 343.592 95.8771 346.145 96.8417 348.301C96.9552 348.528 97.3524 348.528 97.4659 348.301C98.3739 346.145 98.1469 343.081 96.8417 341.152C96.6715 340.926 96.2743 341.039 96.2743 341.323Z" fill="#40321D" fill-opacity="0.03"/>
<path d="M94.5705 453.943C94.5705 451.9 94.6273 449.914 94.7408 447.872C95.0812 442.539 96.2161 436.865 95.4217 431.589C95.3082 430.965 94.2868 430.965 94.1733 431.589C93.3221 436.922 93.1519 442.539 92.7547 447.872C92.6412 449.574 92.4142 451.73 92.3574 453.943H94.5705Z" fill="#40321D" fill-opacity="0.03"/>
<path d="M95.1398 428.298C94.6291 429.886 94.5724 431.588 94.3454 433.234C94.1752 434.822 93.7779 436.638 94.2887 438.226C94.4589 438.794 95.1966 438.737 95.3668 438.226C95.9343 436.694 95.764 434.879 95.8775 433.234C95.991 431.588 96.1613 429.943 95.6506 428.298C95.5938 427.957 95.1966 428.014 95.1398 428.298Z" fill="#40321D" fill-opacity="0.03"/>
<path d="M103.991 2.61024C103.821 1.7592 103.651 0.908165 103.481 0.0571289H101.381C101.495 0.737958 101.665 1.41879 101.778 2.09961C103.821 12.4255 106.318 22.7514 107.226 33.2475C108.134 43.2897 106.942 53.2752 102.8 62.5232C98.941 71.0902 92.1882 77.8985 89.5211 87.0897C89.4644 87.3167 89.7481 87.3734 89.8049 87.1465C93.3799 77.4446 101.551 70.1825 105.58 60.7076C109.269 52.027 110.006 42.5522 109.269 33.3043C108.531 22.9216 106.034 12.7659 103.991 2.61024Z" fill="#40321D" fill-opacity="0.03"/>
<path d="M108.987 26.1555C108.59 26.7228 108.193 26.8363 107.909 27.6306C107.398 28.9355 107.398 30.5241 107.342 31.8858C107.285 34.0985 107.285 37.6728 108.703 39.5451C109.044 39.9423 109.725 39.7153 109.611 39.148C109.044 36.992 109.214 34.6658 109.157 32.4531C109.157 32.3964 109.101 32.3964 109.101 32.4531C109.044 34.6658 109.214 36.992 108.647 39.148C108.987 39.2047 109.271 39.2614 109.611 39.2614C109.498 36.992 108.874 34.7793 108.76 32.5099C108.703 31.2617 108.76 30.0135 108.874 28.7653C108.93 28.3114 108.987 26.7228 109.271 26.269C109.384 26.0988 109.101 25.9853 108.987 26.1555Z" fill="#40321D" fill-opacity="0.03"/>
<path d="M106.034 15.9428C105.296 19.8576 105.864 23.6021 106.602 27.4602C107.566 32.1692 108.077 37.0485 109.212 41.7008C109.325 42.1547 110.063 42.1547 110.12 41.7008C110.858 37.8995 109.666 33.7578 108.871 30.07C107.85 25.4177 106.885 20.7086 106.431 15.9428C106.488 15.7726 106.091 15.6591 106.034 15.9428Z" fill="#40321D" fill-opacity="0.03"/>
<path d="M123.795 23.375C124.306 27.3465 125.1 30.7507 126.349 34.552C127.768 38.9774 127.881 43.2325 126.916 47.7714C126.065 52.0266 124.193 56.0548 121.923 59.7426C119.823 63.1468 116.816 65.5297 114.489 68.7069C114.319 68.9906 114.659 69.331 114.943 69.1608C118.404 67.0615 120.788 64.7921 123.114 61.4447C125.611 57.7569 127.427 53.5017 128.505 49.1898C129.47 45.3885 129.64 41.4737 128.959 37.6157C128.108 32.6797 124.817 28.311 124.136 23.3183C124.193 23.0914 123.795 23.1481 123.795 23.375Z" fill="#40321D" fill-opacity="0.03"/>
<path d="M55.8128 211C54.7346 213.099 53.6564 214.915 52.9187 217.184C52.0108 219.964 51.6703 222.915 51.1596 225.808C50.2517 231.312 48.7195 236.701 47.9818 242.318C47.1874 248.276 46.9037 254.233 47.1874 260.247C47.3009 262.97 47.6413 265.693 48.0386 268.417C48.4358 271.14 48.379 273.977 49.287 276.643C49.4005 277.041 49.9112 277.041 50.0814 276.643C51.5001 272.161 49.7409 266.942 49.4005 262.403C48.9465 256.729 49.1167 251.056 49.6275 245.439C50.1949 239.595 51.6703 233.978 52.635 228.248C53.0322 225.695 53.4294 223.085 53.8834 220.532C54.4509 217.525 54.9048 214.007 56.1532 211.227C56.21 210.943 55.9262 210.773 55.8128 211Z" fill="#40321D" fill-opacity="0.03"/>
<path d="M151.83 102.068C152.171 104.621 151.83 107.287 152.227 109.897C152.681 113.188 153.476 116.365 154.384 119.542C156.029 125.386 157.675 131.23 159.491 136.96C161.25 142.52 163.179 148.024 164.484 153.754C165.563 158.633 165.052 164.817 167.946 169.016C168.23 169.413 168.74 169.129 168.684 168.732C167.889 163.91 167.662 159.03 166.811 154.208C165.79 148.477 163.803 142.917 161.988 137.414C158.186 125.783 154.951 113.982 152.284 102.068C152.114 101.841 151.83 101.897 151.83 102.068Z" fill="#40321D" fill-opacity="0.03"/>
<path d="M160 137.471C159.319 139.797 159.83 142.123 160.341 144.449C160.965 147.173 161.646 150.293 163.008 152.79C163.291 153.3 164.029 153.073 164.029 152.506C164.086 150.236 163.178 148.024 162.554 145.868C161.759 143.088 161.419 140.194 160.511 137.471C160.397 137.244 160.057 137.187 160 137.471Z" fill="#40321D" fill-opacity="0.03"/>
<path d="M162.099 142.86C163.518 149.952 165.901 156.874 167.036 164.079C167.717 168.334 168.398 172.646 169.079 176.901C169.419 179.057 169.703 181.157 170.044 183.312C170.441 185.639 171.349 187.908 171.519 190.234C171.519 190.461 171.859 190.461 171.859 190.234C171.916 186.206 171.859 182.518 171.349 178.547C170.725 173.894 169.987 169.299 169.249 164.646C168.568 160.221 167.263 156.023 166.185 151.654C165.39 148.59 165.107 144.846 162.553 142.69C162.326 142.463 162.042 142.633 162.099 142.86Z" fill="#40321D" fill-opacity="0.03"/>
<path d="M125.045 154.492C126.237 155.57 127.656 156.364 128.847 157.385C130.606 158.86 131.855 160.903 132.706 163.002C134.408 167.257 133.557 172.817 133.387 177.299C133.217 182.406 132.933 187.455 132.933 192.561C132.933 195.682 132.082 199.426 134.352 201.979C134.465 202.15 134.749 202.036 134.749 201.809C134.749 191.824 135.43 181.838 135.543 171.853C135.6 167.598 135.487 163.853 133.387 160.108C131.798 157.328 128.564 154.265 125.159 154.265C124.989 154.208 124.932 154.378 125.045 154.492Z" fill="#40321D" fill-opacity="0.03"/>
<path d="M27.0455 0.0571289H25.3999C25.9673 7.94339 26.5348 15.8864 26.8753 23.8294C27.2725 32.3398 27.2158 40.9069 26.3078 49.3605C25.3999 58.4382 23.9245 67.3457 23.4138 76.4234C22.3356 94.976 23.1868 113.529 23.357 132.081C23.4705 141.386 23.1868 150.634 22.8463 159.882C22.5058 168.959 23.1868 178.094 23.9245 187.172C24.6622 196.136 25.7971 205.214 25.5134 214.291C25.2296 223.369 23.3003 232.39 21.8816 241.354C19.0443 259.226 20.1793 277.495 20.1793 295.537C20.1793 310.799 20.6332 325.947 21.3709 341.209C21.5979 346.202 21.3709 351.024 20.917 356.017C20.1793 364.471 20.3495 373.038 20.8035 381.491C21.7114 398.285 24.3785 414.965 25.1162 431.703C25.4566 439.021 25.0594 446.511 25.2296 453.943H27.0455C26.932 446.17 27.3292 438.341 26.9888 430.795C26.2511 413.944 23.584 397.264 22.6761 380.413C22.2221 371.96 22.1654 363.449 22.9598 354.996C23.4138 350.173 23.5273 345.407 23.3003 340.585C22.5626 325.153 22.1654 309.834 22.1654 294.402C22.1654 275.793 21.3142 257.127 24.3217 238.688C25.6836 230.234 27.2725 221.78 27.5562 213.213C27.84 204.192 26.5915 195.058 25.8538 186.094C25.1162 177.016 24.5487 167.881 24.8892 158.804C25.2296 149.499 25.3999 140.251 25.3431 131.003C25.1729 112.451 24.3785 93.898 25.4566 75.3454C25.9673 66.6081 27.3292 58.041 28.2939 49.3605C29.2019 40.9069 29.1451 32.3398 28.8046 23.8294C28.4642 15.8864 27.7832 7.94339 27.0455 0.0571289Z" fill="#40321D" fill-opacity="0.03"/>
<path d="M67.9589 3.29107C67.8454 2.21309 67.6752 1.13511 67.5617 0.0571289H65.6891C66.5403 7.03562 67.2779 14.0141 68.2994 20.9926C70.8529 38.0701 74.7684 54.6369 73.4065 72.0548C72.6688 81.1325 70.172 89.7563 67.5617 98.4936C65.0081 107.061 62.3411 115.571 59.674 124.081C54.3966 141.045 49.176 158.066 45.374 175.484C41.4018 192.959 38.9617 210.944 36.5784 228.702C34.1951 246.29 32.6062 263.935 32.436 281.693C32.3225 294.629 36.2947 306.26 42.0828 317.72C47.6439 328.784 54.2831 339.45 57.1772 351.592C59.3903 360.783 58.1419 369.236 56.2125 378.314C53.8292 389.264 52.8077 400.498 52.6375 411.675C52.4105 425.745 53.5454 439.929 55.8153 453.943H57.9716C53.9427 427.277 52.751 400.214 59.2768 373.775C65.6323 348.074 46.9062 327.252 38.451 304.728C32.9467 289.977 34.3086 274.147 35.3868 258.715C36.6919 240.673 39.3022 222.745 42.1395 204.873C44.9201 187.058 48.3816 169.527 53.2617 152.166C58.0851 135.031 63.703 118.124 68.8101 101.103C71.9879 90.5506 74.8819 80.168 75.5628 69.1045C76.2438 58.2112 74.8819 47.2613 73.0093 36.5382C71.1367 25.418 69.2641 14.468 67.9589 3.29107Z" fill="#40321D" fill-opacity="0.03"/>
<path d="M38.7896 409.235C36.6332 400.044 34.8741 390.739 34.0229 381.378C33.3987 374.286 33.4554 367.137 33.115 360.045C32.7745 352.897 32.3773 345.805 31.98 338.656C31.0721 323.224 30.1074 307.792 29.54 292.303C28.9725 277.551 28.632 262.857 31.0721 248.276C32.0935 242.092 33.2852 235.907 33.9662 229.667C34.7039 222.802 34.8173 215.937 34.7606 209.071C34.5336 192.902 36.9169 176.732 38.7896 160.733C40.9459 142.464 43.159 124.195 44.4641 105.869C46.053 84.026 45.5423 62.126 45.3153 40.2827C45.2018 28.9356 45.0316 17.6452 44.8614 6.41153C44.8614 4.31231 44.8046 2.21309 44.7479 0.0571289H42.9888C42.9888 0.284072 42.9888 0.511015 42.9888 0.737957C42.9888 10.1561 43.159 19.5175 43.2157 28.9356C43.386 47.6584 43.8967 66.3812 43.4995 85.0472C42.705 121.755 36.2927 158.009 33.1717 194.547C32.0368 208.107 33.2285 221.61 31.2424 235.17C30.3344 241.241 29.086 247.255 28.2348 253.382C27.2701 260.814 27.0432 268.247 27.0999 275.793C27.3269 305.465 30.1642 335.082 31.2991 364.754C31.6396 374.059 31.9233 383.307 33.342 392.555C35.0443 403.505 37.7681 414.285 40.6622 424.951C42.0808 430.171 43.5562 435.333 44.4641 440.667C45.2018 445.092 45.5991 449.574 45.9395 454H47.8689C47.4717 447.986 46.8475 441.915 45.5991 435.958C43.8399 426.937 40.8892 418.143 38.7896 409.235Z" fill="#40321D" fill-opacity="0.03"/>
<path d="M6.50236 257.468C6.04839 260.588 5.76466 263.652 5.59442 266.829C5.42418 269.836 4.91347 273.354 5.87815 276.247C6.04839 276.701 6.78609 276.815 6.89958 276.247C7.58053 273.24 7.18331 269.893 7.2968 266.829C7.41029 263.652 7.46704 260.588 7.01307 257.468C7.01307 257.184 6.5591 257.184 6.50236 257.468Z" fill="#40321D" fill-opacity="0.03"/>
<path d="M6.84339 254.799C6.04894 257.92 6.38942 261.211 6.6164 264.388C6.84339 267.849 6.38942 271.65 7.07037 275.111C7.18386 275.621 7.86481 275.508 7.9783 275.111C9.16997 272.161 8.60251 268.529 8.37553 265.466C8.14854 261.948 8.03505 258.317 7.46759 254.799C7.41085 254.459 6.95688 254.516 6.84339 254.799Z" fill="#40321D" fill-opacity="0.03"/>
<path d="M6.50195 256.786C6.84243 261.098 6.67219 265.58 7.52338 269.778C7.58012 270.175 8.26108 270.175 8.37457 269.778C9.11226 265.466 7.52338 261.041 7.06941 256.786C7.01267 256.445 6.50195 256.389 6.50195 256.786Z" fill="#40321D" fill-opacity="0.03"/>
<path d="M177.761 146.322C174.924 138.606 171.235 131.23 168.171 123.628C165.844 117.784 164.312 111.884 163.064 105.756C161.929 100.083 160.283 94.5792 157.673 89.473C154.836 83.9696 150.296 79.6577 146.437 74.8919C142.011 69.4453 139.571 63.7717 138.72 56.85C137.982 50.7792 138.096 44.5951 138.266 38.4676C138.436 32.0565 138.323 25.6453 138.266 19.2342C138.266 12.8798 138.096 6.46866 137.869 0.114258H135.883C136.166 9.64586 136.45 19.1775 136.393 28.7091C136.28 43.5171 133.613 60.3108 142.579 73.2466C147.118 79.7712 153.19 84.9341 156.708 92.1963C160.227 99.4017 160.907 107.345 163.007 114.947C165.107 122.607 168.568 129.869 171.746 137.131C175.264 145.074 178.215 153.074 179.974 161.641C181.79 170.492 182.584 179.569 182.811 188.59C183.038 197.498 182.301 206.292 182.017 215.143C181.676 223.88 181.847 232.674 181.109 241.411C180.371 249.978 178.101 258.035 175.378 266.148C170.725 280.162 164.709 293.892 155.914 305.863C151.374 312.047 145.927 317.834 139.685 322.316C134.804 325.834 129.697 329.068 124.987 332.756C118.008 338.202 112.73 344.614 109.893 353.01C108.02 358.57 107.453 364.584 106.829 370.428C106.091 377.293 105.75 384.215 105.467 391.137C105.183 397.775 105.013 404.413 104.729 410.994C104.502 417.065 104.502 422.625 105.977 428.526C108.191 437.206 112.163 445.319 114.319 453.887H116.532C113.865 442.596 107.85 432.157 106.772 420.469C106.431 416.668 106.885 412.753 106.999 408.895C107.169 404.356 107.339 399.817 107.51 395.278C107.85 386.598 108.247 377.974 109.155 369.35C109.95 361.918 111.028 354.486 114.489 347.734C117.1 342.684 121.129 338.6 125.498 335.082C130.378 331.11 135.769 327.82 140.819 324.132C146.608 319.99 151.601 314.771 156.027 309.21C164.88 297.977 170.951 284.814 175.775 271.481C178.442 264.106 180.996 256.616 182.301 248.844C183.719 240.503 183.833 231.936 183.946 223.483C184.06 214.632 184.854 205.781 184.968 196.93C185.138 188.08 184.684 179.229 183.549 170.492C182.414 162.322 180.655 154.152 177.761 146.322Z" fill="#40321D" fill-opacity="0.03"/>
<path d="M182.642 136.563C179.918 127.485 177.138 118.407 174.414 109.33C172.655 103.486 170.839 97.6989 168.342 92.0821C165.959 86.8056 163.121 81.6994 160.454 76.5365C157.617 71.0899 155.063 65.5297 153.134 59.686C151.261 54.0124 150.354 47.9984 149.446 42.0979C147.233 28.1976 146.211 14.1272 145.871 0H144.338C144.395 4.93601 144.565 9.87201 144.849 14.808C145.7 30.4103 146.892 47.0906 151.942 62.0121C156.936 76.7634 166.413 89.4722 170.896 104.394C176.343 122.436 182.245 140.421 187.182 158.576C191.551 174.746 191.154 191.54 189.281 208.05C188.373 216.333 187.125 224.56 186.103 232.787C185.025 241.07 184.458 249.353 183.493 257.637C181.791 272.218 178.897 286.856 171.86 299.848C168.229 306.486 163.462 312.387 157.844 317.493C151.659 323.11 145.814 329.124 140.083 335.308C135.827 339.904 131.571 344.556 127.315 349.208C123.626 353.18 120.051 356.924 117.895 361.974C113.866 371.505 114.036 382.172 114.604 392.271C114.887 397.32 115.341 402.313 115.512 407.362C115.739 413.149 115.455 418.936 115.398 424.724C115.285 434.596 115.625 444.581 118.633 453.942H120.448C116.249 440.553 117.554 425.688 117.611 411.901C117.668 398.398 114.944 384.838 117.214 371.449C118.406 364.243 121.527 358.343 126.52 353.01C132.195 346.939 137.756 340.755 143.431 334.684C153.985 323.394 166.469 313.975 173.96 300.189C180.599 287.934 183.38 273.977 185.139 260.303C186.217 252.19 186.728 244.02 187.692 235.907C188.657 227.567 189.905 219.34 190.927 211C192.856 195.001 193.537 179.001 190.246 163.115C188.43 154.151 185.309 145.357 182.642 136.563Z" fill="#40321D" fill-opacity="0.03"/>
<path d="M197.792 164.421C195.409 156.194 193.196 147.911 191.039 139.627C188.883 131.344 186.556 123.061 183.265 115.174C180.144 107.685 176.285 100.536 173.278 92.9906C169.306 83.1754 165.731 73.1331 163.291 62.864C160.794 52.3679 160.113 41.4746 160.113 30.6948C160.113 20.5391 160.794 10.3267 162.099 0.114258H160.34C157.673 18.6101 157.162 37.3896 159.999 55.7153C162.326 70.7502 167.717 85.388 173.675 99.345C176.966 107.118 181.109 114.493 183.946 122.436C186.897 130.55 188.883 138.947 190.983 147.287C195.125 163.57 201.424 179.683 201.708 196.647C201.878 205.441 199.211 213.951 196.884 222.348C194.501 230.802 192.004 239.255 190.245 247.879C188.486 256.616 187.294 265.411 185.422 274.148C183.606 282.772 181.393 291.395 178.612 299.792C173.732 314.714 163.631 325.834 153.814 337.692C147.345 345.521 142.068 353.351 139.344 363.223C136.677 372.981 136.166 383.194 135.315 393.236C134.35 404.47 132.024 415.533 130.832 426.767C129.867 435.845 129.47 444.922 129.754 454H131.626C131.343 439.703 132.705 425.292 135.031 411.221C136.223 404.073 137.131 396.981 137.698 389.718C138.322 382.173 138.947 374.57 140.536 367.138C142.124 359.819 144.848 352.784 149.331 346.77C153.871 340.642 158.921 334.912 163.801 329.011C168.341 323.565 172.597 317.891 175.945 311.65C179.69 304.672 181.847 296.842 183.946 289.24C188.599 272.049 190.415 254.29 194.898 237.099C197.111 228.532 199.778 220.135 201.878 211.512C203.807 203.625 204.148 195.852 203.126 187.796C202.048 179.796 200.005 172.08 197.792 164.421Z" fill="#40321D" fill-opacity="0.03"/>
<path d="M203.241 157.612C200.744 148.988 198.644 140.194 196.318 131.513C191.664 113.812 187.011 96.0536 183.039 78.1818C181.11 69.5013 179.351 60.8207 178.386 51.9132C177.478 43.3461 177.081 34.6655 176.967 26.0417C176.797 17.3611 176.91 8.68057 177.024 0H175.492C175.265 9.02098 175.095 18.042 175.208 27.1197C175.322 36.0839 175.832 45.1049 176.797 54.0124C177.762 62.693 179.578 71.1466 181.507 79.657C185.479 97.5287 190.132 115.287 194.785 133.045C197.055 141.726 199.212 150.406 201.652 159.03C203.978 167.257 206.418 175.427 208.121 183.767C209.88 192.334 210.561 200.958 209.539 209.638C208.461 218.546 205.681 227.17 202.957 235.68C200.233 244.191 197.509 252.701 195.466 261.381C193.424 270.119 192.232 279.026 190.643 287.877C189.905 292.075 188.997 296.274 187.976 300.472C186.841 304.898 184.571 309.153 182.472 313.238C178.726 320.67 174.243 327.819 170.044 335.024C165.959 342.003 161.816 349.038 159.83 356.924C157.901 364.527 158.071 372.527 158.752 380.3C159.433 388.413 160.851 396.469 161.589 404.582C162.157 410.71 161.532 416.724 161.022 422.851C160.454 429.319 160 435.787 160.341 442.312C160.511 446.226 161.078 450.311 162.611 453.999H164.767C162.781 449.744 162.384 444.695 162.27 440.099C162.1 433.631 162.724 427.106 163.291 420.639C163.859 414.284 164.029 408.157 163.348 401.746C162.497 393.632 161.135 385.576 160.568 377.406C160 369.123 160.454 360.782 163.178 352.839C165.959 344.783 171.009 337.351 175.322 330.032C179.578 322.826 183.777 315.621 187.181 307.961C190.7 300.132 192.005 291.622 193.424 283.225C194.899 274.374 196.318 265.466 198.644 256.786C200.971 248.219 203.751 239.765 206.418 231.255C208.915 223.198 211.015 215.028 211.809 206.631C212.547 198.462 211.412 190.292 209.766 182.292C208.064 173.952 205.624 165.839 203.241 157.612Z" fill="#40321D" fill-opacity="0.03"/>
<path d="M206.986 104.961C204.035 86.5791 200.46 68.2535 198.984 49.7009C197.679 33.1908 197.679 16.624 197.736 0.0571289H196.204C196.034 9.13484 195.92 18.1558 196.034 27.2335C196.317 44.9918 198.133 62.4097 200.914 79.941C206.815 116.933 213.341 154.038 215.668 191.427C216.235 200.618 216.462 209.979 215.441 219.114C214.476 227.851 211.979 236.418 209.709 244.872C207.439 253.325 206.078 261.892 204.318 270.46C202.559 278.913 200.006 287.197 197.112 295.367C194.218 303.65 190.529 311.763 188.259 320.274C186.16 328.273 185.252 336.613 185.082 344.897C184.911 353.691 185.99 362.428 186.784 371.222C187.578 380.243 187.976 389.321 187.976 398.342C187.976 411.845 186.273 424.894 184.344 438.17C183.549 443.447 183.209 448.666 183.209 453.886H185.082C185.082 451.9 185.138 449.858 185.252 447.872C185.819 438.908 187.862 430.057 188.827 421.15C190.813 403.108 190.132 384.895 188.43 366.91C186.784 349.209 186.387 331.904 192.005 314.77C194.728 306.43 198.303 298.374 201.084 289.977C203.808 281.693 205.964 273.296 207.439 264.729C210.277 248.049 216.689 231.936 217.881 214.972C219.186 196.476 216.689 177.81 214.646 159.484C212.603 141.272 209.88 123.117 206.986 104.961Z" fill="#40321D" fill-opacity="0.03"/>
<path d="M272.186 406.908C272.754 422.567 273.321 438.226 273.492 453.942H275.307C274.967 417.858 272.754 381.774 272.754 345.634C272.754 308.018 272.697 270.459 272.64 232.843C272.584 215.992 272.584 199.199 272.243 182.405C272.243 181.951 271.506 181.951 271.506 182.405C270.654 219.794 271.052 257.296 271.052 294.742C270.995 332.13 270.881 369.519 272.186 406.908Z" fill="#40321D" fill-opacity="0.03"/>
<path d="M285.294 369.406C289.55 332.358 290.515 295.026 290.004 257.75C289.437 220.475 287.337 183.2 285.351 145.981C284.443 128.904 284.273 112.11 285.692 95.0891C286.259 88.224 287.11 81.8129 286.316 74.9479C285.692 69.331 284.443 63.544 285.011 57.8137C286.94 38.637 286.997 19.2901 286.713 0H285.521C285.521 13.6733 285.635 27.2899 285.067 40.9064C284.727 48.509 283.251 56.2818 283.876 63.8277C284.33 69.7282 285.521 75.5152 285.692 81.4157C285.805 84.8766 285.067 88.451 284.784 91.9119C284.386 96.2238 284.046 100.536 283.705 104.904C283.081 113.074 282.911 121.301 283.138 129.471C283.592 148.023 285.011 166.633 285.919 185.129C287.734 222.234 289.096 259.396 288.359 296.558C287.961 315.224 286.997 333.833 285.408 352.385C283.762 371.108 280.357 389.661 280.357 408.44C280.357 420.412 281.379 432.326 282.741 444.241C283.081 447.418 283.478 450.595 283.932 453.772H285.408C285.408 453.545 285.351 453.375 285.351 453.148C284.33 443.843 283.308 434.539 282.684 425.177C282.06 415.873 281.89 406.568 282.344 397.207C282.684 388.016 284.216 378.711 285.294 369.406Z" fill="#40321D" fill-opacity="0.03"/>
<path d="M366.952 436.865C367.122 433.971 368.03 430.794 368.824 428.014C369.846 424.383 371.264 420.468 373.648 417.461C376.258 414.171 378.755 417.064 379.89 419.958C381.365 423.645 381.592 427.787 381.649 431.702C381.705 435.049 381.478 438.51 380.514 441.687C378.811 447.418 372.456 447.928 369.051 443.446C367.235 441.063 367.803 437.262 367.859 434.425C367.916 432.837 368.2 430.964 368.484 429.376C368.767 427.957 368.313 428.411 368.2 429.035C367.632 431.645 367.065 434.255 366.498 436.865C366.441 437.205 366.952 437.319 367.008 436.978C367.576 434.198 368.484 431.191 368.597 428.355C368.597 428.184 368.37 428.184 368.313 428.298C366.725 433.517 364.284 439.872 368.03 444.751C370.413 447.815 374.499 448.95 378.017 447.304C381.195 445.772 382.216 441.858 382.67 438.68C383.294 434.198 383.181 429.603 382.557 425.121C381.989 420.979 378.641 410.142 372.853 416.043C370.186 418.766 368.881 422.908 367.803 426.425C366.781 429.716 365.646 433.461 366.498 436.922C366.554 437.205 366.952 437.149 366.952 436.865Z" fill="#40321D" fill-opacity="0.03"/>
<path d="M366.102 453.942C365.705 453.375 365.307 452.864 365.08 452.467C363.094 448.893 362.47 444.581 362.413 440.609C362.357 432.836 364.002 424.837 366.272 417.461C367.577 413.092 369.336 408.724 371.209 404.525C372.684 401.235 374.897 396.185 378.813 395.221C381.48 394.54 383.579 397.66 384.26 399.759C385.168 402.539 384.771 405.773 384.544 408.667C384.033 415.305 384.544 421.83 385.566 428.411C386.927 437.092 386.814 447.247 381.083 453.999H382.501C387.949 447.928 388.346 438.623 387.381 430.227C386.53 422.737 385.622 415.532 386.303 407.929C386.757 402.88 386.927 396.469 381.593 393.916C374.046 390.285 369.166 404.582 367.407 409.291C364.683 416.553 362.413 423.702 361.449 431.361C360.427 439.134 360.087 446.964 364.116 453.942H366.102V453.942Z" fill="#40321D" fill-opacity="0.03"/>
<path d="M353.501 453.943H355.601C354.807 451.219 354.409 448.382 354.239 445.716C353.842 438.964 355.09 432.156 356.339 425.518C357.871 417.632 359.346 409.689 361.446 401.916C363.432 394.54 366.099 387.165 370.185 380.697C373.135 376.044 377.335 370.711 382.839 369.009C390.159 366.74 393.451 376.101 394.018 381.548C394.699 387.959 393.564 394.484 392.77 400.781C392.032 406.398 391.918 411.901 392.316 417.575C392.883 424.78 394.075 431.872 394.188 439.078C394.302 444.695 392.94 449.687 390.386 453.999H392.486C395.437 448.78 396.061 442.879 395.891 436.922C395.607 427.901 393.734 419.05 393.734 410.029C393.734 403.618 395.096 397.207 395.664 390.852C396.401 382.739 395.437 364.924 382.896 367.194C378.129 368.045 374.043 372.527 371.263 376.158C367.404 381.151 364.737 386.768 362.524 392.668C358.836 402.427 357.076 412.809 354.92 422.965C353.274 430.738 351.799 438.567 352.196 446.567C352.366 449.007 352.764 451.503 353.501 453.943Z" fill="#40321D" fill-opacity="0.03"/>
<path d="M382.67 453.943C383.18 453.149 383.521 452.298 383.748 451.39C383.805 451.22 383.578 451.107 383.464 451.22C382.556 452.071 381.648 453.036 380.74 453.887H382.67V453.943Z" fill="#40321D" fill-opacity="0.03"/>
<path d="M365.022 453.943C363.944 452.184 363.206 450.198 362.865 448.496C362.809 448.269 362.525 448.383 362.525 448.553C362.355 450.312 362.752 452.241 363.603 453.943H365.022Z" fill="#40321D" fill-opacity="0.03"/>
<path d="M381.934 453.943C382.388 453.206 382.842 452.412 383.352 451.674C383.409 451.617 383.296 451.561 383.239 451.617C382.444 452.412 381.65 453.206 380.799 453.943H381.934Z" fill="#40321D" fill-opacity="0.03"/>
<path d="M364.796 453.943C364.171 453.262 363.774 452.524 363.774 451.673C363.774 451.446 363.377 451.446 363.377 451.673C363.377 452.581 363.377 453.318 363.604 453.943H364.796Z" fill="#40321D" fill-opacity="0.03"/>
<path d="M381.366 453.942C382.217 453.148 383.012 452.297 383.806 451.333C384.827 450.028 384.998 449.006 385.735 447.475C385.792 447.361 385.622 447.304 385.565 447.361C384.033 449.801 381.593 452.354 378.869 453.942H381.366Z" fill="#40321D" fill-opacity="0.03"/>
<path d="M366.783 453.943C365.307 452.922 364.343 451.39 363.151 450.085C363.038 449.915 362.754 450.085 362.754 450.255C362.754 451.73 363.321 452.979 364.173 453.943H366.783Z" fill="#40321D" fill-opacity="0.03"/>
<path d="M363.944 453.943H365.136C364.284 452.922 363.603 451.787 363.206 450.766C363.149 450.539 362.809 450.652 362.866 450.879C363.206 452.014 363.49 453.035 363.944 453.943Z" fill="#40321D" fill-opacity="0.03"/>
<path d="M381.477 453.943C381.931 453.602 382.328 453.262 382.725 452.865C384.882 450.765 386.073 447.815 386.811 444.978C387.889 440.95 386.981 437.433 386.754 433.404C386.754 433.348 386.698 433.348 386.698 433.404C386.527 436.468 386.13 439.929 385.563 442.993C385.109 445.489 384.144 447.815 382.725 449.914C381.534 451.73 379.888 453.035 378.072 453.829H381.477V453.943Z" fill="#40321D" fill-opacity="0.03"/>
<path d="M366.098 453.943H369.446C368.822 453.659 368.255 453.376 367.687 452.978C362.807 449.688 362.467 442.539 362.58 437.319C362.694 431.816 363.431 426.029 364.566 420.696C364.623 420.469 364.339 420.412 364.282 420.639C361.615 430.171 357.076 446.284 366.098 453.943Z" fill="#40321D" fill-opacity="0.03"/>
<path d="M389.084 453.943H391.581C391.808 453.545 392.035 453.148 392.262 452.751C397.823 442.879 396.347 431.362 393.567 420.866C393.51 420.582 393.056 420.639 393.056 420.922C393.113 430.908 395.893 440.383 391.354 449.858C390.73 451.276 389.935 452.638 389.084 453.943Z" fill="#40321D" fill-opacity="0.03"/>
<path d="M354.242 453.942H356.398C356.058 453.205 355.774 452.41 355.49 451.673C352.312 442.368 354.185 431.305 356.852 422.114C356.909 421.943 356.682 421.887 356.625 422.057C355.604 424.553 354.582 426.766 353.901 429.376C353.22 431.986 352.766 434.652 352.483 437.376C351.802 442.879 352.369 448.609 354.242 453.829C354.185 453.829 354.242 453.886 354.242 453.942Z" fill="#40321D" fill-opacity="0.03"/>
<path d="M347.886 453.942C347.659 452.41 347.545 450.822 347.488 449.29C347.659 449.177 347.715 448.95 347.715 448.723C348.567 430.964 352.085 413.206 358.384 396.526C363.037 384.157 367.86 370.995 376.599 360.839C379.777 357.151 384.089 353.009 389.197 352.669C396.29 352.215 400.092 360.726 400.886 366.399C401.34 369.747 401.113 373.207 400.943 376.555C400.659 381.094 400.659 385.576 400.829 390.115C401.113 398.682 402.759 406.908 403.724 415.362C404.575 422.511 404.575 429.716 403.27 436.808C402.135 442.879 399.695 448.439 396.971 453.886H399.297C402.589 446.907 405.142 439.702 405.993 431.986C406.788 424.837 406.107 417.575 405.085 410.483C403.78 401.462 402.702 392.724 402.702 383.59C402.702 376.385 404.007 369.009 402.021 361.974C400.659 357.208 396.971 352.385 392.034 351.024C382.955 348.527 374.783 359.477 370.584 365.832C367.463 370.484 365.25 375.477 363.037 380.583C359.518 388.696 356.17 396.809 353.447 405.206C349.985 415.929 347.886 427.447 346.807 438.851C346.637 440.042 346.41 441.29 346.297 442.482C345.786 446.396 345.786 450.141 346.24 453.829H347.886V453.942Z" fill="#40321D" fill-opacity="0.03"/>
<path d="M398.048 453.942C398.388 453.205 398.786 452.467 399.126 451.786C399.126 451.73 399.069 451.729 399.069 451.729C398.559 452.467 398.048 453.205 397.537 453.942H398.048Z" fill="#40321D" fill-opacity="0.03"/>
<path d="M347.035 453.942H348.794C348.51 452.58 348.283 451.219 348.113 449.857C347.886 447.928 347.319 445.715 347.432 443.786C347.432 443.559 347.092 443.559 347.092 443.786C346.865 445.886 346.354 447.701 346.467 449.857C346.581 451.219 346.751 452.58 347.035 453.942Z" fill="#40321D" fill-opacity="0.03"/>
<path d="M341.644 453.942C341.701 447.418 342.949 440.836 344.425 434.425C344.992 432.042 345.503 429.66 346.014 427.333C348.34 420.355 349.305 413.093 350.95 405.944C352.88 397.263 356.171 388.81 359.065 380.413C363.378 368.101 366.953 355.392 372.4 343.478C376.713 334.06 383.182 322.543 394.304 320.273C406.505 317.777 412.576 329.578 414.733 339.45C417.513 352.272 415.641 365.662 415.3 378.597C415.073 387.675 415.13 396.81 415.697 405.887C416.208 414.681 416.605 423.419 415.924 432.213C415.414 439.418 414.109 446.737 412.293 453.942H414.222C415.187 449.857 415.981 445.772 416.662 441.744C419.499 424.326 417.116 406.965 417.059 389.434C417.003 380.413 417.4 371.392 417.797 362.371C418.024 356.868 418.194 351.421 417.627 345.918C416.719 336.897 414.336 326.23 406.391 320.67C399.128 315.621 389.765 318.344 383.579 323.62C376.032 330.088 371.606 339.904 368.031 348.925C363.435 360.385 359.916 372.3 355.831 383.931C353.107 391.647 350.383 399.363 348.681 407.362C348.51 408.1 348.34 408.894 348.227 409.632C348.17 409.859 348.113 410.142 348.056 410.369C346.921 415.022 345.957 419.674 344.935 424.326C344.708 425.461 344.425 426.596 344.141 427.731C343.971 428.355 343.744 428.922 343.517 429.546C343.403 429.83 343.46 430.057 343.573 430.227C342.041 436.695 340.566 443.163 339.942 449.801C339.828 451.219 339.771 452.581 339.771 453.999H341.644V453.942Z" fill="#40321D" fill-opacity="0.03"/>
<path d="M329.045 453.942C328.875 445.489 329.896 437.035 331.598 428.752C335.06 411.674 341.586 395.334 348.679 379.505C352.084 371.903 355.432 364.357 357.815 356.357C360.198 348.187 361.844 339.79 363.49 331.45C366.157 317.663 368.54 303.423 374.895 290.77C379.322 282.033 387.38 270.402 398.786 273.239C411.383 276.36 416.547 291.224 419.328 302.231C422.392 314.429 423.527 326.968 427.045 339.109C431.641 355.052 437.997 370.484 438.962 387.221C439.756 400.951 437.77 415.305 435.5 428.808C434.081 437.262 432.266 445.659 429.882 453.942H431.868C432.606 451.333 433.287 448.779 433.911 446.17C437.146 432.78 439.189 419.05 440.267 405.32C440.834 398.285 441.231 391.249 440.664 384.214C440.04 376.328 438.167 368.555 435.897 361.009C433.571 353.18 430.847 345.52 428.634 337.691C426.931 331.847 425.797 325.947 424.775 319.989C422.676 307.905 420.86 295.196 414.731 284.416C409.908 275.962 400.147 268.19 389.933 271.877C380.57 275.282 374.839 285.948 371.15 294.515C365.362 307.905 363.376 322.826 360.539 337.01C358.836 345.35 356.907 353.69 354.183 361.747C351.346 370.087 347.317 377.916 343.855 386.03C337.159 401.575 331.485 417.632 328.704 434.312C327.683 440.553 327.002 447.248 327.002 453.999H329.045V453.942Z" fill="#40321D" fill-opacity="0.03"/>
<path d="M275.193 446.624C275.363 449.064 275.534 451.503 275.647 453.943H277.52C277.406 451.503 277.236 449.064 277.066 446.624C276.612 441.121 276.044 435.617 275.363 430.114C274.682 424.611 273.32 419.277 272.469 413.831C272.469 413.661 272.186 413.717 272.186 413.888C272.923 419.221 273.037 424.724 273.661 430.114C274.285 435.561 274.796 441.121 275.193 446.624Z" fill="#40321D" fill-opacity="0.03"/>
<path d="M275.648 453.942C275.648 451.105 275.478 448.325 274.854 445.602C274.797 445.432 274.513 445.432 274.457 445.602C273.889 448.325 273.719 451.105 273.662 453.942H275.648Z" fill="#40321D" fill-opacity="0.03"/>
<path d="M274.228 453.943H275.703C275.703 453.886 275.703 453.829 275.703 453.772C275.703 451.219 275.589 448.042 273.66 446.113C273.547 446 273.376 446.113 273.433 446.283C274.057 448.836 274.228 451.333 274.228 453.943Z" fill="#40321D" fill-opacity="0.03"/>
<path d="M275.023 453.942C274.966 453.091 274.966 452.24 274.909 451.389C274.909 451.105 274.512 451.105 274.455 451.389C274.399 452.24 274.342 453.091 274.342 453.942H275.023Z" fill="#40321D" fill-opacity="0.03"/>
<path d="M318.945 453.942C319.058 452.41 319.229 450.935 319.342 449.46C319.966 442.651 320.193 436.07 320.023 429.205C320.023 428.921 319.626 428.921 319.626 429.205C319.342 437.432 317.867 445.715 317.072 453.942H318.945Z" fill="#40321D" fill-opacity="0.03"/>
<path d="M389.537 208.845C388.742 200.107 387.607 191.313 387.097 182.519C386.643 174.122 388.345 165.952 386.927 157.556C386.246 153.584 385.111 149.726 384.089 145.868C382.954 141.613 382.103 137.301 381.138 133.046C379.323 125.103 376.258 117.5 373.024 110.011C369.619 102.125 365.306 94.3519 363.547 85.8983C359.859 67.6861 368.314 49.247 371.662 31.6589C373.137 23.7727 374.669 15.8297 376.088 7.94339C376.542 5.33355 376.939 2.66697 377.223 0.0571289H375.237C374.896 2.83718 374.442 5.61723 373.932 8.28381C372.627 15.6027 371.094 22.8082 369.846 30.1271C367.122 46.0131 360.653 61.275 360.71 77.5581C360.71 85.5579 363.15 92.6498 366.328 99.912C369.789 107.798 373.478 115.685 376.315 123.854C379.096 131.854 380.401 140.251 382.614 148.364C383.749 152.449 384.827 156.591 385.338 160.789C385.962 165.272 385.281 169.583 384.997 174.066C384.43 182.86 385.848 191.654 386.756 200.334C387.154 204.192 387.21 208.05 387.778 211.852C388.402 215.766 389.764 219.568 391.239 223.255C394.077 230.518 397.254 237.666 397.141 245.666C397.027 252.815 391.92 258.488 386.927 263.084C377.053 272.105 365.647 280.048 360.313 292.813C356.965 300.813 355.092 309.607 352.766 317.947C350.269 326.912 347.772 335.819 345.048 344.727C339.43 363.166 332.053 381.038 326.152 399.42C323.258 408.441 320.818 417.632 319.058 426.993C318.264 431.192 317.697 435.39 317.299 439.589C316.845 444.184 317.299 448.553 317.356 453.092C317.356 453.319 317.697 453.319 317.697 453.092C317.64 449.291 318.378 445.489 318.718 441.631C319.115 436.865 319.796 432.1 320.704 427.391C322.293 418.767 324.676 410.256 327.4 401.916C332.791 385.009 339.6 368.556 345.048 351.648C350.723 334.06 355.489 316.132 360.596 298.317C364.682 284.019 376.542 274.942 387.324 265.58C391.92 261.552 396.233 257.07 398.332 251.226C400.659 244.815 398.843 237.439 396.687 231.255C394.02 223.88 390.275 216.844 389.537 208.845Z" fill="#40321D" fill-opacity="0.03"/>
<path d="M370.698 158.236C370.188 148.705 365.591 141.272 361.562 132.875C357.022 123.514 353.447 113.755 351.348 103.543C349.248 93.5576 346.468 83.7423 344.255 73.7568C341.871 62.8068 342.382 52.027 343.63 40.9636C344.822 30.6377 345.673 20.255 346.751 9.87241C347.092 6.58174 347.432 3.3478 347.773 0.0571289H346.354C343.971 15.7162 342.496 31.5455 340.907 47.3747C339.885 57.8141 340.623 67.7428 343.006 77.8985C344.141 82.6643 345.503 87.3734 346.695 92.0825C348 97.2454 348.851 102.465 350.043 107.628C352.256 117.103 356.001 126.237 360.2 134.975C362.413 139.57 365.194 143.882 366.84 148.705C368.485 153.47 368.655 158.633 368.655 163.626C368.599 168.335 368.315 173.044 368.485 177.753C368.712 183.087 369.62 188.363 370.585 193.583C372.457 203.341 374.897 212.93 376.486 222.745C378.018 232.503 378.359 242.546 375.862 252.191C373.252 262.063 366.556 270.573 361.335 279.254C356.342 287.537 351.859 296.104 348.908 305.352C345.787 314.997 343.687 324.983 341.361 334.855C338.977 344.727 336.367 354.542 332.565 363.96C328.536 373.945 324.621 383.988 320.932 394.087C317.357 403.902 313.328 413.66 310.207 423.589C307.483 432.27 306.405 441.461 306.065 450.539C306.008 451.617 306.008 452.695 305.951 453.829H308.221C308.505 441.234 310.491 428.809 315.031 416.724C318.832 406.569 322.464 396.299 326.209 386.144C329.898 376.272 334.211 366.627 337.615 356.641C344.198 337.181 346.127 316.245 354.299 297.352C358.271 288.161 363.719 279.594 368.996 271.084C373.933 263.141 378.132 255.425 379.38 246.006C381.877 226.773 375.351 207.88 372.06 189.214C370.131 178.831 371.266 168.676 370.698 158.236Z" fill="#40321D" fill-opacity="0.03"/>
<path d="M392.26 222.176C392.771 226.148 393.565 229.552 394.814 233.353C396.232 237.779 396.346 242.034 395.381 246.573C394.53 250.828 392.657 254.856 390.388 258.544C388.288 261.948 385.28 264.331 382.954 267.508C382.784 267.792 383.124 268.132 383.408 267.962C386.869 265.863 389.253 263.593 391.579 260.246C394.076 256.558 395.892 252.303 396.97 247.991C397.935 244.19 398.105 240.275 397.424 236.417C396.573 231.481 393.282 227.112 392.601 222.12C392.601 221.893 392.203 221.949 392.26 222.176Z" fill="#40321D" fill-opacity="0.03"/>
<path d="M317.584 453.943C317.584 450.709 317.754 447.418 318.095 444.184C318.662 438.34 320.137 432.724 321.102 426.993C321.499 424.44 321.897 421.83 322.351 419.277C322.918 416.27 323.372 412.753 324.62 409.973C324.734 409.746 324.393 409.519 324.28 409.802C323.202 411.902 322.124 413.717 321.386 415.986C320.478 418.767 320.137 421.717 319.627 424.61C318.719 430.114 317.187 435.504 316.449 441.12C315.881 445.432 315.598 449.687 315.541 453.999H317.584V453.943Z" fill="#40321D" fill-opacity="0.03"/>
<path d="M420.293 300.813C420.633 303.366 420.293 306.032 420.69 308.642C421.144 311.933 421.939 315.11 422.847 318.287C424.492 324.131 426.138 329.975 427.954 335.705C429.713 341.265 431.642 346.769 432.947 352.499C434.025 357.378 433.515 363.562 436.409 367.761C436.693 368.158 437.203 367.874 437.147 367.477C436.352 362.655 436.125 357.775 435.274 352.953C434.252 347.223 432.266 341.662 430.45 336.159C426.649 324.528 423.414 312.727 420.747 300.813C420.577 300.643 420.293 300.643 420.293 300.813Z" fill="#40321D" fill-opacity="0.03"/>
<path d="M428.408 336.215C427.727 338.541 428.238 340.867 428.749 343.193C429.373 345.916 430.054 349.037 431.416 351.533C431.7 352.044 432.437 351.817 432.437 351.25C432.494 348.98 431.586 346.767 430.962 344.612C430.167 341.831 429.827 338.938 428.919 336.215C428.806 335.988 428.522 335.988 428.408 336.215Z" fill="#40321D" fill-opacity="0.03"/>
<path d="M430.506 341.663C431.925 348.755 434.308 355.677 435.443 362.882C436.124 367.137 436.805 371.449 437.486 375.704C437.826 377.86 438.11 379.959 438.45 382.115C438.848 384.442 439.755 386.711 439.926 389.037C439.926 389.264 440.266 389.264 440.266 389.037C440.323 385.009 440.266 381.321 439.755 377.35C439.131 372.697 438.394 368.102 437.656 363.449C436.975 359.024 435.67 354.825 434.592 350.457C433.797 347.393 433.513 343.649 430.96 341.436C430.733 341.266 430.506 341.436 430.506 341.663Z" fill="#40321D" fill-opacity="0.03"/>
<path d="M393.453 353.293C394.645 354.371 396.064 355.165 397.255 356.186C399.014 357.662 400.263 359.704 401.114 361.747C402.816 366.002 401.965 371.562 401.795 376.044C401.625 381.15 401.341 386.2 401.341 391.306C401.341 394.426 400.49 398.171 402.76 400.724C402.873 400.894 403.157 400.724 403.157 400.554C403.157 390.568 403.838 380.583 403.951 370.597C404.008 366.342 403.895 362.598 401.795 358.853C400.206 356.073 396.972 353.009 393.567 353.009C393.453 353.009 393.34 353.179 393.453 353.293Z" fill="#40321D" fill-opacity="0.03"/>
<path d="M296.927 0.0571289H295.395C295.224 1.13511 295.111 2.21309 294.941 3.29106C293.749 13.2198 292.841 23.2053 292.557 33.2475C292.103 51.7434 295.508 69.9555 296.586 88.3946C297.835 109.5 296.927 130.89 296.813 151.995C296.7 171.002 296.53 189.952 296.132 208.958C295.849 221.78 295.678 234.603 294.714 247.368C294.26 253.269 293.238 259.056 292.671 264.956C291.536 276.303 291.366 287.707 291.366 299.054C291.422 310.458 291.763 321.805 291.82 333.152C291.876 344.443 291.082 355.733 291.252 367.024C291.423 378.03 292.728 388.98 293.522 399.987C294.373 411.391 293.295 422.171 291.423 433.404C290.288 440.27 289.436 447.021 288.982 453.829H290.685C290.798 451.844 290.969 449.801 291.196 447.815C292.33 437.036 294.884 426.483 295.735 415.646C296.586 404.753 294.884 393.689 294.033 382.796C293.125 371.619 293.182 360.669 293.579 349.492C293.919 338.145 293.692 326.741 293.465 315.394C293.068 294.232 293.409 273.41 296.076 252.418C297.438 241.808 297.438 230.915 297.721 220.248C298.743 181.441 298.743 142.577 298.799 103.713C298.799 84.5366 295.735 65.8138 294.544 46.7506C293.692 31.205 295.224 15.6027 296.927 0.0571289Z" fill="#40321D" fill-opacity="0.03"/>
<path d="M331.77 178.151C329.557 168.562 327.457 159.371 326.663 149.556C325.925 140.138 325.812 130.72 325.528 121.301C325.244 111.827 323.882 102.692 322.407 93.3874C320.705 82.8346 321.215 72.9058 323.542 62.4664C325.528 53.3887 328.138 44.5379 329.046 35.2333C330.181 23.489 328.706 11.7447 326.493 0.0571289H324.563C327.06 14.468 328.649 28.9924 325.925 43.6302C324.053 53.5589 320.932 63.1473 319.683 73.1895C318.378 83.6288 320.591 93.8413 322.237 104.11C323.939 114.607 323.655 125.33 323.996 135.882C324.336 145.754 324.961 155.683 326.72 165.442C327.628 170.321 329.103 175.087 330.238 179.966C331.543 185.583 332.451 191.313 333.359 197.044C335.005 208.107 336.594 219.114 338.636 230.12C340.622 240.73 342.211 251.396 342.211 262.233C342.268 273.296 339.942 283.736 336.877 294.289C330.692 315.338 323.599 336.046 317.924 357.265C312.193 378.541 308.902 400.328 305.837 422.114C304.362 432.61 302.886 443.277 301.979 453.943H304.192C305.781 434.766 308.731 415.703 311.796 396.697C315.257 374.91 320.761 353.748 327.23 332.642C330.465 322.146 333.813 311.706 336.991 301.21C340.055 291.168 343.006 281.239 343.914 270.8C345.843 249.751 339.942 229.099 336.991 208.447C335.402 198.292 334.097 188.136 331.77 178.151Z" fill="#40321D" fill-opacity="0.03"/>
<path d="M313.271 22.8649C312.023 15.319 310.831 7.71645 309.923 0.0571289H308.448C308.675 2.66697 308.902 5.33355 309.242 7.94339C310.207 15.7162 311.512 23.3755 312.647 31.0916C314.349 42.4387 313.782 53.8426 313.612 65.3032C313.328 80.1112 312.931 94.8625 312.704 109.671C312.477 126.464 312.988 143.315 313.101 160.109C313.328 192.618 312.874 225.071 312.25 257.581C312.023 270.119 312.136 282.714 311.512 295.253C310.377 318.174 307.426 340.925 304.759 363.676C303.454 374.853 302.092 386.03 301.355 397.264C300.901 404.923 301.355 412.639 301.014 420.355C300.617 429.206 299.028 437.83 297.553 446.567C297.155 449.007 296.815 451.503 296.531 454H298.517C298.744 452.014 299.028 450.028 299.312 448.042C300.56 440.099 302.149 432.27 302.773 424.213C303.398 416.27 302.944 408.327 303.227 400.384C303.568 389.491 305.043 378.598 306.292 367.818C307.597 356.414 309.015 345.01 310.264 333.606C312.477 313.408 313.895 293.267 314.066 272.956C314.122 262.517 314.406 252.134 314.576 241.695C315.257 204.76 315.371 167.768 314.747 130.776C314.293 103.543 315.655 76.2532 315.768 49.0201C315.825 40.1693 314.69 31.6022 313.271 22.8649Z" fill="#40321D" fill-opacity="0.03"/>
<path d="M431.756 305.806C430.11 297.352 427.613 289.012 422.109 282.204C415.98 274.658 409.284 268.19 407.525 258.261C405.823 248.673 406.731 238.688 406.901 228.986C407.071 219 406.05 209.072 405.653 199.143C405.255 188.76 406.107 178.377 405.653 168.052C405.255 158.747 402.248 149.783 399.638 140.932C393.622 120.45 393.622 97.6993 396.46 76.7071C399.24 56.339 404.291 36.1978 403.837 15.4892C403.723 10.2696 402.815 5.16334 401.68 0.0571289H399.694C400.716 5.16334 401.624 10.2696 401.794 15.4892C402.191 26.269 400.772 37.0488 399.07 47.6017C397.481 57.6439 395.495 67.5726 394.19 77.6149C392.828 88.111 392.431 98.4369 392.828 109.046C393.225 119.145 394.247 129.244 396.857 139.06C399.411 148.705 402.872 157.953 403.496 168.052C403.78 172.931 403.269 177.867 403.213 182.746C403.156 188.193 403.269 193.696 403.496 199.143C403.893 209.072 404.858 219 404.745 228.986C404.631 238.177 403.893 247.538 405.142 256.673C406.39 265.467 410.476 271.821 416.207 278.516C419.385 282.204 422.449 285.778 424.719 290.09C426.989 294.459 428.237 299.338 429.259 304.104C430.28 308.756 431.132 313.295 432.664 317.834C434.196 322.429 436.125 326.855 438.055 331.224C442.254 340.812 446.226 350.173 448.326 360.499C450.482 371.109 451.163 382.002 451.22 392.838C451.22 403.335 450.312 413.831 450.141 424.327C449.971 434.256 449.574 444.184 447.134 453.886H449.404C451.901 444.298 452.128 434.199 452.298 424.327C452.638 403.505 454.511 383.023 450.879 362.315C447.361 342.514 435.614 325.55 431.756 305.806Z" fill="#40321D" fill-opacity="0.03"/>
<path d="M453.945 436.412C453.718 438.227 453.548 440.043 453.321 441.858C452.923 445.887 452.526 449.915 452.072 453.943H453.888V436.412H453.945Z" fill="#40321D" fill-opacity="0.03"/>
<path d="M438.679 295.253C435.445 287.026 430.905 279.367 426.99 271.481C422.393 262.176 419.897 252.701 418.137 242.489C414.506 220.986 413.995 199.029 414.619 177.243C415.243 155.343 413.711 133.5 412.122 111.656C411.328 100.876 410.59 90.1534 409.682 79.3737C408.774 68.4804 408.037 57.4737 409.569 46.5804C411.101 36.0843 414.392 25.9853 416.038 15.4892C416.832 10.2696 416.605 5.10661 415.754 0.0571289H414.335C415.073 4.9364 415.187 9.92914 414.506 15.0921C413.087 25.5315 409.625 35.6872 407.98 46.1265C406.334 56.2822 406.902 66.6081 407.696 76.8205C408.491 87.5436 409.285 98.2666 410.079 108.99C411.612 130.833 413.2 152.676 412.747 174.576C412.293 195.795 412.463 216.844 415.47 237.893C416.832 247.652 418.591 257.354 422.507 266.431C426.139 274.828 430.792 282.714 434.707 290.941C439.247 300.586 441.744 311.139 444.808 321.295L453.944 351.648V344.046C452.071 337.975 450.142 331.904 448.269 325.89C445.205 315.678 442.595 305.125 438.679 295.253Z" fill="#40321D" fill-opacity="0.03"/>
<path d="M437.033 279.538C430.507 260.928 427.556 241.808 428.124 222.121C428.691 202.264 432.607 182.52 438.168 163.456C440.778 154.549 443.615 146.095 444.694 136.847C445.829 127.372 445.885 118.522 443.502 109.217C441.289 100.423 437.771 92.0261 435.387 83.2888C432.55 72.9629 429.996 62.5803 428.181 52.0274C426.421 41.6448 425.797 31.2054 426.194 20.7093C426.421 13.901 426.535 6.97928 427.159 0.114258H425.854C425.116 6.18498 424.833 12.3124 424.549 18.4399C424.095 28.6523 424.379 38.5811 425.797 48.7368C427.273 59.3464 429.826 69.7857 432.55 80.1116C434.99 89.4163 438.395 98.3805 441.062 107.628C443.899 117.5 443.842 126.748 442.651 136.904C441.459 147.116 437.884 156.478 435.104 166.35C429.769 185.3 426.478 204.873 426.024 224.561C425.57 243.624 428.861 262.12 435.047 280.105C438.111 288.956 441.686 297.693 445.715 306.147C448.893 312.842 451.617 319.48 453.886 326.345V319.99C452.298 315.622 450.482 311.366 448.382 307.111C444.069 298.147 440.324 288.899 437.033 279.538Z" fill="#40321D" fill-opacity="0.03"/>
<path d="M445.602 201.865C445.942 183.37 446.963 165.157 448.95 146.775C450.879 128.449 452.071 110.237 450.709 91.7982C450.084 83.3446 449.006 74.891 447.758 66.4941C446.453 57.7 444.126 49.0762 442.708 40.3389C441.119 30.6938 441.686 21.7863 444.523 12.4249C445.658 8.79385 446.85 5.16276 447.134 1.30473C447.19 0.907581 447.19 0.510431 447.19 0.113281H445.999C445.715 5.04929 443.899 9.58815 442.367 14.2405C439.36 23.3749 439.7 32.5661 441.232 41.9275C442.878 52.0265 445.375 61.8985 446.793 72.0542C448.269 82.7772 449.29 93.557 449.574 104.394C450.141 125.896 446.736 147.116 444.977 168.505C444.069 179.171 444.013 189.894 443.786 200.617C443.559 211.34 443.445 222.063 443.786 232.786C444.126 243.169 445.091 253.495 446.793 263.764C448.552 274.26 451.333 284.756 453.83 295.082C453.886 295.309 453.943 295.479 454 295.706V287.253C452.411 280.501 450.879 273.75 449.46 266.941C444.921 245.609 445.204 223.539 445.602 201.865Z" fill="#40321D" fill-opacity="0.03"/>
<path d="M218.393 40.8501C217.372 27.2903 216.464 13.6737 215.897 0.0571289H214.251C215.216 27.347 217.485 54.5234 219.642 81.7566C222.536 118.692 224.125 155.626 223.841 192.732C223.784 202.036 223.33 211.341 222.025 220.532C220.777 229.269 221.685 238.347 222.025 247.141C222.706 265.637 218.45 283.906 214.875 302.005C211.414 319.366 207.952 336.727 206.08 354.372C204.15 372.641 204.15 391.25 204.037 409.632C203.98 420.185 203.81 430.795 203.98 441.347C204.037 445.489 204.207 449.801 204.888 454H206.931C206.534 451.219 206.307 448.439 206.136 445.716C205.739 438.454 205.966 431.135 205.966 423.873C205.966 405.377 206.193 386.881 206.987 368.385C207.782 350.173 210.96 332.131 214.478 314.259C217.883 296.785 222.195 279.197 223.841 261.439C224.692 252.304 223.784 243.113 223.557 234.035C223.33 224.901 224.862 215.993 225.43 206.859C226.565 188.59 225.997 170.037 225.6 151.712C224.749 114.663 221.117 77.7851 218.393 40.8501Z" fill="#40321D" fill-opacity="0.03"/>
<path d="M230.592 170.207C230.139 160.846 230.082 151.484 230.309 142.123C230.479 133.102 231.273 124.194 230.365 115.173C229.514 106.379 227.698 97.6422 226.564 88.8481C224.18 70.5225 225.542 52.1969 227.698 33.928C229.06 22.6375 230.763 11.3471 231.387 0H229.458C229.231 4.08497 229.004 8.16994 228.55 12.2549C226.45 30.5238 223.386 48.736 223.272 67.1751C223.216 75.9124 224.01 84.7064 225.258 93.387C226.564 102.351 228.323 111.259 228.833 120.336C229.401 129.414 228.323 138.605 228.266 147.74C228.152 157.044 228.152 166.519 229.004 175.767C230.592 193.582 232.862 211.284 233.487 229.156C234.111 247.027 232.011 264.842 230.536 282.601C229.741 291.849 228.606 300.983 226.393 310.004C224.294 318.514 222.591 327.195 221.116 335.819C218.108 353.407 220.151 371.278 220.605 388.98C221.173 410.596 221.116 432.213 221.4 453.829H223.045C223.159 439.702 223.102 425.518 222.989 411.391C222.818 392.781 221.797 374.229 221.4 355.676C221.059 337.748 226.677 320.387 229.968 302.969C231.557 294.515 232.295 285.948 232.976 277.381C233.657 268.53 234.678 259.679 235.246 250.829C236.381 232.957 234.905 215.028 233.146 197.213C232.181 188.306 231.046 179.285 230.592 170.207Z" fill="#40321D" fill-opacity="0.03"/>
<path d="M261.347 0.0571289H259.588C258.737 4.82293 257.943 9.532 257.319 14.3545C254.878 32.9071 253.573 51.5732 253.46 70.296C253.346 89.0187 253.857 107.798 253.517 126.521C253.119 145.074 251.247 163.513 248.977 181.895C246.707 200.278 244.04 218.66 241.884 237.099C240.805 246.233 239.727 255.368 239.217 264.559C238.706 273.637 238.706 282.715 238.138 291.792C237.06 308.813 230.875 325.096 232.861 342.344C233.939 351.478 235.415 360.499 235.982 369.747C236.493 378.825 236.493 387.903 236.379 396.98C236.152 410.256 235.301 423.533 234.904 436.809C234.734 442.539 234.734 448.269 235.074 453.943H237.06C236.436 443.56 236.947 433.064 237.514 422.738C238.422 404.753 238.99 386.654 237.911 368.669C237.401 359.478 235.812 350.457 234.734 341.323C233.769 332.812 234.847 324.245 236.379 315.848C237.911 307.451 239.614 299.225 240.181 290.714C240.749 281.637 240.692 272.559 241.259 263.481C242.338 245.042 245.061 226.66 247.501 208.391C249.942 190.008 252.438 171.626 254.084 153.13C257.375 115.798 253.744 78.3524 256.524 41.0203C257.546 27.4037 258.794 13.5602 261.347 0.0571289Z" fill="#40321D" fill-opacity="0.03"/>
<path d="M271.165 43.3465C270.541 28.9356 270.314 14.468 270.995 0.0571289H269.292C267.533 30.9781 270.427 62.0125 272.13 92.9335C272.584 101.784 272.981 110.295 271.165 119.032C269.633 126.521 267.193 133.783 265.831 141.329C264.355 149.556 264.469 158.066 263.845 166.406C263.164 175.654 262.199 184.902 260.667 194.093C259.248 202.604 259.248 211.568 259.078 220.192C258.908 229.269 259.021 238.404 259.078 247.482C259.135 256.503 259.078 265.524 258.624 274.601C258.17 283.736 257.035 292.757 257.092 301.891C257.149 311.082 257.943 320.217 259.021 329.351C260.043 337.918 258.908 346.656 258.057 355.166C256.297 373.492 257.603 391.931 259.475 410.2C260.951 424.837 263.107 439.418 265.263 454H266.739C265.207 441.631 263.561 429.263 262.142 416.894C260.043 398.626 258.17 379.903 259.475 361.577C260.099 352.897 261.405 344.273 261.348 335.535C261.291 326.514 259.645 317.493 259.248 308.472C258.851 299.225 259.418 290.204 260.213 281.012C260.951 272.048 261.064 263.027 261.064 254.063C261.064 235.964 260.44 217.809 262.029 199.767C262.823 190.803 264.469 181.895 265.263 172.874C266.058 164.023 266.228 155.173 267.079 146.322C267.817 138.436 270.314 130.833 272.243 123.174C274.172 115.344 274.797 107.742 274.456 99.7418C273.548 80.9055 272.016 62.126 271.165 43.3465Z" fill="#40321D" fill-opacity="0.03"/>
<path d="M277.123 28.8221C277.293 19.7444 278.087 10.61 278.825 1.58899C278.882 1.07837 278.882 0.56775 278.939 0.0571289H276.669C275.874 10.0426 275.25 19.9714 275.08 29.9568C274.739 48.2825 277.577 66.4946 278.655 84.7068C279.166 93.6143 279.336 102.522 278.258 111.429C277.293 119.259 275.534 126.975 274.002 134.691C270.767 150.634 271.221 167.144 270.994 183.37C270.881 192.334 271.108 201.242 271.164 210.149C271.164 210.376 271.505 210.376 271.505 210.149C271.902 200.845 272.47 191.54 272.81 182.236C273.094 172.931 273.378 163.626 273.718 154.322C274.229 139.4 278.655 125.159 280.471 110.408C282.627 92.4796 279.96 74.0972 278.428 56.2255C277.577 47.091 276.953 38.0133 277.123 28.8221Z" fill="#40321D" fill-opacity="0.03"/>
<path d="M257.547 302.628C257.433 315.904 257.376 329.123 256.979 342.343C256.582 354.654 255.901 367.136 258.057 379.334C258.114 379.731 258.795 379.731 258.852 379.334C259.703 373.774 258.057 367.817 258.057 362.2C258.057 355.562 258.284 348.981 258.511 342.343C258.965 329.18 259.76 315.62 257.774 302.571C257.66 302.514 257.547 302.571 257.547 302.628Z" fill="#40321D" fill-opacity="0.03"/>
<path d="M257.717 326.06C256.809 332.074 257.093 338.485 257.036 344.556C256.979 347.846 256.923 351.08 256.866 354.371C256.809 357.548 256.355 361.122 257.15 364.243C257.263 364.697 258.001 364.697 258.114 364.243C258.795 361.463 258.512 358.342 258.512 355.506C258.512 352.272 258.568 348.981 258.625 345.747C258.739 339.336 259.306 332.528 258.285 326.173C258.228 325.776 257.774 325.776 257.717 326.06Z" fill="#40321D" fill-opacity="0.03"/>
<path d="M257.774 326.457C256.583 330.485 257.15 335.081 257.264 339.222C257.377 343.364 256.923 348.016 257.888 352.101C258.001 352.612 258.852 352.669 258.966 352.101C259.874 348.073 259.079 343.364 258.909 339.222C258.739 335.024 259.136 330.542 258.285 326.457C258.172 326.23 257.831 326.23 257.774 326.457Z" fill="#40321D" fill-opacity="0.03"/>
<path d="M257.148 326.287C258.17 329.805 258.51 333.038 258.283 336.67C258.113 339.677 257.262 343.137 258.17 346.031C258.34 346.542 259.134 346.598 259.248 346.031C259.986 342.797 259.815 339.052 259.986 335.762C260.156 332.471 259.986 328.67 257.999 325.947C257.716 325.493 256.978 325.72 257.148 326.287Z" fill="#40321D" fill-opacity="0.03"/>
<path d="M258 328.046C258.34 334.571 257.66 341.265 258.34 347.79C258.397 348.301 259.078 348.301 259.135 347.79C259.873 341.322 259.816 334.4 258.738 327.989C258.681 327.535 258 327.649 258 328.046Z" fill="#40321D" fill-opacity="0.03"/>
<path d="M297.495 164.988C298.289 158.01 297.779 150.918 297.608 143.939C297.438 136.62 297.154 129.301 297.098 121.982C296.984 114.664 297.098 107.345 297.495 100.082C297.835 94.2387 299.595 87.3737 297.154 81.7568C297.041 81.4164 296.474 81.5866 296.53 81.9271C296.587 84.8773 296.984 87.7708 296.871 90.7778C296.757 94.2387 296.076 97.6996 295.906 101.16C295.509 108.082 295.452 115.061 295.509 121.982C295.566 128.904 295.793 135.883 296.02 142.804C296.247 150.18 296.133 157.669 296.984 164.988C297.041 165.272 297.438 165.272 297.495 164.988Z" fill="#40321D" fill-opacity="0.03"/>
<path d="M296.7 127.883C298.005 123.514 298.459 119.202 298.402 114.664C298.402 112.054 298.232 109.501 298.119 106.891C298.005 104.735 298.175 102.465 297.608 100.423C297.494 100.026 296.927 100.026 296.814 100.423C295.849 104.224 296.814 108.82 296.984 112.735C297.154 117.727 297.324 122.947 296.246 127.826C296.246 128.053 296.643 128.167 296.7 127.883Z" fill="#40321D" fill-opacity="0.03"/>
<path d="M297.267 110.294C296.586 113.415 296.359 116.479 296.359 119.712C296.359 122.776 296.189 126.124 296.813 129.131C296.927 129.584 297.664 129.584 297.721 129.131C298.288 126.407 297.834 123.514 297.778 120.734C297.664 117.273 297.664 113.812 298.061 110.408C298.118 109.954 297.324 109.84 297.267 110.294Z" fill="#40321D" fill-opacity="0.03"/>
<path d="M296.076 115.344C296.076 120.28 295.963 125.329 296.984 130.209C297.041 130.492 297.551 130.436 297.551 130.152C297.211 125.216 296.927 120.337 296.927 115.344C296.927 114.777 296.076 114.777 296.076 115.344Z" fill="#40321D" fill-opacity="0.03"/>
<path d="M342.097 38.7503C341.587 49.0762 341.246 58.8915 343.119 69.1039C344.084 74.2668 345.332 79.3731 346.183 84.5927C347.034 89.3585 346.864 94.0676 348.85 98.6065C349.134 99.2873 350.212 98.7767 350.042 98.0958C348.907 93.4435 348.566 88.8479 347.772 84.1389C346.978 79.3163 345.786 74.5505 344.764 69.728C342.608 59.4021 342.778 49.1897 342.324 38.7503C342.381 38.5233 342.097 38.5233 342.097 38.7503Z" fill="#40321D" fill-opacity="0.03"/>
<path d="M393.906 89.1888C393.395 94.9191 393.566 100.593 394.19 106.323C394.814 112.11 396.176 117.727 396.687 123.514C397.197 129.244 397.367 135.031 398.048 140.762C398.729 146.208 399.581 151.825 402.645 156.477C402.815 156.704 403.212 156.591 403.099 156.25C401.794 150.69 400.262 145.357 399.524 139.684C398.786 133.953 398.673 128.166 398.162 122.436C397.708 116.989 396.346 111.713 395.665 106.323C394.927 100.649 394.814 94.8624 394.246 89.1888C394.246 88.9052 393.906 88.9052 393.906 89.1888Z" fill="#40321D" fill-opacity="0.03"/>
<path d="M393.85 110.408C393.453 114.607 393.794 118.635 394.418 122.776C395.042 127.032 395.382 131.854 396.688 135.939C396.858 136.45 397.482 136.28 397.539 135.826C397.936 132.138 396.744 128.11 396.063 124.479C395.269 119.826 394.418 115.117 394.248 110.408C394.304 110.124 393.907 110.124 393.85 110.408Z" fill="#40321D" fill-opacity="0.03"/>
<path d="M394.248 111.146C393.85 114.266 394.475 117.443 394.929 120.564C395.439 124.025 395.496 127.599 396.234 131.003C396.347 131.514 397.198 131.514 397.255 131.003C397.766 128.11 397.142 125.103 396.744 122.209C396.177 118.521 395.666 114.663 394.645 111.089C394.588 110.862 394.304 110.919 394.248 111.146Z" fill="#40321D" fill-opacity="0.03"/>
<path d="M394.645 111.542C394.305 117.046 394.134 124.194 396.745 129.187C396.915 129.584 397.596 129.414 397.539 128.96C397.369 126.464 396.631 123.967 396.234 121.471C395.667 118.18 395.269 114.776 394.986 111.486C394.986 111.315 394.702 111.315 394.645 111.542Z" fill="#40321D" fill-opacity="0.03"/>
<path d="M229.968 4.59632C230.082 7.37637 229.741 10.2699 229.741 13.1067C229.685 16.2839 229.514 19.5178 229.287 22.695C228.833 28.7657 227.982 34.8365 227.245 40.8504C225.712 53.1054 224.804 65.1901 225.542 77.5584C226.28 90.1538 228.096 102.692 229.174 115.288C229.685 121.415 229.912 127.543 229.458 133.67C229.004 139.741 228.266 145.641 228.55 151.712C228.606 152.393 229.571 152.393 229.628 151.712C230.025 145.698 230.763 139.684 231.274 133.67C231.784 127.486 231.444 121.415 230.99 115.288C230.025 102.692 228.096 90.2105 227.301 77.5584C226.507 65.1901 227.472 53.1054 228.89 40.8504C229.571 34.7797 230.309 28.7657 230.763 22.695C230.99 19.8582 231.103 17.0214 231.16 14.1847C231.217 10.894 230.706 7.887 230.422 4.65306C230.366 4.36938 229.968 4.36938 229.968 4.59632Z" fill="#40321D" fill-opacity="0.03"/>
<path d="M229.628 18.5525C226.62 22.6942 227.982 29.3323 227.131 34.1548C226.507 37.6724 225.826 41.1333 225.258 44.6509C224.747 47.8281 224.123 51.2322 224.918 54.3527C224.974 54.6931 225.485 54.6931 225.542 54.3527C226.336 51.3457 226.393 48.1118 226.847 45.0481C227.358 41.5304 228.095 38.0128 228.72 34.5519C229.628 29.2755 229.344 23.8856 230.025 18.6092C230.025 18.3823 229.684 18.3823 229.628 18.5525Z" fill="#40321D" fill-opacity="0.03"/>
<path d="M226.506 35.6301C225.428 40.5094 224.52 45.5022 224.917 50.4949C224.917 50.8353 225.428 50.8353 225.485 50.4949C225.939 45.5589 225.882 40.6229 226.96 35.7436C227.017 35.4599 226.563 35.3465 226.506 35.6301Z" fill="#40321D" fill-opacity="0.03"/>
<path d="M330.635 180.987C331.146 184.278 331.373 187.682 331.883 190.972C332.451 194.603 333.018 198.234 333.529 201.922C334.664 209.468 335.572 217.071 336.423 224.673C337.218 231.992 337.672 239.254 338.296 246.573C338.863 253.665 339.771 260.701 340.225 267.792C340.622 274.601 340.282 281.182 338.806 287.877C337.331 294.742 335.061 301.38 332.905 308.018C331.032 313.862 329.273 319.535 327.003 325.209C324.847 330.485 322.861 335.592 323.258 341.322C323.258 341.719 323.826 341.719 323.826 341.322C323.996 335.308 326.89 329.351 329.16 323.961C331.543 318.231 333.189 312.33 335.061 306.43C337.218 299.791 339.317 293.097 340.736 286.288C342.098 279.82 342.154 273.296 341.757 266.715C341.36 259.623 340.395 252.587 339.771 245.495C339.147 238.176 338.579 230.858 337.785 223.539C337.047 216.503 336.083 209.525 335.061 202.546C334.494 198.915 333.926 195.284 333.302 191.653C332.621 188.022 331.6 184.448 330.862 180.873C330.919 180.703 330.635 180.76 330.635 180.987Z" fill="#40321D" fill-opacity="0.03"/>
<path d="M338.467 227.453C337.786 230.573 338.24 233.864 338.467 237.041C338.751 240.616 339.205 244.133 339.659 247.708C340.113 251.282 340.51 254.856 340.85 258.431C341.134 261.608 340.907 265.126 341.929 268.189C341.985 268.416 342.326 268.416 342.383 268.189C343.404 265.126 342.78 261.608 342.496 258.431C342.212 254.856 341.702 251.282 341.248 247.708C340.794 244.133 340.34 240.616 339.999 237.041C339.659 233.864 339.772 230.573 339.035 227.453C339.035 227.169 338.581 227.169 338.467 227.453Z" fill="#40321D" fill-opacity="0.03"/>
<path d="M338.692 234.034C338.351 240.672 338.805 247.821 340.678 254.232C340.791 254.686 341.586 254.629 341.529 254.119C341.075 247.367 339.373 240.786 338.919 234.034C338.919 233.864 338.692 233.864 338.692 234.034Z" fill="#40321D" fill-opacity="0.03"/>
</svg>
