<svg width="125" height="146" viewBox="0 0 125 146" fill="none" xmlns="http://www.w3.org/2000/svg">
<path d="M125 41.9733C123.827 42.4165 122.628 42.8075 121.481 43.3029C121.038 43.4854 120.647 43.8764 120.309 44.2675C119.813 44.841 119.396 45.3364 118.536 44.7889C117.78 44.2936 116.92 43.9807 116.191 43.4593C115.409 42.9118 115.435 42.1297 116.269 41.7126C117.389 41.139 118.588 40.7741 119.761 40.3048C120.621 39.9398 121.377 39.5227 122.446 39.4445C123.801 39.3141 124.348 39.653 124.713 40.8001C124.765 40.9565 124.896 41.0608 125 41.2173C125 41.4519 125 41.7126 125 41.9733ZM52.2832 0C51.8661 0.834252 51.5013 1.6685 53.1432 2.1117C53.0129 1.27745 52.9087 0.651759 52.8044 0C52.622 0 52.4395 0 52.2832 0ZM63.4904 21.8991C63.5425 21.9512 63.5947 22.0555 63.6729 22.0816C64.5329 22.4205 65.4712 22.968 64.8978 23.9326C64.4808 24.6104 63.4643 24.9754 62.5 24.2976C61.7963 23.7762 61.5357 24.2194 61.3532 24.8711C61.0665 25.8618 60.6495 26.8003 60.4149 27.791C60.3107 28.3124 60.2846 29.0685 60.5974 29.4334C61.0665 30.007 61.0665 30.4241 60.858 31.0498C60.7016 31.5712 60.6495 32.4837 60.9362 32.6922C61.3271 32.979 62.1091 32.9008 62.7085 32.7965C63.4643 32.6662 64.2202 32.3794 64.976 32.1708C65.5494 34.6736 64.7154 37.3328 63.2298 38.2192C62.917 36.0814 62.917 36.1075 60.7016 36.7592C60.1543 36.9156 59.5548 36.8896 58.9814 36.9417C58.8511 37.3588 58.7469 37.776 58.5905 38.167C58.408 38.6102 58.1995 39.0273 57.965 39.4445C57.7825 39.7573 57.548 40.018 57.3655 40.3048C56.8442 41.0608 56.9485 43.1725 57.6261 43.4332C58.7208 43.8764 59.0336 42.8075 59.607 42.1819C60.024 41.7387 60.4931 41.3476 60.9362 40.9565C61.0405 41.0348 61.1708 41.0869 61.275 41.1651C60.3889 43.72 61.8224 44.9714 63.6989 46.1967C65.3409 47.2656 66.7223 48.6734 68.2079 49.9248C67.9212 50.2897 67.8951 50.4201 67.8169 50.4462C65.2367 51.4629 64.4287 53.9917 63.0734 56.0513C62.9952 56.1556 62.9431 56.2859 62.8909 56.3902C62.5 57.6937 62.1091 58.9972 61.692 60.3268C60.0761 59.7272 59.2681 60.4572 58.5644 61.4478C57.8347 62.4907 57.157 62.621 56.1145 61.9171C54.1858 60.6136 53.873 56.8855 55.5671 55.2692C55.7235 55.6342 55.8799 55.9991 56.0363 56.3641C56.1405 56.3381 56.2448 56.3381 56.3751 56.312C56.3751 54.9563 56.4012 53.6007 56.349 52.2711C56.349 52.0625 55.7756 51.6715 55.5411 51.7236C54.3422 51.9582 53.9773 51.2543 53.7948 50.3158C53.6385 49.5076 53.6384 48.6734 53.4299 47.8652C53.2996 47.3699 52.9347 46.9527 52.6741 46.4835C51.8922 48.4648 52.5438 50.1594 52.9608 51.88C53.4039 53.705 52.9347 55.2431 51.9183 56.5206C52.0746 57.068 52.205 57.4852 52.3092 57.9284C52.7523 59.5186 53.0651 61.1611 53.7166 62.6471C54.4985 64.4199 56.1405 65.1498 58.0171 64.8631C59.1378 64.6806 60.2585 64.4459 61.5096 64.2113C62.4739 66.323 63.4904 68.5129 64.559 70.8853C63.1516 71.3024 61.9266 71.7196 60.6756 71.9803C60.2325 72.0846 59.6591 71.876 59.216 71.6674C57.7825 71.0417 56.4012 70.2075 54.9156 69.6861C54.0815 69.3993 53.0911 69.5297 52.1789 69.4775C52.1007 69.6339 52.0486 69.8164 51.9704 69.9729C53.3778 71.2242 54.7592 72.5017 56.1405 73.727C55.2283 74.483 54.5767 75.2391 53.7688 75.6562C52.5177 76.308 51.1885 76.7512 49.8593 77.2204C49.5726 77.3247 49.1555 77.2204 48.8688 77.064C47.4875 76.2037 46.3668 75.1348 45.7673 73.5184C45.2721 72.1888 44.5423 70.9635 43.9168 69.6861C43.9429 68.7476 43.6822 67.783 43.6562 66.8444C43.6301 65.8537 43.8386 64.837 43.9429 63.6899C43.0046 64.1592 42.1445 64.5502 41.2323 65.0195C41.545 64.0027 41.9881 63.2206 41.9881 62.4385C41.9881 61.9693 41.3105 61.5 40.9456 61.0307C40.6589 61.3696 40.3461 61.6825 40.0594 62.0214C39.7206 62.4385 39.3818 62.8557 39.069 63.2988C38.9648 63.2467 38.8344 63.1946 38.7302 63.1424C38.8084 61.9432 38.9387 60.7439 38.9648 59.5447C38.9648 59.1797 38.7041 58.8147 38.5477 58.4758C38.1047 58.7105 37.5834 58.8408 37.2706 59.1797C36.9839 59.5186 36.9839 60.0922 36.7494 60.4832C36.3845 61.1089 35.9153 61.6564 35.4983 62.256C35.3941 62.1778 35.2638 62.1257 35.1595 62.0475C35.2116 61.5521 35.2898 61.0568 35.368 60.405C34.7164 60.3529 34.117 60.1965 33.5436 60.2747C32.892 60.379 32.2925 60.6918 31.667 60.9264C32.1101 61.3436 32.475 61.8389 32.9702 62.2039C33.6478 62.6732 34.0127 63.1946 33.4393 63.9245C32.6574 64.9413 31.8495 65.932 30.9372 66.8183C30.5463 67.2094 29.8165 67.5744 29.3474 67.4701C27.4708 67.053 25.6464 68.6172 23.7698 67.6265C23.6134 67.5483 23.2746 67.7569 23.0661 67.8612C21.2677 68.7997 21.3198 68.7736 20.1209 67.1051C19.7821 66.6358 19.0523 65.958 18.6874 66.0623C17.8274 66.323 16.7848 66.8183 16.446 67.5222C16.2375 67.9394 17.2018 68.9561 17.7492 69.66C17.9316 69.8947 18.3747 69.9207 18.6874 70.0511C19.756 70.5203 20.7986 71.0417 21.8932 71.4328C22.3884 71.6153 23.1443 71.7457 23.457 71.4849C24.9948 70.2336 26.715 70.3378 28.4091 70.781C30.833 71.4067 33.0484 72.4756 34.5601 74.6134C35.0813 75.3694 35.7329 76.0733 36.1499 76.9076C37.818 80.2967 40.8153 83.0602 40.6849 87.3357C40.6068 89.7603 41.4668 90.2556 43.8126 90.047C43.995 91.3506 44.2035 92.6541 44.3859 93.9576C42.9785 94.1922 42.0402 93.6969 41.2062 92.9408C40.6068 92.3934 40.0073 91.7677 39.3036 91.3766C36.5148 89.7863 34.4037 87.5964 32.9181 84.7548C32.5532 84.0769 32.1622 83.3209 31.5888 82.8516C30.416 81.9392 30.0511 80.8442 30.1814 79.4364C30.2075 79.0714 29.8686 78.4718 29.5559 78.3675C29.1649 78.2372 28.5915 78.4197 28.1745 78.6021C27.9139 78.7325 27.7575 79.1236 27.5751 79.3843C24.9166 78.6021 24.9166 78.6021 26.3501 76.0733C25.5161 75.7344 24.7342 75.2651 23.8741 75.1348C23.5613 75.0827 23.1964 75.9169 22.7533 76.1776C22.3363 76.4122 21.7629 76.5426 21.2938 76.4904C20.9028 76.4383 20.564 76.0733 20.1991 75.8387C18.7135 74.9262 17.9837 75.2912 17.7492 77.0379C17.7231 77.2986 17.671 77.5333 17.6449 77.7418C16.3417 78.0547 15.7683 78.4979 16.0029 79.2539C16.2114 79.9057 16.7588 80.6617 17.3322 80.9485C18.2965 81.3917 18.7917 80.5314 19.1827 79.7753C19.313 79.4885 19.5215 79.2539 19.73 78.9671C21.1374 81.2613 21.1374 81.522 19.6779 83.1905C20.3555 83.738 21.0071 84.2855 21.6326 84.8069C22.8837 83.7641 24.0044 83.2166 25.49 83.6077C26.7671 83.9466 28.1485 83.7119 29.2171 84.833C32.2665 87.9875 35.368 91.0638 38.5217 94.1401C39.3557 94.9483 40.294 95.8607 41.3365 96.1214C43.5519 96.6689 45.637 97.2946 47.696 98.4417C49.4162 99.4063 51.6837 99.3542 53.5081 100.397C54.264 100.814 55.1762 101.179 55.6453 101.805C56.2969 102.691 56.6097 103.838 57.0528 104.855C57.7304 106.445 58.4341 108.01 59.0857 109.626C59.2421 110.017 59.2421 110.46 59.2942 110.877C59.4766 112.103 59.5548 113.328 59.8415 114.527C60.0761 115.492 60.5713 116.378 60.9362 117.317C61.4053 118.542 61.2229 119.637 60.5713 120.784C59.7373 122.192 59.0075 123.704 58.4341 125.216C58.0953 126.128 58.0692 127.171 57.8607 128.475C58.8772 127.745 59.5288 127.249 60.1804 126.78C60.2846 126.911 60.3889 127.015 60.5192 127.145C59.5027 128.996 58.8772 131.264 57.3655 132.568C55.6453 134.08 55.0198 135.905 54.264 137.808C54.0033 138.486 53.7427 139.372 53.2214 139.685C51.4231 140.78 49.5465 141.849 47.5917 142.579C45.6631 143.283 43.578 143.543 41.5711 144.039C41.2323 144.117 40.8935 144.273 40.6328 144.482C40.3983 144.691 40.1376 145.029 40.1637 145.29C40.1897 145.473 40.6068 145.785 40.8674 145.812C42.2487 145.89 43.6301 145.968 45.0115 145.864C47.1747 145.707 49.3119 145.394 51.4752 145.212C53.4039 145.029 55.3586 144.925 57.3134 144.821C59.4767 144.717 61.6138 144.586 63.7771 144.664C65.7058 144.717 67.6345 145.029 69.5632 145.212C70.5015 145.29 71.5179 145.16 72.378 145.447C75.2711 146.359 78.138 145.916 81.0311 145.707C81.2396 145.681 81.5523 145.447 81.5523 145.29C81.5523 145.056 81.422 144.717 81.2135 144.586C80.8226 144.299 80.4055 144.065 79.9625 143.934C77.304 142.996 74.6195 142.136 71.9871 141.171C71.5961 141.041 70.9967 140.624 71.0227 140.363C71.1791 136.817 71.1791 133.246 71.7525 129.778C72.0131 128.214 72.4562 126.285 74.411 125.32C75.0626 125.007 75.1407 123.469 75.4274 122.479C75.4796 122.322 75.3232 121.931 75.2189 121.931C73.8636 121.749 74.411 120.784 74.3849 120.028C74.3588 119.168 74.411 118.281 74.2806 117.447C73.9418 115.361 73.4206 113.302 73.1078 111.216C72.7429 108.87 72.5605 106.497 72.1695 104.151C71.9089 102.665 72.2738 101.466 73.1078 100.241C74.1503 98.7024 75.0104 97.06 75.8705 95.4436C76.3136 94.6094 76.6264 93.6969 77.0434 92.8366C77.4604 91.9762 78.0598 91.6373 79.0503 92.0284C79.5455 92.237 80.171 92.1327 80.8226 92.1848C80.6141 92.3412 80.3795 92.4194 80.2492 92.5759C79.9364 92.9409 79.363 93.384 79.3891 93.749C79.4673 94.5051 79.8322 95.4436 80.7965 95.3133C83.0119 95.0265 85.1751 94.5833 87.3645 94.1922C87.5469 94.1662 87.7033 93.9837 87.9118 93.8272C88.7198 95.3654 90.1533 96.1214 91.5867 95.8868C92.8899 95.6782 94.5058 95.1829 94.8186 92.8626C95.6005 94.8179 96.8776 95.2872 98.5196 95.3915C98.4675 94.9743 98.5457 94.5311 98.3632 94.3486C97.5813 93.5926 97.451 92.628 97.3989 91.6373C97.3207 90.3338 96.4606 89.7081 95.3138 89.4996C93.0463 89.1085 91.1176 90.3599 89.0847 91.0899C88.5373 91.2984 88.2506 92.263 87.8857 92.8366C86.765 90.021 85.1491 88.8739 83.0379 89.4474C82.9076 89.9949 82.7773 90.4902 82.647 90.9856C82.3864 90.8813 82.1257 90.8031 81.9954 90.7509C82.4646 89.291 83.0119 87.9614 83.2986 86.5797C83.481 85.6933 83.3507 84.7026 81.9172 84.833C81.6045 84.859 81.2396 84.5462 80.9529 84.3376C80.3795 83.8684 79.8582 83.347 79.1806 82.7213C79.8061 79.7232 80.171 79.1236 81.8651 78.2632C81.813 77.794 81.813 77.2726 81.7087 76.7512C81.5002 75.7083 81.6045 74.9784 82.9337 74.848C83.1683 74.822 83.5592 74.092 83.5071 73.727C83.3507 72.7624 82.9337 71.8239 82.7252 70.8332C82.2821 68.7476 83.7417 66.7401 85.7485 66.6359C86.6608 66.5837 86.9475 66.9748 86.5826 67.783C85.9049 69.1647 86.3741 69.9729 87.9379 69.9207C90.0751 69.8425 92.1862 69.5557 93.7239 67.7569C94.1149 67.2876 94.6362 66.9487 95.0532 66.5055C95.6787 65.8798 96.2781 65.6191 97.06 66.2969C97.9983 67.079 98.6499 66.688 99.0148 65.6452C99.1972 65.1238 99.3276 64.5502 99.3536 64.0027C99.4058 62.6732 98.6239 62.2039 97.4249 62.8035C97.1122 62.9599 96.7994 63.0903 96.3303 63.2988C96.9037 61.4739 97.7116 61.0307 99.1191 61.5782C100.109 61.9693 100.657 61.6043 100.683 60.4572C100.735 58.1108 101.491 56.2338 103.706 55.0085C104.853 54.3828 106.078 53.5485 106.808 52.4796C107.85 50.9676 108.658 49.3512 110.639 48.8037C110.926 48.7255 111.004 47.9695 111.186 47.5263C110.717 47.3699 110.196 47.0309 109.753 47.1091C109.023 47.2656 108.319 47.6827 107.329 48.1259C107.199 47.4481 106.808 46.7702 107.016 46.3531C107.277 45.8317 107.955 45.2582 108.528 45.1799C111.682 44.7367 114.21 43.4332 115.669 40.4612C116.086 39.6009 116.582 38.7666 117.025 37.9324C117.181 37.6717 117.311 37.411 117.52 37.2024C118.458 36.1335 119.813 35.2471 120.283 34.0218C121.012 32.1708 121.143 30.0852 121.481 28.0778C121.69 26.8525 121.872 25.6011 122.055 24.454C121.742 24.2454 120.96 24.0369 120.752 23.5676C119.892 21.7166 117.859 21.3777 116.555 20.1003C115.852 19.4224 115.174 19.9699 115.304 20.9866C115.409 21.7166 115.539 22.4466 115.747 23.1505C116.217 24.819 116.608 25.0275 118.51 24.5061C118.51 26.0964 118.614 27.5824 118.484 29.0685C118.38 30.398 118.041 31.7016 117.754 33.0051C117.728 33.1615 117.337 33.2397 117.155 33.3961C116.764 33.709 116.243 33.9697 116.06 34.3868C115.487 35.7425 115.122 37.2024 114.496 38.5059C114.106 39.3402 113.35 39.9919 112.75 40.7219C112.62 40.6437 112.49 40.5655 112.385 40.5133C113.636 36.6549 112.464 33.2658 110.196 30.2416C109.44 29.2249 109.18 28.4949 109.831 27.3478C110.509 26.1746 109.883 25.2883 108.502 25.3665C107.772 25.3925 107.068 25.6272 106.73 25.7054C105.635 24.8451 104.749 24.1151 103.732 23.3069C104.436 22.7073 105.192 22.0555 105.974 21.3777C106.313 22.0295 106.469 22.5769 106.808 22.9419C107.225 23.3851 108.085 23.8283 108.241 22.9941C108.58 21.2213 110.196 21.1431 111.186 20.2045C112.073 21.3256 111.629 22.3423 111.317 23.2808C110.795 24.7668 110.561 26.1746 111.395 27.6607C111.629 28.0778 111.421 28.7295 111.447 29.277C111.473 29.5638 111.447 30.007 111.603 30.0852C111.864 30.2156 112.333 30.2416 112.542 30.0852C113.193 29.642 113.793 29.1467 113.245 28.1821C111.942 25.94 112.411 23.7501 113.61 21.6384C113.793 21.3256 113.949 20.9606 113.975 20.6217C114.236 18.6664 114.705 18.3796 116.529 19.1096C118.276 19.7874 119.813 18.536 119.683 16.6329C119.605 15.5119 119.709 14.3908 119.657 13.2698C119.631 12.6702 119.37 12.0967 119.24 11.5231C118.745 11.9402 118.224 12.3313 117.728 12.7745C117.624 12.8788 117.546 13.0873 117.546 13.2437C117.233 16.0854 114.992 16.4504 112.802 17.0239C112.125 15.4076 111.473 13.7912 110.743 12.0184C111.317 12.1749 111.603 12.3313 111.89 12.3052C113.584 12.1749 115.174 11.2885 116.92 11.471C117.077 11.497 117.285 11.2624 117.468 11.132C118.25 10.5324 118.145 9.43747 117.181 9.1507C115.669 8.7075 114.158 7.48219 112.698 9.20284C112.437 8.99428 112.333 8.83785 112.177 8.81178C111.629 8.68143 111.056 8.57715 110.509 8.47287C110.431 8.99428 110.3 9.51568 110.326 10.011C110.352 10.5064 110.535 11.0017 110.639 11.3667C109.597 10.8974 108.684 10.2978 107.668 10.0371C105.661 9.48961 104.697 10.5324 105.244 12.4877C105.896 14.7558 105.609 15.6161 103.837 16.5808C103.967 17.05 104.28 17.5714 104.227 18.0407C104.175 18.5621 103.915 19.3181 103.55 19.4746C102.299 19.9438 100.97 20.1785 99.6664 20.5434C98.9366 20.752 98.4414 20.5695 98.1286 19.8135C97.6334 18.6664 97.4249 17.5714 97.7898 16.294C97.9983 15.5901 97.6074 14.7037 97.5031 13.8955C96.9297 14.3648 96.3042 14.7558 95.809 15.2772C95.1574 15.9811 94.6101 16.7632 94.0628 17.5454C93.5415 18.3014 92.942 19.0314 92.5771 19.8656C91.9516 21.2473 91.5346 22.7073 90.1533 23.6458C89.7362 23.9326 89.632 24.6104 89.3713 25.1058C89.8926 25.3404 90.4399 25.8357 90.9352 25.7575C92.2123 25.575 93.3851 25.3404 93.4633 27.2435C95.1053 26.0182 95.1574 24.9493 93.8021 23.8022C93.5676 23.5937 93.333 23.0983 93.4112 22.8637C93.6718 22.1077 94.1149 21.3777 94.4277 20.6999C95.1835 21.1431 95.6787 21.5081 96.226 21.7427C97.7116 22.4205 97.7638 22.6291 96.8776 24.0108C96.643 24.3758 96.6691 24.9493 96.5648 25.4186C97.034 25.4447 97.5031 25.4968 97.9723 25.4968C98.4935 25.4968 99.3276 25.2622 99.4579 25.4707C99.7446 25.94 99.7706 26.6439 99.7706 27.2435C99.7706 27.7128 99.51 28.156 99.3797 28.6253C98.9887 29.9549 98.8584 31.2062 99.901 31.8058C100.109 32.979 100.344 33.7611 100.396 34.5693C100.422 35.0125 100.162 35.8468 99.9791 35.8728C96.7212 36.1075 94.6101 37.6977 93.6197 40.8523C93.2809 41.9472 92.4729 42.625 91.3782 43.0422C90.7527 43.2768 89.9708 43.5375 89.6059 44.0589C88.3288 45.8317 86.1656 45.4146 84.5496 46.2749C84.0805 46.5356 83.481 46.5617 82.9337 46.7181C83.2465 47.2395 83.5592 47.7609 83.898 48.2823C83.9762 48.3866 84.1326 48.4387 84.1847 48.543C84.3672 48.908 84.6539 49.2991 84.6539 49.664C84.6539 49.8205 84.0544 50.029 83.6895 50.1333C83.064 50.3158 82.4124 50.4201 81.7869 50.5504C81.7608 50.7329 81.7608 50.9415 81.7348 51.124C82.3342 51.3065 82.9076 51.6193 83.5331 51.6715C84.6278 51.7757 85.4618 52.0364 85.7746 53.2618C85.8528 53.6007 86.4262 53.8092 86.739 54.096C87.0257 54.3567 87.5469 54.826 87.4948 54.8781C87.156 55.4256 86.765 56.0774 86.2177 56.3641C85.7746 56.5727 84.9927 56.4684 84.5757 56.1816C84.3151 55.9731 84.315 55.191 84.4193 54.7217C84.5757 54.0439 84.7581 53.4182 83.9241 53.0793C82.6209 52.5318 81.3438 51.9582 80.0407 51.4368C79.754 51.3326 79.4412 51.3326 78.8157 51.2283C79.3109 52.0364 79.6236 52.5579 80.0667 53.2618C78.946 53.1835 78.0598 53.1053 77.1476 53.0532C77.0434 53.2096 76.9652 53.34 76.8609 53.4964C77.4083 54.0699 78.0338 54.5913 78.5029 55.217C78.8678 55.6602 79.3891 56.5988 79.2848 56.703C78.1902 57.6937 78.8678 58.528 79.4151 59.3362C80.197 60.5354 80.7704 61.7607 80.4837 63.2467C80.2492 64.5502 80.0407 65.8798 79.8322 67.1833C79.4412 66.8444 79.0763 66.2709 79.2327 65.958C79.8061 64.837 79.363 64.0027 78.6072 63.2728C77.5646 62.23 77.0955 61.2393 78.112 59.8576C78.7114 59.0494 78.112 58.2151 77.0955 58.2151C76.1051 58.2151 75.8445 58.919 75.7923 59.6751C75.6099 61.8389 75.9748 63.9245 77.2258 65.7495C77.3822 65.9841 77.6428 66.2709 77.6168 66.5055C77.5646 67.7308 77.4864 68.9822 77.2779 70.2075C77.1216 71.1982 76.8088 72.1628 76.6003 72.9449C74.6716 72.5017 72.6908 72.5538 71.3876 71.6414C69.3547 70.2336 66.9829 68.6954 67.2696 65.5409C67.3217 64.8631 67.0611 64.1852 67.009 63.4813C66.9308 62.6732 66.7483 61.865 66.8526 61.0829C67.1132 59.1015 66.7483 56.9898 67.9212 55.1649C67.9994 55.0606 68.0515 54.8781 68.0254 54.7999C67.5824 53.9657 68.2339 53.5746 68.7291 53.2357C69.9541 52.3754 71.2312 51.5672 72.6908 50.6286C72.378 50.3158 72.1174 49.9769 71.8046 49.6901C70.7621 48.8298 69.5632 48.0998 68.7031 47.0831C67.5042 45.6753 67.843 44.815 69.2504 43.5636C70.3451 42.5729 71.3355 41.3737 72.0653 40.0702C72.4301 39.3923 72.2477 38.2974 72.0392 37.4631C71.8307 36.5767 71.0749 36.7592 70.6839 37.3328C69.8238 38.6102 69.068 39.9659 68.26 41.2955C68.1036 41.5562 67.9472 41.8169 67.7387 42.0254C67.3217 42.4947 66.8005 42.8597 66.4356 43.3811C66.0967 43.8504 65.9143 44.4239 65.6537 44.9714C63.4643 43.6418 63.0734 42.4947 64.5069 40.5655C66.3053 38.1409 67.3217 35.56 67.3739 32.5097C67.3999 31.3626 68.5206 29.9809 69.9802 30.2938C70.6318 30.4241 71.4397 30.0331 72.1435 29.8245C73.6812 29.3292 74.8019 28.1821 75.662 26.9828C76.6264 25.6272 77.7471 25.184 79.2848 25.184C79.9885 25.184 80.7183 24.8711 81.422 24.7668C82.5949 24.6104 83.8198 24.6365 84.9406 24.3497C86.9735 23.8283 88.0942 22.0295 89.4495 20.6217C90.0229 19.996 90.3357 19.0574 90.5442 18.1971C90.8309 17.0239 91.0394 16.0072 92.6814 16.2679C93.0723 16.32 93.5936 15.6683 94.0628 15.3554C93.75 14.9644 93.4112 14.5733 93.0984 14.1823C92.8378 13.8434 92.4729 13.5566 92.3426 13.1655C92.1862 12.6441 92.2383 12.0445 92.1341 11.497C92.0038 10.7149 90.1533 9.33319 89.6841 9.75032C89.241 10.1414 89.3192 11.0799 89.1368 11.7577C89.1107 11.8359 89.0586 11.8881 89.0325 11.9663C87.2602 11.6013 86.9735 11.8099 86.9214 13.5305C84.2108 13.4523 84.2108 13.4523 82.7252 11.6535C81.4481 10.0892 81.7348 8.60322 83.5592 7.61255C84.2629 7.22149 85.123 6.90865 85.6443 7.76897C86.2177 8.7075 85.2794 8.99428 84.7321 9.43747C84.2629 9.80246 83.8199 10.2457 83.3507 10.6367C83.455 10.8192 83.5592 11.0017 83.6635 11.1842C84.3151 10.9756 85.0188 10.8453 85.6182 10.5324C86.6347 9.95888 87.599 9.28105 88.5113 8.60322C88.7719 8.42073 89.0847 7.92539 89.0065 7.69076C88.6937 6.70008 89.0847 6.02225 89.6841 5.34442C90.1533 4.82302 89.9969 4.45803 89.2932 4.2234C88.5113 3.9627 88.0682 4.19733 87.6512 4.82302C87.3384 5.31835 86.9475 5.76155 86.5565 6.30903C85.6443 5.13586 84.6018 5.31835 83.5853 5.65727C81.8651 6.20475 80.5619 7.32577 79.6497 8.88999C79.0763 9.88067 79.1284 10.7931 80.0146 11.5752C80.3795 11.8881 80.7183 12.227 81.0832 12.5398C82.9337 14.1301 82.9858 15.4076 81.0832 16.9979C80.6662 17.3629 79.754 17.6757 79.4151 17.4671C78.8939 17.1543 78.6593 16.3461 78.2944 15.7465C78.4247 15.6161 78.555 15.4858 78.6854 15.3554C79.3369 15.5901 80.0146 15.7986 80.7444 16.0333C81.1875 15.199 81.5002 14.2605 80.7704 13.4523C80.4316 13.0873 79.5194 12.8005 79.1806 13.0091C78.555 13.3741 78.1641 14.1301 77.6168 14.7819C77.4343 14.3648 77.2258 13.6609 76.8088 13.1134C76.4439 12.592 75.8705 12.0184 75.3232 11.9142C74.9062 11.8359 74.0461 12.3834 73.9418 12.7745C73.8115 13.348 74.02 14.1301 74.3588 14.6776C74.8019 15.3294 75.5056 15.8247 76.079 16.3983C75.0625 17.1282 75.1147 17.1543 74.6195 18.6403C74.5413 18.901 74.0461 19.1096 73.7333 19.1878C73.3945 19.266 73.0296 19.1617 72.9775 19.1617C73.0817 17.8061 73.3684 16.4765 73.2642 15.199C73.1599 13.7652 71.8828 13.0091 70.6318 13.5044C70.2408 13.6609 69.9541 14.1041 69.6153 14.4169C69.902 14.7298 70.1887 15.0426 70.5275 15.3294C70.736 15.5119 70.9706 15.6161 71.4919 15.929C70.3451 15.9811 69.4068 15.7726 68.8073 16.1376C67.5302 16.9457 69.1201 17.4932 69.3025 18.3535C67.8691 17.9886 67.5042 18.8489 67.1653 19.8917C67.035 20.2827 66.3834 20.8824 66.2271 20.8042C64.7415 20.0742 64.3505 21.3256 63.6468 22.0555L63.4904 21.8991ZM64.5329 101.44C64.3244 100.501 64.2462 99.5627 64.142 98.5981C63.9335 96.3561 62.7346 94.9743 60.5713 94.3486C59.216 93.9576 57.9128 93.358 56.5836 92.8626C56.3751 92.7844 56.0884 92.6801 56.0363 92.5498C55.6453 91.0638 54.5246 91.5591 53.5603 91.5331C52.1268 91.507 50.589 91.9502 49.3901 90.7249C49.2859 90.6206 49.0513 90.5685 48.8949 90.5945C46.6535 90.8813 46.0019 89.3171 45.7152 87.6486C44.9072 83.1123 42.5615 79.28 40.0073 75.6301C38.0004 72.7363 35.368 70.2857 32.8138 67.3919C34.7164 66.2969 36.7494 65.0977 38.8866 63.8463C39.2254 65.1498 39.1993 66.1666 38.0004 66.9748C37.2706 67.4701 37.0621 68.0697 38.1568 68.6172C38.5738 68.8258 38.8344 69.5036 38.9648 70.025C39.1733 70.755 39.2254 71.5371 39.3557 72.3192C39.5121 72.3453 39.6424 72.3713 39.7988 72.3974C40.294 71.9021 40.7631 71.3807 41.5972 70.5203C41.9099 71.8239 42.2487 72.8145 42.353 73.8052C42.5615 76.1255 43.7865 77.7158 45.6631 78.915C45.9758 79.1236 46.2886 79.3582 46.5492 79.645C48.1391 81.2874 49.5986 81.5481 51.6837 80.401C53.5342 79.3843 55.3847 78.3414 57.157 77.1683C59.2942 75.7605 61.6138 74.9262 64.0638 74.4048C64.4548 74.3266 64.8457 74.2484 65.2106 74.2223C66.9568 74.092 67.2696 74.483 67.0611 76.1776C66.9308 77.2465 66.8526 78.3414 66.8786 79.4103C66.9047 80.5574 67.5824 81.2092 68.7552 81.0267C70.1105 80.8181 70.4754 81.6002 70.5275 82.6691C70.6057 83.8944 70.4233 85.1197 71.3876 86.2147C71.6743 86.5275 71.5179 87.4921 71.2834 88.0396C70.736 89.3692 70.0063 90.5945 69.3807 91.898C68.3643 94.0358 67.2435 96.1736 66.4356 98.3896C65.9925 99.5627 66.1228 100.944 65.9925 102.248C65.9404 102.691 65.8101 103.16 65.7319 103.604C65.6015 103.63 65.4712 103.63 65.3409 103.656C65.0542 102.9 64.7154 102.196 64.5329 101.44ZM89.0586 52.61C88.9804 51.5411 89.4495 50.7851 90.9352 50.3158C90.4399 51.7497 90.0229 52.8968 89.5799 54.1481C91.3261 54.096 92.3947 53.366 92.7596 51.88C93.0202 50.7851 93.6197 50.2637 94.6362 50.029C94.8968 50.7329 95.1314 51.4368 95.3659 52.1407C95.4962 52.1668 95.6266 52.1929 95.7569 52.2189C96.5909 50.759 97.451 49.273 98.4935 47.4741C97.9201 47.3699 97.2946 47.057 96.8515 47.2134C95.4702 47.6566 94.167 48.3084 92.916 48.8298C90.3618 46.0142 89.1107 49.4294 87.2342 49.7423C86.8693 48.6734 87.0778 48.0216 88.2767 47.6045C91.4043 46.5356 93.8282 44.7107 94.975 41.3997C95.6266 39.4705 97.1643 38.5059 99.1451 38.0888C100.083 37.9063 100.943 37.2285 101.83 36.7592C101.986 36.681 102.09 36.4985 102.247 36.4724C104.827 35.8989 105.791 33.8915 106.573 31.7276C106.677 31.4148 106.886 31.128 107.381 30.763C107.511 31.3105 107.616 31.8319 107.746 32.3794C107.824 32.6401 107.902 32.9529 108.085 33.1354C108.372 33.4483 108.763 33.6829 109.101 33.9436C111.265 35.6382 111.186 39.7834 109.258 41.2173C107.511 40.5394 105.948 39.9659 104.436 39.3402C103.941 39.1316 103.576 38.6624 103.107 38.4016C102.612 38.1409 102.09 37.8542 101.569 37.8542C101.334 37.8542 100.787 38.532 100.865 38.7406C101.048 39.2359 101.413 39.8355 101.856 40.0441C103.341 40.748 104.905 41.3215 106.443 41.9211C107.616 42.3904 107.824 42.9379 106.86 43.7721C106.286 44.2935 105.479 44.6325 104.697 44.7889C104.41 44.8671 103.967 44.2675 103.576 43.9807C103.159 43.6679 102.716 43.355 102.299 43.0422C102.116 43.4593 101.804 43.8764 101.804 44.3196C101.778 44.9714 101.96 45.5971 102.064 46.2488C102.221 47.3959 101.778 48.3084 101.152 49.273C100.579 50.1594 100.344 51.3065 99.901 52.2972C99.7185 52.7143 99.4579 53.2878 99.0669 53.4442C97.9983 53.8874 96.8515 54.2524 95.7308 54.4349C94.8968 54.5653 94.3234 54.826 94.1149 55.6342C93.6979 57.1462 92.6814 57.5634 91.2479 57.4069C90.4399 57.3287 89.632 57.3027 88.798 57.2505C88.6937 57.1723 88.5634 57.0941 88.4591 57.0159C90.0229 55.6081 89.1368 54.096 89.0586 52.61ZM60.4931 137.834C60.3107 137.495 59.7373 137.365 59.0596 137C58.9033 135.879 60.1804 133.506 61.5357 133.011C63.0734 132.437 63.9335 131.082 63.1255 129.7C62.2654 128.188 62.9431 127.276 63.725 126.207C63.9856 125.868 64.1941 125.529 64.6372 125.242C64.2202 128.397 63.7771 131.577 63.3862 134.732C63.2819 135.514 63.1776 136.296 63.2037 137.052C63.2558 138.564 62.3176 139.164 60.9362 139.737C60.7798 138.981 60.7798 138.355 60.4931 137.834ZM87.6772 14.1823C87.5469 14.1562 87.6512 14.1823 87.7815 14.2083C89.8405 14.6776 89.7623 14.6515 89.0586 16.7111C88.824 17.3889 89.1107 18.2493 89.1368 18.7707C88.5113 19.2139 87.8336 19.6831 87.182 20.1263C86.3219 20.752 85.514 21.5081 84.5496 21.8991C84.1326 22.0555 83.4028 21.4559 82.5688 21.0909C83.2986 20.4392 83.7417 20.022 84.2108 19.6049C84.7321 19.1356 85.3055 18.7446 85.7225 18.1971C86.6608 17.0239 86.4783 16.1636 85.3837 15.4597C86.0874 15.0947 86.7911 14.6776 87.6772 14.1823ZM74.6195 79.7753C73.8897 79.3061 73.0557 78.915 72.4301 78.3414C72.0131 77.9504 71.8307 77.2986 71.6222 76.7512C71.2052 75.6562 71.5961 75.1348 72.795 75.1348C74.7498 75.1348 75.4796 75.7605 75.662 77.5333C75.2971 78.2632 74.9583 79.0193 74.6195 79.7753ZM67.2696 112.65C66.7223 111.399 67.2696 109.73 68.8334 108.114C70.5536 110.434 70.0323 112.937 69.6414 115.44C68.2339 113.954 69.3286 112.024 68.7552 109.965C68.1297 111.034 67.7127 111.816 67.2696 112.65ZM64.95 123.782C65.4191 121.462 64.7675 118.881 66.7744 116.926C66.5398 119.298 66.5398 121.749 64.95 123.782ZM101.856 52.0364C102.012 50.029 103.263 49.6119 105.218 50.8894C104.358 52.1929 103.341 52.5579 101.856 52.0364ZM102.142 26.5396C102.221 26.3832 102.898 26.3311 103.159 26.4875C103.42 26.6439 103.732 27.2696 103.654 27.4C103.055 28.2342 102.351 28.9902 101.699 29.7724C101.491 29.642 101.282 29.5377 101.1 29.4074C101.413 28.4428 101.699 27.4521 102.142 26.5396ZM86.7129 63.8463C86.6086 63.9245 86.1134 63.716 86.1134 63.6378C86.1134 63.3771 86.1656 62.9599 86.348 62.8557C87.3384 62.23 88.3549 61.6564 89.3453 61.0829C89.4756 61.2914 89.632 61.5 89.7623 61.7346C88.7719 62.4385 87.7554 63.1685 86.7129 63.8463ZM72.5605 25.184C73.9679 25.1058 73.7854 23.9847 73.9418 23.0723C73.994 22.7855 74.1243 22.5248 74.2285 22.238C75.5838 23.333 75.1147 24.454 72.5083 26.0964C72.5344 25.6793 72.5344 25.184 72.5605 25.184ZM70.6839 21.9773C70.5015 22.1859 69.9802 22.1337 69.6414 22.212C69.6935 21.873 69.5892 21.4298 69.7717 21.2473C70.3451 20.6999 71.0227 20.2567 71.6482 19.7613C71.7264 19.8395 71.7786 19.9178 71.8568 19.996C71.4919 20.6738 71.153 21.3777 70.6839 21.9773ZM67.3739 126.937C67.5563 126.937 67.7127 126.963 67.8951 126.963C67.7909 128.344 67.7127 129.7 67.6084 131.082C67.426 131.056 67.2175 131.056 67.035 131.03C67.1393 129.674 67.2696 128.318 67.3739 126.937ZM41.6493 84.1812C41.7796 84.1291 41.936 84.0769 42.0663 84.0248C42.4833 85.1719 42.9003 86.319 43.3173 87.4661C43.1088 87.5443 42.9003 87.6225 42.6918 87.7007C41.936 86.6579 42.0142 85.3544 41.6493 84.1812ZM69.7978 27.1392C69.6935 27.1914 69.5892 27.2175 69.485 27.2696C69.1462 26.4875 68.8073 25.7314 68.4685 24.9493C68.5988 24.8711 68.7291 24.7929 68.8595 24.7408C69.9802 25.21 69.6935 26.2529 69.7978 27.1392ZM92.942 64.1592C92.9942 64.3938 93.0202 64.6284 93.0723 64.8631C92.499 64.9152 91.9256 64.9673 91.3522 65.0195C91.3261 64.837 91.3 64.6545 91.274 64.472C91.8213 64.3677 92.3686 64.2635 92.942 64.1592ZM47.4354 34.8039C48.1391 35.1168 48.8949 35.3514 49.5465 35.7425C49.8593 35.951 50.2763 36.6028 50.172 36.8374C49.5204 38.4277 50.589 39.5748 51.0842 40.8523C51.2146 41.2172 51.7358 41.4258 52.1007 41.6865C52.3613 41.3215 52.7002 40.9565 52.8565 40.5394C53.6906 38.2192 53.9773 36.0292 51.4491 34.465C51.2146 34.3347 51.0842 33.9958 50.9539 33.709C50.589 32.8487 51.0582 31.9362 51.9704 31.7016C52.3092 31.6234 52.648 31.5451 52.9869 31.5451C53.8991 31.5191 54.1858 30.9716 53.8991 30.2416C53.5342 29.277 52.9347 28.4167 52.4656 27.5042C52.2832 27.1392 51.9704 26.7221 52.0486 26.3832C52.648 23.9065 53.3257 21.4298 54.0033 18.7967C54.2379 19.0835 54.3422 19.1878 54.4203 19.3442C55.1241 20.5956 55.8799 20.6999 56.5054 19.4746C57.1309 18.2493 57.8347 17.8843 58.6166 18.4317C59.607 17.8582 60.3889 17.4932 61.0926 16.9979C61.4314 16.7632 61.6399 16.32 61.9266 15.9551C61.5878 15.7726 61.249 15.4858 60.8841 15.4076C60.4149 15.3033 59.9197 15.4337 59.4767 15.3033C59.1378 15.199 58.8772 14.8601 58.5644 14.6515C60.9883 14.9122 61.249 14.808 61.9005 13.2437C62.1351 12.6441 62.3957 12.0445 62.5782 11.4188C62.6824 11.132 62.7606 10.7931 62.7346 10.4803C62.6564 9.61996 62.5 8.78571 62.3176 7.61255C61.3793 7.61255 60.1804 7.61255 58.7469 7.61255C58.7469 8.91607 58.7469 10.4281 58.7469 12.0445C57.3134 11.8881 56.2709 12.1488 56.349 13.8955C56.349 14.0519 55.7756 14.3648 55.4889 14.3648C55.0198 14.3648 54.5507 14.1823 54.1076 13.9998C53.5081 13.7912 53.1693 13.8173 52.9347 14.5212C52.5959 15.5119 52.0486 15.5901 51.397 14.7558C50.9018 14.1301 50.589 13.322 50.172 12.6181C49.8593 12.0706 49.5986 11.3406 48.7125 11.7577C47.8524 12.1749 48.1912 12.7745 48.5561 13.3741C49.1295 14.3126 48.9992 15.0165 47.6178 15.3554C47.8784 14.9122 48.0348 14.5994 48.2433 14.2605C47.8003 13.8694 47.3572 13.4784 46.9141 13.1134C45.637 14.443 45.0636 16.3722 45.4024 18.0928C45.8194 18.0146 46.2625 17.9364 46.6795 17.8843C48.0869 17.7539 48.504 18.1971 48.0088 19.5006C47.5136 20.8042 47.5396 21.7166 48.921 22.3423C49.0252 22.3944 49.0774 22.603 49.2077 22.8637C48.7125 22.8637 48.3215 22.7855 47.9827 22.8898C47.5657 23.0201 47.2008 23.2808 46.8098 23.4894C47.0183 23.8544 47.2008 24.2715 47.4614 24.6104C47.696 24.9233 48.0348 25.1318 48.6343 25.6793C47.9045 25.7315 47.5917 25.7054 47.279 25.7836C46.9141 25.8879 46.445 25.9661 46.2625 26.2007C45.5588 27.1914 45.9758 28.156 47.2529 28.156C48.6864 28.156 50.1199 27.8171 51.6576 27.6085C51.2927 28.2081 51.0321 28.8078 50.6151 29.277C50.1981 29.7463 49.5726 30.0591 49.1816 30.5284C47.7742 32.223 46.7056 32.3794 44.9072 31.1802C44.6726 31.0237 44.3078 31.0237 44.0732 30.8673C43.1349 30.1895 42.0924 29.5638 41.3887 28.6774C40.9716 28.1821 40.6589 27.6867 40.1376 28.0256C39.877 28.1821 39.8509 29.0163 39.9812 29.4595C40.1376 30.0591 40.5807 30.5805 41.0759 31.4669C38.1307 31.8841 35.4201 32.2751 33.1526 32.614C32.7877 33.7872 32.501 34.6214 32.2665 35.4818C32.1362 35.9771 31.9276 36.4985 31.9537 36.9938C32.058 39.1838 32.2404 41.3737 32.3968 43.5636C32.5271 43.6157 32.6835 43.6939 32.8138 43.7461C33.1787 43.1986 33.6739 42.6772 33.8563 42.0776C34.3776 40.4351 34.7686 38.7406 35.2116 37.046C35.4462 36.1335 35.759 35.56 36.9318 35.9771C37.401 36.1596 38.3914 36.0292 38.5477 35.7164C39.069 34.7257 39.5642 34.9864 40.3201 35.3775C41.1541 35.8468 42.0924 35.2732 42.2227 34.3347C42.2748 34.1 42.4833 33.8915 42.6397 33.6568C42.8482 33.8393 43.187 34.0479 43.187 34.2304C43.187 34.6997 43.161 35.2993 42.8743 35.56C42.1966 36.1857 42.1706 36.7592 42.6136 37.5153C42.8743 37.9585 43.1088 38.4277 43.2652 38.9231C43.5259 39.7834 44.1253 39.9659 44.8812 39.7834C46.0019 39.5227 47.1226 39.1838 48.4258 38.8448C48.0088 37.6978 47.5396 36.3942 47.0705 35.0907C47.2008 34.9604 47.3311 34.8821 47.4354 34.8039ZM10.6599 44.9975C10.7381 44.5803 10.5817 44.1371 10.5296 43.72C10.1387 43.7721 9.64345 43.72 9.35676 43.9286C9.01793 44.1893 8.80942 44.6585 8.57485 45.0757C8.02752 46.0924 7.55838 47.1613 6.98499 48.152C6.22915 49.4555 4.95204 48.9601 3.83132 49.0384C3.46643 49.0644 2.86697 49.3773 2.84091 49.6119C2.78878 49.9769 3.10154 50.4462 3.36218 50.7851C3.67494 51.1761 4.30046 51.4108 4.45684 51.8279C5.08236 53.6789 6.48978 54.6435 8.1839 55.1649C9.48707 55.556 9.8259 56.1556 9.61739 57.4852C9.30463 59.4144 9.64345 59.7011 11.3897 60.5615C12.3801 61.0568 13.3184 61.6825 14.1524 62.4385C15.4295 63.5596 16.5763 64.837 17.7752 66.0362C18.4268 65.593 18.922 65.0977 19.5215 64.9152C20.3294 64.6545 20.5379 64.107 20.2252 63.5596C20.0167 63.1946 19.2348 62.8296 18.8438 62.9339C17.8274 63.2467 17.254 62.7253 16.7327 62.0735C16.2896 61.5 16.029 60.77 15.5859 60.1965C15.2731 59.7793 14.8301 59.2579 14.3609 59.1276C12.6407 58.6583 12.1977 58.2673 12.1455 56.5727C12.1195 55.4517 11.7546 54.7217 10.7121 54.2003C9.59133 53.6528 9.40888 52.4536 10.1647 51.4629C10.4514 51.0979 10.8424 50.7851 11.1291 50.394C12.1716 49.0384 11.7025 46.9527 10.0865 46.327C10.3211 45.8317 10.5817 45.4406 10.6599 44.9975ZM86.6868 38.7145C86.5304 38.6102 86.3741 38.4277 86.1916 38.3756C83.9502 37.5153 83.9241 37.4892 84.9406 35.1689C84.9666 35.0907 85.0448 35.0125 85.0709 34.9343C85.3315 34.1782 84.4975 32.8487 83.6113 32.6401C82.6209 32.4055 82.4646 33.1876 82.2561 33.8393C82.1518 34.2043 82.1518 34.6475 81.9693 34.9604C81.7608 35.3514 81.396 35.6382 81.1093 35.9771C81.0571 35.5339 80.8747 35.0907 80.9789 34.6736C81.1093 33.9958 81.6305 33.2397 80.7183 32.8747C79.6497 32.4576 79.8061 31.8319 80.0928 31.0237C80.2492 30.6327 80.3534 30.1895 80.3534 29.7724C80.3534 29.5377 80.1449 29.1206 79.9364 29.0685C79.6758 28.9902 79.1545 29.0424 79.0242 29.2509C77.8774 30.7891 77.1997 32.4576 77.6689 34.465C78.138 34.465 78.5029 34.465 78.8939 34.465C78.5811 37.1763 77.5646 38.4538 75.9487 38.0627C75.7923 39.9398 75.8966 41.8951 74.5152 43.4332C74.3849 43.5636 74.411 43.8504 74.411 44.0589C74.4892 45.5189 73.9679 46.7442 73.0296 47.8652C72.7169 48.2562 72.7429 48.908 72.5865 49.4555C73.1078 49.5076 73.3163 49.4816 73.3945 49.3512C74.6977 47.3699 76.496 45.6753 76.9391 43.2507C77.1737 41.9211 78.0077 41.3476 79.2066 41.113C80.2752 40.9044 81.5263 40.9826 81.8912 39.3663C83.6635 41.113 85.4618 40.8001 86.6868 38.7145ZM31.1979 59.8576C32.7877 59.0233 33.6739 57.6676 33.9867 55.9731C34.3255 54.2264 34.534 52.4536 34.7686 50.7069C34.9771 49.1166 35.3159 47.6827 37.0361 46.9267C37.6877 46.6399 38.2089 45.9099 38.652 45.2582C39.7206 43.72 40.8153 42.1819 41.6232 40.5394C41.9881 39.8094 41.9621 38.6624 41.6232 37.9585C41.4147 37.5413 40.2679 37.4631 39.5121 37.411C39.0169 37.3849 38.4696 37.5413 38.0265 37.802C37.7137 37.9845 37.427 38.4016 37.3749 38.7406C37.1925 40.3048 38.3132 40.2787 39.5903 40.1744C38.9648 41.0869 38.5477 41.9211 37.9483 42.5729C36.8015 43.8243 36.1499 45.7274 33.9867 45.7014C33.8563 45.7014 33.7 45.9881 33.5696 46.1445C32.7095 47.0309 32.7095 48.0738 32.7617 49.273C32.8399 51.9322 32.7617 54.6435 31.3282 57.068C30.4942 58.4498 29.9729 58.4498 29.0867 57.1462C28.1745 55.8167 27.0799 55.4256 25.4379 55.8949C25.5161 59.3101 28.4352 61.2914 31.1979 59.8576ZM30.4681 18.0668C30.1293 19.0835 29.1128 19.8917 28.4873 20.8302C28.0442 21.482 27.4447 22.238 27.4969 22.8898C27.549 23.4112 28.4612 24.1933 29.0607 24.2715C30.859 24.4801 32.6574 24.4019 34.4819 24.3758C35.2377 24.3497 35.5505 23.8544 35.6547 23.0723C35.9153 21.1431 36.2281 21.0127 37.9744 21.8991C38.9126 22.3684 39.8509 22.7855 40.6849 21.847C41.4147 21.0388 41.7796 20.1524 40.6068 19.1878C41.9099 18.9271 42.7961 18.4317 42.8482 16.9718C41.8057 16.685 40.7892 16.4243 39.7206 16.1376C39.5903 16.5286 39.5121 16.7372 39.4339 16.9457C38.9126 18.7707 38.6259 18.9792 36.7494 19.1096C35.8893 19.1617 35.0553 19.3964 34.1952 19.5006C33.9085 19.5267 33.5957 19.3964 33.2829 19.3442C33.5436 18.9792 33.7521 18.8228 33.9867 18.7967C34.6122 18.7185 35.1856 18.4839 34.951 17.7539C34.8467 17.4411 34.2473 17.2586 33.8563 17.0761C33.1787 16.7372 32.4229 16.5286 31.7973 16.1115C31.1979 15.7204 30.7287 15.1469 30.442 14.8862C30.5202 15.9029 30.8069 17.1022 30.4681 18.0668ZM95.0532 32.7183C93.9324 32.9529 92.7335 32.979 91.7431 33.4743C90.6745 33.9958 90.1272 35.4296 88.6416 35.4557C88.5373 35.195 88.5113 34.8821 88.3288 34.7518C87.9379 34.3868 87.4687 34.1 87.0517 33.7872C86.7911 34.2043 86.348 34.5954 86.3219 35.0125C86.2698 35.8468 86.3219 36.7592 86.5826 37.5413C87.0257 38.8188 87.99 39.0273 89.1368 38.3234C89.4495 38.1409 89.7884 37.9845 90.0751 37.8542C90.4921 38.4538 90.7266 39.1316 91.1958 39.3923C91.691 39.6791 92.4208 39.6791 92.9681 39.5487C93.1766 39.4966 93.3069 38.6884 93.2548 38.2452C93.1505 37.2285 93.6197 36.7071 94.8186 36.8114C96.1478 36.9417 96.9297 36.1857 97.5553 35.2211C98.2068 34.1522 98.3372 33.0312 97.5031 31.9623C97.0079 32.0405 96.5648 32.1187 96.1218 32.1708C96.2 32.0405 96.2521 31.9362 96.3303 31.8058C95.8611 31.3887 95.392 30.9977 94.9489 30.5805C94.5058 30.1895 93.75 29.8245 93.7239 29.4074C93.6457 28.2342 93.0463 28.0256 92.0819 28.156C90.7527 28.3124 89.3974 28.4428 88.0942 28.6774C87.4687 28.7817 86.8953 29.1727 86.2959 29.4074C86.765 29.7984 87.2081 30.1895 87.6512 30.5805C87.7033 30.6327 87.7554 30.7109 87.8075 30.8152C87.599 31.0759 87.3645 31.3366 87.1299 31.6234C87.2342 31.7276 87.3384 31.858 87.4427 31.9623C87.7554 31.6494 88.0421 31.2062 88.4331 31.0237C89.1368 30.7109 89.8926 30.4502 90.6485 30.3198C90.857 30.2938 91.3782 30.737 91.4043 30.9716C91.5346 32.3012 92.3165 32.3012 93.359 32.1448C93.9064 32.0666 94.4798 32.223 95.0532 32.2751C95.0792 32.4055 95.0792 32.5619 95.0532 32.7183ZM102.924 82.7473C102.846 83.347 102.872 84.1291 103.211 84.5462C103.472 84.859 104.306 84.7026 104.879 84.6765C105.166 84.6765 105.452 84.4941 105.739 84.3898C108.111 83.3991 110.405 84.3376 113.167 84.5462C112.02 86.0843 111.16 87.3879 110.118 88.535C109.44 89.3171 109.18 89.8385 110.405 90.6467C111.265 89.7342 112.151 88.8217 112.959 87.8311C113.245 87.4921 113.584 86.8925 113.454 86.6058C113.037 85.6672 113.532 85.1458 114.079 84.5723C114.496 84.1291 114.887 83.6598 115.174 83.1123C115.8 81.887 115.33 81.157 113.949 81.0788C113.219 81.0528 112.516 80.9485 111.786 80.8963C110.9 80.8442 109.987 80.6878 109.101 80.766C108.319 80.8181 107.564 81.1049 106.495 81.3656C106.86 80.9485 107.016 80.7399 107.173 80.5574C108.267 79.3061 108.372 78.7325 107.016 77.6375C106.339 77.0901 104.775 76.7772 104.123 77.1683C103.055 77.82 102.377 79.1757 101.387 80.4271C102.403 80.7139 102.95 80.8703 103.602 81.0788C103.367 81.7045 102.976 82.1999 102.924 82.7473ZM22.4406 49.0905C22.7273 48.7516 23.1182 48.4387 23.2746 48.0477C24.4475 45.3364 25.3597 42.5208 27.4187 40.2266C28.0181 39.5487 27.9399 38.2452 28.0703 37.2024C28.0963 36.9938 27.6011 36.4985 27.3666 36.5246C25.4118 36.6028 23.457 36.7592 22.3103 38.7406C21.7629 39.6791 21.1374 40.5655 20.4337 41.3737C19.9124 41.9733 19.2608 42.599 18.5311 42.8336C17.5928 43.1465 17.5407 43.6418 17.7231 44.3718C18.0359 45.6231 18.8178 46.301 20.0949 46.4053C20.5901 46.4313 21.1113 46.4053 21.5023 46.4053C21.6847 47.3438 21.8151 48.178 21.9714 48.9862C22.1278 49.0384 22.2842 49.0644 22.4406 49.0905ZM44.7508 62.7253C45.4285 63.2467 45.6109 63.742 45.4024 64.5763C45.1157 65.6712 44.9072 66.8705 45.8716 68.2001C47.305 67.444 48.7125 66.6098 50.1981 65.9841C51.6576 65.3584 51.8401 64.2374 51.6576 62.9078C51.6055 62.5167 51.5534 62.1257 51.4752 61.7607C51.1103 60.1183 50.6151 58.5019 51.1624 56.7552C51.2406 56.5205 50.3284 55.8688 49.7811 55.6081C49.2077 55.3474 48.5821 55.5299 48.6082 56.312C48.6864 57.6416 48.8688 58.9451 48.9992 60.2747C49.0513 60.77 49.1034 61.2393 49.1816 62.0996C48.0088 61.3696 47.5657 59.6229 46.1322 60.9786C46.7577 60.0661 47.3832 59.1276 48.113 58.0587C46.1322 57.5894 45.4545 58.893 44.6205 59.6751C43.7344 59.1276 42.9264 58.6323 42.1445 58.163C42.1706 60.3008 43.3434 61.6043 44.7508 62.7253ZM9.61739 34.7257C10.1387 34.4129 10.686 34.1 11.2073 33.7872C10.7642 33.4222 10.3211 33.0312 9.85196 32.6662C10.5296 32.0405 11.2073 31.3887 12.0934 30.5805C10.0865 30.1113 8.60092 30.8934 8.00146 32.4055C7.71476 33.1615 5.5515 34.7779 4.97811 34.4911C3.9877 33.9958 3.54462 34.6475 2.94516 35.0907C2.58028 35.3514 2.24145 35.6121 1.87656 35.8728C1.61593 34.4911 1.38136 33.2658 1.12073 31.8319C0.547331 32.1448 0.208507 32.3273 0 32.4576C0.886155 34.9343 -0.104254 37.6195 1.27711 39.6009C2.78878 38.4538 4.19621 37.411 5.65576 36.316C5.62969 36.7592 5.47331 37.2285 5.60363 37.5935C5.78607 38.1409 6.07277 38.8448 6.51585 39.0795C6.80254 39.2359 7.53232 38.7406 7.94933 38.4016C8.36635 38.0367 8.65304 37.4892 9.07006 36.9156C9.56526 37.802 9.85196 38.5581 10.3732 39.1055C10.686 39.4184 11.5982 39.6791 11.8588 39.4705C12.9796 38.5581 12.4583 36.4724 11.0769 36.0292C10.3993 35.8207 9.74771 35.586 8.86155 35.2993C9.30463 34.9864 9.46101 34.83 9.61739 34.7257ZM55.098 28.8338C54.1076 30.1373 53.847 31.7276 54.7852 33.2136C55.0198 33.6047 55.7496 34.0218 56.1405 33.9175C56.5575 33.8133 57.1309 33.1615 57.157 32.7183C57.1831 31.2323 57.8347 30.1634 58.8511 29.1988C60.2064 27.9214 60.3628 26.4614 59.5809 24.819C59.0857 23.7762 57.7043 23.2026 56.6879 23.724C55.9581 24.089 55.6975 24.7147 56.323 25.2622C56.7921 25.6532 57.5219 25.7054 57.991 25.8618C57.0788 26.7743 55.932 27.7128 55.098 28.8338ZM100.943 88.8739C102.351 88.7435 103.341 86.8404 102.273 85.6151C101.569 84.8069 101.074 83.7902 100.422 82.9298C100.24 82.6691 99.8488 82.4345 99.5621 82.4345C98.676 82.4606 97.7377 82.4606 96.9297 82.7734C95.7048 83.2427 95.6787 83.8684 96.7473 84.8069C97.0861 84.5983 97.4249 84.3898 98.0244 84.0509C97.8419 84.5723 97.7116 84.7808 97.6856 85.0415C97.6334 85.6151 97.6334 86.1886 97.6074 86.7882C98.1547 86.7622 98.676 86.71 99.2233 86.684C99.6143 86.684 100.031 86.7361 100.422 86.7622C98.8063 87.7007 96.3563 86.319 95.392 89.2128C97.4249 89.0824 99.1973 89.0303 100.943 88.8739ZM96.3303 80.8181C94.7404 81.496 93.1245 82.1477 91.3522 82.8777C92.6553 83.2166 91.9516 83.9987 91.7952 84.7548C91.6389 85.589 91.4043 86.8925 91.8213 87.2575C92.4468 87.805 93.6458 87.9093 94.558 87.7789C95.809 87.6225 95.9393 86.7622 95.2095 85.7194C94.8707 85.2501 94.6362 84.2855 94.8968 83.9205C95.4181 83.1123 96.3303 82.5909 97.034 81.887C97.4249 81.496 97.7638 81.0006 98.0505 80.5053C98.1026 80.401 97.8159 80.1142 97.7116 79.9057C97.3467 80.2185 96.9819 80.5314 96.617 80.8442C96.5648 80.8963 96.4867 80.9485 96.4345 81.0267C96.4085 80.9745 96.3563 80.8963 96.3303 80.8181ZM97.0861 10.2196C97.5292 9.48961 97.9201 8.73357 98.4414 8.08181C98.9366 7.45612 99.4318 6.64794 100.109 6.41331C101.23 6.02225 101.334 5.42264 100.917 4.56231C100.474 3.67592 99.7706 3.62378 98.9627 4.11912C98.2329 4.56231 97.5031 5.03158 96.7212 5.39657C95.9133 5.78762 94.9489 5.97011 94.2191 6.46545C93.75 6.80437 93.5415 7.53434 93.2027 8.08181C93.6718 8.26431 94.1409 8.55108 94.6101 8.57715C95.7048 8.60322 96.617 8.75964 96.7473 10.1674C96.8515 10.1674 96.9558 10.1935 97.0861 10.2196ZM50.7715 7.71683C51.1624 7.56041 51.5534 7.27363 51.9183 7.2997C53.1172 7.37791 53.6124 6.77829 53.9251 5.42264C52.1007 5.42264 50.4327 5.34442 48.7907 5.44871C47.696 5.50085 46.1843 8.21216 46.6013 9.20284C46.6535 9.33319 46.8359 9.46354 46.9662 9.54175C48.1912 10.2978 50.3805 9.8546 51.2146 8.75964C51.006 8.29038 50.9018 8.0036 50.7715 7.71683ZM7.14137 67.418C8.20997 68.8779 9.46101 70.1814 10.686 71.511C10.8684 71.6935 11.3897 71.7456 11.6764 71.6414C12.8753 71.12 12.9014 69.9468 11.5461 69.2429C9.51314 68.1479 8.39241 66.5055 7.76689 64.3938C7.63657 63.9767 7.21956 63.6378 6.95892 63.2728C6.09883 64.8891 6.30734 66.2709 7.14137 67.418ZM109.049 8.52501C109.492 7.37791 110.352 7.50827 111.186 7.7429C111.994 7.97753 112.75 7.7429 112.881 7.06507C112.959 6.56973 112.437 5.83976 111.968 5.42264C111.734 5.188 111.056 5.29228 110.639 5.42264C109.518 5.81369 108.502 5.91797 107.459 5.10979C107.121 4.84909 106.286 4.77088 106.078 4.97944C105.713 5.3705 105.531 6.04832 105.531 6.5958C105.531 6.80437 106.234 7.039 106.651 7.22149C106.912 7.32577 107.225 7.32577 107.538 7.37791C107.642 7.89932 107.72 8.34252 107.876 9.09856C108.398 8.86392 108.971 8.78571 109.049 8.52501ZM104.254 61.9953C103.393 61.7346 102.403 61.865 101.465 61.865C101.413 61.865 101.334 61.9693 101.282 62.0475C100.839 62.986 100.344 63.8985 100.005 64.8631C99.7706 65.593 100.162 66.0362 100.97 65.958C101.647 65.8798 102.325 65.6973 103.029 65.6452C104.358 65.5148 104.957 64.9413 104.983 63.2467C104.879 63.0121 104.697 62.1257 104.254 61.9953ZM81.0832 31.6494C81.1614 31.9101 81.5263 32.1708 81.813 32.249C82.0215 32.3012 82.4385 32.1187 82.5167 31.9101C83.2204 30.2938 83.9241 28.6774 84.4454 26.9828C84.5496 26.6961 83.872 26.0443 83.455 25.7314C83.2465 25.6011 82.5167 25.7836 82.4124 26.0182C81.7869 27.3478 81.2917 28.7295 80.8486 29.7724C80.9529 30.6327 80.9268 31.1802 81.0832 31.6494ZM18.5571 56.4163C19.0002 55.5299 18.7917 54.6956 17.7492 54.3567C16.7588 54.0178 16.2636 54.6174 16.055 55.4517C15.8205 56.3641 15.638 57.3027 15.638 58.2412C15.638 58.7626 16.055 59.284 16.4199 60.0401C17.3061 58.554 18.0098 57.5112 18.5571 56.4163ZM8.26209 61.1871C7.92327 59.8315 7.55838 58.4758 7.21956 57.1202C6.77648 55.217 5.2648 54.3828 3.67494 53.6789C3.10154 53.4442 2.31964 53.2096 2.08507 54.096C2.03294 54.2785 2.81485 54.826 3.25792 54.9303C5.99458 55.5559 6.20309 55.7645 6.38553 58.6062C6.41159 59.1276 6.43766 59.6751 6.64616 60.1183C6.9068 60.6136 7.402 61.0047 7.76689 61.4478C7.9754 61.3436 8.10571 61.2654 8.26209 61.1871ZM54.7331 4.27554C54.4725 4.64052 55.0459 5.78762 55.4629 6.43938C55.6453 6.72615 56.5315 6.88258 56.8703 6.70008C57.6001 6.28296 57.6001 5.03158 58.7208 4.95337C58.5905 4.53624 58.5644 4.01484 58.3038 3.70199C58.0432 3.44129 57.548 3.41522 56.9224 3.23273C56.2187 3.5195 55.1501 3.67592 54.7331 4.27554ZM73.2642 30.737C72.9514 30.8673 72.4823 30.9195 72.4041 31.128C71.8828 32.5097 71.4397 33.9175 71.0488 35.3514C70.9706 35.6382 71.3876 36.316 71.5961 36.316C71.961 36.316 72.5344 36.0553 72.6647 35.7425C73.1339 34.5954 73.4466 33.3701 73.7854 32.223C73.5769 31.6494 73.4206 31.1802 73.2642 30.737ZM13.3184 71.3025C12.9535 72.2931 12.9535 73.0231 13.8918 73.6227C15.1168 74.4048 16.2114 75.6562 18.1662 74.1963C16.446 73.1795 14.8822 72.2671 13.3184 71.3025ZM63.4643 21.9252C63.5165 21.2473 64.0377 20.4131 62.9952 20.0481C62.0048 19.7092 61.6399 20.4652 61.1968 21.117C60.9883 21.4298 60.5974 21.5863 60.3628 21.873C60.0761 22.238 59.7633 22.6291 59.6591 23.0462C59.607 23.2548 59.9719 23.8022 60.1282 23.7762C60.5452 23.7501 61.275 23.5937 61.3011 23.359C61.5617 22.0816 62.5782 22.0816 63.4904 21.873C63.4904 21.8991 63.4643 21.9252 63.4643 21.9252ZM102.377 10.1153C101.23 9.95888 99.3797 10.9235 98.8324 12.2531C100.813 11.9402 102.585 11.6795 104.488 11.3667C104.097 10.3499 104.097 10.3499 102.377 10.1153ZM103.654 13.1395C103.315 12.9309 102.82 12.5398 102.612 12.6702C101.83 13.1134 101.126 13.713 100.422 14.2866C100.318 14.3908 100.37 14.9122 100.526 15.0165C100.97 15.3554 101.804 15.9029 101.96 15.7726C102.69 15.173 103.237 14.3387 103.784 13.6869C103.732 13.3741 103.732 13.1916 103.654 13.1395ZM97.6595 27.9214C96.8515 28.0256 95.6005 27.791 95.809 29.1988C95.8872 29.7463 96.4867 30.2416 96.8515 30.737C97.4771 30.1634 98.0765 29.5899 98.9887 28.7556C98.285 28.3124 97.9462 27.8953 97.6595 27.9214ZM86.5304 25.549C84.8885 26.5396 84.4975 27.7389 85.4618 29.1988C87.3123 28.2081 87.7294 26.7221 86.5304 25.549ZM105.062 90.4642C104.775 90.2817 104.358 89.9428 104.227 90.021C103.602 90.412 103.029 90.8813 102.507 91.4288C102.351 91.5852 102.507 92.0545 102.559 92.3673C102.559 92.4194 102.69 92.4716 102.768 92.4977C103.42 92.7323 105.218 91.3766 105.14 90.6988C105.114 90.6206 105.114 90.5163 105.062 90.4642ZM45.1418 57.3287C46.3146 56.7813 46.9402 55.947 46.7838 54.6174C45.1157 54.4349 44.4641 55.5299 45.1418 57.3287ZM103.081 5.39657C102.612 6.10047 102.116 6.80437 101.725 7.56041C101.647 7.69076 102.038 8.02967 102.195 8.29038C102.768 7.7429 103.341 7.19542 104.071 6.49152C103.576 5.97011 103.315 5.68334 103.081 5.39657ZM27.1059 19.0574C26.6107 18.8749 26.0894 18.8228 25.5682 18.8228C25.4639 18.8228 25.2033 19.4485 25.2815 19.5006C25.6203 19.8395 26.0113 20.2306 26.4543 20.3349C26.8714 20.4392 27.3666 20.2045 28.0703 20.0742C27.549 19.5267 27.3666 19.1617 27.1059 19.0574ZM103.159 16.9197C102.794 16.7111 102.299 16.2418 102.116 16.3461C101.621 16.6068 101.23 17.1022 100.865 17.5975C100.813 17.6496 101.439 18.4057 101.569 18.3535C102.064 18.145 102.507 17.78 102.95 17.4411C103.029 17.2847 103.081 17.1022 103.159 16.9197ZM49.338 52.1407C49.1295 52.4014 48.6603 52.7664 48.7125 52.8968C48.921 53.3921 49.3119 53.8092 49.6247 54.2524C49.9114 54.0439 50.2241 53.8092 50.7454 53.4182C50.172 52.8707 49.755 52.5057 49.338 52.1407ZM11.7285 87.6225C11.6764 87.4921 10.9206 87.4139 10.7642 87.5704C10.1126 88.2743 10.1126 89.0042 10.9206 89.7081C11.7807 89.1867 12.0673 88.4828 11.7285 87.6225ZM101.126 80.2185C101.152 80.1664 100.422 79.4885 100.318 79.5407C99.901 79.8014 99.51 80.1924 99.2494 80.6356C99.1712 80.766 99.5361 81.1831 99.8749 81.7567C100.448 81.0788 100.839 80.6878 101.126 80.2185ZM56.9485 9.98495C56.5836 9.02035 56.2969 8.29038 56.0102 7.56041C54.7592 8.81178 55.0198 9.43747 56.9485 9.98495ZM104.175 8.16002C103.941 8.13395 103.628 8.62929 103.341 8.88999C103.68 9.20284 103.993 9.64604 104.384 9.75032C104.644 9.82853 105.035 9.38533 105.661 9.02035C104.983 8.60322 104.592 8.21216 104.175 8.16002ZM77.3301 9.30712C76.9912 9.30712 76.5221 9.1507 76.3136 9.33319C75.662 9.93281 75.6359 10.5846 76.8088 11.471C77.0434 10.5846 77.1737 9.95888 77.3301 9.30712ZM42.0402 53.6007C41.8057 53.9135 41.3365 54.2524 41.3887 54.5131C41.4929 54.9824 41.8839 55.3735 42.1445 55.7906C42.4051 55.5038 42.6658 55.217 43.0307 54.7999C42.6397 54.3046 42.353 53.9396 42.0402 53.6007ZM36.0978 31.3887C36.6712 30.3198 36.8536 29.4856 35.368 29.0424C35.0031 30.0591 35.0813 30.8152 36.0978 31.3887ZM16.3157 83.9466C16.2375 83.738 15.638 83.5034 15.4556 83.6077C14.7258 84.0248 14.4131 84.6244 15.0907 85.4065C15.8465 85.1719 16.7588 85.0937 16.3157 83.9466ZM14.7779 20.8042C14.6997 20.6738 14.1264 20.5956 14.0221 20.7259C13.2923 21.5081 13.7875 22.1859 14.3088 23.0201C15.2471 22.3162 15.2471 21.5863 14.7779 20.8042ZM123.254 10.6106C122.837 10.1935 122.42 9.75032 122.003 9.33319C121.69 9.67211 121.377 10.011 120.83 10.5585C121.794 10.7931 122.394 10.9496 122.993 11.106C123.071 10.9496 123.149 10.7931 123.254 10.6106ZM121.742 17.2586C121.586 17.9625 121.429 18.5621 121.299 19.1617C121.481 19.266 121.638 19.3442 121.82 19.4485C122.263 18.9271 122.732 18.3796 123.306 17.6757C122.602 17.5193 122.237 17.415 121.742 17.2586ZM10.5557 83.0863C10.0605 83.373 9.5392 83.6337 8.67911 84.103C9.48707 84.5462 9.93015 84.7808 10.3732 85.0155C10.5557 84.4941 10.7381 83.9726 10.9466 83.4773C10.8163 83.347 10.686 83.2166 10.5557 83.0863ZM11.5461 27.035C11.5461 27.2696 12.0934 27.6607 12.3801 27.6346C12.6407 27.6085 13.1099 27.1392 13.0838 26.8785C13.0578 26.5396 12.6668 26.2007 12.2237 25.549C11.8849 26.305 11.5461 26.67 11.5461 27.035ZM92.9942 9.20284C92.7075 9.59389 92.3947 9.95888 92.2123 10.4021C92.1601 10.5324 92.499 10.8192 92.6553 11.0278C93.0202 10.7149 93.3851 10.4281 93.8803 9.98495C93.4372 9.61996 93.2027 9.4114 92.9942 9.20284ZM18.7917 87.7789C18.7656 87.44 18.4007 87.1272 18.1922 86.7882C17.9577 87.1011 17.5928 87.3879 17.5407 87.7007C17.4885 88.0396 17.8013 88.4046 18.088 89.1346C18.4529 88.4567 18.8178 88.0918 18.7917 87.7789ZM111.291 77.8461C111.056 77.7158 110.769 77.429 110.587 77.4811C109.883 77.7679 109.492 78.2893 110.196 79.3582C110.587 78.8629 110.926 78.3675 111.291 77.8461ZM7.50626 28.9902C7.21956 29.0945 6.80254 29.1206 6.69829 29.3292C6.30734 30.007 6.41159 30.6066 7.63657 31.1802C7.58445 30.2677 7.53232 29.642 7.50626 28.9902ZM91.5346 6.54366C91.1697 6.83044 90.8309 7.19542 90.6224 7.61255C90.5703 7.71683 90.9612 8.08181 91.1697 8.31645C91.5607 7.95146 91.9256 7.61255 92.525 7.06507C92.0038 6.75222 91.6389 6.46545 91.5346 6.54366ZM113.271 77.9765C113.61 77.794 114.105 77.6636 114.288 77.3768C114.496 77.0379 114.444 76.5165 114.496 76.0994C114.34 76.0473 114.158 75.9951 114.001 75.943C113.662 76.4904 113.324 77.0119 112.985 77.5593C113.089 77.6897 113.167 77.8461 113.271 77.9765ZM27.8878 34.8561C28.357 34.465 28.8522 34.074 29.2952 33.6568C29.3213 33.6308 29.0085 33.2397 28.8261 33.0312C28.357 33.4483 27.8618 33.8915 27.3926 34.3086C27.549 34.4911 27.7314 34.6736 27.8878 34.8561ZM16.7066 23.1505C16.5502 23.6458 16.3678 24.1672 16.2896 24.6886C16.2896 24.7668 16.8369 24.8972 17.1236 25.0275C17.254 24.4801 17.3582 23.9326 17.4885 23.3851C17.2018 23.2808 16.9673 23.2026 16.7066 23.1505ZM14.9604 29.642C14.6997 29.6941 14.3349 29.642 14.2045 29.7984C13.7354 30.398 13.7093 31.0237 14.804 31.5451C14.8822 30.8934 14.9343 30.2677 14.9604 29.642ZM22.623 36.8374C22.8315 36.2639 23.04 35.6903 23.2485 35.1168C22.9618 35.0907 22.4666 34.9604 22.4406 35.0646C22.206 35.56 22.0757 36.1075 21.9193 36.6549C22.1278 36.7071 22.3624 36.7592 22.623 36.8374ZM9.61739 40.8523C9.56526 40.748 9.07006 40.6698 8.9658 40.774C8.41847 41.3215 8.34028 41.9211 9.04399 42.599C9.72164 42.1297 9.95621 41.5822 9.61739 40.8523ZM37.5573 10.0632C36.8015 10.6367 36.7494 11.2885 37.7919 12.3052C37.9222 11.3927 38.0265 10.7671 38.1047 10.1414C37.9483 10.1153 37.7658 10.0892 37.5573 10.0632ZM46.9923 41.478C46.9141 41.1651 46.5231 40.9044 46.2886 40.6176C46.054 40.9305 45.7152 41.1912 45.5849 41.5562C45.5327 41.7126 45.9237 41.9994 46.2365 42.3643C46.6013 41.9994 47.0444 41.6865 46.9923 41.478ZM41.2583 24.1672C41.5972 23.8283 42.0663 23.5155 42.2487 23.0983C42.3269 22.9159 41.8317 22.4727 41.4408 21.9252C41.1541 22.7855 40.9977 23.3069 40.8413 23.8022C40.9977 23.9326 41.128 24.0369 41.2583 24.1672ZM39.46 24.819C39.0169 25.21 38.5738 25.575 38.1568 25.9922C38.1568 25.9922 38.4174 26.4614 38.5738 26.4614C39.3818 26.4614 39.8249 26.0443 39.8249 25.2361C39.6945 25.0797 39.5903 24.9493 39.46 24.819ZM4.4829 42.7815C4.45684 42.9379 4.71747 43.1465 4.84779 43.3289C5.23874 42.8336 5.60363 42.3383 5.99458 41.869C4.74354 41.4258 4.61322 42.1297 4.4829 42.7815ZM100.5 78.159C100.996 77.8982 101.491 77.6376 101.96 77.3247C102.012 77.2986 101.778 76.8554 101.673 76.6208C101.178 76.9076 100.657 77.1944 100.162 77.4811C100.266 77.7158 100.396 77.9504 100.5 78.159ZM18.8699 52.9228C20.3555 52.4796 20.4598 52.0886 19.339 50.8633C19.1566 51.6715 19.0263 52.2189 18.8699 52.9228ZM33.1266 29.277C33.0223 29.1467 32.7095 29.0685 32.5271 29.1206C32.3968 29.1467 32.1883 29.4856 32.2404 29.5638C32.6053 30.1373 32.7877 31.0759 33.9085 30.6327C33.6218 30.1373 33.4133 29.6941 33.1266 29.277ZM6.59404 27.5564C7.03711 27.3739 7.48019 27.2175 7.92327 27.035C7.79295 26.7221 7.63657 26.3832 7.50626 26.0704C7.08924 26.3571 6.67223 26.6439 6.25521 26.9307C6.35947 27.1393 6.46372 27.3478 6.59404 27.5564ZM63.5425 6.30903C63.4643 5.78762 63.4122 5.26621 63.334 4.71874C63.0734 4.79695 62.5782 4.87516 62.5782 4.95337C62.5782 5.44871 62.6824 5.91797 62.7606 6.41331C63.0213 6.38724 63.2819 6.36117 63.5425 6.30903ZM2.68453 30.5805C2.68453 31.1541 2.68453 31.7276 2.68453 32.3273C2.78878 32.3794 2.89304 32.4055 2.99729 32.4576C3.23186 32.1708 3.67494 31.858 3.67494 31.5973C3.64887 31.2323 3.28399 30.8673 3.07548 30.5023C2.94516 30.5023 2.81485 30.5284 2.68453 30.5805ZM115.539 78.5239C115.174 78.7325 114.861 79.0453 114.523 79.3321C114.731 79.4885 114.992 79.8014 115.148 79.7753C115.513 79.6971 115.826 79.4364 116.347 79.1236C115.956 78.8107 115.643 78.4718 115.539 78.5239ZM40.3201 52.8707C40.5025 52.2972 40.711 51.7236 40.9456 50.9936C39.486 51.2283 39.7206 51.9843 39.8509 52.7143C40.0073 52.7664 40.1637 52.8186 40.3201 52.8707ZM100.005 45.7274C99.7967 45.571 99.4579 45.2582 99.4058 45.2842C99.0669 45.5449 98.7542 45.8838 98.4935 46.2488C98.4675 46.301 98.9366 46.8745 99.1191 46.8484C99.5621 46.7963 99.9791 46.5095 100.396 46.327C100.266 46.1445 100.136 45.936 100.005 45.7274Z" fill="#6F8567"/>
</svg>
