<svg width="28" height="27" viewBox="0 0 28 27" fill="none" xmlns="http://www.w3.org/2000/svg">
<path fill-rule="evenodd" clip-rule="evenodd" d="M27 13.5C24.5 2.5 20.9561 0 13.5 0C3 0 0 6.04395 0 13.5C0 20.9561 4.5 27 13.5 27C23 27 28 21 27 13.5ZM23.3174 22.2368C25.3379 20.1064 26.2598 17.1284 25.8174 13.7119C25.3203 11.5337 24.79 9.7373 24.2129 8.25488C23.6553 8.44482 22.8467 8.73779 21.9336 9.12305C22.6143 10.4331 23 11.9214 23 13.5C23.5 20.5 18.7471 23 13.5 23C8.25293 23 3.5 20 4 13.5C4 6.5 8.25293 4 13.5 4C16.7471 4 19.6143 5.62939 21.3271 8.11523L23.5957 6.82422C22.8984 5.37109 22.1357 4.29639 21.2871 3.5C19.4873 1.81006 17.1123 1.2002 13.5 1.2002C8.48242 1.2002 5.49609 2.63574 3.72949 4.72803C1.92969 6.86035 1.2002 9.90137 1.2002 13.5C1.2002 16.9932 2.25293 20.0562 4.25781 22.2329C6.24805 24.3936 9.28418 25.7998 13.5 25.7998C17.999 25.7998 21.2793 24.3838 23.3174 22.2368ZM20.2803 8.71094C18.7773 6.58691 16.3008 5.2002 13.5 5.2002C11.0459 5.2002 8.99609 5.78662 7.57129 7.0293C6.17676 8.24561 5.2002 10.252 5.2002 13.5V13.5459L5.19629 13.5918C4.97266 16.5049 5.91699 18.4971 7.38672 19.7852C8.89453 21.1079 11.0859 21.7998 13.5 21.7998C15.9619 21.7998 18.1445 21.2095 19.6318 19.957C21.0664 18.75 22.0312 16.7788 21.8027 13.5854L21.7998 13.543V13.5C21.7998 12.0952 21.4512 10.772 20.835 9.6123C19.9854 10.0107 19.0996 10.4766 18.2773 11.0029C18.668 11.7534 18.918 12.6025 19 13.5C19.5 19 16.5371 19 13.5 19C9 19 8 16.5376 8 13.5C8 8.75391 10.4629 8 13.5 8C15.2764 8 16.7617 8.84668 17.7441 10.1543L20.2803 8.71094ZM16.6924 10.7529C15.9102 9.78711 14.7832 9.2002 13.5 9.2002C12.0205 9.2002 11.0078 9.39893 10.3525 9.91406C9.7627 10.377 9.2002 11.3164 9.2002 13.5C9.2002 14.9312 9.44531 15.96 9.99219 16.6304C10.4971 17.249 11.4629 17.7998 13.5 17.7998C14.2754 17.7998 14.9541 17.7983 15.5645 17.7231C16.1709 17.6484 16.6084 17.5107 16.9229 17.3062C17.1553 17.1553 17.4141 16.9028 17.5996 16.4155C17.8125 15.8564 17.9307 14.9883 17.8047 13.6089C17.7412 12.9111 17.5615 12.2646 17.2861 11.6943C16.5654 12.2456 15.9414 12.8496 15.5 13.5C15.5 13.5122 15.5 13.5244 15.5 13.5366C15.5 14.6211 14.6104 15.5 13.5127 15.5C11.4365 15.5 11.4688 14.834 11.5117 13.9458L11.5146 13.874C11.5186 13.8115 11.5215 13.7471 11.5225 13.6826L11.5244 13.5366C11.5244 13.3237 11.54 13.104 11.5762 12.8911C11.6211 12.6284 11.6992 12.3755 11.8203 12.1597C12.1016 11.6572 12.6182 11.3521 13.5127 11.5728C13.9316 11.5728 14.3203 11.7012 14.6406 11.9199L16.6924 10.7529Z" fill="#799B6D"/>
</svg>
