<svg width="45" height="45" viewBox="0 0 45 45" fill="none" xmlns="http://www.w3.org/2000/svg">
<path d="M1.18703 8.85929L5.58134 4.47294C5.81786 4.23702 6.19673 4.22317 6.44991 4.44085L8.97281 6.61203V1.63744C8.97281 1.2853 9.25862 1 9.61142 1H35.8975C36.2503 1 36.5361 1.2853 36.5361 1.63744V25.2736L43.0703 21.9328C43.268 21.8316 43.5047 21.8405 43.6945 21.9561C43.8843 22.0719 44 22.2779 44 22.5V29.0645C44 29.2847 43.8861 29.4894 43.6987 29.6057L36.5361 34.0544V43.3626C36.5361 43.7147 36.2503 44 35.8975 44H9.6115C9.25871 44 8.97289 43.7147 8.97289 43.3626V17.5322L7.00253 15.5656C7.00236 15.5654 7.00227 15.5653 7.00211 15.5651L1.18711 9.76078C0.937641 9.51177 0.937641 9.10822 1.18703 8.85929ZM36.5361 32.553L42.7228 28.7104V25.4496C41.2332 26.9063 38.5939 29.2076 36.5361 29.4881V32.553ZM36.5361 28.2032C38.2575 27.8634 41.0793 25.3906 42.7228 23.6278V23.5428L36.5361 26.706V28.2032ZM8.09002 14.8481L10.063 16.8174C10.1827 16.937 10.2499 17.0991 10.2499 17.2683V42.7253H12.569V31.5259C12.569 31.1738 12.8548 30.8885 13.2076 30.8885C13.5604 30.8885 13.8462 31.1738 13.8462 31.5259V42.7253H17.3017V27.2888C16.5492 26.5256 13.9539 23.6949 13.5474 20.5707C13.5021 20.2217 13.7487 19.9018 14.0985 19.8565C14.4482 19.8104 14.7686 20.0573 14.8141 20.4066C15.2211 23.536 18.3481 26.5303 18.3793 26.5599C18.5067 26.6803 18.5789 26.8477 18.5789 27.0227V42.7254H21.8613V29.7067C21.8613 29.3546 22.1472 29.0693 22.5 29.0693C22.8527 29.0693 23.1386 29.3546 23.1386 29.7067V42.7253H26.2825V37.8548C26.2825 37.5026 26.5683 37.2173 26.9211 37.2173C27.2739 37.2173 27.5597 37.5026 27.5597 37.8548V42.7253H30.7036V31.8862C30.7036 31.5341 30.9895 31.2488 31.3423 31.2488C31.6951 31.2488 31.9809 31.5341 31.9809 31.8862V42.7253H35.2588V2.27489H31.0077V13.1155C31.0077 13.4677 30.7219 13.753 30.3691 13.753C30.0163 13.753 29.7305 13.4677 29.7305 13.1155V2.27489H26.4611V9.75801C26.717 10.9183 29.218 23.0386 22.7288 25.5255C22.6534 25.5543 22.5761 25.568 22.5 25.568C22.2433 25.568 22.0013 25.4123 21.9037 25.1589C21.7773 24.8302 21.9417 24.4615 22.2709 24.3353C27.9141 22.1727 25.2277 10.092 25.1998 9.97024C25.1893 9.92371 25.1838 9.87618 25.1838 9.82847V2.27489H20.8912V5.26264C20.8912 5.61479 20.6054 5.90009 20.2526 5.90009C19.8998 5.90009 19.614 5.61479 19.614 5.26264V2.27489H14.2443V13.1155C14.2443 13.4677 13.9584 13.753 13.6056 13.753C13.2529 13.753 12.967 13.4677 12.967 13.1155V2.27489H10.2499V8.00323C10.2499 8.2525 10.1043 8.47892 9.87721 8.58273C9.6502 8.68653 9.3834 8.64874 9.19426 8.48598L6.0855 5.81048C6.60943 7.07025 8.02885 10.8411 8.09002 14.8481ZM6.73648 13.497C6.47018 10.6611 5.58984 8.0611 5.08997 6.76639L2.54175 9.30995L6.73648 13.497Z" fill="#676766" stroke="#676766" stroke-width="0.15"/>
<path d="M16.81 14.053C17.3155 11.812 18.2182 9.82794 19.1098 8.99843C19.812 8.34519 20.3982 8.48771 20.6847 8.63108C22.3978 9.48604 23.8046 14.1679 24.0693 15.0976C24.1657 15.4362 23.9687 15.7888 23.6295 15.8849C23.2906 15.9808 22.9371 15.7846 22.8407 15.4461C22.256 13.3934 21.0484 10.3234 20.1593 9.79628C20.0257 9.86112 19.6599 10.1769 19.1938 11.0778C17.9074 13.5646 17.1455 17.7566 18.1583 20.1929C18.7461 21.607 19.5337 22.3836 20.3185 22.3204C21.2248 22.2489 22.112 21.141 22.4762 19.6263C22.5586 19.284 22.9031 19.0733 23.2461 19.1552C23.5891 19.2374 23.8004 19.5815 23.7181 19.9237C23.2186 22.0012 21.8929 23.475 20.4191 23.5914C20.3597 23.5961 20.2964 23.5988 20.2295 23.5988C19.3905 23.5988 18.0103 23.164 16.9783 20.6815C16.0403 18.4245 16.4703 15.5597 16.81 14.053Z" fill="#676766" stroke="#676766" stroke-width="0.15"/>
<path d="M26.8208 28.2047C28.6514 26.3775 30.7279 21.2298 30.7488 21.1781C30.8798 20.8512 31.2519 20.6924 31.5789 20.8231C31.9063 20.9538 32.0656 21.3247 31.9346 21.6516C31.8458 21.8729 29.7398 27.0942 27.7241 29.1061C26.0387 30.7886 26.5263 33.9066 26.5313 33.9369C26.5893 34.2842 26.3542 34.6126 26.0064 34.6706C25.9708 34.6765 25.9354 34.6793 25.9006 34.6793C25.594 34.6793 25.3236 34.4584 25.2713 34.1466C25.2457 33.9927 24.667 30.3546 26.8208 28.2047Z" fill="#676766" stroke="#676766" stroke-width="0.15"/>
<path d="M33.087 8.50977C33.4398 8.50977 33.7256 8.79506 33.7256 9.14721V16.0539C33.7256 16.406 33.4398 16.6913 33.087 16.6913C32.7342 16.6913 32.4484 16.406 32.4484 16.0539V9.14721C32.4484 8.79523 32.7342 8.50977 33.087 8.50977Z" fill="#676766" stroke="#676766" stroke-width="0.15"/>
</svg>
