<svg width="19" height="22" viewBox="0 0 19 22" fill="none" xmlns="http://www.w3.org/2000/svg">
<path d="M5.32449 12.9071L5.38073 12.8817C5.51501 12.8206 5.65026 12.7629 5.78815 12.709C5.93854 12.6487 6.09115 12.5929 6.24598 12.5407C6.36825 12.5006 6.49142 12.4631 6.61591 12.4265C6.80553 12.3716 6.99702 12.3221 7.19421 12.2783C7.26114 12.2645 7.32939 12.2511 7.39722 12.239L7.4436 12.2301C7.56004 12.2073 7.67696 12.1872 7.7952 12.1698L7.82909 12.1644C7.83041 12.1644 7.83131 12.1635 7.83263 12.1635L7.86651 12.1591C7.96469 12.1444 8.06238 12.1305 8.16416 12.119L8.51042 12.0904C8.9361 12.0623 9.37477 12.0632 9.79552 12.094L9.91821 12.1042L9.97535 12.1087L10.1186 12.1216C10.2502 12.1354 10.381 12.1537 10.5117 12.1747L10.5501 12.1801C10.6393 12.1948 10.7286 12.2113 10.8165 12.2278C10.9142 12.2453 11.0106 12.2644 11.107 12.2854C11.2935 12.3273 11.4787 12.3751 11.6581 12.4273C11.8009 12.4684 11.9419 12.5134 12.0744 12.559L12.1663 12.592C12.4475 12.6916 12.7268 12.8058 12.9972 12.9312L13.0695 12.9656L13.0708 12.9674C16.2332 14.4811 18.2725 17.7064 18.2725 21.2061C18.2725 21.2864 18.2671 21.3654 18.2622 21.4448L18.2385 22H0.0345173L0.0100098 21.4511C0.00466347 21.3698 -0.000267029 21.2891 -0.000267029 21.2061C-0.000267029 17.6506 2.0885 14.3968 5.32449 12.9071ZM17.3797 21.1074C17.3413 17.9652 15.4837 15.0827 12.6524 13.755L12.5614 13.7193L12.5507 13.709C12.3289 13.6077 12.1 13.5154 11.868 13.4337L11.7944 13.4074C11.6681 13.3637 11.5423 13.3235 11.4115 13.2864C11.2486 13.2387 11.0826 13.1958 10.9162 13.1584C10.8301 13.1401 10.744 13.1227 10.6551 13.1062C10.5847 13.0933 10.5146 13.0799 10.4437 13.0687L10.4089 13.0624C10.2813 13.0424 10.1532 13.024 10.0255 13.0102L9.73373 12.9848C9.35179 12.9567 8.9863 12.9526 8.54367 12.9848L8.25991 13.0085C8.18985 13.0165 8.1198 13.0259 8.03453 13.0379L7.93233 13.0526C7.82568 13.0683 7.71904 13.0865 7.61198 13.1067L7.56199 13.116C7.50172 13.1272 7.44194 13.1388 7.38528 13.1508C7.20948 13.1892 7.03681 13.2347 6.86545 13.2843C6.75214 13.3173 6.63966 13.3512 6.52989 13.3878C6.39068 13.4342 6.2532 13.4847 6.11712 13.5386C5.98638 13.59 5.85745 13.6449 5.72983 13.7034L5.70754 13.7136C2.81198 15.0422 0.931641 17.9341 0.893246 21.1067H17.3797V21.1074ZM11.3418 10.9435C11.2749 10.9716 11.2057 10.9961 11.1366 11.0207L10.9915 11.0733C10.9358 11.0947 10.8796 11.1158 10.8224 11.1336C10.2905 11.301 9.73407 11.3871 9.16828 11.3916L9.12322 11.3925C8.92909 11.3925 8.73454 11.3822 8.54805 11.363C8.48382 11.3568 8.42134 11.3465 8.35843 11.3358L8.21874 11.3148C8.14021 11.3046 8.06168 11.293 7.97954 11.2769C7.9233 11.2653 7.86887 11.2506 7.81444 11.2359L7.66183 11.1971C7.58642 11.1788 7.51102 11.1605 7.43645 11.1373C7.39007 11.1226 7.34453 11.1056 7.29946 11.0886L7.17678 11.0444C7.0893 11.0141 7.00098 10.9828 6.91259 10.9458C6.87823 10.9311 6.84476 10.9151 6.81178 10.899L6.77206 10.8793C6.65112 10.8253 6.53065 10.7699 6.41109 10.7057L6.33347 10.6593C6.1996 10.5834 6.06616 10.5049 5.93097 10.4125C5.86092 10.3653 5.79399 10.3121 5.72796 10.2595L5.49946 10.0819C4.18575 8.99431 3.43075 7.39838 3.43075 5.74314L3.42804 5.69586C3.42804 2.55496 5.98312 0 9.12363 0C12.1213 0 14.6153 2.34428 14.8014 5.33706L14.8063 5.41115C14.8135 5.50531 14.8192 5.59947 14.8192 5.69586C14.8201 7.99 13.4551 10.0496 11.3418 10.9435ZM13.9165 5.47302L13.9112 5.39268C13.7541 2.86897 11.6516 0.892438 9.12412 0.892438C6.47531 0.892438 4.321 3.04708 4.31871 5.65509L4.32142 5.70197C4.32322 7.13096 4.96039 8.4765 6.07372 9.40074L6.2857 9.56232C6.33298 9.60072 6.38075 9.63905 6.44011 9.68016C6.54718 9.75294 6.66056 9.81849 6.77567 9.88369L6.83948 9.92251C6.93585 9.97431 7.03715 10.0202 7.14248 10.0671L7.26072 10.1242C7.32856 10.1524 7.39993 10.1769 7.47048 10.2014L7.61774 10.2546C7.64627 10.2653 7.6753 10.2769 7.70342 10.2853C7.75827 10.3023 7.81451 10.3153 7.87033 10.3291L8.04835 10.3746C8.08675 10.3849 8.12466 10.3956 8.15854 10.4028C8.2179 10.4143 8.27859 10.4224 8.33878 10.4309L8.50833 10.4563C8.54937 10.4634 8.59047 10.4706 8.63643 10.475C8.78502 10.4907 8.9345 10.4991 9.08621 10.5005L9.12815 10.5H9.12905C9.61764 10.4996 10.0973 10.4268 10.5561 10.2832C10.5958 10.2707 10.6346 10.2551 10.6734 10.2403L10.8412 10.1792C10.8934 10.1609 10.9451 10.143 10.9951 10.1221C12.7764 9.36859 13.9277 7.63072 13.9277 5.69613C13.9277 5.62072 13.9219 5.54663 13.9165 5.47302Z" fill="#454545"/>
</svg>
