<svg width="59" height="21" viewBox="0 0 59 21" fill="none" xmlns="http://www.w3.org/2000/svg">
<path d="M41.334 5.49538C40.2105 4.98299 39.0447 4.74135 37.8366 4.77048C36.9656 4.77048 36.2987 4.93384 35.8358 5.26057C35.3729 5.5873 35.141 5.95726 35.1401 6.37045C35.1392 6.78363 35.3428 7.15359 35.7508 7.48032C36.1589 7.80705 36.8402 8.2125 37.7948 8.69668C40.4635 9.91987 41.7839 11.5835 41.7561 13.6877C41.7561 15.6217 41.0118 17.1648 39.5233 18.317C38.0348 19.4692 36.0403 20.0453 33.5397 20.0453C31.4606 20.0171 29.7052 19.6899 28.2733 19.0637L28.9057 14.8822L29.4962 15.2235C31.097 15.8779 32.586 16.2051 33.963 16.2051C34.7217 16.2051 35.3819 16.0417 35.9436 15.715C36.5054 15.3883 36.8002 14.9259 36.8281 14.328C36.8281 13.9293 36.6456 13.5667 36.2807 13.2399C35.9158 12.9132 35.2556 12.5078 34.3001 12.0236C33.7662 11.7387 33.2956 11.4684 32.8885 11.2127C32.4813 10.9569 32.053 10.6229 31.6035 10.2106C31.1541 9.79837 30.8031 9.31464 30.5505 8.75948C30.298 8.20431 30.1717 7.61411 30.1717 6.98886C30.1995 5.19686 30.9649 3.73932 32.4678 2.61625C33.9707 1.49318 35.8879 0.931641 38.2195 0.931641C39.708 0.931641 41.1125 1.17327 42.4329 1.65654L41.8423 5.70971L41.334 5.49538ZM21.6155 1.27157L14.1582 19.7873H9.18579L5.3095 5.02576C6.65778 5.56637 7.88651 6.39138 8.99569 7.5008C10.1049 8.61022 10.8986 9.81885 11.3767 11.1267C9.63477 6.26305 5.84252 3.09178 0 1.61286L0.0417965 1.27157H7.66764C8.84783 1.27157 9.56421 1.76939 9.81679 2.76505L11.4603 11.2973L12.0077 13.857L16.6 1.27157H21.6142H21.6155ZM28.2733 1.27157L25.3233 19.7873H20.6043L23.5544 1.27157H28.2733ZM58.356 19.7873H53.9323C53.7076 18.3365 53.5391 17.4123 53.4267 17.0146L47.3595 16.9723L46.3901 19.7886H41.3758L48.4125 2.76642C48.834 1.77076 49.6628 1.27293 50.8987 1.27293H54.5229L58.356 19.7873ZM51.2776 6.22028C51.1931 6.44781 51.0947 6.71083 50.9823 7.00934C50.8699 7.30786 50.7787 7.55677 50.7086 7.75609C50.6385 7.9554 50.6174 8.04095 50.6452 8.01274C49.634 10.7431 49.0021 12.4782 48.7496 13.2181H52.584L51.5728 7.84209L51.2776 6.22028Z" fill="#A2A2A2"/>
</svg>
