<svg width="125" height="125" viewBox="0 0 125 125" fill="none" xmlns="http://www.w3.org/2000/svg">
<path d="M120.815 89.6328H120.68V78.6987C120.68 51.4106 101.616 27.7593 75.1394 21.8972C74.9988 20.4863 74.3948 19.1738 73.3911 18.135C72.1848 16.8865 70.5645 16.1987 68.8281 16.1987H56.1719C54.4355 16.1987 52.8152 16.8865 51.6089 18.135C50.6055 19.1738 50.0012 20.4863 49.8606 21.8972C23.3835 27.7593 4.31958 51.4106 4.31958 78.6987V89.6328H4.18457C1.87695 89.6328 0 91.51 0 93.8174V96.5708C0 98.3928 1.15259 99.9936 2.86792 100.554C19.1328 105.873 40.3108 108.801 62.5 108.801C84.6892 108.801 105.867 105.873 122.132 100.554C123.847 99.9936 125 98.3928 125 96.5708V93.8174C125 91.51 123.123 89.6328 120.815 89.6328ZM54.5215 20.9487C54.9578 20.4973 55.5439 20.2483 56.1719 20.2483H68.8279C69.4558 20.2483 70.042 20.4968 70.4783 20.9487C70.9145 21.4004 71.1431 21.9949 71.1213 22.6223L69.2595 76.6179C69.2166 77.8606 68.2092 78.834 66.9661 78.834H58.0342C56.791 78.834 55.7837 77.8606 55.7407 76.6182L53.8789 22.6226C53.8569 21.9946 54.0852 21.4004 54.5215 20.9487ZM120.95 96.571C120.95 96.6255 120.927 96.6882 120.874 96.7056C105.004 101.894 84.2732 104.752 62.5 104.752C40.7268 104.752 19.9958 101.894 4.12646 96.7051C4.07349 96.6877 4.0498 96.6252 4.0498 96.5708V93.8174C4.0498 93.7429 4.11035 93.6824 4.18481 93.6824H81.9385C83.0566 93.6824 83.9634 92.7759 83.9634 91.6575C83.9634 90.5393 83.0569 89.6326 81.9385 89.6326H8.36938V78.6987C8.36938 58.3484 19.7651 40.1733 36.9719 30.9517L41.3655 61.7083C41.51 62.7183 42.376 63.447 43.3677 63.447C43.4629 63.447 43.5593 63.4402 43.6565 63.4265C44.7637 63.2683 45.533 62.2427 45.3748 61.1357L40.7971 29.0903C43.7124 27.814 46.7695 26.7864 49.9443 26.0334L51.6936 76.7581C51.812 80.1929 54.5972 82.8838 58.0344 82.8838H66.9663C70.4033 82.8838 73.1885 80.1929 73.3071 76.7581L75.0564 26.0337C78.231 26.7869 81.2883 27.8145 84.2036 29.0906L79.626 61.136C79.468 62.2432 80.2373 63.2685 81.3442 63.4268C81.4414 63.4404 81.5378 63.4473 81.6331 63.4473C82.6245 63.4473 83.4907 62.7183 83.6353 61.7085L88.0288 30.9519C105.236 40.1733 116.631 58.3481 116.631 78.6987V89.6328H103.537C102.419 89.6328 101.512 90.5393 101.512 91.6577C101.512 92.7759 102.418 93.6826 103.537 93.6826H120.816C120.89 93.6826 120.951 93.7432 120.951 93.8176V96.571H120.95Z" fill="#454545"/>
<path d="M94.8977 89.6328H90.5779C89.4597 89.6328 88.553 90.5393 88.553 91.6577C88.553 92.7759 89.4595 93.6826 90.5779 93.6826H94.8977C96.0159 93.6826 96.9226 92.7761 96.9226 91.6577C96.9226 90.5393 96.0161 89.6328 94.8977 89.6328Z" fill="#454545"/>
<path d="M47.2263 74.0928L46.6089 69.772C46.4507 68.6648 45.4258 67.8955 44.3181 68.0537C43.2109 68.2119 42.4416 69.2375 42.5998 70.3445L43.217 74.6653C43.3616 75.6753 44.2275 76.404 45.2192 76.404C45.3144 76.404 45.4109 76.3972 45.508 76.3835C46.6152 76.2253 47.3845 75.1997 47.2263 74.0928Z" fill="#454545"/>
<path d="M80.6821 68.0537C79.5749 67.8953 78.5496 68.6651 78.3914 69.772L77.7742 74.0928C77.6162 75.2 78.3855 76.2254 79.4924 76.3836C79.5894 76.3972 79.686 76.4041 79.7812 76.4041C80.7727 76.4041 81.6389 75.6751 81.7834 74.6653L82.4006 70.3445C82.5583 69.2376 81.7891 68.2119 80.6821 68.0537Z" fill="#454545"/>
</svg>
