<svg width="51" height="44" viewBox="0 0 51 44" fill="none" xmlns="http://www.w3.org/2000/svg">
<path d="M33.1269 1.38616C32.8926 0.829847 32.4542 0.397567 31.8926 0.168806C31.3502 -0.0521354 30.7561 -0.055402 30.2119 0.154353C30.1926 0.160689 30.1734 0.167024 30.1544 0.174943L8.26292 9.28242L2.67413 11.6074L0.811037 12.3825C0.618093 12.4627 0.47615 12.6132 0.402638 12.7913C0.384409 12.8357 0.370364 12.8818 0.360702 12.9291C0.360702 12.9293 0.360702 12.9293 0.360603 12.9295C0.331915 13.0717 0.344267 13.2236 0.40473 13.3674L1.57454 16.1445C1.69617 16.4329 1.97736 16.6066 2.2735 16.6066C2.37092 16.6066 2.47013 16.5877 2.56566 16.548L3.72999 16.0637L6.94081 23.6856C6.9428 23.6905 6.94409 23.6955 6.94619 23.7003C6.94758 23.7036 6.94947 23.7064 6.95097 23.7096L7.25478 24.4306H2.77793C2.77205 24.4306 2.76637 24.4314 2.76059 24.4315C2.74695 24.4318 2.7335 24.4314 2.71965 24.4324C2.71457 24.4328 2.70979 24.4338 2.70471 24.4344C2.69864 24.4349 2.69276 24.436 2.68678 24.4366C2.66816 24.4388 2.64973 24.4414 2.6315 24.4449C2.62373 24.4465 2.61616 24.4485 2.60849 24.4502C2.59186 24.4539 2.57522 24.458 2.55898 24.4629C2.55161 24.4651 2.54454 24.4678 2.53727 24.47C2.52093 24.4756 2.5047 24.4811 2.48866 24.4878C2.48229 24.4903 2.47611 24.4934 2.46973 24.4961C2.4535 24.5033 2.43746 24.5107 2.42172 24.519C2.41595 24.522 2.41037 24.5255 2.40479 24.5286C2.38925 24.5373 2.37391 24.5464 2.35907 24.5563C2.35329 24.5601 2.34771 24.5642 2.34213 24.5682C2.32809 24.5781 2.31424 24.5881 2.3009 24.5989C2.29462 24.6041 2.28864 24.6093 2.28257 24.6147C2.27032 24.6252 2.25816 24.6358 2.24661 24.6471C2.24063 24.653 2.23505 24.6592 2.22948 24.6651C2.22061 24.6744 2.21115 24.6833 2.20268 24.6931C2.20039 24.6957 2.1984 24.6987 2.19621 24.7014C2.19133 24.7072 2.18694 24.7134 2.18216 24.7193C2.1718 24.7324 2.16144 24.7456 2.15208 24.7593C2.1476 24.7658 2.14371 24.7727 2.13933 24.7795C2.13046 24.7932 2.1216 24.807 2.11363 24.8213C2.10955 24.8286 2.10626 24.8361 2.10247 24.8436C2.0952 24.8579 2.08793 24.872 2.08156 24.8867C2.07767 24.8955 2.07468 24.9047 2.0713 24.9137C2.06602 24.9274 2.06064 24.9408 2.05626 24.9547C2.05277 24.9657 2.05008 24.977 2.04709 24.9882C2.0438 25.0006 2.04022 25.0127 2.03753 25.0253C2.03484 25.0382 2.03295 25.0514 2.03085 25.0645C2.02916 25.0756 2.02697 25.0867 2.02568 25.098C2.02408 25.1121 2.02348 25.1262 2.02269 25.1406C2.02209 25.1513 2.02119 25.1622 2.02109 25.1728C2.02099 25.1763 2.0206 25.1797 2.0206 25.1832C2.0206 25.1946 2.02179 25.2058 2.02229 25.2171C2.02259 25.2251 2.02229 25.233 2.02289 25.2411C2.14411 26.8037 2.20467 28.2498 2.20467 29.5394C2.20467 31.7673 2.03095 33.5898 1.65832 35.2738C1.61489 35.4705 0.750275 38.3818 0.859348 38.5514C0.96842 38.7209 1.097 39.3034 1.29492 39.3477C1.64635 39.3477 2.17091 39.0926 2.24661 38.7494C2.64455 36.9589 3.72033 31.8817 3.71944 29.5394C3.71944 28.4376 3.67571 27.2274 3.59034 25.9358H8.39052C8.39142 25.9358 8.39232 25.936 8.39321 25.936C8.39451 25.936 8.3959 25.9358 8.3973 25.9358H10.865C10.8665 25.9358 10.868 25.9361 10.8696 25.9361C10.8712 25.9361 10.8727 25.9358 10.8743 25.9358H19.1322C18.6669 32.9552 19.5426 35.757 20.3187 38.2389C20.7378 39.5796 21.1067 40.7602 21.1901 42.4938H1.53341C1.60821 40.9311 1.90644 39.8472 2.30757 38.5514C2.43079 38.1539 2.20557 37.7324 1.80663 37.61C1.73392 37.5869 1.65921 37.5758 1.58341 37.5758C1.24912 37.5758 0.95826 37.7895 0.859348 38.1067C0.405029 39.5644 -0.00297197 41.0536 1.63134e-05 43.2474C1.63134e-05 43.3897 0.0408562 43.5222 0.110284 43.6359C0.243064 43.8536 0.483023 43.9996 0.757945 43.9996H21.9653C22.3836 43.9996 22.7227 43.6628 22.7227 43.2469C22.7227 40.855 22.2576 39.3675 21.7652 37.7926C21.0002 35.346 20.1331 32.5731 20.7006 25.2411C20.7013 25.2313 20.701 25.2216 20.7014 25.2119C20.7017 25.2024 20.7028 25.193 20.7028 25.1834C20.7028 25.1805 20.7024 25.1774 20.7024 25.1744C20.7023 25.1601 20.7012 25.1459 20.7003 25.1317C20.6995 25.1206 20.699 25.1095 20.6978 25.0985C20.6962 25.0845 20.6937 25.0708 20.6914 25.0569C20.6895 25.0459 20.6879 25.0349 20.6855 25.024C20.6827 25.0112 20.6791 24.9987 20.6758 24.9862C20.6727 24.9747 20.6697 24.9633 20.6661 24.9519C20.6624 24.9404 20.6579 24.9294 20.6536 24.9182C20.6491 24.9063 20.6448 24.8944 20.6397 24.8827C20.6352 24.8725 20.6301 24.8628 20.6253 24.8529C20.6193 24.8409 20.6136 24.8289 20.6071 24.8173C20.6019 24.808 20.5961 24.799 20.5905 24.7899C20.5834 24.7784 20.5765 24.7669 20.5688 24.7557C20.5625 24.7468 20.5557 24.7383 20.5491 24.7295C20.5411 24.7192 20.5333 24.7085 20.5249 24.6985C20.5175 24.6898 20.5094 24.6816 20.5016 24.6732C20.4932 24.664 20.4848 24.6545 20.4757 24.6458C20.4672 24.6374 20.4579 24.6296 20.4488 24.6216C20.4399 24.6137 20.4311 24.6055 20.4217 24.598C20.412 24.5902 20.4016 24.5831 20.3915 24.5757C20.3821 24.5688 20.3727 24.5617 20.363 24.5553C20.3526 24.5484 20.3417 24.5423 20.331 24.536C20.3207 24.5299 20.3105 24.5236 20.2998 24.518C20.2893 24.5124 20.2782 24.5075 20.2674 24.5025C20.2558 24.4971 20.2445 24.4917 20.2326 24.4868C20.2221 24.4825 20.2114 24.479 20.2007 24.4752C20.1878 24.4705 20.1749 24.466 20.1619 24.462C20.1517 24.459 20.1413 24.4567 20.1309 24.4541C20.1167 24.4506 20.1026 24.447 20.0881 24.4442C20.0777 24.4422 20.0671 24.4411 20.0567 24.4394C20.0419 24.4373 20.0272 24.4351 20.0123 24.4337C20.0094 24.4335 20.0066 24.4328 20.0037 24.4326C19.9942 24.4319 19.985 24.4322 19.9756 24.4319C19.9656 24.4315 19.9557 24.4303 19.9456 24.4303H13.4261C18.0511 21.058 20.4595 16.7006 20.5738 16.4905C20.5744 16.4894 20.5748 16.4884 20.5754 16.4874C20.5832 16.4727 20.5901 16.4575 20.597 16.4423C20.6005 16.4345 20.6046 16.4269 20.6078 16.4191C20.6121 16.4088 20.6154 16.3981 20.6193 16.3876C20.6382 16.3356 20.651 16.2829 20.6579 16.2297C20.6589 16.2222 20.6604 16.2147 20.6613 16.207C20.6625 16.1952 20.6625 16.1835 20.6632 16.1715C20.6638 16.1586 20.665 16.1457 20.665 16.133C20.6649 16.1269 20.6643 16.1212 20.6642 16.1154C20.6628 16.0538 20.6537 15.9918 20.6365 15.9304C20.6353 15.9262 20.6345 15.9219 20.6333 15.9177C20.6297 15.9057 20.625 15.894 20.6208 15.8821C20.6165 15.8703 20.6128 15.8585 20.6079 15.8467C20.6072 15.8451 20.6068 15.8435 20.6061 15.8419C20.602 15.8321 20.597 15.8229 20.5924 15.8134C20.587 15.8021 20.5819 15.7905 20.576 15.7793C20.5694 15.7671 20.5621 15.7555 20.5549 15.7437C20.5494 15.7346 20.5442 15.7251 20.5382 15.7163C20.5298 15.7037 20.5207 15.6917 20.5114 15.6797C20.5058 15.6723 20.5005 15.6649 20.4947 15.6576C20.4843 15.6448 20.4732 15.6329 20.462 15.6209C20.4565 15.615 20.4514 15.609 20.4458 15.6034C20.433 15.5906 20.4197 15.5787 20.4062 15.567C20.4012 15.5626 20.3967 15.5583 20.3916 15.554C20.3759 15.541 20.3597 15.5291 20.3431 15.5175C20.3395 15.515 20.336 15.5121 20.3323 15.5097C20.3122 15.4963 20.2916 15.4837 20.2705 15.4723C20.2698 15.4719 20.2692 15.4714 20.2685 15.471C20.2683 15.4709 20.2681 15.4708 20.2681 15.4708C20.0801 15.3699 19.8512 15.3491 19.6375 15.4303C19.6324 15.4322 19.6273 15.4338 19.6221 15.4359C19.6198 15.4368 19.6175 15.4374 19.6153 15.4383C17.8926 16.1551 15.9191 16.8779 14.3482 16.7947C12.8838 16.7183 11.8847 15.9301 11.2039 14.3138L10.7166 13.1571L31.9087 4.34075C32.4685 4.10793 32.9036 3.67228 33.1338 3.11419C33.3635 2.5561 33.3612 1.94237 33.1269 1.38616ZM2.67941 14.8688L2.09451 13.4803L2.56028 13.2865L3.14519 14.675L2.67941 14.8688ZM3.9577 12.7054L8.14917 10.9617L8.73408 12.3501L4.54261 14.0937L3.9577 12.7054ZM15.9622 18.1816C16.6364 18.0667 17.3249 17.8801 18.0052 17.6569C16.6385 19.5329 14.1586 22.4163 10.6664 24.4307H8.89704L8.63038 23.7976C11.7615 22.3343 14.5303 19.9649 15.9622 18.1816ZM13.8628 18.2624C12.4176 19.7268 10.2863 21.3454 8.04438 22.4068L5.12752 15.4823L9.31878 13.7388L9.80617 14.8955C10.6514 16.9021 12.015 18.0328 13.8628 18.2624ZM31.7317 2.54352C31.6549 2.72962 31.51 2.87474 31.3233 2.95234C31.323 2.95244 31.3229 2.95254 31.3226 2.95264L10.1314 11.7687L9.54659 10.3802L30.7361 1.56503C30.7369 1.56463 30.7378 1.56444 30.7386 1.56404C30.9251 1.48653 31.131 1.48574 31.318 1.56196C31.5053 1.63828 31.6514 1.78231 31.7294 1.96781C31.8075 2.15312 31.8083 2.35753 31.7317 2.54352Z" fill="#454545"/>
<path d="M7.82774 28.4453C7.40948 28.4453 7.07031 28.7823 7.07031 29.198V34.2158C7.07031 34.6316 7.40938 34.9685 7.82774 34.9685C8.2461 34.9685 8.58517 34.6316 8.58517 34.2158V29.198C8.58517 28.7824 8.246 28.4453 7.82774 28.4453Z" fill="#454545"/>
<path d="M14.8961 33.4629C14.4778 33.4629 14.1387 33.7997 14.1387 34.2156V40.237C14.1387 40.6528 14.4777 40.9897 14.8961 40.9897C15.3145 40.9897 15.6535 40.6528 15.6535 40.237V34.2156C15.6535 33.7997 15.3144 33.4629 14.8961 33.4629Z" fill="#454545"/>
<path d="M50.9998 30.7033C50.9998 29.6954 50.5373 28.7932 49.8123 28.1943C50.5372 27.5955 50.9998 26.6933 50.9998 25.6854C50.9998 23.8869 49.5274 22.4238 47.7178 22.4238H29.5398C27.7301 22.4238 26.2578 23.887 26.2578 25.6854C26.2578 26.6933 26.7203 27.5954 27.4454 28.1943C26.7204 28.7932 26.2578 29.6954 26.2578 30.7033C26.2578 31.7112 26.7204 32.6135 27.4455 33.2123C26.7204 33.811 26.2578 34.7135 26.2578 35.7214C26.2578 36.7293 26.7203 37.6314 27.4454 38.2303C26.7204 38.8292 26.2578 39.7314 26.2578 40.7393C26.2578 42.5378 27.7302 44.0008 29.5398 44.0008H47.7177C49.5274 44.0008 50.9997 42.5377 50.9997 40.7393C50.9997 39.7314 50.5372 38.8292 49.8122 38.2303C50.5373 37.6314 50.9998 36.7293 50.9998 35.7214C50.9998 34.7135 50.5372 33.8111 49.8122 33.2123C50.5372 32.6136 50.9998 31.7112 50.9998 30.7033ZM29.5398 23.9292C30.5142 23.9292 31.3071 24.7172 31.3071 25.6855C31.3071 26.6539 30.5142 27.4417 29.5398 27.4417C28.5654 27.4417 27.7726 26.6538 27.7726 25.6855C27.7726 24.7171 28.5655 23.9292 29.5398 23.9292ZM29.5398 28.947H44.9542C44.6266 29.4544 44.4357 30.057 44.4357 30.7033C44.4357 31.3497 44.6266 31.9521 44.9542 32.4595H29.5398C28.5655 32.4595 27.7726 31.6717 27.7726 30.7033C27.7726 29.735 28.5655 28.947 29.5398 28.947ZM29.5398 33.9651C30.5142 33.9651 31.3071 34.7531 31.3071 35.7214C31.3071 36.6897 30.5142 37.4776 29.5398 37.4776C28.5654 37.4776 27.7726 36.6897 27.7726 35.7214C27.7726 34.7531 28.5655 33.9651 29.5398 33.9651ZM44.9542 42.4954H29.5398C28.5654 42.4954 27.7726 41.7075 27.7726 40.7392C27.7726 39.7709 28.5655 38.9829 29.5398 38.9829H44.9542C44.6266 39.4903 44.4357 40.0929 44.4357 40.7392C44.4357 41.3855 44.6266 41.988 44.9542 42.4954ZM47.7178 42.4954C46.7434 42.4954 45.9505 41.7075 45.9505 40.7392C45.9505 39.7709 46.7434 38.9829 47.7178 38.9829C48.6922 38.9829 49.4851 39.7708 49.4851 40.7392C49.4851 41.7076 48.6922 42.4954 47.7178 42.4954ZM47.7178 37.4776H32.3034C32.631 36.9702 32.822 36.3677 32.822 35.7214C32.822 35.0751 32.631 34.4725 32.3034 33.9651H47.7178C48.6922 33.9651 49.4851 34.7531 49.4851 35.7214C49.4851 36.6897 48.6922 37.4776 47.7178 37.4776ZM47.7178 32.4595C46.7434 32.4595 45.9505 31.6717 45.9505 30.7033C45.9505 29.735 46.7434 28.947 47.7178 28.947C48.6922 28.947 49.4851 29.7349 49.4851 30.7033C49.4851 31.6717 48.6922 32.4595 47.7178 32.4595ZM47.7178 27.4417H32.3034C32.631 26.9343 32.822 26.3319 32.822 25.6855C32.822 25.0392 32.631 24.4366 32.3034 23.9292H47.7178C48.6922 23.9292 49.4851 24.7171 49.4851 25.6855C49.4851 26.6539 48.6922 27.4417 47.7178 27.4417Z" fill="#454545"/>
</svg>
