<svg width="50" height="44" viewBox="0 0 50 44" fill="none" xmlns="http://www.w3.org/2000/svg">
<path fill-rule="evenodd" clip-rule="evenodd" d="M25.7008 0C30.1754 0 34.3375 1.33496 37.8102 3.62891L36.6051 5.23193C33.4684 3.18799 29.7242 2 25.7008 2C14.6559 2 5.7008 10.9541 5.7008 22C5.7008 23.8657 5.95666 25.6724 6.43517 27.3857L8.72423 25.0352C8.84923 24.9194 8.99572 24.8413 9.15002 24.8008C9.37463 24.7417 9.61486 24.7622 9.82775 24.8613C9.94103 24.9141 10.0465 24.9893 10.1383 25.0869C10.5133 25.4917 10.4899 26.1245 10.0856 26.5005L5.92736 30.6689L0.540641 27.8481C0.276969 27.7109 0.0992345 27.4722 0.0308751 27.2046C-0.0277186 26.9761 -0.00428113 26.7261 0.112906 26.5C0.263297 26.2109 0.534781 26.0254 0.831656 25.9741C1.03869 25.9385 1.25939 25.9678 1.46056 26.0723L4.42736 27.6309C4.22423 26.8647 4.06213 26.0825 3.94298 25.2861C3.87853 24.8506 3.8258 24.4106 3.78673 23.9668C3.73009 23.3188 3.7008 22.6631 3.7008 22C3.7008 9.84961 13.5504 0 25.7008 0ZM48.109 11.0562L44.6578 10.8286C46.5914 14.103 47.7008 17.9219 47.7008 22C47.7008 34.1504 37.8512 44 25.7008 44C19.5094 44 13.9176 41.4434 9.91955 37.3281L11.3531 35.9331C14.9879 39.6753 20.0719 42 25.7008 42C36.7457 42 45.7008 33.0459 45.7008 22C45.7008 18.3394 44.7164 14.9087 42.9996 11.957L41.8903 14.9521C41.6735 15.46 41.0856 15.6953 40.5778 15.478C40.2828 15.3521 40.0797 15.1006 40.0055 14.812C39.9508 14.6045 39.9625 14.3779 40.0524 14.1655L42.1617 8.66748L48.2281 9.06006C48.5582 9.07959 48.8414 9.25732 49.0094 9.51465C49.1207 9.6875 49.1813 9.89648 49.1676 10.1182C49.1344 10.6694 48.6598 11.0894 48.109 11.0562ZM20.6735 22.0049C20.6735 19.0581 22.6871 17 25.5719 17C28.3766 17 30.3356 18.9971 30.3356 21.8574C30.3356 25.2959 27.7867 26.8623 25.4176 26.8623C22.6246 26.8623 20.6735 24.8647 20.6735 22.0049ZM22.9391 21.9492C22.9391 23.7847 24.0133 25.1167 25.4957 25.1167C26.9762 25.1167 28.0504 23.769 28.0524 21.9126C28.0524 21.3647 27.9195 20.5723 27.5387 19.9175C27.3883 19.6592 27.1988 19.4224 26.9645 19.2305C26.6051 18.9351 26.1363 18.7451 25.5328 18.7451C23.7418 18.7451 22.9391 20.3545 22.9391 21.9492ZM16.8961 17.0371C17.5524 17.0371 18.2399 17.1377 18.8336 17.3208C18.943 17.3545 19.0387 17.3989 19.1207 17.4526C19.1891 17.4971 19.2477 17.5474 19.2945 17.6025C19.4137 17.7402 19.4645 17.9077 19.4332 18.084L19.4274 18.1133L19.236 18.7324C19.1168 19.1196 18.8629 19.1772 18.7223 19.1772C18.6266 19.1772 18.5406 19.1514 18.4762 19.1274L18.4332 19.1104L18.4117 19.1016C17.986 18.9385 17.4762 18.856 16.8961 18.856C16.4703 18.856 16.0817 18.9219 15.732 19.0464C15.3707 19.1753 15.0543 19.3677 14.7906 19.6157C14.2086 20.1597 13.8785 20.9707 13.8785 21.9678C13.8785 23.8071 15.068 25.043 16.8395 25.043C17.0582 25.043 17.2574 25.0298 17.4391 25.0078C17.5934 24.9888 17.736 24.9639 17.8649 24.9355C18.1129 24.8813 18.3141 24.8149 18.4703 24.7573C18.5387 24.7324 18.6402 24.6997 18.7535 24.6997C18.8981 24.6997 19.0211 24.7515 19.1129 24.8447C19.1871 24.9194 19.2418 25.021 19.2692 25.1445L19.4098 25.7485C19.4235 25.8872 19.4098 25.9995 19.3785 26.0903C19.3336 26.2217 19.2555 26.3081 19.1754 26.3662C19.0934 26.4253 19.0094 26.4556 18.9586 26.4741C18.7906 26.5347 18.5445 26.6118 18.2301 26.6816C17.7906 26.7793 17.2145 26.8623 16.5309 26.8623C13.5895 26.8623 11.6129 24.9253 11.6129 22.042C11.6129 19.0952 13.7867 17.0371 16.8961 17.0371ZM37.7535 25.2739H35.7145C35.3531 25.2739 35.5309 25.1055 35.6207 25.022C36.4293 24.2646 37.1324 23.5547 37.6285 22.8276C37.8785 22.46 38.0778 22.0884 38.2106 21.7041C38.3336 21.3481 38.4 20.9814 38.4 20.5977C38.4 19.2046 37.4547 17.7993 35.3453 17.7993C35.1363 17.7993 34.9293 17.8135 34.7262 17.8413C34.1246 17.9243 33.5504 18.1284 33.0426 18.4434C32.6207 18.7056 32.4606 19.0903 32.6344 19.4263L32.8043 19.7881L32.816 19.8115C32.9176 19.9937 33.1051 20.1021 33.316 20.1021C33.5367 20.1021 33.7203 19.9878 33.8434 19.9111C34.2613 19.6509 34.6871 19.519 35.107 19.519C35.9801 19.519 36.4059 19.9175 36.4059 20.7334C36.3942 21.8003 35.4899 22.7964 33.3297 24.7656C33.2281 24.8496 32.6324 25.3438 32.3668 25.666C32.2281 25.8325 32.232 26.0454 32.234 26.2329L32.236 26.3076C32.236 26.5273 32.3317 26.6963 32.4762 26.8115C32.6285 26.9321 32.8317 26.9937 33.0348 26.9937H37.7457L37.8707 27C38.3824 27 38.6129 26.686 38.6129 26.3745V25.9785C38.6129 25.8442 38.5758 25.7285 38.5133 25.6313C38.4762 25.5762 38.4313 25.5273 38.3805 25.4849C38.2184 25.3477 37.986 25.2759 37.7535 25.2739Z" fill="#454545"/>
</svg>
