<svg width="181" height="46" viewBox="0 0 181 46" fill="none" xmlns="http://www.w3.org/2000/svg">
<path d="M170.941 14.8C169.041 14.8 167.241 15.4 165.641 16.4C165.241 14.6 164.741 12.9 164.041 11.3C162.241 7.1 159.941 4.9 157.541 4.9C155.141 4.9 152.841 7.2 151.041 11.3C150.741 11.9 150.541 12.6 150.341 13.3C149.841 13.2 149.241 13.1 148.741 13L147.141 7.1C147.041 6.8 146.741 6.5 146.441 6.5C146.141 6.5 145.841 6.7 145.741 7.1L144.041 13.3C142.841 13.6 141.641 14.2 140.541 14.9L140.341 15.1L140.241 14.8C139.741 12.4 139.041 10.2 138.141 8.2C135.941 2.9 133.041 0 129.941 0C126.841 0 123.941 2.9 121.741 8.2C120.941 10.1 120.241 12.1 119.741 14.4H119.341L116.241 2.8C116.141 2.5 115.841 2.2 115.541 2.2C115.241 2.2 114.841 2.4 114.741 2.8L106.041 34.8C105.941 35 106.041 35.3 106.141 35.5C106.241 35.7 106.541 35.8 106.741 35.8H114.641V43.6H116.141V35.8H124.041C124.241 35.8 124.541 35.7 124.641 35.5C124.741 35.3 124.841 35.2 124.841 35V34.7L125.141 34.8C126.341 35.4 127.641 35.7 128.941 35.8H129.141V43.6H130.641V35.8H130.841C133.241 35.6 135.441 34.7 137.341 33.1L137.541 33L137.641 33.2C139.741 35.9 142.941 37.6 146.341 37.9H146.541V43.8H148.041V37.9H148.241C151.741 37.6 154.741 35.9 156.841 33.3L156.941 43.8C157.341 43.8 158.441 43.8 158.441 43.8L158.341 32.9C160.241 32.7 162.041 32 163.441 30.8C165.141 32.9 167.541 34.2 170.241 34.4V43.8H171.741V34.4C176.741 34 180.641 29.8 180.641 24.7C180.641 19.1 176.341 14.8 170.941 14.8ZM146.441 10.1L147.141 12.8C146.641 12.8 146.141 12.8 145.641 12.9L146.441 10.1ZM116.241 34.3V23.4C116.241 23 115.941 22.6 115.441 22.6C114.941 22.6 114.741 23 114.741 23.4V34.3H107.841L115.441 5.9L118.941 18.7C118.641 20.6 118.541 22.5 118.541 24.3C118.541 27.8 120.141 31.1 122.841 33.3H122.941L123.141 34.2H116.241V34.3ZM130.941 34.2H130.741V20.7H129.241V34.3H129.041C123.941 33.8 120.141 29.5 120.141 24.4C120.141 19.2 121.241 13.4 123.141 8.9C125.141 4.3 127.541 1.6 129.941 1.6C132.341 1.6 134.741 4.3 136.741 8.9C138.641 13.4 139.741 19.2 139.741 24.4C139.841 29.5 136.041 33.7 130.941 34.2ZM148.241 36.2H148.041V25.3C148.041 24.9 147.741 24.5 147.241 24.5C146.841 24.5 146.441 24.8 146.441 25.3V36.2H146.241C143.241 35.9 140.441 34.4 138.641 31.9L138.541 31.8L138.641 31.7C140.341 29.6 141.241 27 141.241 24.4C141.241 22 141.041 19.5 140.541 16.9V16.8L140.641 16.7C142.541 15.2 144.841 14.4 147.241 14.4C153.241 14.4 158.041 19.3 158.041 25.3C158.141 30.9 153.841 35.7 148.241 36.2ZM158.341 31.2C158.241 31.3 158.041 31.4 157.941 31.6C159.041 29.8 159.641 27.6 159.641 25.3C159.641 20 156.341 15.6 151.841 13.7C152.041 13 152.241 12.4 152.541 11.8C154.041 8.3 155.841 6.3 157.641 6.3C159.441 6.3 161.241 8.3 162.741 11.8C164.241 15.3 165.041 19.7 165.041 23.7C165.041 27.6 162.141 30.8 158.341 31.2ZM171.741 32.7V24.5C171.741 24.1 171.441 23.8 171.041 23.8C170.641 23.8 170.341 24.1 170.341 24.5V32.7C168.041 32.5 165.941 31.3 164.541 29.5C165.841 27.9 166.641 25.9 166.641 23.8C166.641 21.9 166.441 20 166.141 18C167.541 16.9 169.341 16.3 171.141 16.3C175.641 16.3 179.341 20 179.341 24.5C179.141 28.8 175.841 32.3 171.741 32.7Z" fill="#454545"/>
<path d="M55 26.5249C55 19.5546 49.3765 13.884 42.4643 13.884C40.0138 13.884 37.6163 14.6161 35.583 15.9618C35.0551 13.6303 34.3532 11.3841 33.5056 9.37422C31.2281 3.97413 28.2454 1 25.1071 1C21.9654 1 18.9827 3.96186 16.7091 9.33994C15.9081 11.2345 15.2371 13.3437 14.7201 15.5401L11.5731 3.90436C11.4586 3.48138 11.0776 3.18785 10.6429 3.18785C10.2081 3.18785 9.82695 3.48138 9.71256 3.90449L1.03398 35.9929C0.954913 36.2852 1.01554 36.5981 1.19791 36.8388C1.3804 37.0798 1.66378 37.221 1.96428 37.221H9.67857V45C10.2111 45 11.6071 45 11.6071 45V37.221H19.3214C19.6219 37.221 19.9053 37.0798 20.0877 36.8387C20.2362 36.6427 20.3023 36.399 20.2798 36.1573C21.4729 36.711 22.7744 37.0659 24.1429 37.1802V45C24.6754 45 26.0714 45 26.0714 45V37.1803C28.5747 36.9713 30.8548 35.9567 32.6551 34.3944C34.8264 37.1445 38.0291 38.8576 41.5 39.127V45H43.4286V39.1287C49.8919 38.6306 55 33.1679 55 26.5249ZM18.0589 35.2762H11.6071V33.7343V30.9838V24.5801C11.6071 24.0431 11.1754 23.6077 10.6429 23.6077C10.1103 23.6077 9.67857 24.0431 9.67857 24.5801V29.0392V31.7895V33.3308C9.67857 33.3311 9.67857 33.3316 9.67857 33.332V35.2762H3.22677L10.6429 7.85573L13.91 19.9354C13.6558 21.8246 13.5206 23.7168 13.5206 25.5372C13.5206 29.2332 15.2318 32.5333 17.8966 34.6758L18.0589 35.2762ZM26.0714 33.7343V30.9838V26.9277V24.1772V21.663C26.0714 21.663 24.6754 21.663 24.1429 21.663V26.5243C24.1429 26.5246 24.1429 26.5251 24.1429 26.5255V29.0391V31.7895V33.3308C24.1429 33.3311 24.1429 33.3316 24.1429 33.332V35.2274C19.2686 34.7378 15.4492 30.5789 15.4492 25.5372C15.4492 20.3661 16.5833 14.596 18.4831 10.1027C20.4064 5.55376 22.8207 2.94475 25.1071 2.94475C27.3894 2.94475 29.8036 5.56567 31.7308 10.1353C33.6308 14.6404 34.7651 20.3982 34.7651 25.5373C34.7651 30.5792 30.9457 34.738 26.0714 35.2275V33.7343ZM43.4286 37.1764V35.6792V32.9286V26.5249C43.4286 25.9879 42.9968 25.5525 42.4643 25.5525C41.9318 25.5525 41.5 25.9879 41.5 26.5249V30.9839V33.7343V35.2755C41.5 35.2759 41.5 35.2764 41.5 35.2767V37.1765C38.5423 36.905 35.8271 35.3926 34.0188 32.9955C35.6882 30.9707 36.6936 28.3702 36.6936 25.5372C36.6936 23.1121 36.4514 20.5545 36.0038 18.0431C37.8486 16.6137 40.1281 15.8287 42.4643 15.8287C48.313 15.8287 53.0714 20.627 53.0714 26.5249C53.0714 32.0949 48.8271 36.6834 43.4286 37.1764Z" fill="#454545" stroke="#ECE3DA" stroke-width="0.4"/>
<path d="M88.6745 18.2256C88.3777 17.9248 87.8835 17.9248 87.5763 18.2256C87.2794 18.5162 87.2794 18.9999 87.5763 19.2899L93.1451 24.7413H64.7688C64.3405 24.7419 64 25.0752 64 25.4946C64 25.9139 64.3405 26.2581 64.7688 26.2581H93.1451L87.5763 31.6993C87.2794 32.0001 87.2794 32.4845 87.5763 32.7744C87.8835 33.0752 88.3783 33.0752 88.6745 32.7744L95.5616 26.0325C95.8689 25.7418 95.8689 25.2582 95.5616 24.9682L88.6745 18.2256Z" fill="#454545"/>
</svg>
