<svg width="117" height="46" viewBox="0 0 117 46" fill="none" xmlns="http://www.w3.org/2000/svg">
<path d="M107.169 20.674C107.541 19.4065 107.657 18.0978 107.657 16.8118C107.657 8.09306 100.437 1 91.5609 1C88.0588 1 84.7292 2.0862 81.9324 4.14147C79.2295 6.1273 77.1911 8.95646 76.1924 12.1085C76.1594 12.2128 76.0457 12.4528 75.5858 12.3778C75.5452 12.3711 75.5025 12.3722 75.4592 12.3693C75.308 12.3598 75.144 12.3517 74.9747 12.3517C69.7108 12.3517 65.0148 15.6954 63.215 20.6968C63.1882 20.7712 63.1062 20.9465 62.8889 20.9051C62.8668 20.9009 62.8448 20.8962 62.8227 20.892C62.025 20.7348 61.2071 20.6554 60.3914 20.6554C53.5586 20.6554 48 26.1159 48 32.8278C48 39.5396 53.5586 45 60.3911 45H103.608C110.441 45 116 39.5396 116 32.8278C116 27.5651 112.493 22.8583 107.424 21.2472C107.299 21.2076 107.037 21.1228 107.169 20.674ZM103.608 42.7358H60.3911C54.8297 42.7358 50.3049 38.2913 50.3049 32.8278C50.3049 27.3645 54.8296 22.9196 60.3911 22.9196C61.0735 22.9196 61.7575 22.988 62.4236 23.1228C62.6412 23.1669 62.8599 23.1891 63.0731 23.1891C64.1523 23.1891 64.9935 22.6088 65.3232 21.637C66.7477 17.4375 70.6262 14.6158 74.9745 14.6158C75.1147 14.6158 75.2679 14.626 75.4301 14.6368C75.6067 14.6486 75.7895 14.6607 75.9855 14.6625L76.0262 14.6626C77.3618 14.6626 78.1529 14.0587 78.3769 12.8676C78.3832 12.8338 78.3883 12.8013 78.3934 12.7808C80.1971 7.08852 85.4888 3.26417 91.5609 3.26417C99.1656 3.26417 105.352 9.34167 105.352 16.8118C105.352 18.0938 105.161 19.3908 104.784 20.6668C104.601 21.2882 104.642 21.8408 104.908 22.3095C105.303 23.0061 106.013 23.2008 106.355 23.2944L106.409 23.3094C110.699 24.5245 113.695 28.4385 113.695 32.8278C113.695 38.2911 109.17 42.7358 103.608 42.7358Z" fill="#454545" stroke="#F2ECE5" stroke-width="0.3"/>
<path d="M77.0975 23.5942C76.4364 23.3847 75.6697 23.2695 74.9382 23.2695C71.4683 23.2695 69.0449 25.624 69.0449 28.995C69.0449 32.2936 71.2492 34.5096 74.5299 34.5096C75.8371 34.5096 76.7868 34.2318 77.2366 34.0659C77.3902 34.0093 77.7982 33.8586 77.7404 33.2357L77.5834 32.5446C77.5135 32.226 77.2983 32.0358 77.0085 32.0358C76.8821 32.0358 76.768 32.0732 76.6934 32.1015C76.3204 32.2419 75.726 32.4286 74.8735 32.4286C72.8985 32.4286 71.5716 31.0148 71.5716 28.9105C71.5716 26.7479 72.8931 25.3505 74.9381 25.3505C75.5842 25.3505 76.1526 25.445 76.6273 25.6314L76.6519 25.6412C76.7269 25.6718 76.8401 25.718 76.9733 25.718C77.1305 25.718 77.4143 25.6517 77.547 25.209L77.7592 24.5008L77.7672 24.467C77.8345 24.087 77.5714 23.7444 77.0975 23.5942Z" fill="#454545" stroke="#F2ECE5" stroke-width="0.3"/>
<path d="M84.6158 23.2266C81.3992 23.2266 79.1523 25.581 79.1523 28.9522C79.1523 32.2239 81.3284 34.5089 84.444 34.5089C87.0857 34.5089 89.9289 32.7172 89.9289 28.7833C89.9289 25.5114 87.7441 23.2266 84.6158 23.2266ZM84.5301 32.5121C82.8782 32.5121 81.6792 30.9882 81.6792 28.8887C81.6792 27.064 82.574 25.223 84.573 25.223C86.7939 25.223 87.3809 27.5932 87.3809 28.8465C87.3807 30.9705 86.182 32.5121 84.5301 32.5121Z" fill="#454545" stroke="#F2ECE5" stroke-width="0.3"/>
<path d="M98.2007 32.6917H95.926C95.5227 32.6917 95.7221 32.4987 95.8214 32.4033C97.6023 30.6936 98.9218 29.1928 98.9218 27.342C98.9218 25.7485 97.8685 24.1406 95.5148 24.1406C94.5933 24.1406 93.7054 24.3954 92.9473 24.8774C92.4752 25.1776 92.2974 25.6175 92.4912 26.0018L92.6814 26.4157L92.6951 26.4428C92.8082 26.6508 93.0163 26.7749 93.2515 26.7749C93.4978 26.7749 93.7022 26.6445 93.8402 26.5563C94.3061 26.2587 94.7799 26.1079 95.2484 26.1079C96.2232 26.1079 96.6971 26.5639 96.6971 27.4975C96.6845 28.7176 95.6752 29.8575 93.2664 32.1102C93.1527 32.2062 92.4883 32.7715 92.192 33.1403C92.039 33.3309 92.0426 33.5741 92.0459 33.7886L92.0468 33.8743C92.0468 34.3895 92.495 34.6589 92.9379 34.6589H98.1913C98.2248 34.6624 98.2734 34.6662 98.3306 34.6662C98.9026 34.6662 99.1588 34.3069 99.1588 33.9508V33.498C99.1589 32.9742 98.6791 32.6959 98.2007 32.6917Z" fill="#454545" stroke="#F2ECE5" stroke-width="0.3"/>
<path d="M0.381676 27.9788C2.03805 29.3948 3.91536 30.9999 7.54667 30.9999C11.1781 30.9999 13.0555 29.3948 14.7119 27.9788C16.2784 26.6396 17.6313 25.483 20.453 25.483C23.2749 25.483 24.6277 26.6396 26.1941 27.9788C26.6527 28.3707 27.3432 28.3181 27.7364 27.8611C28.1297 27.404 28.0769 26.7158 27.6183 26.3239C25.9619 24.9078 24.0844 23.3027 20.453 23.3027C16.8216 23.3027 14.9442 24.9078 13.2878 26.3239C11.7213 27.663 10.3684 28.8196 7.54667 28.8196C4.72496 28.8196 3.37226 27.6631 1.8059 26.3239C1.3474 25.9319 0.656919 25.9845 0.263606 26.4416C-0.129707 26.8985 -0.0768238 27.5868 0.381676 27.9788Z" fill="#454545"/>
<path d="M0.381676 18.676C2.038 20.0921 3.91531 21.6972 7.54667 21.6972C11.1781 21.6972 13.0555 20.0921 14.7119 18.676C16.2784 17.3369 17.6312 16.1803 20.453 16.1803C23.2747 16.1803 24.6276 17.3368 26.1941 18.676C26.6527 19.0681 27.3431 19.0153 27.7364 18.5582C28.1297 18.1013 28.0767 17.4129 27.6182 17.021C25.9618 15.6049 24.0843 14 20.453 14C16.8216 14 14.9442 15.605 13.2878 17.0211C11.7213 18.3603 10.3684 19.5169 7.54667 19.5169C4.72501 19.5169 3.37226 18.3603 1.8059 17.0211C1.3474 16.6291 0.656864 16.6818 0.263606 17.1388C-0.129707 17.5958 -0.0768238 18.2841 0.381676 18.676Z" fill="#454545"/>
</svg>
