<svg width="40" height="46" viewBox="0 0 40 46" fill="none" xmlns="http://www.w3.org/2000/svg">
<path d="M37.2477 0H2.75231C1.23468 0 0 1.20912 0 2.69531V20.1712V20.1758V36.0247C0 36.5209 0.410828 36.9231 0.917435 36.9231C1.42404 36.9231 1.83487 36.5209 1.83487 36.0247V21.8748L1.84496 21.8815C5.54342 24.3453 8.3205 27.8187 9.87564 31.9262C11.8993 37.2706 15.8471 41.6151 20.9346 44.2029H10.399L9.62133 43.3938C7.73728 41.434 6.69966 38.8723 6.69966 36.1807C6.69966 35.6845 6.28884 35.2823 5.78223 35.2823C5.27562 35.2823 4.86479 35.6845 4.86479 36.1807C4.86479 39.142 5.93773 41.9688 7.89747 44.2028H2.75231C2.24643 44.2028 1.83487 43.7997 1.83487 43.3043V32.6392C1.83487 32.1429 1.42404 31.7407 0.917435 31.7407C0.410828 31.7407 0 32.1429 0 32.6392V43.3044C0 44.7906 1.23468 45.9997 2.75231 45.9997H25.5923C25.5944 45.9997 25.5965 46 25.5986 46C25.6009 46 25.6032 45.9997 25.6056 45.9997H37.2477C38.7653 45.9997 40 44.7906 40 43.3044V2.69531C40 1.20912 38.7653 0 37.2477 0ZM38.1652 11.0599C37.2487 10.5508 36.2229 10.2798 35.1558 10.2798C33.4123 10.2798 31.7776 11 30.5528 12.3077C28.074 14.9545 28.074 19.2612 30.5528 21.908C31.7776 23.2157 33.4123 23.936 35.1558 23.936C36.2228 23.936 37.2487 23.6649 38.1652 23.1559V31.817C37.4471 32.757 36.6637 33.5994 35.8323 34.3208C35.453 34.6498 35.4179 35.2176 35.7539 35.589C35.9353 35.7894 36.1876 35.8917 36.441 35.8917C36.6572 35.8917 36.8744 35.8172 37.049 35.6657C37.4312 35.3342 37.8036 34.98 38.1652 34.606V43.3044C38.1651 43.7998 37.7536 44.2029 37.2477 44.2029H25.7566L24.5108 43.7701C18.5149 41.6874 13.8079 37.1427 11.5961 31.3014C9.90766 26.8418 6.89251 23.0708 2.87699 20.3957L1.83496 19.7016V2.69531C1.83496 2.19991 2.24652 1.79688 2.7524 1.79688H4.15213C5.25736 4.10478 5.84113 6.65769 5.84113 9.20629V11.5934C5.84113 12.0896 6.25196 12.4919 6.75856 12.4919C7.26517 12.4919 7.676 12.0896 7.676 11.5934V9.20629C7.676 6.67332 7.15279 4.1365 6.15774 1.79688H15.8901C12.8812 5.93499 11.2255 11.3761 11.2255 17.1487C11.2255 23.0039 12.9279 28.5189 16.0189 32.6782C19.1739 36.9235 23.3964 39.2615 27.9088 39.2615C28.4154 39.2615 28.8262 38.8593 28.8262 38.3631C28.8262 37.8669 28.4154 37.4647 27.9088 37.4647C23.9986 37.4647 20.3031 35.3893 17.5025 31.6209C11.5719 23.6409 11.5719 10.6565 17.5026 2.67645C17.7274 2.37385 17.9608 2.07943 18.1988 1.79679H37.2478C37.7537 1.79679 38.1652 2.19982 38.1652 2.69522V11.0599ZM38.1651 13.2839V20.9322C37.3259 21.7123 36.2696 22.1393 35.1557 22.1393C33.9325 22.1393 32.778 21.6259 31.905 20.6937C30.0534 18.7166 30.0534 15.4996 31.905 13.5224C32.778 12.5902 33.9325 12.0768 35.1557 12.0768C36.2696 12.0769 37.3259 12.5038 38.1651 13.2839Z" fill="#454545"/>
<path d="M25.1488 6.57262C24.8219 6.1977 24.2443 6.15879 23.859 6.48571C22.3531 7.76329 21.1689 9.47505 20.4345 11.4358C20.2589 11.9047 20.5007 12.4196 20.9747 12.586C21.1879 12.6609 21.4117 12.6524 21.6095 12.5778C21.8513 12.4865 22.0541 12.2962 22.1507 12.0383C22.776 10.3686 23.776 8.91805 25.0427 7.84363C25.4281 7.51664 25.4756 6.94758 25.1488 6.57262Z" fill="#454545"/>
<path d="M28.6724 28.6401C26.8934 28.1271 25.2586 27.063 23.9449 25.5629C20.9645 22.1598 20.0659 17.0685 21.6556 12.5922C21.8219 12.1236 21.569 11.6115 21.0904 11.4485C20.6112 11.2856 20.089 11.5333 19.9226 12.0021C18.1224 17.071 19.1546 22.8531 22.5521 26.7327C24.0973 28.497 26.0343 29.7526 28.1541 30.364C28.2407 30.3889 28.3279 30.4008 28.4137 30.4008C28.8101 30.4008 29.1758 30.1472 29.2934 29.7559C29.4364 29.2798 29.1585 28.7803 28.6724 28.6401Z" fill="#454545"/>
</svg>
