<svg width="28" height="17" viewBox="0 0 28 17" fill="none" xmlns="http://www.w3.org/2000/svg">
<path d="M0.381676 13.9788C2.03805 15.3948 3.91536 16.9999 7.54667 16.9999C11.1781 16.9999 13.0555 15.3948 14.7119 13.9788C16.2784 12.6396 17.6313 11.483 20.453 11.483C23.2749 11.483 24.6277 12.6396 26.1941 13.9788C26.6527 14.3707 27.3432 14.3181 27.7364 13.8611C28.1297 13.404 28.0769 12.7158 27.6183 12.3239C25.9619 10.9078 24.0844 9.30273 20.453 9.30273C16.8216 9.30273 14.9442 10.9078 13.2878 12.3239C11.7213 13.663 10.3684 14.8196 7.54667 14.8196C4.72496 14.8196 3.37226 13.6631 1.8059 12.3239C1.3474 11.9319 0.656919 11.9845 0.263606 12.4416C-0.129707 12.8985 -0.0768238 13.5868 0.381676 13.9788Z" fill="#454545"/>
<path d="M0.381676 4.67604C2.038 6.09214 3.91531 7.69717 7.54667 7.69717C11.1781 7.69717 13.0555 6.09214 14.7119 4.67604C16.2784 3.3369 17.6312 2.1803 20.453 2.1803C23.2747 2.1803 24.6276 3.33684 26.1941 4.67604C26.6527 5.06811 27.3431 5.01529 27.7364 4.55825C28.1297 4.10126 28.0767 3.41293 27.6182 3.02103C25.9618 1.60492 24.0843 0 20.453 0C16.8216 0 14.9442 1.60503 13.2878 3.02113C11.7213 4.36028 10.3684 5.51687 7.54667 5.51687C4.72501 5.51687 3.37226 4.36033 1.8059 3.02113C1.3474 2.62912 0.656864 2.68177 0.263606 3.13882C-0.129707 3.59581 -0.0768238 4.28407 0.381676 4.67604Z" fill="#454545"/>
</svg>
