<svg width="52" height="44" viewBox="0 0 52 44" fill="none" xmlns="http://www.w3.org/2000/svg">
<path fill-rule="evenodd" clip-rule="evenodd" d="M49.1122 22C49.1122 33.0459 40.1572 42 29.1122 42C25.7841 42 22.6454 41.187 19.8857 39.749L18.9267 41.5054C21.9716 43.0986 25.4365 44 29.1122 44C41.2626 44 51.1122 34.1504 51.1122 22C51.1122 9.84961 41.2626 0 29.1122 0C16.9618 0 7.11224 9.84961 7.11224 22C7.11224 22.52 7.12981 23.0361 7.16497 23.5469C7.19036 23.9014 7.22356 24.2534 7.26458 24.603C7.38177 25.5991 7.56536 26.5742 7.81146 27.5249L1.45989 23.7026C1.18646 23.5605 0.877861 23.5576 0.614189 23.6675C0.506768 23.7129 0.405205 23.7769 0.319268 23.8584C0.237236 23.9346 0.166924 24.0254 0.112236 24.1304C-0.14167 24.6211 0.0497363 25.2246 0.539971 25.4785L9.3388 30.6689L16.3759 24.1299C16.7802 23.7544 16.8036 23.1216 16.4267 22.7168C16.0517 22.312 15.4189 22.2891 15.0146 22.665L9.86419 27.4502C9.37395 25.7178 9.11224 23.8896 9.11224 22C9.11224 10.9541 18.0673 2 29.1122 2C40.1572 2 49.1122 10.9541 49.1122 22ZM29.1142 25C30.7704 25 32.1142 23.6567 32.1142 22C32.1142 20.9209 31.5439 19.9746 30.6884 19.4463C30.2314 19.1631 29.6923 19 29.1142 19C27.4579 19 26.1142 20.3433 26.1142 22C26.1142 22.9473 26.5536 23.792 27.2392 24.3423C27.7529 24.7539 28.4052 25 29.1142 25Z" fill="#454545"/>
</svg>
