<svg width="70" height="46" viewBox="0 0 70 46" fill="none" xmlns="http://www.w3.org/2000/svg">
<path d="M60.1691 20.674C60.5408 19.4065 60.6573 18.0978 60.6573 16.8118C60.6573 8.09306 53.4365 1 44.5609 1C41.0588 1 37.7292 2.0862 34.9324 4.14147C32.2295 6.1273 30.1911 8.95646 29.1924 12.1085C29.1594 12.2128 29.0457 12.4528 28.5858 12.3778C28.5452 12.3711 28.5025 12.3722 28.4592 12.3693C28.308 12.3598 28.144 12.3517 27.9747 12.3517C22.7108 12.3517 18.0148 15.6954 16.215 20.6968C16.1882 20.7712 16.1062 20.9465 15.8889 20.9051C15.8668 20.9009 15.8448 20.8962 15.8227 20.892C15.025 20.7348 14.2071 20.6554 13.3914 20.6554C6.55862 20.6554 1 26.1159 1 32.8278C1 39.5396 6.55862 45 13.3911 45H56.6084C63.4412 45 69 39.5396 69 32.8278C69 27.5651 65.4931 22.8583 60.4239 21.2472C60.299 21.2076 60.0374 21.1228 60.1691 20.674ZM56.6084 42.7358H13.3911C7.82972 42.7358 3.30495 38.2913 3.30495 32.8278C3.30495 27.3645 7.82957 22.9196 13.3911 22.9196C14.0735 22.9196 14.7575 22.988 15.4236 23.1228C15.6412 23.1669 15.8599 23.1891 16.0731 23.1891C17.1523 23.1891 17.9935 22.6088 18.3232 21.637C19.7477 17.4375 23.6262 14.6158 27.9745 14.6158C28.1147 14.6158 28.2679 14.626 28.4301 14.6368C28.6067 14.6486 28.7895 14.6607 28.9855 14.6625L29.0262 14.6626C30.3618 14.6626 31.1529 14.0587 31.3769 12.8676C31.3832 12.8338 31.3883 12.8013 31.3934 12.7808C33.1971 7.08852 38.4888 3.26417 44.5609 3.26417C52.1656 3.26417 58.3524 9.34167 58.3524 16.8118C58.3524 18.0938 58.1612 19.3908 57.7843 20.6668C57.6008 21.2882 57.6423 21.8408 57.908 22.3095C58.3029 23.0061 59.0131 23.2008 59.3546 23.2944L59.4086 23.3094C63.6989 24.5245 66.6952 28.4385 66.6952 32.8278C66.6949 38.2911 62.1701 42.7358 56.6084 42.7358Z" fill="#454545" stroke="#F2ECE5" stroke-width="0.3"/>
<path d="M30.0975 23.5942C29.4364 23.3847 28.6697 23.2695 27.9382 23.2695C24.4683 23.2695 22.0449 25.624 22.0449 28.995C22.0449 32.2936 24.2492 34.5096 27.5299 34.5096C28.8371 34.5096 29.7868 34.2318 30.2366 34.0659C30.3902 34.0093 30.7982 33.8586 30.7404 33.2357L30.5834 32.5446C30.5135 32.226 30.2983 32.0358 30.0085 32.0358C29.8821 32.0358 29.768 32.0732 29.6934 32.1015C29.3204 32.2419 28.726 32.4286 27.8735 32.4286C25.8985 32.4286 24.5716 31.0148 24.5716 28.9105C24.5716 26.7479 25.8931 25.3505 27.9381 25.3505C28.5842 25.3505 29.1526 25.445 29.6273 25.6314L29.6519 25.6412C29.7269 25.6718 29.8401 25.718 29.9733 25.718C30.1305 25.718 30.4143 25.6517 30.547 25.209L30.7592 24.5008L30.7672 24.467C30.8345 24.087 30.5714 23.7444 30.0975 23.5942Z" fill="#454545" stroke="#F2ECE5" stroke-width="0.3"/>
<path d="M37.6158 23.2266C34.3992 23.2266 32.1523 25.581 32.1523 28.9522C32.1523 32.2239 34.3284 34.5089 37.444 34.5089C40.0857 34.5089 42.9289 32.7172 42.9289 28.7833C42.9289 25.5114 40.7441 23.2266 37.6158 23.2266ZM37.5301 32.5121C35.8782 32.5121 34.6792 30.9882 34.6792 28.8887C34.6792 27.064 35.574 25.223 37.573 25.223C39.7939 25.223 40.3809 27.5932 40.3809 28.8465C40.3807 30.9705 39.182 32.5121 37.5301 32.5121Z" fill="#454545" stroke="#F2ECE5" stroke-width="0.3"/>
<path d="M51.2007 32.6917H48.926C48.5227 32.6917 48.7221 32.4987 48.8214 32.4033C50.6023 30.6936 51.9218 29.1928 51.9218 27.342C51.9218 25.7485 50.8685 24.1406 48.5148 24.1406C47.5933 24.1406 46.7054 24.3954 45.9473 24.8774C45.4752 25.1776 45.2974 25.6175 45.4912 26.0018L45.6814 26.4157L45.6951 26.4428C45.8082 26.6508 46.0163 26.7749 46.2515 26.7749C46.4978 26.7749 46.7022 26.6445 46.8402 26.5563C47.3061 26.2587 47.7799 26.1079 48.2484 26.1079C49.2232 26.1079 49.6971 26.5639 49.6971 27.4975C49.6845 28.7176 48.6752 29.8575 46.2664 32.1102C46.1527 32.2062 45.4883 32.7715 45.192 33.1403C45.039 33.3309 45.0426 33.5741 45.0459 33.7886L45.0468 33.8743C45.0468 34.3895 45.495 34.6589 45.9379 34.6589H51.1913C51.2248 34.6624 51.2734 34.6662 51.3306 34.6662C51.9026 34.6662 52.1588 34.3069 52.1588 33.9508V33.498C52.1589 32.9742 51.6791 32.6959 51.2007 32.6917Z" fill="#454545" stroke="#F2ECE5" stroke-width="0.3"/>
</svg>
