<svg width="56" height="46" viewBox="0 0 56 46" fill="none" xmlns="http://www.w3.org/2000/svg">
<path d="M55 26.5249C55 19.5546 49.3765 13.884 42.4643 13.884C40.0138 13.884 37.6163 14.6161 35.583 15.9618C35.0551 13.6303 34.3532 11.3841 33.5056 9.37422C31.2281 3.97413 28.2454 1 25.1071 1C21.9654 1 18.9827 3.96186 16.7091 9.33994C15.9081 11.2345 15.2371 13.3437 14.7201 15.5401L11.5731 3.90436C11.4586 3.48138 11.0776 3.18785 10.6429 3.18785C10.2081 3.18785 9.82695 3.48138 9.71256 3.90449L1.03398 35.9929C0.954913 36.2852 1.01554 36.5981 1.19791 36.8388C1.3804 37.0798 1.66378 37.221 1.96428 37.221H9.67857V45C10.2111 45 11.6071 45 11.6071 45V37.221H19.3214C19.6219 37.221 19.9053 37.0798 20.0877 36.8387C20.2362 36.6427 20.3023 36.399 20.2798 36.1573C21.4729 36.711 22.7744 37.0659 24.1429 37.1802V45C24.6754 45 26.0714 45 26.0714 45V37.1803C28.5747 36.9713 30.8548 35.9567 32.6551 34.3944C34.8264 37.1445 38.0291 38.8576 41.5 39.127V45H43.4286V39.1287C49.8919 38.6306 55 33.1679 55 26.5249ZM18.0589 35.2762H11.6071V33.7343V30.9838V24.5801C11.6071 24.0431 11.1754 23.6077 10.6429 23.6077C10.1103 23.6077 9.67857 24.0431 9.67857 24.5801V29.0392V31.7895V33.3308C9.67857 33.3311 9.67857 33.3316 9.67857 33.332V35.2762H3.22677L10.6429 7.85573L13.91 19.9354C13.6558 21.8246 13.5206 23.7168 13.5206 25.5372C13.5206 29.2332 15.2318 32.5333 17.8966 34.6758L18.0589 35.2762ZM26.0714 33.7343V30.9838V26.9277V24.1772V21.663C26.0714 21.663 24.6754 21.663 24.1429 21.663V26.5243C24.1429 26.5246 24.1429 26.5251 24.1429 26.5255V29.0391V31.7895V33.3308C24.1429 33.3311 24.1429 33.3316 24.1429 33.332V35.2274C19.2686 34.7378 15.4492 30.5789 15.4492 25.5372C15.4492 20.3661 16.5833 14.596 18.4831 10.1027C20.4064 5.55376 22.8207 2.94475 25.1071 2.94475C27.3894 2.94475 29.8036 5.56567 31.7308 10.1353C33.6308 14.6404 34.7651 20.3982 34.7651 25.5373C34.7651 30.5792 30.9457 34.738 26.0714 35.2275V33.7343ZM43.4286 37.1764V35.6792V32.9286V26.5249C43.4286 25.9879 42.9968 25.5525 42.4643 25.5525C41.9318 25.5525 41.5 25.9879 41.5 26.5249V30.9839V33.7343V35.2755C41.5 35.2759 41.5 35.2764 41.5 35.2767V37.1765C38.5423 36.905 35.8271 35.3926 34.0188 32.9955C35.6882 30.9707 36.6936 28.3702 36.6936 25.5372C36.6936 23.1121 36.4514 20.5545 36.0038 18.0431C37.8486 16.6137 40.1281 15.8287 42.4643 15.8287C48.313 15.8287 53.0714 20.627 53.0714 26.5249C53.0714 32.0949 48.8271 36.6834 43.4286 37.1764Z" fill="#454545" stroke="#ECE3DA" stroke-width="0.4"/>
</svg>
