<svg width="21" height="14" viewBox="0 0 21 14" fill="none" xmlns="http://www.w3.org/2000/svg">
<path d="M20.1075 1.34909C19.5379 0.366545 18.9197 0.185818 17.661 0.117091C16.4036 0.0343636 13.2418 0 10.5026 0C7.75819 0 4.59506 0.0343637 3.339 0.115818C2.08294 0.185818 1.46344 0.365273 0.888563 1.34909C0.301875 2.33036 0 4.02055 0 6.99618C0 6.99873 0 7 0 7C0 7.00255 0 7.00382 0 7.00382V7.00636C0 9.96927 0.301875 11.6722 0.888563 12.6433C1.46344 13.6258 2.08162 13.804 3.33769 13.8867C4.59506 13.958 7.75819 14 10.5026 14C13.2418 14 16.4036 13.958 17.6623 13.888C18.921 13.8053 19.5392 13.6271 20.1088 12.6445C20.7008 11.6735 21 9.97054 21 7.00764C21 7.00764 21 7.00382 21 7.00127C21 7.00127 21 6.99873 21 6.99745C21 4.02055 20.7008 2.33036 20.1075 1.34909ZM7.875 10.8182V3.18182L14.4375 7L7.875 10.8182Z" fill="#676766"/>
</svg>
